<svg xmlns="http://www.w3.org/2000/svg" xmlns:xlink="http://www.w3.org/1999/xlink" width="500" zoomAndPan="magnify" viewBox="0 0 375 374.999991" height="500" preserveAspectRatio="xMidYMid meet" version="1.0"><defs><g/><clipPath id="be3b75f165"><path d="M 102.289062 91.734375 L 237.359375 91.734375 L 237.359375 250.253906 L 102.289062 250.253906 Z M 102.289062 91.734375 " clip-rule="nonzero"/></clipPath><clipPath id="653e649095"><path d="M 143 147 L 262 147 L 262 253 L 143 253 Z M 143 147 " clip-rule="nonzero"/></clipPath><clipPath id="186c17a480"><path d="M 146.144531 146.371094 L 264.082031 149.449219 L 261.390625 252.644531 L 143.453125 249.566406 Z M 146.144531 146.371094 " clip-rule="nonzero"/></clipPath><clipPath id="b453dde181"><path d="M 205.113281 147.910156 L 261.390625 252.644531 L 143.453125 249.566406 Z M 205.113281 147.910156 " clip-rule="nonzero"/></clipPath><clipPath id="60eac2bcec"><path d="M 177 166 L 246 166 L 246 242 L 177 242 Z M 177 166 " clip-rule="nonzero"/></clipPath><clipPath id="900d285bdb"><path d="M 179.242188 165.894531 L 247.097656 167.664062 L 245.167969 241.730469 L 177.308594 239.957031 Z M 179.242188 165.894531 " clip-rule="nonzero"/></clipPath><clipPath id="ad7c988dfe"><path d="M 213.167969 166.777344 L 245.167969 241.730469 L 177.308594 239.957031 Z M 213.167969 166.777344 " clip-rule="nonzero"/></clipPath><clipPath id="fc7c30c7b6"><path d="M 168 154 L 266 154 L 266 253 L 168 253 Z M 168 154 " clip-rule="nonzero"/></clipPath><clipPath id="d6797a0a1b"><path d="M 170.773438 153.667969 L 268.449219 156.214844 L 265.933594 252.644531 L 168.257812 250.09375 Z M 170.773438 153.667969 " clip-rule="nonzero"/></clipPath><clipPath id="e0a3695df3"><path d="M 219.613281 154.941406 L 265.933594 252.644531 L 168.257812 250.09375 Z M 219.613281 154.941406 " clip-rule="nonzero"/></clipPath><clipPath id="8102d8f4c6"><path d="M 182 165 L 245 165 L 245 267 L 182 267 Z M 182 165 " clip-rule="nonzero"/></clipPath><clipPath id="1e2c90d8fc"><path d="M 272.703125 255.578125 L 216.507812 276.585938 L 182.984375 186.894531 L 239.179688 165.890625 Z M 272.703125 255.578125 " clip-rule="nonzero"/></clipPath><clipPath id="6c8901a384"><path d="M 244.605469 266.082031 L 182.984375 186.894531 L 239.179688 165.890625 Z M 244.605469 266.082031 " clip-rule="nonzero"/></clipPath><clipPath id="5582acfef4"><path d="M 195 177 L 237 177 L 237 245 L 195 245 Z M 195 177 " clip-rule="nonzero"/></clipPath><clipPath id="578e817d56"><path d="M 255.503906 237.796875 L 217.90625 251.847656 L 195.476562 191.847656 L 233.074219 177.792969 Z M 255.503906 237.796875 " clip-rule="nonzero"/></clipPath><clipPath id="c24a7b974e"><path d="M 236.703125 244.824219 L 195.476562 191.847656 L 233.074219 177.792969 Z M 236.703125 244.824219 " clip-rule="nonzero"/></clipPath></defs><g clip-path="url(#be3b75f165)"><path fill="#000000" d="M 102.347656 91.734375 L 102.347656 97.710938 L 118.371094 97.710938 L 118.371094 244.085938 L 105.445312 244.085938 L 105.445312 250.253906 L 155.601562 250.253906 L 155.601562 244.085938 L 143.242188 244.085938 L 143.242188 169.128906 L 190.460938 169.128906 L 190.460938 160.492188 L 143.242188 160.492188 L 143.242188 97.710938 L 186.921875 97.710938 C 211.226562 97.710938 222.699219 109.542969 227.976562 127.757812 L 237.300781 127.757812 L 237.300781 91.734375 Z M 102.347656 91.734375 " fill-opacity="1" fill-rule="nonzero"/></g><g clip-path="url(#653e649095)"><g clip-path="url(#186c17a480)"><g clip-path="url(#b453dde181)"><path fill="#000000" d="M 146.144531 146.371094 L 264.082031 149.449219 L 261.390625 252.644531 L 143.453125 249.566406 Z M 146.144531 146.371094 " fill-opacity="1" fill-rule="nonzero"/></g></g></g><g clip-path="url(#60eac2bcec)"><g clip-path="url(#900d285bdb)"><g clip-path="url(#ad7c988dfe)"><path fill="#ffffff" d="M 179.242188 165.894531 L 247.097656 167.664062 L 245.167969 241.730469 L 177.308594 239.957031 Z M 179.242188 165.894531 " fill-opacity="1" fill-rule="nonzero"/></g></g></g><g clip-path="url(#fc7c30c7b6)"><g clip-path="url(#d6797a0a1b)"><g clip-path="url(#e0a3695df3)"><path fill="#000000" d="M 170.773438 153.667969 L 268.449219 156.214844 L 265.933594 252.644531 L 168.257812 250.09375 Z M 170.773438 153.667969 " fill-opacity="1" fill-rule="nonzero"/></g></g></g><g clip-path="url(#8102d8f4c6)"><g clip-path="url(#1e2c90d8fc)"><g clip-path="url(#6c8901a384)"><path fill="#ffffff" d="M 272.703125 255.578125 L 216.507812 276.585938 L 182.984375 186.894531 L 239.179688 165.890625 Z M 272.703125 255.578125 " fill-opacity="1" fill-rule="nonzero"/></g></g></g><g clip-path="url(#5582acfef4)"><g clip-path="url(#578e817d56)"><g clip-path="url(#c24a7b974e)"><path fill="#004aad" d="M 255.503906 237.796875 L 217.90625 251.847656 L 195.476562 191.847656 L 233.074219 177.792969 Z M 255.503906 237.796875 " fill-opacity="1" fill-rule="nonzero"/></g></g></g><g fill="#000000" fill-opacity="0.4"><g transform="translate(75.857584, 276.701563)"><g><path d="M 16.4375 -16.796875 C 17.0625 -16.796875 17.546875 -16.660156 17.890625 -16.390625 C 18.234375 -16.117188 18.40625 -15.75 18.40625 -15.28125 C 18.40625 -15.039062 18.375 -14.816406 18.3125 -14.609375 L 17.65625 -12.25 C 17.539062 -11.8125 17.347656 -11.5 17.078125 -11.3125 C 16.804688 -11.132812 16.453125 -11.046875 16.015625 -11.046875 C 15.597656 -11.046875 15.257812 -11.132812 15 -11.3125 C 14.75 -11.488281 14.566406 -11.78125 14.453125 -12.1875 L 14.046875 -13.625 C 13.984375 -13.875 13.898438 -14.039062 13.796875 -14.125 C 13.691406 -14.207031 13.484375 -14.25 13.171875 -14.25 L 10.640625 -14.25 L 9.234375 -9.25 L 9.703125 -9.25 C 9.941406 -9.25 10.148438 -9.28125 10.328125 -9.34375 C 10.503906 -9.414062 10.691406 -9.546875 10.890625 -9.734375 L 11.671875 -10.390625 C 11.960938 -10.640625 12.21875 -10.816406 12.4375 -10.921875 C 12.664062 -11.035156 12.910156 -11.09375 13.171875 -11.09375 C 13.484375 -11.09375 13.742188 -11 13.953125 -10.8125 C 14.171875 -10.632812 14.28125 -10.375 14.28125 -10.03125 C 14.28125 -9.894531 14.253906 -9.738281 14.203125 -9.5625 L 13.09375 -5.71875 C 12.832031 -4.894531 12.378906 -4.484375 11.734375 -4.484375 C 11.191406 -4.484375 10.769531 -4.765625 10.46875 -5.328125 L 10.015625 -6.171875 C 9.890625 -6.410156 9.773438 -6.5625 9.671875 -6.625 C 9.578125 -6.695312 9.429688 -6.734375 9.234375 -6.734375 L 8.5 -6.734375 L 7.4375 -2.96875 C 7.40625 -2.875 7.390625 -2.742188 7.390625 -2.578125 C 7.390625 -2.335938 7.441406 -2.140625 7.546875 -1.984375 C 7.660156 -1.835938 7.828125 -1.679688 8.046875 -1.515625 C 8.234375 -1.359375 8.359375 -1.234375 8.421875 -1.140625 C 8.492188 -1.054688 8.53125 -0.945312 8.53125 -0.8125 C 8.53125 -0.507812 8.394531 -0.296875 8.125 -0.171875 C 7.851562 -0.0546875 7.457031 0 6.9375 0 L 0.609375 0 C 0.171875 0 -0.15625 -0.078125 -0.375 -0.234375 C -0.59375 -0.398438 -0.671875 -0.625 -0.609375 -0.90625 C -0.578125 -1.0625 -0.515625 -1.179688 -0.421875 -1.265625 C -0.328125 -1.359375 -0.1875 -1.46875 0 -1.59375 C 0.28125 -1.757812 0.503906 -1.929688 0.671875 -2.109375 C 0.847656 -2.296875 0.984375 -2.582031 1.078125 -2.96875 L 4.1875 -13.84375 C 4.25 -14.0625 4.28125 -14.265625 4.28125 -14.453125 C 4.28125 -14.648438 4.25 -14.816406 4.1875 -14.953125 C 4.132812 -15.085938 4.050781 -15.234375 3.9375 -15.390625 C 3.78125 -15.609375 3.703125 -15.78125 3.703125 -15.90625 C 3.703125 -15.957031 3.71875 -16.050781 3.75 -16.1875 C 3.820312 -16.40625 3.972656 -16.5625 4.203125 -16.65625 C 4.441406 -16.75 4.789062 -16.796875 5.25 -16.796875 Z M 16.4375 -16.796875 "/></g></g></g><g fill="#000000" fill-opacity="0.4"><g transform="translate(91.759044, 276.701563)"><g><path d="M 8.546875 -13.46875 C 10.679688 -13.46875 12.226562 -13.125 13.1875 -12.4375 C 14.144531 -11.757812 14.625 -10.890625 14.625 -9.828125 C 14.625 -9.515625 14.59375 -9.222656 14.53125 -8.953125 C 14.269531 -7.835938 13.5625 -7.039062 12.40625 -6.5625 C 11.257812 -6.082031 9.90625 -5.84375 8.34375 -5.84375 C 7.550781 -5.84375 6.8125 -5.894531 6.125 -6 C 6.113281 -5.125 6.347656 -4.507812 6.828125 -4.15625 C 7.316406 -3.800781 8 -3.625 8.875 -3.625 C 9.28125 -3.625 9.664062 -3.671875 10.03125 -3.765625 C 10.40625 -3.859375 10.878906 -4 11.453125 -4.1875 C 11.921875 -4.351562 12.238281 -4.4375 12.40625 -4.4375 C 12.59375 -4.4375 12.6875 -4.328125 12.6875 -4.109375 C 12.695312 -3.523438 12.472656 -2.90625 12.015625 -2.25 C 11.566406 -1.601562 10.894531 -1.050781 10 -0.59375 C 9.113281 -0.144531 8.039062 0.078125 6.78125 0.078125 C 4.914062 0.078125 3.382812 -0.390625 2.1875 -1.328125 C 1 -2.273438 0.40625 -3.648438 0.40625 -5.453125 C 0.40625 -5.953125 0.472656 -6.539062 0.609375 -7.21875 C 1.023438 -9.28125 1.941406 -10.835938 3.359375 -11.890625 C 4.785156 -12.941406 6.515625 -13.46875 8.546875 -13.46875 Z M 6.296875 -7.515625 C 6.367188 -7.492188 6.460938 -7.484375 6.578125 -7.484375 C 7.285156 -7.484375 7.820312 -7.8125 8.1875 -8.46875 C 8.5625 -9.125 8.738281 -9.859375 8.71875 -10.671875 C 8.707031 -11.140625 8.578125 -11.375 8.328125 -11.375 C 8.140625 -11.375 7.914062 -11.222656 7.65625 -10.921875 C 7.40625 -10.628906 7.160156 -10.1875 6.921875 -9.59375 C 6.679688 -9.007812 6.472656 -8.316406 6.296875 -7.515625 Z M 6.296875 -7.515625 "/></g></g></g><g fill="#000000" fill-opacity="0.4"><g transform="translate(105.871266, 276.701563)"><g><path d="M 13.359375 -13.34375 C 14.097656 -13.34375 14.691406 -13.039062 15.140625 -12.4375 C 15.585938 -11.84375 15.8125 -11.035156 15.8125 -10.015625 C 15.8125 -9.117188 15.648438 -8.160156 15.328125 -7.140625 C 14.710938 -5.066406 13.71875 -3.113281 12.34375 -1.28125 C 10.976562 0.550781 9.40625 2.019531 7.625 3.125 C 5.851562 4.238281 4.082031 4.796875 2.3125 4.796875 C 1.445312 4.796875 0.695312 4.644531 0.0625 4.34375 C -0.5625 4.039062 -1.035156 3.632812 -1.359375 3.125 C -1.691406 2.625 -1.859375 2.085938 -1.859375 1.515625 C -1.859375 1.265625 -1.816406 0.988281 -1.734375 0.6875 C -1.585938 0.207031 -1.335938 -0.15625 -0.984375 -0.40625 C -0.628906 -0.65625 -0.207031 -0.78125 0.28125 -0.78125 C 1.050781 -0.78125 1.679688 -0.515625 2.171875 0.015625 C 2.671875 0.546875 2.988281 1.269531 3.125 2.1875 C 4.195312 2.144531 5.191406 1.6875 6.109375 0.8125 C 5.242188 0.65625 4.601562 0.363281 4.1875 -0.0625 C 3.78125 -0.488281 3.503906 -1.15625 3.359375 -2.0625 L 2.34375 -8.25 C 2.289062 -8.5625 2.21875 -8.78125 2.125 -8.90625 C 2.039062 -9.039062 1.921875 -9.109375 1.765625 -9.109375 C 1.648438 -9.109375 1.507812 -9.046875 1.34375 -8.921875 C 1.1875 -8.804688 1.078125 -8.75 1.015625 -8.75 C 0.878906 -8.75 0.8125 -8.890625 0.8125 -9.171875 C 0.8125 -9.410156 0.851562 -9.664062 0.9375 -9.9375 C 1.238281 -10.894531 1.800781 -11.703125 2.625 -12.359375 C 3.445312 -13.023438 4.40625 -13.359375 5.5 -13.359375 C 6.570312 -13.359375 7.363281 -13.039062 7.875 -12.40625 C 8.394531 -11.769531 8.726562 -10.785156 8.875 -9.453125 L 9.640625 -3.90625 C 9.679688 -3.488281 9.832031 -3.28125 10.09375 -3.28125 C 10.394531 -3.28125 10.742188 -3.550781 11.140625 -4.09375 C 11.546875 -4.644531 11.941406 -5.425781 12.328125 -6.4375 C 11.828125 -6.882812 11.441406 -7.398438 11.171875 -7.984375 C 10.898438 -8.578125 10.765625 -9.210938 10.765625 -9.890625 C 10.765625 -10.410156 10.832031 -10.878906 10.96875 -11.296875 C 11.164062 -11.972656 11.476562 -12.484375 11.90625 -12.828125 C 12.34375 -13.171875 12.828125 -13.34375 13.359375 -13.34375 Z M 13.359375 -13.34375 "/></g></g></g><g fill="#000000" fill-opacity="0.4"><g transform="translate(121.495521, 276.701563)"><g><path d="M 6.640625 -13.34375 C 7.609375 -13.34375 8.316406 -13.15625 8.765625 -12.78125 C 9.222656 -12.414062 9.453125 -11.910156 9.453125 -11.265625 C 9.453125 -10.878906 9.394531 -10.507812 9.28125 -10.15625 L 6.96875 -2.625 C 6.914062 -2.414062 6.890625 -2.238281 6.890625 -2.09375 C 6.890625 -1.875 6.929688 -1.703125 7.015625 -1.578125 C 7.097656 -1.453125 7.210938 -1.328125 7.359375 -1.203125 C 7.484375 -1.085938 7.566406 -0.992188 7.609375 -0.921875 C 7.660156 -0.847656 7.671875 -0.75 7.640625 -0.625 C 7.554688 -0.40625 7.390625 -0.242188 7.140625 -0.140625 C 6.890625 -0.046875 6.503906 0 5.984375 0 L 0.234375 0 C -0.203125 0 -0.519531 -0.0664062 -0.71875 -0.203125 C -0.925781 -0.347656 -1 -0.539062 -0.9375 -0.78125 C -0.863281 -0.976562 -0.6875 -1.15625 -0.40625 -1.3125 C -0.144531 -1.445312 0.0664062 -1.601562 0.234375 -1.78125 C 0.398438 -1.96875 0.539062 -2.265625 0.65625 -2.671875 L 2.859375 -9.96875 C 2.898438 -10.113281 2.921875 -10.238281 2.921875 -10.34375 C 2.921875 -10.519531 2.878906 -10.660156 2.796875 -10.765625 C 2.710938 -10.878906 2.585938 -11 2.421875 -11.125 C 2.253906 -11.257812 2.132812 -11.375 2.0625 -11.46875 C 2 -11.570312 1.992188 -11.707031 2.046875 -11.875 C 2.148438 -12.257812 2.679688 -12.597656 3.640625 -12.890625 C 4.597656 -13.191406 5.597656 -13.34375 6.640625 -13.34375 Z M 8.328125 -18.90625 C 8.984375 -18.90625 9.53125 -18.691406 9.96875 -18.265625 C 10.40625 -17.835938 10.625 -17.3125 10.625 -16.6875 C 10.625 -16.257812 10.507812 -15.832031 10.28125 -15.40625 C 10.050781 -14.988281 9.726562 -14.648438 9.3125 -14.390625 C 8.90625 -14.128906 8.453125 -14 7.953125 -14 C 7.316406 -14 6.78125 -14.210938 6.34375 -14.640625 C 5.914062 -15.066406 5.695312 -15.597656 5.6875 -16.234375 C 5.6875 -16.660156 5.796875 -17.078125 6.015625 -17.484375 C 6.234375 -17.898438 6.539062 -18.238281 6.9375 -18.5 C 7.34375 -18.769531 7.804688 -18.90625 8.328125 -18.90625 Z M 8.328125 -18.90625 "/></g></g></g><g fill="#000000" fill-opacity="0.4"><g transform="translate(130.718878, 276.701563)"><g><path d="M 11.265625 -13.015625 C 11.585938 -13.015625 11.835938 -12.945312 12.015625 -12.8125 C 12.191406 -12.675781 12.28125 -12.488281 12.28125 -12.25 C 12.28125 -12.1875 12.265625 -12.070312 12.234375 -11.90625 C 12.015625 -11.164062 11.507812 -10.796875 10.71875 -10.796875 L 9.25 -10.796875 L 7.359375 -4.5625 C 7.273438 -4.3125 7.234375 -4.050781 7.234375 -3.78125 C 7.234375 -3.476562 7.316406 -3.265625 7.484375 -3.140625 C 7.648438 -3.023438 7.890625 -2.96875 8.203125 -2.96875 C 8.460938 -2.96875 8.796875 -3.003906 9.203125 -3.078125 C 9.398438 -3.128906 9.578125 -3.15625 9.734375 -3.15625 C 9.847656 -3.15625 9.9375 -3.113281 10 -3.03125 C 10.0625 -2.957031 10.09375 -2.863281 10.09375 -2.75 C 10.101562 -2.414062 9.851562 -2.007812 9.34375 -1.53125 C 8.832031 -1.050781 8.140625 -0.632812 7.265625 -0.28125 C 6.390625 0.0625 5.421875 0.234375 4.359375 0.234375 C 3.210938 0.234375 2.296875 -0.0234375 1.609375 -0.546875 C 0.921875 -1.078125 0.578125 -1.796875 0.578125 -2.703125 C 0.578125 -3.117188 0.644531 -3.519531 0.78125 -3.90625 L 2.390625 -8.90625 C 2.472656 -9.1875 2.515625 -9.410156 2.515625 -9.578125 C 2.515625 -9.921875 2.4375 -10.207031 2.28125 -10.4375 C 2.125 -10.675781 1.898438 -10.921875 1.609375 -11.171875 C 1.359375 -11.410156 1.179688 -11.609375 1.078125 -11.765625 C 0.984375 -11.921875 0.960938 -12.109375 1.015625 -12.328125 C 1.078125 -12.546875 1.21875 -12.710938 1.4375 -12.828125 C 1.65625 -12.953125 2 -13.015625 2.46875 -13.015625 L 3.890625 -13.015625 L 5.46875 -14.609375 C 6.019531 -15.160156 6.523438 -15.546875 6.984375 -15.765625 C 7.453125 -15.984375 8.054688 -16.09375 8.796875 -16.09375 C 9.859375 -16.09375 10.390625 -15.6875 10.390625 -14.875 C 10.390625 -14.625 10.359375 -14.390625 10.296875 -14.171875 L 9.9375 -13.015625 Z M 11.265625 -13.015625 "/></g></g></g><g fill="#000000" fill-opacity="0.4"><g transform="translate(141.555061, 276.701563)"><g><path d="M 6.640625 -13.34375 C 7.609375 -13.34375 8.316406 -13.15625 8.765625 -12.78125 C 9.222656 -12.414062 9.453125 -11.910156 9.453125 -11.265625 C 9.453125 -10.878906 9.394531 -10.507812 9.28125 -10.15625 L 6.96875 -2.625 C 6.914062 -2.414062 6.890625 -2.238281 6.890625 -2.09375 C 6.890625 -1.875 6.929688 -1.703125 7.015625 -1.578125 C 7.097656 -1.453125 7.210938 -1.328125 7.359375 -1.203125 C 7.484375 -1.085938 7.566406 -0.992188 7.609375 -0.921875 C 7.660156 -0.847656 7.671875 -0.75 7.640625 -0.625 C 7.554688 -0.40625 7.390625 -0.242188 7.140625 -0.140625 C 6.890625 -0.046875 6.503906 0 5.984375 0 L 0.234375 0 C -0.203125 0 -0.519531 -0.0664062 -0.71875 -0.203125 C -0.925781 -0.347656 -1 -0.539062 -0.9375 -0.78125 C -0.863281 -0.976562 -0.6875 -1.15625 -0.40625 -1.3125 C -0.144531 -1.445312 0.0664062 -1.601562 0.234375 -1.78125 C 0.398438 -1.96875 0.539062 -2.265625 0.65625 -2.671875 L 2.859375 -9.96875 C 2.898438 -10.113281 2.921875 -10.238281 2.921875 -10.34375 C 2.921875 -10.519531 2.878906 -10.660156 2.796875 -10.765625 C 2.710938 -10.878906 2.585938 -11 2.421875 -11.125 C 2.253906 -11.257812 2.132812 -11.375 2.0625 -11.46875 C 2 -11.570312 1.992188 -11.707031 2.046875 -11.875 C 2.148438 -12.257812 2.679688 -12.597656 3.640625 -12.890625 C 4.597656 -13.191406 5.597656 -13.34375 6.640625 -13.34375 Z M 8.328125 -18.90625 C 8.984375 -18.90625 9.53125 -18.691406 9.96875 -18.265625 C 10.40625 -17.835938 10.625 -17.3125 10.625 -16.6875 C 10.625 -16.257812 10.507812 -15.832031 10.28125 -15.40625 C 10.050781 -14.988281 9.726562 -14.648438 9.3125 -14.390625 C 8.90625 -14.128906 8.453125 -14 7.953125 -14 C 7.316406 -14 6.78125 -14.210938 6.34375 -14.640625 C 5.914062 -15.066406 5.695312 -15.597656 5.6875 -16.234375 C 5.6875 -16.660156 5.796875 -17.078125 6.015625 -17.484375 C 6.234375 -17.898438 6.539062 -18.238281 6.9375 -18.5 C 7.34375 -18.769531 7.804688 -18.90625 8.328125 -18.90625 Z M 8.328125 -18.90625 "/></g></g></g><g fill="#000000" fill-opacity="0.4"><g transform="translate(150.778418, 276.701563)"><g><path d="M 23.984375 -3.484375 C 23.953125 -3.410156 23.9375 -3.304688 23.9375 -3.171875 C 23.9375 -3.054688 23.960938 -2.960938 24.015625 -2.890625 C 24.078125 -2.828125 24.160156 -2.796875 24.265625 -2.796875 C 24.460938 -2.796875 24.628906 -2.882812 24.765625 -3.0625 C 24.910156 -3.238281 25.007812 -3.328125 25.0625 -3.328125 C 25.144531 -3.328125 25.210938 -3.269531 25.265625 -3.15625 C 25.316406 -3.050781 25.34375 -2.925781 25.34375 -2.78125 C 25.363281 -2.289062 25.203125 -1.8125 24.859375 -1.34375 C 24.523438 -0.882812 24.035156 -0.503906 23.390625 -0.203125 C 22.742188 0.0859375 21.96875 0.234375 21.0625 0.234375 C 19.945312 0.234375 19.0625 -0.0195312 18.40625 -0.53125 C 17.75 -1.050781 17.414062 -1.738281 17.40625 -2.59375 C 17.40625 -3.21875 17.554688 -3.914062 17.859375 -4.6875 L 19.234375 -8.328125 C 19.328125 -8.546875 19.375 -8.722656 19.375 -8.859375 C 19.375 -9.066406 19.300781 -9.234375 19.15625 -9.359375 C 19.007812 -9.492188 18.835938 -9.5625 18.640625 -9.5625 C 18.347656 -9.5625 18.050781 -9.429688 17.75 -9.171875 C 17.445312 -8.921875 17.179688 -8.53125 16.953125 -8 L 15.5625 -3.484375 C 15.53125 -3.410156 15.515625 -3.304688 15.515625 -3.171875 C 15.515625 -3.054688 15.539062 -2.960938 15.59375 -2.890625 C 15.65625 -2.828125 15.738281 -2.796875 15.84375 -2.796875 C 16.039062 -2.796875 16.207031 -2.882812 16.34375 -3.0625 C 16.488281 -3.238281 16.585938 -3.328125 16.640625 -3.328125 C 16.722656 -3.328125 16.789062 -3.269531 16.84375 -3.15625 C 16.894531 -3.050781 16.921875 -2.925781 16.921875 -2.78125 C 16.941406 -2.289062 16.78125 -1.8125 16.4375 -1.34375 C 16.101562 -0.882812 15.613281 -0.503906 14.96875 -0.203125 C 14.320312 0.0859375 13.546875 0.234375 12.640625 0.234375 C 11.523438 0.234375 10.640625 -0.0195312 9.984375 -0.53125 C 9.328125 -1.050781 8.992188 -1.738281 8.984375 -2.59375 C 8.984375 -3.21875 9.132812 -3.914062 9.4375 -4.6875 L 10.8125 -8.328125 C 10.894531 -8.546875 10.9375 -8.722656 10.9375 -8.859375 C 10.9375 -9.066406 10.863281 -9.234375 10.71875 -9.359375 C 10.582031 -9.492188 10.414062 -9.5625 10.21875 -9.5625 C 9.925781 -9.5625 9.628906 -9.4375 9.328125 -9.1875 C 9.023438 -8.945312 8.773438 -8.554688 8.578125 -8.015625 L 6.90625 -2.625 C 6.84375 -2.4375 6.8125 -2.257812 6.8125 -2.09375 C 6.8125 -1.894531 6.851562 -1.726562 6.9375 -1.59375 C 7.019531 -1.46875 7.132812 -1.335938 7.28125 -1.203125 C 7.40625 -1.109375 7.488281 -1.019531 7.53125 -0.9375 C 7.582031 -0.851562 7.59375 -0.75 7.5625 -0.625 C 7.5 -0.40625 7.335938 -0.242188 7.078125 -0.140625 C 6.828125 -0.046875 6.4375 0 5.90625 0 L 0.15625 0 C -0.28125 0 -0.59375 -0.0664062 -0.78125 -0.203125 C -0.976562 -0.347656 -1.054688 -0.539062 -1.015625 -0.78125 C -0.941406 -0.976562 -0.765625 -1.15625 -0.484375 -1.3125 C -0.222656 -1.445312 -0.0078125 -1.601562 0.15625 -1.78125 C 0.320312 -1.96875 0.460938 -2.265625 0.578125 -2.671875 L 2.828125 -9.96875 C 2.859375 -10.050781 2.875 -10.164062 2.875 -10.3125 C 2.875 -10.5 2.832031 -10.640625 2.75 -10.734375 C 2.675781 -10.835938 2.554688 -10.96875 2.390625 -11.125 C 2.222656 -11.257812 2.101562 -11.375 2.03125 -11.46875 C 1.96875 -11.570312 1.960938 -11.707031 2.015625 -11.875 C 2.117188 -12.257812 2.648438 -12.597656 3.609375 -12.890625 C 4.566406 -13.191406 5.566406 -13.34375 6.609375 -13.34375 C 7.429688 -13.34375 8.082031 -13.113281 8.5625 -12.65625 C 9.039062 -12.207031 9.269531 -11.585938 9.25 -10.796875 C 9.945312 -11.753906 10.675781 -12.414062 11.4375 -12.78125 C 12.195312 -13.15625 13.023438 -13.34375 13.921875 -13.34375 C 14.898438 -13.34375 15.691406 -13.0625 16.296875 -12.5 C 16.910156 -11.9375 17.253906 -11.203125 17.328125 -10.296875 C 18.046875 -11.429688 18.816406 -12.222656 19.640625 -12.671875 C 20.460938 -13.117188 21.363281 -13.34375 22.34375 -13.34375 C 23.363281 -13.34375 24.191406 -13.03125 24.828125 -12.40625 C 25.460938 -11.78125 25.78125 -10.972656 25.78125 -9.984375 C 25.78125 -9.460938 25.691406 -8.953125 25.515625 -8.453125 Z M 23.984375 -3.484375 "/></g></g></g><g fill="#000000" fill-opacity="0.4"><g transform="translate(177.18845, 276.701563)"><g><path d="M 6.640625 -13.34375 C 7.609375 -13.34375 8.316406 -13.15625 8.765625 -12.78125 C 9.222656 -12.414062 9.453125 -11.910156 9.453125 -11.265625 C 9.453125 -10.878906 9.394531 -10.507812 9.28125 -10.15625 L 6.96875 -2.625 C 6.914062 -2.414062 6.890625 -2.238281 6.890625 -2.09375 C 6.890625 -1.875 6.929688 -1.703125 7.015625 -1.578125 C 7.097656 -1.453125 7.210938 -1.328125 7.359375 -1.203125 C 7.484375 -1.085938 7.566406 -0.992188 7.609375 -0.921875 C 7.660156 -0.847656 7.671875 -0.75 7.640625 -0.625 C 7.554688 -0.40625 7.390625 -0.242188 7.140625 -0.140625 C 6.890625 -0.046875 6.503906 0 5.984375 0 L 0.234375 0 C -0.203125 0 -0.519531 -0.0664062 -0.71875 -0.203125 C -0.925781 -0.347656 -1 -0.539062 -0.9375 -0.78125 C -0.863281 -0.976562 -0.6875 -1.15625 -0.40625 -1.3125 C -0.144531 -1.445312 0.0664062 -1.601562 0.234375 -1.78125 C 0.398438 -1.96875 0.539062 -2.265625 0.65625 -2.671875 L 2.859375 -9.96875 C 2.898438 -10.113281 2.921875 -10.238281 2.921875 -10.34375 C 2.921875 -10.519531 2.878906 -10.660156 2.796875 -10.765625 C 2.710938 -10.878906 2.585938 -11 2.421875 -11.125 C 2.253906 -11.257812 2.132812 -11.375 2.0625 -11.46875 C 2 -11.570312 1.992188 -11.707031 2.046875 -11.875 C 2.148438 -12.257812 2.679688 -12.597656 3.640625 -12.890625 C 4.597656 -13.191406 5.597656 -13.34375 6.640625 -13.34375 Z M 8.328125 -18.90625 C 8.984375 -18.90625 9.53125 -18.691406 9.96875 -18.265625 C 10.40625 -17.835938 10.625 -17.3125 10.625 -16.6875 C 10.625 -16.257812 10.507812 -15.832031 10.28125 -15.40625 C 10.050781 -14.988281 9.726562 -14.648438 9.3125 -14.390625 C 8.90625 -14.128906 8.453125 -14 7.953125 -14 C 7.316406 -14 6.78125 -14.210938 6.34375 -14.640625 C 5.914062 -15.066406 5.695312 -15.597656 5.6875 -16.234375 C 5.6875 -16.660156 5.796875 -17.078125 6.015625 -17.484375 C 6.234375 -17.898438 6.539062 -18.238281 6.9375 -18.5 C 7.34375 -18.769531 7.804688 -18.90625 8.328125 -18.90625 Z M 8.328125 -18.90625 "/></g></g></g><g fill="#000000" fill-opacity="1"><g transform="translate(74.743065, 275.587051)"><g><path d="M 16.4375 -16.796875 C 17.0625 -16.796875 17.546875 -16.660156 17.890625 -16.390625 C 18.234375 -16.117188 18.40625 -15.75 18.40625 -15.28125 C 18.40625 -15.039062 18.375 -14.816406 18.3125 -14.609375 L 17.65625 -12.25 C 17.539062 -11.8125 17.347656 -11.5 17.078125 -11.3125 C 16.804688 -11.132812 16.453125 -11.046875 16.015625 -11.046875 C 15.597656 -11.046875 15.257812 -11.132812 15 -11.3125 C 14.75 -11.488281 14.566406 -11.78125 14.453125 -12.1875 L 14.046875 -13.625 C 13.984375 -13.875 13.898438 -14.039062 13.796875 -14.125 C 13.691406 -14.207031 13.484375 -14.25 13.171875 -14.25 L 10.640625 -14.25 L 9.234375 -9.25 L 9.703125 -9.25 C 9.941406 -9.25 10.148438 -9.28125 10.328125 -9.34375 C 10.503906 -9.414062 10.691406 -9.546875 10.890625 -9.734375 L 11.671875 -10.390625 C 11.960938 -10.640625 12.21875 -10.816406 12.4375 -10.921875 C 12.664062 -11.035156 12.910156 -11.09375 13.171875 -11.09375 C 13.484375 -11.09375 13.742188 -11 13.953125 -10.8125 C 14.171875 -10.632812 14.28125 -10.375 14.28125 -10.03125 C 14.28125 -9.894531 14.253906 -9.738281 14.203125 -9.5625 L 13.09375 -5.71875 C 12.832031 -4.894531 12.378906 -4.484375 11.734375 -4.484375 C 11.191406 -4.484375 10.769531 -4.765625 10.46875 -5.328125 L 10.015625 -6.171875 C 9.890625 -6.410156 9.773438 -6.5625 9.671875 -6.625 C 9.578125 -6.695312 9.429688 -6.734375 9.234375 -6.734375 L 8.5 -6.734375 L 7.4375 -2.96875 C 7.40625 -2.875 7.390625 -2.742188 7.390625 -2.578125 C 7.390625 -2.335938 7.441406 -2.140625 7.546875 -1.984375 C 7.660156 -1.835938 7.828125 -1.679688 8.046875 -1.515625 C 8.234375 -1.359375 8.359375 -1.234375 8.421875 -1.140625 C 8.492188 -1.054688 8.53125 -0.945312 8.53125 -0.8125 C 8.53125 -0.507812 8.394531 -0.296875 8.125 -0.171875 C 7.851562 -0.0546875 7.457031 0 6.9375 0 L 0.609375 0 C 0.171875 0 -0.15625 -0.078125 -0.375 -0.234375 C -0.59375 -0.398438 -0.671875 -0.625 -0.609375 -0.90625 C -0.578125 -1.0625 -0.515625 -1.179688 -0.421875 -1.265625 C -0.328125 -1.359375 -0.1875 -1.46875 0 -1.59375 C 0.28125 -1.757812 0.503906 -1.929688 0.671875 -2.109375 C 0.847656 -2.296875 0.984375 -2.582031 1.078125 -2.96875 L 4.1875 -13.84375 C 4.25 -14.0625 4.28125 -14.265625 4.28125 -14.453125 C 4.28125 -14.648438 4.25 -14.816406 4.1875 -14.953125 C 4.132812 -15.085938 4.050781 -15.234375 3.9375 -15.390625 C 3.78125 -15.609375 3.703125 -15.78125 3.703125 -15.90625 C 3.703125 -15.957031 3.71875 -16.050781 3.75 -16.1875 C 3.820312 -16.40625 3.972656 -16.5625 4.203125 -16.65625 C 4.441406 -16.75 4.789062 -16.796875 5.25 -16.796875 Z M 16.4375 -16.796875 "/></g></g></g><g fill="#000000" fill-opacity="1"><g transform="translate(90.644525, 275.587051)"><g><path d="M 8.546875 -13.46875 C 10.679688 -13.46875 12.226562 -13.125 13.1875 -12.4375 C 14.144531 -11.757812 14.625 -10.890625 14.625 -9.828125 C 14.625 -9.515625 14.59375 -9.222656 14.53125 -8.953125 C 14.269531 -7.835938 13.5625 -7.039062 12.40625 -6.5625 C 11.257812 -6.082031 9.90625 -5.84375 8.34375 -5.84375 C 7.550781 -5.84375 6.8125 -5.894531 6.125 -6 C 6.113281 -5.125 6.347656 -4.507812 6.828125 -4.15625 C 7.316406 -3.800781 8 -3.625 8.875 -3.625 C 9.28125 -3.625 9.664062 -3.671875 10.03125 -3.765625 C 10.40625 -3.859375 10.878906 -4 11.453125 -4.1875 C 11.921875 -4.351562 12.238281 -4.4375 12.40625 -4.4375 C 12.59375 -4.4375 12.6875 -4.328125 12.6875 -4.109375 C 12.695312 -3.523438 12.472656 -2.90625 12.015625 -2.25 C 11.566406 -1.601562 10.894531 -1.050781 10 -0.59375 C 9.113281 -0.144531 8.039062 0.078125 6.78125 0.078125 C 4.914062 0.078125 3.382812 -0.390625 2.1875 -1.328125 C 1 -2.273438 0.40625 -3.648438 0.40625 -5.453125 C 0.40625 -5.953125 0.472656 -6.539062 0.609375 -7.21875 C 1.023438 -9.28125 1.941406 -10.835938 3.359375 -11.890625 C 4.785156 -12.941406 6.515625 -13.46875 8.546875 -13.46875 Z M 6.296875 -7.515625 C 6.367188 -7.492188 6.460938 -7.484375 6.578125 -7.484375 C 7.285156 -7.484375 7.820312 -7.8125 8.1875 -8.46875 C 8.5625 -9.125 8.738281 -9.859375 8.71875 -10.671875 C 8.707031 -11.140625 8.578125 -11.375 8.328125 -11.375 C 8.140625 -11.375 7.914062 -11.222656 7.65625 -10.921875 C 7.40625 -10.628906 7.160156 -10.1875 6.921875 -9.59375 C 6.679688 -9.007812 6.472656 -8.316406 6.296875 -7.515625 Z M 6.296875 -7.515625 "/></g></g></g><g fill="#000000" fill-opacity="1"><g transform="translate(104.756747, 275.587051)"><g><path d="M 13.359375 -13.34375 C 14.097656 -13.34375 14.691406 -13.039062 15.140625 -12.4375 C 15.585938 -11.84375 15.8125 -11.035156 15.8125 -10.015625 C 15.8125 -9.117188 15.648438 -8.160156 15.328125 -7.140625 C 14.710938 -5.066406 13.71875 -3.113281 12.34375 -1.28125 C 10.976562 0.550781 9.40625 2.019531 7.625 3.125 C 5.851562 4.238281 4.082031 4.796875 2.3125 4.796875 C 1.445312 4.796875 0.695312 4.644531 0.0625 4.34375 C -0.5625 4.039062 -1.035156 3.632812 -1.359375 3.125 C -1.691406 2.625 -1.859375 2.085938 -1.859375 1.515625 C -1.859375 1.265625 -1.816406 0.988281 -1.734375 0.6875 C -1.585938 0.207031 -1.335938 -0.15625 -0.984375 -0.40625 C -0.628906 -0.65625 -0.207031 -0.78125 0.28125 -0.78125 C 1.050781 -0.78125 1.679688 -0.515625 2.171875 0.015625 C 2.671875 0.546875 2.988281 1.269531 3.125 2.1875 C 4.195312 2.144531 5.191406 1.6875 6.109375 0.8125 C 5.242188 0.65625 4.601562 0.363281 4.1875 -0.0625 C 3.78125 -0.488281 3.503906 -1.15625 3.359375 -2.0625 L 2.34375 -8.25 C 2.289062 -8.5625 2.21875 -8.78125 2.125 -8.90625 C 2.039062 -9.039062 1.921875 -9.109375 1.765625 -9.109375 C 1.648438 -9.109375 1.507812 -9.046875 1.34375 -8.921875 C 1.1875 -8.804688 1.078125 -8.75 1.015625 -8.75 C 0.878906 -8.75 0.8125 -8.890625 0.8125 -9.171875 C 0.8125 -9.410156 0.851562 -9.664062 0.9375 -9.9375 C 1.238281 -10.894531 1.800781 -11.703125 2.625 -12.359375 C 3.445312 -13.023438 4.40625 -13.359375 5.5 -13.359375 C 6.570312 -13.359375 7.363281 -13.039062 7.875 -12.40625 C 8.394531 -11.769531 8.726562 -10.785156 8.875 -9.453125 L 9.640625 -3.90625 C 9.679688 -3.488281 9.832031 -3.28125 10.09375 -3.28125 C 10.394531 -3.28125 10.742188 -3.550781 11.140625 -4.09375 C 11.546875 -4.644531 11.941406 -5.425781 12.328125 -6.4375 C 11.828125 -6.882812 11.441406 -7.398438 11.171875 -7.984375 C 10.898438 -8.578125 10.765625 -9.210938 10.765625 -9.890625 C 10.765625 -10.410156 10.832031 -10.878906 10.96875 -11.296875 C 11.164062 -11.972656 11.476562 -12.484375 11.90625 -12.828125 C 12.34375 -13.171875 12.828125 -13.34375 13.359375 -13.34375 Z M 13.359375 -13.34375 "/></g></g></g><g fill="#000000" fill-opacity="1"><g transform="translate(120.381001, 275.587051)"><g><path d="M 6.640625 -13.34375 C 7.609375 -13.34375 8.316406 -13.15625 8.765625 -12.78125 C 9.222656 -12.414062 9.453125 -11.910156 9.453125 -11.265625 C 9.453125 -10.878906 9.394531 -10.507812 9.28125 -10.15625 L 6.96875 -2.625 C 6.914062 -2.414062 6.890625 -2.238281 6.890625 -2.09375 C 6.890625 -1.875 6.929688 -1.703125 7.015625 -1.578125 C 7.097656 -1.453125 7.210938 -1.328125 7.359375 -1.203125 C 7.484375 -1.085938 7.566406 -0.992188 7.609375 -0.921875 C 7.660156 -0.847656 7.671875 -0.75 7.640625 -0.625 C 7.554688 -0.40625 7.390625 -0.242188 7.140625 -0.140625 C 6.890625 -0.046875 6.503906 0 5.984375 0 L 0.234375 0 C -0.203125 0 -0.519531 -0.0664062 -0.71875 -0.203125 C -0.925781 -0.347656 -1 -0.539062 -0.9375 -0.78125 C -0.863281 -0.976562 -0.6875 -1.15625 -0.40625 -1.3125 C -0.144531 -1.445312 0.0664062 -1.601562 0.234375 -1.78125 C 0.398438 -1.96875 0.539062 -2.265625 0.65625 -2.671875 L 2.859375 -9.96875 C 2.898438 -10.113281 2.921875 -10.238281 2.921875 -10.34375 C 2.921875 -10.519531 2.878906 -10.660156 2.796875 -10.765625 C 2.710938 -10.878906 2.585938 -11 2.421875 -11.125 C 2.253906 -11.257812 2.132812 -11.375 2.0625 -11.46875 C 2 -11.570312 1.992188 -11.707031 2.046875 -11.875 C 2.148438 -12.257812 2.679688 -12.597656 3.640625 -12.890625 C 4.597656 -13.191406 5.597656 -13.34375 6.640625 -13.34375 Z M 8.328125 -18.90625 C 8.984375 -18.90625 9.53125 -18.691406 9.96875 -18.265625 C 10.40625 -17.835938 10.625 -17.3125 10.625 -16.6875 C 10.625 -16.257812 10.507812 -15.832031 10.28125 -15.40625 C 10.050781 -14.988281 9.726562 -14.648438 9.3125 -14.390625 C 8.90625 -14.128906 8.453125 -14 7.953125 -14 C 7.316406 -14 6.78125 -14.210938 6.34375 -14.640625 C 5.914062 -15.066406 5.695312 -15.597656 5.6875 -16.234375 C 5.6875 -16.660156 5.796875 -17.078125 6.015625 -17.484375 C 6.234375 -17.898438 6.539062 -18.238281 6.9375 -18.5 C 7.34375 -18.769531 7.804688 -18.90625 8.328125 -18.90625 Z M 8.328125 -18.90625 "/></g></g></g><g fill="#000000" fill-opacity="1"><g transform="translate(129.604359, 275.587051)"><g><path d="M 11.265625 -13.015625 C 11.585938 -13.015625 11.835938 -12.945312 12.015625 -12.8125 C 12.191406 -12.675781 12.28125 -12.488281 12.28125 -12.25 C 12.28125 -12.1875 12.265625 -12.070312 12.234375 -11.90625 C 12.015625 -11.164062 11.507812 -10.796875 10.71875 -10.796875 L 9.25 -10.796875 L 7.359375 -4.5625 C 7.273438 -4.3125 7.234375 -4.050781 7.234375 -3.78125 C 7.234375 -3.476562 7.316406 -3.265625 7.484375 -3.140625 C 7.648438 -3.023438 7.890625 -2.96875 8.203125 -2.96875 C 8.460938 -2.96875 8.796875 -3.003906 9.203125 -3.078125 C 9.398438 -3.128906 9.578125 -3.15625 9.734375 -3.15625 C 9.847656 -3.15625 9.9375 -3.113281 10 -3.03125 C 10.0625 -2.957031 10.09375 -2.863281 10.09375 -2.75 C 10.101562 -2.414062 9.851562 -2.007812 9.34375 -1.53125 C 8.832031 -1.050781 8.140625 -0.632812 7.265625 -0.28125 C 6.390625 0.0625 5.421875 0.234375 4.359375 0.234375 C 3.210938 0.234375 2.296875 -0.0234375 1.609375 -0.546875 C 0.921875 -1.078125 0.578125 -1.796875 0.578125 -2.703125 C 0.578125 -3.117188 0.644531 -3.519531 0.78125 -3.90625 L 2.390625 -8.90625 C 2.472656 -9.1875 2.515625 -9.410156 2.515625 -9.578125 C 2.515625 -9.921875 2.4375 -10.207031 2.28125 -10.4375 C 2.125 -10.675781 1.898438 -10.921875 1.609375 -11.171875 C 1.359375 -11.410156 1.179688 -11.609375 1.078125 -11.765625 C 0.984375 -11.921875 0.960938 -12.109375 1.015625 -12.328125 C 1.078125 -12.546875 1.21875 -12.710938 1.4375 -12.828125 C 1.65625 -12.953125 2 -13.015625 2.46875 -13.015625 L 3.890625 -13.015625 L 5.46875 -14.609375 C 6.019531 -15.160156 6.523438 -15.546875 6.984375 -15.765625 C 7.453125 -15.984375 8.054688 -16.09375 8.796875 -16.09375 C 9.859375 -16.09375 10.390625 -15.6875 10.390625 -14.875 C 10.390625 -14.625 10.359375 -14.390625 10.296875 -14.171875 L 9.9375 -13.015625 Z M 11.265625 -13.015625 "/></g></g></g><g fill="#000000" fill-opacity="1"><g transform="translate(140.440542, 275.587051)"><g><path d="M 6.640625 -13.34375 C 7.609375 -13.34375 8.316406 -13.15625 8.765625 -12.78125 C 9.222656 -12.414062 9.453125 -11.910156 9.453125 -11.265625 C 9.453125 -10.878906 9.394531 -10.507812 9.28125 -10.15625 L 6.96875 -2.625 C 6.914062 -2.414062 6.890625 -2.238281 6.890625 -2.09375 C 6.890625 -1.875 6.929688 -1.703125 7.015625 -1.578125 C 7.097656 -1.453125 7.210938 -1.328125 7.359375 -1.203125 C 7.484375 -1.085938 7.566406 -0.992188 7.609375 -0.921875 C 7.660156 -0.847656 7.671875 -0.75 7.640625 -0.625 C 7.554688 -0.40625 7.390625 -0.242188 7.140625 -0.140625 C 6.890625 -0.046875 6.503906 0 5.984375 0 L 0.234375 0 C -0.203125 0 -0.519531 -0.0664062 -0.71875 -0.203125 C -0.925781 -0.347656 -1 -0.539062 -0.9375 -0.78125 C -0.863281 -0.976562 -0.6875 -1.15625 -0.40625 -1.3125 C -0.144531 -1.445312 0.0664062 -1.601562 0.234375 -1.78125 C 0.398438 -1.96875 0.539062 -2.265625 0.65625 -2.671875 L 2.859375 -9.96875 C 2.898438 -10.113281 2.921875 -10.238281 2.921875 -10.34375 C 2.921875 -10.519531 2.878906 -10.660156 2.796875 -10.765625 C 2.710938 -10.878906 2.585938 -11 2.421875 -11.125 C 2.253906 -11.257812 2.132812 -11.375 2.0625 -11.46875 C 2 -11.570312 1.992188 -11.707031 2.046875 -11.875 C 2.148438 -12.257812 2.679688 -12.597656 3.640625 -12.890625 C 4.597656 -13.191406 5.597656 -13.34375 6.640625 -13.34375 Z M 8.328125 -18.90625 C 8.984375 -18.90625 9.53125 -18.691406 9.96875 -18.265625 C 10.40625 -17.835938 10.625 -17.3125 10.625 -16.6875 C 10.625 -16.257812 10.507812 -15.832031 10.28125 -15.40625 C 10.050781 -14.988281 9.726562 -14.648438 9.3125 -14.390625 C 8.90625 -14.128906 8.453125 -14 7.953125 -14 C 7.316406 -14 6.78125 -14.210938 6.34375 -14.640625 C 5.914062 -15.066406 5.695312 -15.597656 5.6875 -16.234375 C 5.6875 -16.660156 5.796875 -17.078125 6.015625 -17.484375 C 6.234375 -17.898438 6.539062 -18.238281 6.9375 -18.5 C 7.34375 -18.769531 7.804688 -18.90625 8.328125 -18.90625 Z M 8.328125 -18.90625 "/></g></g></g><g fill="#000000" fill-opacity="1"><g transform="translate(149.663899, 275.587051)"><g><path d="M 23.984375 -3.484375 C 23.953125 -3.410156 23.9375 -3.304688 23.9375 -3.171875 C 23.9375 -3.054688 23.960938 -2.960938 24.015625 -2.890625 C 24.078125 -2.828125 24.160156 -2.796875 24.265625 -2.796875 C 24.460938 -2.796875 24.628906 -2.882812 24.765625 -3.0625 C 24.910156 -3.238281 25.007812 -3.328125 25.0625 -3.328125 C 25.144531 -3.328125 25.210938 -3.269531 25.265625 -3.15625 C 25.316406 -3.050781 25.34375 -2.925781 25.34375 -2.78125 C 25.363281 -2.289062 25.203125 -1.8125 24.859375 -1.34375 C 24.523438 -0.882812 24.035156 -0.503906 23.390625 -0.203125 C 22.742188 0.0859375 21.96875 0.234375 21.0625 0.234375 C 19.945312 0.234375 19.0625 -0.0195312 18.40625 -0.53125 C 17.75 -1.050781 17.414062 -1.738281 17.40625 -2.59375 C 17.40625 -3.21875 17.554688 -3.914062 17.859375 -4.6875 L 19.234375 -8.328125 C 19.328125 -8.546875 19.375 -8.722656 19.375 -8.859375 C 19.375 -9.066406 19.300781 -9.234375 19.15625 -9.359375 C 19.007812 -9.492188 18.835938 -9.5625 18.640625 -9.5625 C 18.347656 -9.5625 18.050781 -9.429688 17.75 -9.171875 C 17.445312 -8.921875 17.179688 -8.53125 16.953125 -8 L 15.5625 -3.484375 C 15.53125 -3.410156 15.515625 -3.304688 15.515625 -3.171875 C 15.515625 -3.054688 15.539062 -2.960938 15.59375 -2.890625 C 15.65625 -2.828125 15.738281 -2.796875 15.84375 -2.796875 C 16.039062 -2.796875 16.207031 -2.882812 16.34375 -3.0625 C 16.488281 -3.238281 16.585938 -3.328125 16.640625 -3.328125 C 16.722656 -3.328125 16.789062 -3.269531 16.84375 -3.15625 C 16.894531 -3.050781 16.921875 -2.925781 16.921875 -2.78125 C 16.941406 -2.289062 16.78125 -1.8125 16.4375 -1.34375 C 16.101562 -0.882812 15.613281 -0.503906 14.96875 -0.203125 C 14.320312 0.0859375 13.546875 0.234375 12.640625 0.234375 C 11.523438 0.234375 10.640625 -0.0195312 9.984375 -0.53125 C 9.328125 -1.050781 8.992188 -1.738281 8.984375 -2.59375 C 8.984375 -3.21875 9.132812 -3.914062 9.4375 -4.6875 L 10.8125 -8.328125 C 10.894531 -8.546875 10.9375 -8.722656 10.9375 -8.859375 C 10.9375 -9.066406 10.863281 -9.234375 10.71875 -9.359375 C 10.582031 -9.492188 10.414062 -9.5625 10.21875 -9.5625 C 9.925781 -9.5625 9.628906 -9.4375 9.328125 -9.1875 C 9.023438 -8.945312 8.773438 -8.554688 8.578125 -8.015625 L 6.90625 -2.625 C 6.84375 -2.4375 6.8125 -2.257812 6.8125 -2.09375 C 6.8125 -1.894531 6.851562 -1.726562 6.9375 -1.59375 C 7.019531 -1.46875 7.132812 -1.335938 7.28125 -1.203125 C 7.40625 -1.109375 7.488281 -1.019531 7.53125 -0.9375 C 7.582031 -0.851562 7.59375 -0.75 7.5625 -0.625 C 7.5 -0.40625 7.335938 -0.242188 7.078125 -0.140625 C 6.828125 -0.046875 6.4375 0 5.90625 0 L 0.15625 0 C -0.28125 0 -0.59375 -0.0664062 -0.78125 -0.203125 C -0.976562 -0.347656 -1.054688 -0.539062 -1.015625 -0.78125 C -0.941406 -0.976562 -0.765625 -1.15625 -0.484375 -1.3125 C -0.222656 -1.445312 -0.0078125 -1.601562 0.15625 -1.78125 C 0.320312 -1.96875 0.460938 -2.265625 0.578125 -2.671875 L 2.828125 -9.96875 C 2.859375 -10.050781 2.875 -10.164062 2.875 -10.3125 C 2.875 -10.5 2.832031 -10.640625 2.75 -10.734375 C 2.675781 -10.835938 2.554688 -10.96875 2.390625 -11.125 C 2.222656 -11.257812 2.101562 -11.375 2.03125 -11.46875 C 1.96875 -11.570312 1.960938 -11.707031 2.015625 -11.875 C 2.117188 -12.257812 2.648438 -12.597656 3.609375 -12.890625 C 4.566406 -13.191406 5.566406 -13.34375 6.609375 -13.34375 C 7.429688 -13.34375 8.082031 -13.113281 8.5625 -12.65625 C 9.039062 -12.207031 9.269531 -11.585938 9.25 -10.796875 C 9.945312 -11.753906 10.675781 -12.414062 11.4375 -12.78125 C 12.195312 -13.15625 13.023438 -13.34375 13.921875 -13.34375 C 14.898438 -13.34375 15.691406 -13.0625 16.296875 -12.5 C 16.910156 -11.9375 17.253906 -11.203125 17.328125 -10.296875 C 18.046875 -11.429688 18.816406 -12.222656 19.640625 -12.671875 C 20.460938 -13.117188 21.363281 -13.34375 22.34375 -13.34375 C 23.363281 -13.34375 24.191406 -13.03125 24.828125 -12.40625 C 25.460938 -11.78125 25.78125 -10.972656 25.78125 -9.984375 C 25.78125 -9.460938 25.691406 -8.953125 25.515625 -8.453125 Z M 23.984375 -3.484375 "/></g></g></g><g fill="#000000" fill-opacity="1"><g transform="translate(176.073931, 275.587051)"><g><path d="M 6.640625 -13.34375 C 7.609375 -13.34375 8.316406 -13.15625 8.765625 -12.78125 C 9.222656 -12.414062 9.453125 -11.910156 9.453125 -11.265625 C 9.453125 -10.878906 9.394531 -10.507812 9.28125 -10.15625 L 6.96875 -2.625 C 6.914062 -2.414062 6.890625 -2.238281 6.890625 -2.09375 C 6.890625 -1.875 6.929688 -1.703125 7.015625 -1.578125 C 7.097656 -1.453125 7.210938 -1.328125 7.359375 -1.203125 C 7.484375 -1.085938 7.566406 -0.992188 7.609375 -0.921875 C 7.660156 -0.847656 7.671875 -0.75 7.640625 -0.625 C 7.554688 -0.40625 7.390625 -0.242188 7.140625 -0.140625 C 6.890625 -0.046875 6.503906 0 5.984375 0 L 0.234375 0 C -0.203125 0 -0.519531 -0.0664062 -0.71875 -0.203125 C -0.925781 -0.347656 -1 -0.539062 -0.9375 -0.78125 C -0.863281 -0.976562 -0.6875 -1.15625 -0.40625 -1.3125 C -0.144531 -1.445312 0.0664062 -1.601562 0.234375 -1.78125 C 0.398438 -1.96875 0.539062 -2.265625 0.65625 -2.671875 L 2.859375 -9.96875 C 2.898438 -10.113281 2.921875 -10.238281 2.921875 -10.34375 C 2.921875 -10.519531 2.878906 -10.660156 2.796875 -10.765625 C 2.710938 -10.878906 2.585938 -11 2.421875 -11.125 C 2.253906 -11.257812 2.132812 -11.375 2.0625 -11.46875 C 2 -11.570312 1.992188 -11.707031 2.046875 -11.875 C 2.148438 -12.257812 2.679688 -12.597656 3.640625 -12.890625 C 4.597656 -13.191406 5.597656 -13.34375 6.640625 -13.34375 Z M 8.328125 -18.90625 C 8.984375 -18.90625 9.53125 -18.691406 9.96875 -18.265625 C 10.40625 -17.835938 10.625 -17.3125 10.625 -16.6875 C 10.625 -16.257812 10.507812 -15.832031 10.28125 -15.40625 C 10.050781 -14.988281 9.726562 -14.648438 9.3125 -14.390625 C 8.90625 -14.128906 8.453125 -14 7.953125 -14 C 7.316406 -14 6.78125 -14.210938 6.34375 -14.640625 C 5.914062 -15.066406 5.695312 -15.597656 5.6875 -16.234375 C 5.6875 -16.660156 5.796875 -17.078125 6.015625 -17.484375 C 6.234375 -17.898438 6.539062 -18.238281 6.9375 -18.5 C 7.34375 -18.769531 7.804688 -18.90625 8.328125 -18.90625 Z M 8.328125 -18.90625 "/></g></g></g><g fill="#000000" fill-opacity="0.4"><g transform="translate(185.0842, 275.97894)"><g><path d="M 15.265625 -2.953125 C 15.203125 -2.734375 15.171875 -2.515625 15.171875 -2.296875 C 15.171875 -2.117188 15.191406 -1.96875 15.234375 -1.84375 C 15.285156 -1.71875 15.335938 -1.613281 15.390625 -1.53125 C 15.453125 -1.457031 15.492188 -1.40625 15.515625 -1.375 C 15.679688 -1.207031 15.765625 -1.039062 15.765625 -0.875 C 15.765625 -0.84375 15.75 -0.757812 15.71875 -0.625 C 15.644531 -0.394531 15.492188 -0.234375 15.265625 -0.140625 C 15.046875 -0.046875 14.703125 0 14.234375 0 L 8.3125 0 C 7.96875 0 7.695312 -0.0546875 7.5 -0.171875 C 7.3125 -0.285156 7.21875 -0.445312 7.21875 -0.65625 C 7.21875 -0.75 7.242188 -0.851562 7.296875 -0.96875 C 7.347656 -1.101562 7.414062 -1.207031 7.5 -1.28125 C 7.59375 -1.363281 7.722656 -1.453125 7.890625 -1.546875 C 8.160156 -1.703125 8.378906 -1.867188 8.546875 -2.046875 C 8.710938 -2.234375 8.851562 -2.535156 8.96875 -2.953125 L 9.625 -5.09375 L 5.71875 -5.09375 L 5.046875 -3.671875 C 4.765625 -3.054688 4.625 -2.570312 4.625 -2.21875 C 4.625 -2.019531 4.65625 -1.859375 4.71875 -1.734375 C 4.789062 -1.609375 4.890625 -1.476562 5.015625 -1.34375 C 5.140625 -1.21875 5.222656 -1.109375 5.265625 -1.015625 C 5.304688 -0.921875 5.304688 -0.800781 5.265625 -0.65625 C 5.203125 -0.40625 5.066406 -0.234375 4.859375 -0.140625 C 4.648438 -0.046875 4.320312 0 3.875 0 L 0.15625 0 C -0.226562 0 -0.519531 -0.0664062 -0.71875 -0.203125 C -0.925781 -0.347656 -1.03125 -0.539062 -1.03125 -0.78125 C -1.03125 -1.039062 -0.929688 -1.25 -0.734375 -1.40625 C -0.546875 -1.570312 -0.257812 -1.742188 0.125 -1.921875 C 0.625 -2.171875 1.023438 -2.414062 1.328125 -2.65625 C 1.628906 -2.894531 1.882812 -3.234375 2.09375 -3.671875 L 6.546875 -12.890625 C 7.222656 -14.328125 8.023438 -15.363281 8.953125 -16 C 9.878906 -16.644531 11.097656 -16.96875 12.609375 -16.96875 C 14.316406 -16.96875 15.632812 -16.617188 16.5625 -15.921875 C 17.5 -15.234375 17.96875 -14.273438 17.96875 -13.046875 C 17.96875 -12.523438 17.882812 -11.988281 17.71875 -11.4375 Z M 10.375 -7.59375 L 11.6875 -12 C 11.757812 -12.195312 11.796875 -12.398438 11.796875 -12.609375 C 11.796875 -12.929688 11.707031 -13.171875 11.53125 -13.328125 C 11.351562 -13.484375 11.109375 -13.5625 10.796875 -13.5625 C 10.390625 -13.5625 10.046875 -13.441406 9.765625 -13.203125 C 9.484375 -12.972656 9.203125 -12.5625 8.921875 -11.96875 L 6.875 -7.59375 Z M 10.375 -7.59375 "/></g></g></g><g fill="#000000" fill-opacity="0.4"><g transform="translate(202.519064, 275.97894)"><g><path d="M 15.46875 -3.453125 C 15.4375 -3.378906 15.421875 -3.273438 15.421875 -3.140625 C 15.421875 -3.023438 15.445312 -2.929688 15.5 -2.859375 C 15.5625 -2.796875 15.640625 -2.765625 15.734375 -2.765625 C 15.941406 -2.765625 16.113281 -2.851562 16.25 -3.03125 C 16.394531 -3.207031 16.492188 -3.296875 16.546875 -3.296875 C 16.628906 -3.296875 16.691406 -3.238281 16.734375 -3.125 C 16.785156 -3.019531 16.8125 -2.894531 16.8125 -2.75 C 16.832031 -2.269531 16.675781 -1.800781 16.34375 -1.34375 C 16.007812 -0.882812 15.519531 -0.507812 14.875 -0.21875 C 14.238281 0.0703125 13.46875 0.21875 12.5625 0.21875 C 11.46875 0.21875 10.59375 -0.03125 9.9375 -0.53125 C 9.289062 -1.039062 8.957031 -1.722656 8.9375 -2.578125 C 8.9375 -3.191406 9.085938 -3.878906 9.390625 -4.640625 L 10.765625 -8.25 C 10.847656 -8.457031 10.890625 -8.628906 10.890625 -8.765625 C 10.890625 -8.984375 10.816406 -9.15625 10.671875 -9.28125 C 10.535156 -9.40625 10.367188 -9.46875 10.171875 -9.46875 C 9.804688 -9.46875 9.457031 -9.296875 9.125 -8.953125 C 8.789062 -8.609375 8.546875 -8.1875 8.390625 -7.6875 L 6.84375 -2.59375 C 6.78125 -2.414062 6.75 -2.242188 6.75 -2.078125 C 6.75 -1.878906 6.789062 -1.71875 6.875 -1.59375 C 6.957031 -1.46875 7.070312 -1.335938 7.21875 -1.203125 C 7.332031 -1.097656 7.414062 -1.003906 7.46875 -0.921875 C 7.519531 -0.835938 7.53125 -0.738281 7.5 -0.625 C 7.425781 -0.40625 7.265625 -0.242188 7.015625 -0.140625 C 6.765625 -0.046875 6.375 0 5.84375 0 L 0.15625 0 C -0.28125 0 -0.59375 -0.0664062 -0.78125 -0.203125 C -0.976562 -0.347656 -1.050781 -0.539062 -1 -0.78125 C -0.9375 -0.976562 -0.757812 -1.148438 -0.46875 -1.296875 C -0.21875 -1.429688 -0.0078125 -1.585938 0.15625 -1.765625 C 0.320312 -1.953125 0.460938 -2.242188 0.578125 -2.640625 L 2.796875 -9.875 C 2.828125 -9.957031 2.84375 -10.070312 2.84375 -10.21875 C 2.84375 -10.40625 2.804688 -10.546875 2.734375 -10.640625 C 2.660156 -10.742188 2.539062 -10.867188 2.375 -11.015625 C 2.207031 -11.148438 2.085938 -11.265625 2.015625 -11.359375 C 1.953125 -11.460938 1.945312 -11.597656 2 -11.765625 C 2.101562 -12.148438 2.628906 -12.488281 3.578125 -12.78125 C 4.523438 -13.070312 5.515625 -13.21875 6.546875 -13.21875 C 7.378906 -13.21875 8.035156 -12.988281 8.515625 -12.53125 C 9.003906 -12.070312 9.222656 -11.4375 9.171875 -10.625 C 9.847656 -11.601562 10.566406 -12.28125 11.328125 -12.65625 C 12.097656 -13.03125 12.9375 -13.21875 13.84375 -13.21875 C 14.851562 -13.21875 15.671875 -12.910156 16.296875 -12.296875 C 16.921875 -11.679688 17.234375 -10.878906 17.234375 -9.890625 C 17.234375 -9.378906 17.148438 -8.875 16.984375 -8.375 Z M 15.46875 -3.453125 "/></g></g></g><g fill="#000000" fill-opacity="0.4"><g transform="translate(220.403539, 275.97894)"><g><path d="M 11.171875 -12.890625 C 11.484375 -12.890625 11.726562 -12.820312 11.90625 -12.6875 C 12.082031 -12.550781 12.171875 -12.367188 12.171875 -12.140625 C 12.171875 -12.078125 12.15625 -11.960938 12.125 -11.796875 C 11.90625 -11.054688 11.40625 -10.6875 10.625 -10.6875 L 9.171875 -10.6875 L 7.296875 -4.515625 C 7.210938 -4.265625 7.171875 -4.007812 7.171875 -3.75 C 7.171875 -3.445312 7.253906 -3.238281 7.421875 -3.125 C 7.585938 -3.007812 7.820312 -2.953125 8.125 -2.953125 C 8.382812 -2.953125 8.71875 -2.984375 9.125 -3.046875 C 9.320312 -3.097656 9.492188 -3.125 9.640625 -3.125 C 9.753906 -3.125 9.84375 -3.082031 9.90625 -3 C 9.96875 -2.925781 10 -2.832031 10 -2.71875 C 10.007812 -2.382812 9.757812 -1.976562 9.25 -1.5 C 8.75 -1.03125 8.0625 -0.625 7.1875 -0.28125 C 6.320312 0.0507812 5.367188 0.21875 4.328125 0.21875 C 3.191406 0.21875 2.28125 -0.0351562 1.59375 -0.546875 C 0.914062 -1.066406 0.578125 -1.773438 0.578125 -2.671875 C 0.578125 -3.085938 0.644531 -3.488281 0.78125 -3.875 L 2.375 -8.8125 C 2.457031 -9.101562 2.5 -9.332031 2.5 -9.5 C 2.5 -9.832031 2.421875 -10.113281 2.265625 -10.34375 C 2.109375 -10.570312 1.882812 -10.8125 1.59375 -11.0625 C 1.34375 -11.300781 1.164062 -11.5 1.0625 -11.65625 C 0.96875 -11.8125 0.945312 -12 1 -12.21875 C 1.0625 -12.4375 1.203125 -12.601562 1.421875 -12.71875 C 1.640625 -12.832031 1.984375 -12.890625 2.453125 -12.890625 L 3.84375 -12.890625 L 5.421875 -14.46875 C 5.972656 -15.019531 6.476562 -15.398438 6.9375 -15.609375 C 7.394531 -15.828125 7.988281 -15.9375 8.71875 -15.9375 C 9.769531 -15.9375 10.296875 -15.535156 10.296875 -14.734375 C 10.296875 -14.484375 10.257812 -14.253906 10.1875 -14.046875 L 9.84375 -12.890625 Z M 11.171875 -12.890625 "/></g></g></g><g fill="#000000" fill-opacity="0.4"><g transform="translate(231.144215, 275.97894)"><g><path d="M 15.3125 -3.453125 C 15.28125 -3.378906 15.265625 -3.273438 15.265625 -3.140625 C 15.265625 -3.023438 15.289062 -2.929688 15.34375 -2.859375 C 15.40625 -2.796875 15.488281 -2.765625 15.59375 -2.765625 C 15.789062 -2.765625 15.957031 -2.851562 16.09375 -3.03125 C 16.238281 -3.207031 16.335938 -3.296875 16.390625 -3.296875 C 16.472656 -3.296875 16.539062 -3.238281 16.59375 -3.125 C 16.644531 -3.019531 16.671875 -2.894531 16.671875 -2.75 C 16.679688 -2.269531 16.519531 -1.800781 16.1875 -1.34375 C 15.851562 -0.882812 15.363281 -0.507812 14.71875 -0.21875 C 14.082031 0.0703125 13.316406 0.21875 12.421875 0.21875 C 11.316406 0.21875 10.4375 -0.03125 9.78125 -0.53125 C 9.132812 -1.039062 8.804688 -1.722656 8.796875 -2.578125 C 8.796875 -3.191406 8.945312 -3.878906 9.25 -4.640625 L 10.625 -8.25 C 10.707031 -8.457031 10.75 -8.628906 10.75 -8.765625 C 10.75 -8.984375 10.675781 -9.15625 10.53125 -9.28125 C 10.382812 -9.40625 10.210938 -9.46875 10.015625 -9.46875 C 9.703125 -9.46875 9.378906 -9.320312 9.046875 -9.03125 C 8.722656 -8.738281 8.460938 -8.269531 8.265625 -7.625 L 8.265625 -7.671875 L 6.703125 -2.59375 C 6.648438 -2.394531 6.625 -2.222656 6.625 -2.078125 C 6.625 -1.859375 6.664062 -1.6875 6.75 -1.5625 C 6.832031 -1.4375 6.945312 -1.316406 7.09375 -1.203125 C 7.207031 -1.085938 7.289062 -0.988281 7.34375 -0.90625 C 7.394531 -0.832031 7.40625 -0.738281 7.375 -0.625 C 7.289062 -0.40625 7.125 -0.242188 6.875 -0.140625 C 6.625 -0.046875 6.238281 0 5.71875 0 L 0.03125 0 C -0.40625 0 -0.722656 -0.0664062 -0.921875 -0.203125 C -1.117188 -0.347656 -1.1875 -0.539062 -1.125 -0.78125 C -1.0625 -0.976562 -0.882812 -1.148438 -0.59375 -1.296875 C -0.34375 -1.429688 -0.132812 -1.585938 0.03125 -1.765625 C 0.195312 -1.953125 0.335938 -2.242188 0.453125 -2.640625 L 4.25 -15.109375 C 4.300781 -15.265625 4.328125 -15.390625 4.328125 -15.484375 C 4.328125 -15.671875 4.28125 -15.820312 4.1875 -15.9375 C 4.09375 -16.050781 3.972656 -16.171875 3.828125 -16.296875 C 3.660156 -16.421875 3.535156 -16.535156 3.453125 -16.640625 C 3.378906 -16.742188 3.367188 -16.878906 3.421875 -17.046875 C 3.523438 -17.421875 4.050781 -17.75 5 -18.03125 C 5.945312 -18.320312 6.9375 -18.46875 7.96875 -18.46875 C 8.9375 -18.46875 9.648438 -18.28125 10.109375 -17.90625 C 10.566406 -17.539062 10.796875 -17.046875 10.796875 -16.421875 C 10.796875 -16.046875 10.738281 -15.6875 10.625 -15.34375 L 9.265625 -10.9375 C 9.921875 -11.789062 10.609375 -12.382812 11.328125 -12.71875 C 12.054688 -13.050781 12.84375 -13.21875 13.6875 -13.21875 C 14.707031 -13.21875 15.53125 -12.910156 16.15625 -12.296875 C 16.78125 -11.679688 17.09375 -10.878906 17.09375 -9.890625 C 17.09375 -9.378906 17.007812 -8.875 16.84375 -8.375 Z M 15.3125 -3.453125 "/></g></g></g><g fill="#000000" fill-opacity="0.4"><g transform="translate(248.87882, 275.97894)"><g><path d="M 9.671875 -13.21875 C 11.929688 -13.21875 13.597656 -12.757812 14.671875 -11.84375 C 15.753906 -10.925781 16.296875 -9.726562 16.296875 -8.25 C 16.296875 -7.75 16.226562 -7.191406 16.09375 -6.578125 C 15.769531 -5.203125 15.175781 -4.003906 14.3125 -2.984375 C 13.445312 -1.960938 12.382812 -1.171875 11.125 -0.609375 C 9.875 -0.0546875 8.515625 0.21875 7.046875 0.21875 C 4.734375 0.21875 3.019531 -0.238281 1.90625 -1.15625 C 0.800781 -2.082031 0.25 -3.3125 0.25 -4.84375 C 0.25 -5.363281 0.316406 -5.941406 0.453125 -6.578125 C 0.765625 -7.867188 1.363281 -9.019531 2.25 -10.03125 C 3.144531 -11.039062 4.238281 -11.820312 5.53125 -12.375 C 6.820312 -12.9375 8.203125 -13.21875 9.671875 -13.21875 Z M 9.59375 -11 C 9.238281 -11 8.863281 -10.6875 8.46875 -10.0625 C 8.082031 -9.4375 7.625 -8.253906 7.09375 -6.515625 C 6.5625 -4.785156 6.296875 -3.570312 6.296875 -2.875 C 6.296875 -2.507812 6.351562 -2.265625 6.46875 -2.140625 C 6.582031 -2.015625 6.742188 -1.953125 6.953125 -1.953125 C 7.296875 -1.921875 7.65625 -2.21875 8.03125 -2.84375 C 8.40625 -3.476562 8.875 -4.710938 9.4375 -6.546875 C 9.957031 -8.160156 10.21875 -9.332031 10.21875 -10.0625 C 10.21875 -10.414062 10.160156 -10.660156 10.046875 -10.796875 C 9.941406 -10.929688 9.789062 -11 9.59375 -11 Z M 9.59375 -11 "/></g></g></g><g fill="#000000" fill-opacity="0.4"><g transform="translate(265.264592, 275.97894)"><g><path d="M 15.46875 -3.453125 C 15.4375 -3.378906 15.421875 -3.273438 15.421875 -3.140625 C 15.421875 -3.023438 15.445312 -2.929688 15.5 -2.859375 C 15.5625 -2.796875 15.640625 -2.765625 15.734375 -2.765625 C 15.941406 -2.765625 16.113281 -2.851562 16.25 -3.03125 C 16.394531 -3.207031 16.492188 -3.296875 16.546875 -3.296875 C 16.628906 -3.296875 16.691406 -3.238281 16.734375 -3.125 C 16.785156 -3.019531 16.8125 -2.894531 16.8125 -2.75 C 16.832031 -2.269531 16.675781 -1.800781 16.34375 -1.34375 C 16.007812 -0.882812 15.519531 -0.507812 14.875 -0.21875 C 14.238281 0.0703125 13.46875 0.21875 12.5625 0.21875 C 11.46875 0.21875 10.59375 -0.03125 9.9375 -0.53125 C 9.289062 -1.039062 8.957031 -1.722656 8.9375 -2.578125 C 8.9375 -3.191406 9.085938 -3.878906 9.390625 -4.640625 L 10.765625 -8.25 C 10.847656 -8.457031 10.890625 -8.628906 10.890625 -8.765625 C 10.890625 -8.984375 10.816406 -9.15625 10.671875 -9.28125 C 10.535156 -9.40625 10.367188 -9.46875 10.171875 -9.46875 C 9.804688 -9.46875 9.457031 -9.296875 9.125 -8.953125 C 8.789062 -8.609375 8.546875 -8.1875 8.390625 -7.6875 L 6.84375 -2.59375 C 6.78125 -2.414062 6.75 -2.242188 6.75 -2.078125 C 6.75 -1.878906 6.789062 -1.71875 6.875 -1.59375 C 6.957031 -1.46875 7.070312 -1.335938 7.21875 -1.203125 C 7.332031 -1.097656 7.414062 -1.003906 7.46875 -0.921875 C 7.519531 -0.835938 7.53125 -0.738281 7.5 -0.625 C 7.425781 -0.40625 7.265625 -0.242188 7.015625 -0.140625 C 6.765625 -0.046875 6.375 0 5.84375 0 L 0.15625 0 C -0.28125 0 -0.59375 -0.0664062 -0.78125 -0.203125 C -0.976562 -0.347656 -1.050781 -0.539062 -1 -0.78125 C -0.9375 -0.976562 -0.757812 -1.148438 -0.46875 -1.296875 C -0.21875 -1.429688 -0.0078125 -1.585938 0.15625 -1.765625 C 0.320312 -1.953125 0.460938 -2.242188 0.578125 -2.640625 L 2.796875 -9.875 C 2.828125 -9.957031 2.84375 -10.070312 2.84375 -10.21875 C 2.84375 -10.40625 2.804688 -10.546875 2.734375 -10.640625 C 2.660156 -10.742188 2.539062 -10.867188 2.375 -11.015625 C 2.207031 -11.148438 2.085938 -11.265625 2.015625 -11.359375 C 1.953125 -11.460938 1.945312 -11.597656 2 -11.765625 C 2.101562 -12.148438 2.628906 -12.488281 3.578125 -12.78125 C 4.523438 -13.070312 5.515625 -13.21875 6.546875 -13.21875 C 7.378906 -13.21875 8.035156 -12.988281 8.515625 -12.53125 C 9.003906 -12.070312 9.222656 -11.4375 9.171875 -10.625 C 9.847656 -11.601562 10.566406 -12.28125 11.328125 -12.65625 C 12.097656 -13.03125 12.9375 -13.21875 13.84375 -13.21875 C 14.851562 -13.21875 15.671875 -12.910156 16.296875 -12.296875 C 16.921875 -11.679688 17.234375 -10.878906 17.234375 -9.890625 C 17.234375 -9.378906 17.148438 -8.875 16.984375 -8.375 Z M 15.46875 -3.453125 "/></g></g></g><g fill="#000000" fill-opacity="0.4"><g transform="translate(283.14907, 275.97894)"><g><path d="M 13.234375 -13.21875 C 13.972656 -13.21875 14.5625 -12.921875 15 -12.328125 C 15.445312 -11.734375 15.671875 -10.929688 15.671875 -9.921875 C 15.671875 -9.035156 15.507812 -8.085938 15.1875 -7.078125 C 14.570312 -5.023438 13.582031 -3.085938 12.21875 -1.265625 C 10.863281 0.546875 9.304688 2 7.546875 3.09375 C 5.796875 4.195312 4.046875 4.75 2.296875 4.75 C 1.429688 4.75 0.6875 4.597656 0.0625 4.296875 C -0.5625 3.992188 -1.035156 3.59375 -1.359375 3.09375 C -1.679688 2.59375 -1.84375 2.0625 -1.84375 1.5 C -1.84375 1.25 -1.800781 0.972656 -1.71875 0.671875 C -1.570312 0.203125 -1.320312 -0.15625 -0.96875 -0.40625 C -0.625 -0.65625 -0.207031 -0.78125 0.28125 -0.78125 C 1.039062 -0.78125 1.664062 -0.519531 2.15625 0 C 2.644531 0.53125 2.957031 1.253906 3.09375 2.171875 C 4.164062 2.117188 5.148438 1.660156 6.046875 0.796875 C 5.191406 0.648438 4.5625 0.363281 4.15625 -0.0625 C 3.75 -0.488281 3.472656 -1.148438 3.328125 -2.046875 L 2.328125 -8.171875 C 2.273438 -8.484375 2.203125 -8.703125 2.109375 -8.828125 C 2.015625 -8.953125 1.894531 -9.015625 1.75 -9.015625 C 1.632812 -9.015625 1.492188 -8.957031 1.328125 -8.84375 C 1.171875 -8.726562 1.0625 -8.671875 1 -8.671875 C 0.863281 -8.671875 0.796875 -8.8125 0.796875 -9.09375 C 0.796875 -9.320312 0.835938 -9.570312 0.921875 -9.84375 C 1.222656 -10.789062 1.78125 -11.59375 2.59375 -12.25 C 3.414062 -12.90625 4.367188 -13.234375 5.453125 -13.234375 C 6.515625 -13.234375 7.296875 -12.914062 7.796875 -12.28125 C 8.304688 -11.65625 8.640625 -10.6875 8.796875 -9.375 L 9.546875 -3.875 C 9.597656 -3.457031 9.75 -3.25 10 -3.25 C 10.289062 -3.25 10.632812 -3.519531 11.03125 -4.0625 C 11.4375 -4.601562 11.832031 -5.375 12.21875 -6.375 C 11.71875 -6.820312 11.332031 -7.335938 11.0625 -7.921875 C 10.800781 -8.503906 10.671875 -9.128906 10.671875 -9.796875 C 10.671875 -10.304688 10.738281 -10.769531 10.875 -11.1875 C 11.070312 -11.851562 11.378906 -12.359375 11.796875 -12.703125 C 12.222656 -13.046875 12.703125 -13.21875 13.234375 -13.21875 Z M 13.234375 -13.21875 "/></g></g></g><g fill="#004aad" fill-opacity="1"><g transform="translate(183.980265, 274.875005)"><g><path d="M 15.265625 -2.953125 C 15.203125 -2.734375 15.171875 -2.515625 15.171875 -2.296875 C 15.171875 -2.117188 15.191406 -1.96875 15.234375 -1.84375 C 15.285156 -1.71875 15.335938 -1.613281 15.390625 -1.53125 C 15.453125 -1.457031 15.492188 -1.40625 15.515625 -1.375 C 15.679688 -1.207031 15.765625 -1.039062 15.765625 -0.875 C 15.765625 -0.84375 15.75 -0.757812 15.71875 -0.625 C 15.644531 -0.394531 15.492188 -0.234375 15.265625 -0.140625 C 15.046875 -0.046875 14.703125 0 14.234375 0 L 8.3125 0 C 7.96875 0 7.695312 -0.0546875 7.5 -0.171875 C 7.3125 -0.285156 7.21875 -0.445312 7.21875 -0.65625 C 7.21875 -0.75 7.242188 -0.851562 7.296875 -0.96875 C 7.347656 -1.101562 7.414062 -1.207031 7.5 -1.28125 C 7.59375 -1.363281 7.722656 -1.453125 7.890625 -1.546875 C 8.160156 -1.703125 8.378906 -1.867188 8.546875 -2.046875 C 8.710938 -2.234375 8.851562 -2.535156 8.96875 -2.953125 L 9.625 -5.09375 L 5.71875 -5.09375 L 5.046875 -3.671875 C 4.765625 -3.054688 4.625 -2.570312 4.625 -2.21875 C 4.625 -2.019531 4.65625 -1.859375 4.71875 -1.734375 C 4.789062 -1.609375 4.890625 -1.476562 5.015625 -1.34375 C 5.140625 -1.21875 5.222656 -1.109375 5.265625 -1.015625 C 5.304688 -0.921875 5.304688 -0.800781 5.265625 -0.65625 C 5.203125 -0.40625 5.066406 -0.234375 4.859375 -0.140625 C 4.648438 -0.046875 4.320312 0 3.875 0 L 0.15625 0 C -0.226562 0 -0.519531 -0.0664062 -0.71875 -0.203125 C -0.925781 -0.347656 -1.03125 -0.539062 -1.03125 -0.78125 C -1.03125 -1.039062 -0.929688 -1.25 -0.734375 -1.40625 C -0.546875 -1.570312 -0.257812 -1.742188 0.125 -1.921875 C 0.625 -2.171875 1.023438 -2.414062 1.328125 -2.65625 C 1.628906 -2.894531 1.882812 -3.234375 2.09375 -3.671875 L 6.546875 -12.890625 C 7.222656 -14.328125 8.023438 -15.363281 8.953125 -16 C 9.878906 -16.644531 11.097656 -16.96875 12.609375 -16.96875 C 14.316406 -16.96875 15.632812 -16.617188 16.5625 -15.921875 C 17.5 -15.234375 17.96875 -14.273438 17.96875 -13.046875 C 17.96875 -12.523438 17.882812 -11.988281 17.71875 -11.4375 Z M 10.375 -7.59375 L 11.6875 -12 C 11.757812 -12.195312 11.796875 -12.398438 11.796875 -12.609375 C 11.796875 -12.929688 11.707031 -13.171875 11.53125 -13.328125 C 11.351562 -13.484375 11.109375 -13.5625 10.796875 -13.5625 C 10.390625 -13.5625 10.046875 -13.441406 9.765625 -13.203125 C 9.484375 -12.972656 9.203125 -12.5625 8.921875 -11.96875 L 6.875 -7.59375 Z M 10.375 -7.59375 "/></g></g></g><g fill="#004aad" fill-opacity="1"><g transform="translate(201.415129, 274.875005)"><g><path d="M 15.46875 -3.453125 C 15.4375 -3.378906 15.421875 -3.273438 15.421875 -3.140625 C 15.421875 -3.023438 15.445312 -2.929688 15.5 -2.859375 C 15.5625 -2.796875 15.640625 -2.765625 15.734375 -2.765625 C 15.941406 -2.765625 16.113281 -2.851562 16.25 -3.03125 C 16.394531 -3.207031 16.492188 -3.296875 16.546875 -3.296875 C 16.628906 -3.296875 16.691406 -3.238281 16.734375 -3.125 C 16.785156 -3.019531 16.8125 -2.894531 16.8125 -2.75 C 16.832031 -2.269531 16.675781 -1.800781 16.34375 -1.34375 C 16.007812 -0.882812 15.519531 -0.507812 14.875 -0.21875 C 14.238281 0.0703125 13.46875 0.21875 12.5625 0.21875 C 11.46875 0.21875 10.59375 -0.03125 9.9375 -0.53125 C 9.289062 -1.039062 8.957031 -1.722656 8.9375 -2.578125 C 8.9375 -3.191406 9.085938 -3.878906 9.390625 -4.640625 L 10.765625 -8.25 C 10.847656 -8.457031 10.890625 -8.628906 10.890625 -8.765625 C 10.890625 -8.984375 10.816406 -9.15625 10.671875 -9.28125 C 10.535156 -9.40625 10.367188 -9.46875 10.171875 -9.46875 C 9.804688 -9.46875 9.457031 -9.296875 9.125 -8.953125 C 8.789062 -8.609375 8.546875 -8.1875 8.390625 -7.6875 L 6.84375 -2.59375 C 6.78125 -2.414062 6.75 -2.242188 6.75 -2.078125 C 6.75 -1.878906 6.789062 -1.71875 6.875 -1.59375 C 6.957031 -1.46875 7.070312 -1.335938 7.21875 -1.203125 C 7.332031 -1.097656 7.414062 -1.003906 7.46875 -0.921875 C 7.519531 -0.835938 7.53125 -0.738281 7.5 -0.625 C 7.425781 -0.40625 7.265625 -0.242188 7.015625 -0.140625 C 6.765625 -0.046875 6.375 0 5.84375 0 L 0.15625 0 C -0.28125 0 -0.59375 -0.0664062 -0.78125 -0.203125 C -0.976562 -0.347656 -1.050781 -0.539062 -1 -0.78125 C -0.9375 -0.976562 -0.757812 -1.148438 -0.46875 -1.296875 C -0.21875 -1.429688 -0.0078125 -1.585938 0.15625 -1.765625 C 0.320312 -1.953125 0.460938 -2.242188 0.578125 -2.640625 L 2.796875 -9.875 C 2.828125 -9.957031 2.84375 -10.070312 2.84375 -10.21875 C 2.84375 -10.40625 2.804688 -10.546875 2.734375 -10.640625 C 2.660156 -10.742188 2.539062 -10.867188 2.375 -11.015625 C 2.207031 -11.148438 2.085938 -11.265625 2.015625 -11.359375 C 1.953125 -11.460938 1.945312 -11.597656 2 -11.765625 C 2.101562 -12.148438 2.628906 -12.488281 3.578125 -12.78125 C 4.523438 -13.070312 5.515625 -13.21875 6.546875 -13.21875 C 7.378906 -13.21875 8.035156 -12.988281 8.515625 -12.53125 C 9.003906 -12.070312 9.222656 -11.4375 9.171875 -10.625 C 9.847656 -11.601562 10.566406 -12.28125 11.328125 -12.65625 C 12.097656 -13.03125 12.9375 -13.21875 13.84375 -13.21875 C 14.851562 -13.21875 15.671875 -12.910156 16.296875 -12.296875 C 16.921875 -11.679688 17.234375 -10.878906 17.234375 -9.890625 C 17.234375 -9.378906 17.148438 -8.875 16.984375 -8.375 Z M 15.46875 -3.453125 "/></g></g></g><g fill="#004aad" fill-opacity="1"><g transform="translate(219.299604, 274.875005)"><g><path d="M 11.171875 -12.890625 C 11.484375 -12.890625 11.726562 -12.820312 11.90625 -12.6875 C 12.082031 -12.550781 12.171875 -12.367188 12.171875 -12.140625 C 12.171875 -12.078125 12.15625 -11.960938 12.125 -11.796875 C 11.90625 -11.054688 11.40625 -10.6875 10.625 -10.6875 L 9.171875 -10.6875 L 7.296875 -4.515625 C 7.210938 -4.265625 7.171875 -4.007812 7.171875 -3.75 C 7.171875 -3.445312 7.253906 -3.238281 7.421875 -3.125 C 7.585938 -3.007812 7.820312 -2.953125 8.125 -2.953125 C 8.382812 -2.953125 8.71875 -2.984375 9.125 -3.046875 C 9.320312 -3.097656 9.492188 -3.125 9.640625 -3.125 C 9.753906 -3.125 9.84375 -3.082031 9.90625 -3 C 9.96875 -2.925781 10 -2.832031 10 -2.71875 C 10.007812 -2.382812 9.757812 -1.976562 9.25 -1.5 C 8.75 -1.03125 8.0625 -0.625 7.1875 -0.28125 C 6.320312 0.0507812 5.367188 0.21875 4.328125 0.21875 C 3.191406 0.21875 2.28125 -0.0351562 1.59375 -0.546875 C 0.914062 -1.066406 0.578125 -1.773438 0.578125 -2.671875 C 0.578125 -3.085938 0.644531 -3.488281 0.78125 -3.875 L 2.375 -8.8125 C 2.457031 -9.101562 2.5 -9.332031 2.5 -9.5 C 2.5 -9.832031 2.421875 -10.113281 2.265625 -10.34375 C 2.109375 -10.570312 1.882812 -10.8125 1.59375 -11.0625 C 1.34375 -11.300781 1.164062 -11.5 1.0625 -11.65625 C 0.96875 -11.8125 0.945312 -12 1 -12.21875 C 1.0625 -12.4375 1.203125 -12.601562 1.421875 -12.71875 C 1.640625 -12.832031 1.984375 -12.890625 2.453125 -12.890625 L 3.84375 -12.890625 L 5.421875 -14.46875 C 5.972656 -15.019531 6.476562 -15.398438 6.9375 -15.609375 C 7.394531 -15.828125 7.988281 -15.9375 8.71875 -15.9375 C 9.769531 -15.9375 10.296875 -15.535156 10.296875 -14.734375 C 10.296875 -14.484375 10.257812 -14.253906 10.1875 -14.046875 L 9.84375 -12.890625 Z M 11.171875 -12.890625 "/></g></g></g><g fill="#004aad" fill-opacity="1"><g transform="translate(230.04028, 274.875005)"><g><path d="M 15.3125 -3.453125 C 15.28125 -3.378906 15.265625 -3.273438 15.265625 -3.140625 C 15.265625 -3.023438 15.289062 -2.929688 15.34375 -2.859375 C 15.40625 -2.796875 15.488281 -2.765625 15.59375 -2.765625 C 15.789062 -2.765625 15.957031 -2.851562 16.09375 -3.03125 C 16.238281 -3.207031 16.335938 -3.296875 16.390625 -3.296875 C 16.472656 -3.296875 16.539062 -3.238281 16.59375 -3.125 C 16.644531 -3.019531 16.671875 -2.894531 16.671875 -2.75 C 16.679688 -2.269531 16.519531 -1.800781 16.1875 -1.34375 C 15.851562 -0.882812 15.363281 -0.507812 14.71875 -0.21875 C 14.082031 0.0703125 13.316406 0.21875 12.421875 0.21875 C 11.316406 0.21875 10.4375 -0.03125 9.78125 -0.53125 C 9.132812 -1.039062 8.804688 -1.722656 8.796875 -2.578125 C 8.796875 -3.191406 8.945312 -3.878906 9.25 -4.640625 L 10.625 -8.25 C 10.707031 -8.457031 10.75 -8.628906 10.75 -8.765625 C 10.75 -8.984375 10.675781 -9.15625 10.53125 -9.28125 C 10.382812 -9.40625 10.210938 -9.46875 10.015625 -9.46875 C 9.703125 -9.46875 9.378906 -9.320312 9.046875 -9.03125 C 8.722656 -8.738281 8.460938 -8.269531 8.265625 -7.625 L 8.265625 -7.671875 L 6.703125 -2.59375 C 6.648438 -2.394531 6.625 -2.222656 6.625 -2.078125 C 6.625 -1.859375 6.664062 -1.6875 6.75 -1.5625 C 6.832031 -1.4375 6.945312 -1.316406 7.09375 -1.203125 C 7.207031 -1.085938 7.289062 -0.988281 7.34375 -0.90625 C 7.394531 -0.832031 7.40625 -0.738281 7.375 -0.625 C 7.289062 -0.40625 7.125 -0.242188 6.875 -0.140625 C 6.625 -0.046875 6.238281 0 5.71875 0 L 0.03125 0 C -0.40625 0 -0.722656 -0.0664062 -0.921875 -0.203125 C -1.117188 -0.347656 -1.1875 -0.539062 -1.125 -0.78125 C -1.0625 -0.976562 -0.882812 -1.148438 -0.59375 -1.296875 C -0.34375 -1.429688 -0.132812 -1.585938 0.03125 -1.765625 C 0.195312 -1.953125 0.335938 -2.242188 0.453125 -2.640625 L 4.25 -15.109375 C 4.300781 -15.265625 4.328125 -15.390625 4.328125 -15.484375 C 4.328125 -15.671875 4.28125 -15.820312 4.1875 -15.9375 C 4.09375 -16.050781 3.972656 -16.171875 3.828125 -16.296875 C 3.660156 -16.421875 3.535156 -16.535156 3.453125 -16.640625 C 3.378906 -16.742188 3.367188 -16.878906 3.421875 -17.046875 C 3.523438 -17.421875 4.050781 -17.75 5 -18.03125 C 5.945312 -18.320312 6.9375 -18.46875 7.96875 -18.46875 C 8.9375 -18.46875 9.648438 -18.28125 10.109375 -17.90625 C 10.566406 -17.539062 10.796875 -17.046875 10.796875 -16.421875 C 10.796875 -16.046875 10.738281 -15.6875 10.625 -15.34375 L 9.265625 -10.9375 C 9.921875 -11.789062 10.609375 -12.382812 11.328125 -12.71875 C 12.054688 -13.050781 12.84375 -13.21875 13.6875 -13.21875 C 14.707031 -13.21875 15.53125 -12.910156 16.15625 -12.296875 C 16.78125 -11.679688 17.09375 -10.878906 17.09375 -9.890625 C 17.09375 -9.378906 17.007812 -8.875 16.84375 -8.375 Z M 15.3125 -3.453125 "/></g></g></g><g fill="#004aad" fill-opacity="1"><g transform="translate(247.774885, 274.875005)"><g><path d="M 9.671875 -13.21875 C 11.929688 -13.21875 13.597656 -12.757812 14.671875 -11.84375 C 15.753906 -10.925781 16.296875 -9.726562 16.296875 -8.25 C 16.296875 -7.75 16.226562 -7.191406 16.09375 -6.578125 C 15.769531 -5.203125 15.175781 -4.003906 14.3125 -2.984375 C 13.445312 -1.960938 12.382812 -1.171875 11.125 -0.609375 C 9.875 -0.0546875 8.515625 0.21875 7.046875 0.21875 C 4.734375 0.21875 3.019531 -0.238281 1.90625 -1.15625 C 0.800781 -2.082031 0.25 -3.3125 0.25 -4.84375 C 0.25 -5.363281 0.316406 -5.941406 0.453125 -6.578125 C 0.765625 -7.867188 1.363281 -9.019531 2.25 -10.03125 C 3.144531 -11.039062 4.238281 -11.820312 5.53125 -12.375 C 6.820312 -12.9375 8.203125 -13.21875 9.671875 -13.21875 Z M 9.59375 -11 C 9.238281 -11 8.863281 -10.6875 8.46875 -10.0625 C 8.082031 -9.4375 7.625 -8.253906 7.09375 -6.515625 C 6.5625 -4.785156 6.296875 -3.570312 6.296875 -2.875 C 6.296875 -2.507812 6.351562 -2.265625 6.46875 -2.140625 C 6.582031 -2.015625 6.742188 -1.953125 6.953125 -1.953125 C 7.296875 -1.921875 7.65625 -2.21875 8.03125 -2.84375 C 8.40625 -3.476562 8.875 -4.710938 9.4375 -6.546875 C 9.957031 -8.160156 10.21875 -9.332031 10.21875 -10.0625 C 10.21875 -10.414062 10.160156 -10.660156 10.046875 -10.796875 C 9.941406 -10.929688 9.789062 -11 9.59375 -11 Z M 9.59375 -11 "/></g></g></g><g fill="#004aad" fill-opacity="1"><g transform="translate(264.160657, 274.875005)"><g><path d="M 15.46875 -3.453125 C 15.4375 -3.378906 15.421875 -3.273438 15.421875 -3.140625 C 15.421875 -3.023438 15.445312 -2.929688 15.5 -2.859375 C 15.5625 -2.796875 15.640625 -2.765625 15.734375 -2.765625 C 15.941406 -2.765625 16.113281 -2.851562 16.25 -3.03125 C 16.394531 -3.207031 16.492188 -3.296875 16.546875 -3.296875 C 16.628906 -3.296875 16.691406 -3.238281 16.734375 -3.125 C 16.785156 -3.019531 16.8125 -2.894531 16.8125 -2.75 C 16.832031 -2.269531 16.675781 -1.800781 16.34375 -1.34375 C 16.007812 -0.882812 15.519531 -0.507812 14.875 -0.21875 C 14.238281 0.0703125 13.46875 0.21875 12.5625 0.21875 C 11.46875 0.21875 10.59375 -0.03125 9.9375 -0.53125 C 9.289062 -1.039062 8.957031 -1.722656 8.9375 -2.578125 C 8.9375 -3.191406 9.085938 -3.878906 9.390625 -4.640625 L 10.765625 -8.25 C 10.847656 -8.457031 10.890625 -8.628906 10.890625 -8.765625 C 10.890625 -8.984375 10.816406 -9.15625 10.671875 -9.28125 C 10.535156 -9.40625 10.367188 -9.46875 10.171875 -9.46875 C 9.804688 -9.46875 9.457031 -9.296875 9.125 -8.953125 C 8.789062 -8.609375 8.546875 -8.1875 8.390625 -7.6875 L 6.84375 -2.59375 C 6.78125 -2.414062 6.75 -2.242188 6.75 -2.078125 C 6.75 -1.878906 6.789062 -1.71875 6.875 -1.59375 C 6.957031 -1.46875 7.070312 -1.335938 7.21875 -1.203125 C 7.332031 -1.097656 7.414062 -1.003906 7.46875 -0.921875 C 7.519531 -0.835938 7.53125 -0.738281 7.5 -0.625 C 7.425781 -0.40625 7.265625 -0.242188 7.015625 -0.140625 C 6.765625 -0.046875 6.375 0 5.84375 0 L 0.15625 0 C -0.28125 0 -0.59375 -0.0664062 -0.78125 -0.203125 C -0.976562 -0.347656 -1.050781 -0.539062 -1 -0.78125 C -0.9375 -0.976562 -0.757812 -1.148438 -0.46875 -1.296875 C -0.21875 -1.429688 -0.0078125 -1.585938 0.15625 -1.765625 C 0.320312 -1.953125 0.460938 -2.242188 0.578125 -2.640625 L 2.796875 -9.875 C 2.828125 -9.957031 2.84375 -10.070312 2.84375 -10.21875 C 2.84375 -10.40625 2.804688 -10.546875 2.734375 -10.640625 C 2.660156 -10.742188 2.539062 -10.867188 2.375 -11.015625 C 2.207031 -11.148438 2.085938 -11.265625 2.015625 -11.359375 C 1.953125 -11.460938 1.945312 -11.597656 2 -11.765625 C 2.101562 -12.148438 2.628906 -12.488281 3.578125 -12.78125 C 4.523438 -13.070312 5.515625 -13.21875 6.546875 -13.21875 C 7.378906 -13.21875 8.035156 -12.988281 8.515625 -12.53125 C 9.003906 -12.070312 9.222656 -11.4375 9.171875 -10.625 C 9.847656 -11.601562 10.566406 -12.28125 11.328125 -12.65625 C 12.097656 -13.03125 12.9375 -13.21875 13.84375 -13.21875 C 14.851562 -13.21875 15.671875 -12.910156 16.296875 -12.296875 C 16.921875 -11.679688 17.234375 -10.878906 17.234375 -9.890625 C 17.234375 -9.378906 17.148438 -8.875 16.984375 -8.375 Z M 15.46875 -3.453125 "/></g></g></g><g fill="#004aad" fill-opacity="1"><g transform="translate(282.045135, 274.875005)"><g><path d="M 13.234375 -13.21875 C 13.972656 -13.21875 14.5625 -12.921875 15 -12.328125 C 15.445312 -11.734375 15.671875 -10.929688 15.671875 -9.921875 C 15.671875 -9.035156 15.507812 -8.085938 15.1875 -7.078125 C 14.570312 -5.023438 13.582031 -3.085938 12.21875 -1.265625 C 10.863281 0.546875 9.304688 2 7.546875 3.09375 C 5.796875 4.195312 4.046875 4.75 2.296875 4.75 C 1.429688 4.75 0.6875 4.597656 0.0625 4.296875 C -0.5625 3.992188 -1.035156 3.59375 -1.359375 3.09375 C -1.679688 2.59375 -1.84375 2.0625 -1.84375 1.5 C -1.84375 1.25 -1.800781 0.972656 -1.71875 0.671875 C -1.570312 0.203125 -1.320312 -0.15625 -0.96875 -0.40625 C -0.625 -0.65625 -0.207031 -0.78125 0.28125 -0.78125 C 1.039062 -0.78125 1.664062 -0.519531 2.15625 0 C 2.644531 0.53125 2.957031 1.253906 3.09375 2.171875 C 4.164062 2.117188 5.148438 1.660156 6.046875 0.796875 C 5.191406 0.648438 4.5625 0.363281 4.15625 -0.0625 C 3.75 -0.488281 3.472656 -1.148438 3.328125 -2.046875 L 2.328125 -8.171875 C 2.273438 -8.484375 2.203125 -8.703125 2.109375 -8.828125 C 2.015625 -8.953125 1.894531 -9.015625 1.75 -9.015625 C 1.632812 -9.015625 1.492188 -8.957031 1.328125 -8.84375 C 1.171875 -8.726562 1.0625 -8.671875 1 -8.671875 C 0.863281 -8.671875 0.796875 -8.8125 0.796875 -9.09375 C 0.796875 -9.320312 0.835938 -9.570312 0.921875 -9.84375 C 1.222656 -10.789062 1.78125 -11.59375 2.59375 -12.25 C 3.414062 -12.90625 4.367188 -13.234375 5.453125 -13.234375 C 6.515625 -13.234375 7.296875 -12.914062 7.796875 -12.28125 C 8.304688 -11.65625 8.640625 -10.6875 8.796875 -9.375 L 9.546875 -3.875 C 9.597656 -3.457031 9.75 -3.25 10 -3.25 C 10.289062 -3.25 10.632812 -3.519531 11.03125 -4.0625 C 11.4375 -4.601562 11.832031 -5.375 12.21875 -6.375 C 11.71875 -6.820312 11.332031 -7.335938 11.0625 -7.921875 C 10.800781 -8.503906 10.671875 -9.128906 10.671875 -9.796875 C 10.671875 -10.304688 10.738281 -10.769531 10.875 -11.1875 C 11.070312 -11.851562 11.378906 -12.359375 11.796875 -12.703125 C 12.222656 -13.046875 12.703125 -13.21875 13.234375 -13.21875 Z M 13.234375 -13.21875 "/></g></g></g></svg>