<svg xmlns="http://www.w3.org/2000/svg" xmlns:xlink="http://www.w3.org/1999/xlink" width="500" zoomAndPan="magnify" viewBox="0 0 375 374.999991" height="500" preserveAspectRatio="xMidYMid meet" version="1.0"><defs><clipPath id="ee6e19bd86"><path d="M 117.300781 100.128906 L 245.550781 100.128906 L 245.550781 250.128906 L 117.300781 250.128906 Z M 117.300781 100.128906 " clip-rule="nonzero"/></clipPath><clipPath id="05d0334ed6"><path d="M 156 153 L 268 153 L 268 253 L 156 253 Z M 156 153 " clip-rule="nonzero"/></clipPath><clipPath id="c6c853f092"><path d="M 158.757812 152.527344 L 270.246094 155.4375 L 267.699219 252.988281 L 156.210938 250.078125 Z M 158.757812 152.527344 " clip-rule="nonzero"/></clipPath><clipPath id="a3aaed7d8b"><path d="M 214.5 153.980469 L 267.699219 252.988281 L 156.210938 250.078125 Z M 214.5 153.980469 " clip-rule="nonzero"/></clipPath><clipPath id="e2cb8f6346"><path d="M 188 171 L 253 171 L 253 242 L 188 242 Z M 188 171 " clip-rule="nonzero"/></clipPath><clipPath id="4b11ac4ca9"><path d="M 190.042969 170.230469 L 254.1875 171.90625 L 252.363281 241.917969 L 188.214844 240.246094 Z M 190.042969 170.230469 " clip-rule="nonzero"/></clipPath><clipPath id="be5ddaf663"><path d="M 222.117188 171.066406 L 252.363281 241.917969 L 188.214844 240.246094 Z M 222.117188 171.066406 " clip-rule="nonzero"/></clipPath><clipPath id="d34edcd56f"><path d="M 179 159 L 272 159 L 272 253 L 179 253 Z M 179 159 " clip-rule="nonzero"/></clipPath><clipPath id="8592a7d562"><path d="M 182.039062 158.671875 L 274.371094 161.082031 L 271.996094 252.238281 L 179.660156 249.828125 Z M 182.039062 158.671875 " clip-rule="nonzero"/></clipPath><clipPath id="e29cb0b63c"><path d="M 228.207031 159.878906 L 271.996094 252.238281 L 179.660156 249.828125 Z M 228.207031 159.878906 " clip-rule="nonzero"/></clipPath><clipPath id="d42ec06b6a"><path d="M 193 170 L 252 170 L 252 265 L 193 265 Z M 193 170 " clip-rule="nonzero"/></clipPath><clipPath id="92d6d435ab"><path d="M 278.394531 255.007812 L 225.273438 274.863281 L 193.582031 190.082031 L 246.703125 170.222656 Z M 278.394531 255.007812 " clip-rule="nonzero"/></clipPath><clipPath id="769ec9af00"><path d="M 251.835938 264.933594 L 193.582031 190.082031 L 246.703125 170.222656 Z M 251.835938 264.933594 " clip-rule="nonzero"/></clipPath><clipPath id="b3cca7f62e"><path d="M 205 181 L 245 181 L 245 245 L 205 245 Z M 205 181 " clip-rule="nonzero"/></clipPath><clipPath id="05dea1b788"><path d="M 262.128906 238.199219 L 226.589844 251.484375 L 205.390625 194.765625 L 240.929688 181.480469 Z M 262.128906 238.199219 " clip-rule="nonzero"/></clipPath><clipPath id="b395bc5f01"><path d="M 244.359375 244.84375 L 205.390625 194.765625 L 240.929688 181.480469 Z M 244.359375 244.84375 " clip-rule="nonzero"/></clipPath><clipPath id="74c5b864b1"><path d="M 248.535156 100.128906 L 274.363281 100.128906 L 274.363281 260.507812 L 248.535156 260.507812 Z M 248.535156 100.128906 " clip-rule="nonzero"/></clipPath></defs><g clip-path="url(#ee6e19bd86)"><path fill="#ffffff" d="M 117.351562 100.128906 L 117.351562 105.785156 L 132.523438 105.785156 L 132.523438 244.292969 L 120.285156 244.292969 L 120.285156 250.128906 L 167.78125 250.128906 L 167.78125 244.292969 L 156.078125 244.292969 L 156.078125 173.363281 L 200.792969 173.363281 L 200.792969 165.191406 L 156.078125 165.191406 L 156.078125 105.785156 L 197.4375 105.785156 C 220.453125 105.785156 231.316406 116.980469 236.316406 134.21875 L 245.144531 134.21875 L 245.144531 100.128906 Z M 117.351562 100.128906 " fill-opacity="1" fill-rule="nonzero"/></g><g clip-path="url(#05d0334ed6)"><g clip-path="url(#c6c853f092)"><g clip-path="url(#a3aaed7d8b)"><path fill="#ffffff" d="M 158.757812 152.527344 L 270.246094 155.4375 L 267.699219 252.988281 L 156.210938 250.078125 Z M 158.757812 152.527344 " fill-opacity="1" fill-rule="nonzero"/></g></g></g><g clip-path="url(#e2cb8f6346)"><g clip-path="url(#4b11ac4ca9)"><g clip-path="url(#be5ddaf663)"><path fill="#ffffff" d="M 190.042969 170.230469 L 254.1875 171.90625 L 252.363281 241.917969 L 188.214844 240.246094 Z M 190.042969 170.230469 " fill-opacity="1" fill-rule="nonzero"/></g></g></g><g clip-path="url(#d34edcd56f)"><g clip-path="url(#8592a7d562)"><g clip-path="url(#e29cb0b63c)"><path fill="#ffffff" d="M 182.039062 158.671875 L 274.371094 161.082031 L 271.996094 252.238281 L 179.660156 249.828125 Z M 182.039062 158.671875 " fill-opacity="1" fill-rule="nonzero"/></g></g></g><g clip-path="url(#d42ec06b6a)"><g clip-path="url(#92d6d435ab)"><g clip-path="url(#769ec9af00)"><path fill="#000000" d="M 278.394531 255.007812 L 225.273438 274.863281 L 193.582031 190.082031 L 246.703125 170.222656 Z M 278.394531 255.007812 " fill-opacity="1" fill-rule="nonzero"/></g></g></g><g clip-path="url(#b3cca7f62e)"><g clip-path="url(#05dea1b788)"><g clip-path="url(#b395bc5f01)"><path fill="#004aad" d="M 262.128906 238.199219 L 226.589844 251.484375 L 205.390625 194.765625 L 240.929688 181.480469 Z M 262.128906 238.199219 " fill-opacity="1" fill-rule="nonzero"/></g></g></g><g clip-path="url(#74c5b864b1)"><path fill="#000000" d="M 274.363281 100.128906 L 274.363281 260.507812 L 248.535156 260.507812 L 248.535156 100.128906 Z M 274.363281 100.128906 " fill-opacity="1" fill-rule="nonzero"/></g></svg>