<svg xmlns="http://www.w3.org/2000/svg" xmlns:xlink="http://www.w3.org/1999/xlink" width="500" zoomAndPan="magnify" viewBox="0 0 375 374.999991" height="500" preserveAspectRatio="xMidYMid meet" version="1.0"><defs><g/><clipPath id="20e81a1bef"><path d="M 102.289062 91.789062 L 237.402344 91.789062 L 237.402344 250.269531 L 102.289062 250.269531 Z M 102.289062 91.789062 " clip-rule="nonzero"/></clipPath><clipPath id="3d52bb63cc"><path d="M 143 147 L 262 147 L 262 253 L 143 253 Z M 143 147 " clip-rule="nonzero"/></clipPath><clipPath id="f685f3cca2"><path d="M 146.144531 146.425781 L 264.082031 149.5 L 261.390625 252.695312 L 143.453125 249.621094 Z M 146.144531 146.425781 " clip-rule="nonzero"/></clipPath><clipPath id="28e5f16214"><path d="M 205.113281 147.960938 L 261.390625 252.695312 L 143.453125 249.621094 Z M 205.113281 147.960938 " clip-rule="nonzero"/></clipPath><clipPath id="18109d95ff"><path d="M 177 166 L 246 166 L 246 242 L 177 242 Z M 177 166 " clip-rule="nonzero"/></clipPath><clipPath id="62adb1307b"><path d="M 179.242188 165.945312 L 247.097656 167.714844 L 245.167969 241.78125 L 177.308594 240.011719 Z M 179.242188 165.945312 " clip-rule="nonzero"/></clipPath><clipPath id="6c4395ce64"><path d="M 213.167969 166.832031 L 245.167969 241.78125 L 177.308594 240.011719 Z M 213.167969 166.832031 " clip-rule="nonzero"/></clipPath><clipPath id="409d4345d8"><path d="M 168 154 L 266 154 L 266 253 L 168 253 Z M 168 154 " clip-rule="nonzero"/></clipPath><clipPath id="f340bfe7e9"><path d="M 170.773438 153.71875 L 268.449219 156.269531 L 265.933594 252.695312 L 168.257812 250.148438 Z M 170.773438 153.71875 " clip-rule="nonzero"/></clipPath><clipPath id="38dcb551d3"><path d="M 219.613281 154.992188 L 265.933594 252.695312 L 168.257812 250.148438 Z M 219.613281 154.992188 " clip-rule="nonzero"/></clipPath><clipPath id="2b6f509d71"><path d="M 182 165 L 245 165 L 245 267 L 182 267 Z M 182 165 " clip-rule="nonzero"/></clipPath><clipPath id="5407e0b2d8"><path d="M 272.703125 255.636719 L 216.507812 276.640625 L 182.984375 186.953125 L 239.179688 165.945312 Z M 272.703125 255.636719 " clip-rule="nonzero"/></clipPath><clipPath id="395fbd5a74"><path d="M 244.605469 266.136719 L 182.984375 186.953125 L 239.179688 165.945312 Z M 244.605469 266.136719 " clip-rule="nonzero"/></clipPath><clipPath id="bd1cf97017"><path d="M 195 177 L 237 177 L 237 245 L 195 245 Z M 195 177 " clip-rule="nonzero"/></clipPath><clipPath id="2132a64014"><path d="M 255.5 237.851562 L 217.90625 251.902344 L 195.476562 191.902344 L 233.070312 177.847656 Z M 255.5 237.851562 " clip-rule="nonzero"/></clipPath><clipPath id="610725c288"><path d="M 236.703125 244.878906 L 195.476562 191.902344 L 233.070312 177.847656 Z M 236.703125 244.878906 " clip-rule="nonzero"/></clipPath></defs><g clip-path="url(#20e81a1bef)"><path fill="#ffffff" d="M 102.351562 91.789062 L 102.351562 97.769531 L 118.402344 97.769531 L 118.402344 244.285156 L 105.453125 244.285156 L 105.453125 250.460938 L 155.695312 250.460938 L 155.695312 244.285156 L 143.316406 244.285156 L 143.316406 169.253906 L 190.613281 169.253906 L 190.613281 160.613281 L 143.316406 160.613281 L 143.316406 97.769531 L 187.066406 97.769531 C 211.414062 97.769531 222.90625 109.613281 228.191406 127.847656 L 237.53125 127.847656 L 237.53125 91.789062 Z M 102.351562 91.789062 " fill-opacity="1" fill-rule="nonzero"/></g><g clip-path="url(#3d52bb63cc)"><g clip-path="url(#f685f3cca2)"><g clip-path="url(#28e5f16214)"><path fill="#ffffff" d="M 146.144531 146.425781 L 264.082031 149.5 L 261.390625 252.695312 L 143.453125 249.621094 Z M 146.144531 146.425781 " fill-opacity="1" fill-rule="nonzero"/></g></g></g><g clip-path="url(#18109d95ff)"><g clip-path="url(#62adb1307b)"><g clip-path="url(#6c4395ce64)"><path fill="#ffffff" d="M 179.242188 165.945312 L 247.097656 167.714844 L 245.167969 241.78125 L 177.308594 240.011719 Z M 179.242188 165.945312 " fill-opacity="1" fill-rule="nonzero"/></g></g></g><g clip-path="url(#409d4345d8)"><g clip-path="url(#f340bfe7e9)"><g clip-path="url(#38dcb551d3)"><path fill="#ffffff" d="M 170.773438 153.71875 L 268.449219 156.269531 L 265.933594 252.695312 L 168.257812 250.148438 Z M 170.773438 153.71875 " fill-opacity="1" fill-rule="nonzero"/></g></g></g><g clip-path="url(#2b6f509d71)"><g clip-path="url(#5407e0b2d8)"><g clip-path="url(#395fbd5a74)"><path fill="#000000" d="M 272.703125 255.636719 L 216.507812 276.640625 L 182.984375 186.953125 L 239.179688 165.945312 Z M 272.703125 255.636719 " fill-opacity="1" fill-rule="nonzero"/></g></g></g><g clip-path="url(#bd1cf97017)"><g clip-path="url(#2132a64014)"><g clip-path="url(#610725c288)"><path fill="#004aad" d="M 255.5 237.851562 L 217.90625 251.902344 L 195.476562 191.902344 L 233.070312 177.847656 Z M 255.5 237.851562 " fill-opacity="1" fill-rule="nonzero"/></g></g></g><g fill="#000000" fill-opacity="0.4"><g transform="translate(76.241219, 276.671522)"><g><path d="M 16.375 -16.734375 C 17 -16.734375 17.484375 -16.597656 17.828125 -16.328125 C 18.171875 -16.054688 18.34375 -15.6875 18.34375 -15.21875 C 18.34375 -14.988281 18.304688 -14.765625 18.234375 -14.546875 L 17.59375 -12.203125 C 17.46875 -11.773438 17.269531 -11.46875 17 -11.28125 C 16.738281 -11.09375 16.390625 -11 15.953125 -11 C 15.535156 -11 15.203125 -11.085938 14.953125 -11.265625 C 14.703125 -11.441406 14.515625 -11.734375 14.390625 -12.140625 L 14 -13.5625 C 13.925781 -13.8125 13.835938 -13.976562 13.734375 -14.0625 C 13.640625 -14.15625 13.429688 -14.203125 13.109375 -14.203125 L 10.609375 -14.203125 L 9.203125 -9.21875 L 9.671875 -9.21875 C 9.910156 -9.21875 10.113281 -9.25 10.28125 -9.3125 C 10.457031 -9.382812 10.648438 -9.515625 10.859375 -9.703125 L 11.640625 -10.34375 C 11.921875 -10.601562 12.171875 -10.785156 12.390625 -10.890625 C 12.617188 -11.003906 12.859375 -11.0625 13.109375 -11.0625 C 13.429688 -11.0625 13.695312 -10.96875 13.90625 -10.78125 C 14.113281 -10.59375 14.21875 -10.332031 14.21875 -10 C 14.21875 -9.863281 14.191406 -9.703125 14.140625 -9.515625 L 13.046875 -5.703125 C 12.785156 -4.878906 12.332031 -4.46875 11.6875 -4.46875 C 11.144531 -4.46875 10.722656 -4.742188 10.421875 -5.296875 L 9.96875 -6.15625 C 9.851562 -6.382812 9.742188 -6.53125 9.640625 -6.59375 C 9.546875 -6.664062 9.398438 -6.703125 9.203125 -6.703125 L 8.46875 -6.703125 L 7.40625 -2.96875 C 7.375 -2.863281 7.359375 -2.726562 7.359375 -2.5625 C 7.359375 -2.332031 7.410156 -2.140625 7.515625 -1.984375 C 7.628906 -1.835938 7.796875 -1.675781 8.015625 -1.5 C 8.203125 -1.351562 8.328125 -1.234375 8.390625 -1.140625 C 8.460938 -1.046875 8.5 -0.929688 8.5 -0.796875 C 8.5 -0.503906 8.363281 -0.296875 8.09375 -0.171875 C 7.820312 -0.0546875 7.425781 0 6.90625 0 L 0.609375 0 C 0.171875 0 -0.15625 -0.078125 -0.375 -0.234375 C -0.59375 -0.398438 -0.671875 -0.625 -0.609375 -0.90625 C -0.566406 -1.050781 -0.5 -1.171875 -0.40625 -1.265625 C -0.320312 -1.359375 -0.1875 -1.460938 0 -1.578125 C 0.28125 -1.742188 0.503906 -1.921875 0.671875 -2.109375 C 0.835938 -2.296875 0.972656 -2.582031 1.078125 -2.96875 L 4.171875 -13.796875 C 4.234375 -14.015625 4.265625 -14.210938 4.265625 -14.390625 C 4.265625 -14.597656 4.234375 -14.765625 4.171875 -14.890625 C 4.117188 -15.023438 4.035156 -15.171875 3.921875 -15.328125 C 3.765625 -15.546875 3.6875 -15.722656 3.6875 -15.859375 C 3.6875 -15.898438 3.707031 -15.988281 3.75 -16.125 C 3.8125 -16.34375 3.957031 -16.5 4.1875 -16.59375 C 4.425781 -16.6875 4.769531 -16.734375 5.21875 -16.734375 Z M 16.375 -16.734375 "/></g></g></g><g fill="#000000" fill-opacity="0.4"><g transform="translate(92.088036, 276.671522)"><g><path d="M 8.515625 -13.421875 C 10.640625 -13.421875 12.179688 -13.078125 13.140625 -12.390625 C 14.097656 -11.710938 14.578125 -10.847656 14.578125 -9.796875 C 14.578125 -9.484375 14.539062 -9.191406 14.46875 -8.921875 C 14.21875 -7.816406 13.519531 -7.023438 12.375 -6.546875 C 11.226562 -6.066406 9.875 -5.828125 8.3125 -5.828125 C 7.53125 -5.828125 6.796875 -5.878906 6.109375 -5.984375 C 6.085938 -5.109375 6.316406 -4.492188 6.796875 -4.140625 C 7.285156 -3.796875 7.96875 -3.625 8.84375 -3.625 C 9.25 -3.625 9.632812 -3.664062 10 -3.75 C 10.363281 -3.84375 10.832031 -3.984375 11.40625 -4.171875 C 11.875 -4.335938 12.191406 -4.421875 12.359375 -4.421875 C 12.546875 -4.421875 12.640625 -4.3125 12.640625 -4.09375 C 12.648438 -3.507812 12.429688 -2.894531 11.984375 -2.25 C 11.535156 -1.601562 10.863281 -1.050781 9.96875 -0.59375 C 9.082031 -0.144531 8.015625 0.078125 6.765625 0.078125 C 4.898438 0.078125 3.375 -0.390625 2.1875 -1.328125 C 1 -2.265625 0.40625 -3.628906 0.40625 -5.421875 C 0.40625 -5.929688 0.472656 -6.519531 0.609375 -7.1875 C 1.023438 -9.25 1.941406 -10.800781 3.359375 -11.84375 C 4.773438 -12.894531 6.492188 -13.421875 8.515625 -13.421875 Z M 6.28125 -7.484375 C 6.34375 -7.472656 6.4375 -7.46875 6.5625 -7.46875 C 7.257812 -7.46875 7.789062 -7.789062 8.15625 -8.4375 C 8.53125 -9.09375 8.707031 -9.820312 8.6875 -10.625 C 8.675781 -11.09375 8.546875 -11.328125 8.296875 -11.328125 C 8.109375 -11.328125 7.890625 -11.179688 7.640625 -10.890625 C 7.390625 -10.597656 7.140625 -10.15625 6.890625 -9.5625 C 6.648438 -8.976562 6.445312 -8.285156 6.28125 -7.484375 Z M 6.28125 -7.484375 "/></g></g></g><g fill="#000000" fill-opacity="0.4"><g transform="translate(106.151763, 276.671522)"><g><path d="M 13.3125 -13.296875 C 14.050781 -13.296875 14.640625 -12.992188 15.078125 -12.390625 C 15.523438 -11.796875 15.75 -10.988281 15.75 -9.96875 C 15.75 -9.082031 15.59375 -8.128906 15.28125 -7.109375 C 14.65625 -5.046875 13.660156 -3.101562 12.296875 -1.28125 C 10.929688 0.539062 9.363281 2.003906 7.59375 3.109375 C 5.832031 4.222656 4.070312 4.78125 2.3125 4.78125 C 1.4375 4.78125 0.6875 4.628906 0.0625 4.328125 C -0.5625 4.023438 -1.035156 3.617188 -1.359375 3.109375 C -1.691406 2.609375 -1.859375 2.070312 -1.859375 1.5 C -1.859375 1.25 -1.816406 0.972656 -1.734375 0.671875 C -1.578125 0.203125 -1.320312 -0.15625 -0.96875 -0.40625 C -0.625 -0.65625 -0.207031 -0.78125 0.28125 -0.78125 C 1.050781 -0.78125 1.679688 -0.519531 2.171875 0 C 2.671875 0.53125 2.984375 1.257812 3.109375 2.1875 C 4.179688 2.132812 5.171875 1.671875 6.078125 0.796875 C 5.222656 0.648438 4.585938 0.363281 4.171875 -0.0625 C 3.765625 -0.488281 3.488281 -1.15625 3.34375 -2.0625 L 2.34375 -8.21875 C 2.289062 -8.53125 2.21875 -8.75 2.125 -8.875 C 2.03125 -9 1.910156 -9.0625 1.765625 -9.0625 C 1.640625 -9.0625 1.5 -9.003906 1.34375 -8.890625 C 1.1875 -8.773438 1.070312 -8.71875 1 -8.71875 C 0.863281 -8.71875 0.796875 -8.859375 0.796875 -9.140625 C 0.796875 -9.378906 0.835938 -9.632812 0.921875 -9.90625 C 1.222656 -10.851562 1.785156 -11.65625 2.609375 -12.3125 C 3.429688 -12.976562 4.390625 -13.3125 5.484375 -13.3125 C 6.546875 -13.3125 7.332031 -12.992188 7.84375 -12.359375 C 8.363281 -11.722656 8.695312 -10.742188 8.84375 -9.421875 L 9.59375 -3.890625 C 9.644531 -3.472656 9.796875 -3.265625 10.046875 -3.265625 C 10.347656 -3.265625 10.695312 -3.535156 11.09375 -4.078125 C 11.5 -4.628906 11.894531 -5.40625 12.28125 -6.40625 C 11.78125 -6.851562 11.394531 -7.367188 11.125 -7.953125 C 10.863281 -8.546875 10.734375 -9.175781 10.734375 -9.84375 C 10.734375 -10.363281 10.796875 -10.832031 10.921875 -11.25 C 11.128906 -11.925781 11.445312 -12.4375 11.875 -12.78125 C 12.300781 -13.125 12.78125 -13.296875 13.3125 -13.296875 Z M 13.3125 -13.296875 "/></g></g></g><g fill="#000000" fill-opacity="0.4"><g transform="translate(121.722327, 276.671522)"><g><path d="M 6.609375 -13.296875 C 7.578125 -13.296875 8.285156 -13.109375 8.734375 -12.734375 C 9.191406 -12.367188 9.421875 -11.867188 9.421875 -11.234375 C 9.421875 -10.847656 9.363281 -10.476562 9.25 -10.125 L 6.9375 -2.609375 C 6.882812 -2.410156 6.859375 -2.234375 6.859375 -2.078125 C 6.859375 -1.867188 6.898438 -1.695312 6.984375 -1.5625 C 7.066406 -1.4375 7.1875 -1.316406 7.34375 -1.203125 C 7.457031 -1.085938 7.539062 -0.988281 7.59375 -0.90625 C 7.644531 -0.832031 7.648438 -0.738281 7.609375 -0.625 C 7.523438 -0.40625 7.359375 -0.242188 7.109375 -0.140625 C 6.859375 -0.046875 6.472656 0 5.953125 0 L 0.234375 0 C -0.203125 0 -0.519531 -0.0664062 -0.71875 -0.203125 C -0.925781 -0.347656 -0.992188 -0.539062 -0.921875 -0.78125 C -0.859375 -0.976562 -0.6875 -1.15625 -0.40625 -1.3125 C -0.144531 -1.4375 0.0664062 -1.59375 0.234375 -1.78125 C 0.398438 -1.96875 0.539062 -2.257812 0.65625 -2.65625 L 2.84375 -9.921875 C 2.894531 -10.078125 2.921875 -10.203125 2.921875 -10.296875 C 2.921875 -10.484375 2.878906 -10.628906 2.796875 -10.734375 C 2.710938 -10.847656 2.585938 -10.960938 2.421875 -11.078125 C 2.242188 -11.210938 2.125 -11.328125 2.0625 -11.421875 C 2 -11.523438 1.988281 -11.660156 2.03125 -11.828125 C 2.132812 -12.210938 2.660156 -12.550781 3.609375 -12.84375 C 4.566406 -13.144531 5.566406 -13.296875 6.609375 -13.296875 Z M 8.296875 -18.84375 C 8.953125 -18.84375 9.492188 -18.628906 9.921875 -18.203125 C 10.359375 -17.773438 10.578125 -17.25 10.578125 -16.625 C 10.578125 -16.195312 10.460938 -15.769531 10.234375 -15.34375 C 10.015625 -14.925781 9.695312 -14.585938 9.28125 -14.328125 C 8.875 -14.066406 8.421875 -13.9375 7.921875 -13.9375 C 7.285156 -13.9375 6.753906 -14.148438 6.328125 -14.578125 C 5.898438 -15.003906 5.675781 -15.539062 5.65625 -16.1875 C 5.65625 -16.601562 5.765625 -17.015625 5.984375 -17.421875 C 6.203125 -17.835938 6.507812 -18.175781 6.90625 -18.4375 C 7.3125 -18.707031 7.773438 -18.84375 8.296875 -18.84375 Z M 8.296875 -18.84375 "/></g></g></g><g fill="#000000" fill-opacity="0.4"><g transform="translate(130.913989, 276.671522)"><g><path d="M 11.234375 -12.96875 C 11.546875 -12.96875 11.789062 -12.898438 11.96875 -12.765625 C 12.144531 -12.628906 12.234375 -12.441406 12.234375 -12.203125 C 12.234375 -12.140625 12.21875 -12.023438 12.1875 -11.859375 C 11.96875 -11.117188 11.460938 -10.75 10.671875 -10.75 L 9.21875 -10.75 L 7.34375 -4.546875 C 7.25 -4.296875 7.203125 -4.035156 7.203125 -3.765625 C 7.203125 -3.460938 7.285156 -3.253906 7.453125 -3.140625 C 7.628906 -3.023438 7.867188 -2.96875 8.171875 -2.96875 C 8.429688 -2.96875 8.765625 -3 9.171875 -3.0625 C 9.367188 -3.113281 9.546875 -3.140625 9.703125 -3.140625 C 9.816406 -3.140625 9.898438 -3.101562 9.953125 -3.03125 C 10.015625 -2.957031 10.046875 -2.859375 10.046875 -2.734375 C 10.066406 -2.398438 9.820312 -1.992188 9.3125 -1.515625 C 8.800781 -1.035156 8.109375 -0.625 7.234375 -0.28125 C 6.359375 0.0507812 5.394531 0.21875 4.34375 0.21875 C 3.207031 0.21875 2.296875 -0.0351562 1.609375 -0.546875 C 0.921875 -1.066406 0.578125 -1.78125 0.578125 -2.6875 C 0.578125 -3.101562 0.644531 -3.503906 0.78125 -3.890625 L 2.390625 -8.875 C 2.472656 -9.15625 2.515625 -9.378906 2.515625 -9.546875 C 2.515625 -9.878906 2.429688 -10.160156 2.265625 -10.390625 C 2.109375 -10.628906 1.890625 -10.875 1.609375 -11.125 C 1.359375 -11.363281 1.179688 -11.5625 1.078125 -11.71875 C 0.972656 -11.875 0.945312 -12.0625 1 -12.28125 C 1.070312 -12.5 1.21875 -12.664062 1.4375 -12.78125 C 1.65625 -12.90625 2 -12.96875 2.46875 -12.96875 L 3.875 -12.96875 L 5.453125 -14.546875 C 6.003906 -15.097656 6.507812 -15.484375 6.96875 -15.703125 C 7.425781 -15.921875 8.023438 -16.03125 8.765625 -16.03125 C 9.816406 -16.03125 10.34375 -15.628906 10.34375 -14.828125 C 10.34375 -14.578125 10.3125 -14.34375 10.25 -14.125 L 9.90625 -12.96875 Z M 11.234375 -12.96875 "/></g></g></g><g fill="#000000" fill-opacity="0.4"><g transform="translate(141.712935, 276.671522)"><g><path d="M 6.609375 -13.296875 C 7.578125 -13.296875 8.285156 -13.109375 8.734375 -12.734375 C 9.191406 -12.367188 9.421875 -11.867188 9.421875 -11.234375 C 9.421875 -10.847656 9.363281 -10.476562 9.25 -10.125 L 6.9375 -2.609375 C 6.882812 -2.410156 6.859375 -2.234375 6.859375 -2.078125 C 6.859375 -1.867188 6.898438 -1.695312 6.984375 -1.5625 C 7.066406 -1.4375 7.1875 -1.316406 7.34375 -1.203125 C 7.457031 -1.085938 7.539062 -0.988281 7.59375 -0.90625 C 7.644531 -0.832031 7.648438 -0.738281 7.609375 -0.625 C 7.523438 -0.40625 7.359375 -0.242188 7.109375 -0.140625 C 6.859375 -0.046875 6.472656 0 5.953125 0 L 0.234375 0 C -0.203125 0 -0.519531 -0.0664062 -0.71875 -0.203125 C -0.925781 -0.347656 -0.992188 -0.539062 -0.921875 -0.78125 C -0.859375 -0.976562 -0.6875 -1.15625 -0.40625 -1.3125 C -0.144531 -1.4375 0.0664062 -1.59375 0.234375 -1.78125 C 0.398438 -1.96875 0.539062 -2.257812 0.65625 -2.65625 L 2.84375 -9.921875 C 2.894531 -10.078125 2.921875 -10.203125 2.921875 -10.296875 C 2.921875 -10.484375 2.878906 -10.628906 2.796875 -10.734375 C 2.710938 -10.847656 2.585938 -10.960938 2.421875 -11.078125 C 2.242188 -11.210938 2.125 -11.328125 2.0625 -11.421875 C 2 -11.523438 1.988281 -11.660156 2.03125 -11.828125 C 2.132812 -12.210938 2.660156 -12.550781 3.609375 -12.84375 C 4.566406 -13.144531 5.566406 -13.296875 6.609375 -13.296875 Z M 8.296875 -18.84375 C 8.953125 -18.84375 9.492188 -18.628906 9.921875 -18.203125 C 10.359375 -17.773438 10.578125 -17.25 10.578125 -16.625 C 10.578125 -16.195312 10.460938 -15.769531 10.234375 -15.34375 C 10.015625 -14.925781 9.695312 -14.585938 9.28125 -14.328125 C 8.875 -14.066406 8.421875 -13.9375 7.921875 -13.9375 C 7.285156 -13.9375 6.753906 -14.148438 6.328125 -14.578125 C 5.898438 -15.003906 5.675781 -15.539062 5.65625 -16.1875 C 5.65625 -16.601562 5.765625 -17.015625 5.984375 -17.421875 C 6.203125 -17.835938 6.507812 -18.175781 6.90625 -18.4375 C 7.3125 -18.707031 7.773438 -18.84375 8.296875 -18.84375 Z M 8.296875 -18.84375 "/></g></g></g><g fill="#000000" fill-opacity="0.4"><g transform="translate(150.904597, 276.671522)"><g><path d="M 23.890625 -3.46875 C 23.859375 -3.394531 23.84375 -3.296875 23.84375 -3.171875 C 23.84375 -3.046875 23.867188 -2.945312 23.921875 -2.875 C 23.984375 -2.8125 24.066406 -2.78125 24.171875 -2.78125 C 24.367188 -2.78125 24.539062 -2.867188 24.6875 -3.046875 C 24.832031 -3.222656 24.925781 -3.3125 24.96875 -3.3125 C 25.050781 -3.3125 25.117188 -3.253906 25.171875 -3.140625 C 25.222656 -3.035156 25.25 -2.910156 25.25 -2.765625 C 25.269531 -2.273438 25.109375 -1.800781 24.765625 -1.34375 C 24.429688 -0.882812 23.941406 -0.507812 23.296875 -0.21875 C 22.660156 0.0703125 21.890625 0.21875 20.984375 0.21875 C 19.878906 0.21875 19 -0.0351562 18.34375 -0.546875 C 17.6875 -1.054688 17.351562 -1.738281 17.34375 -2.59375 C 17.34375 -3.207031 17.488281 -3.898438 17.78125 -4.671875 L 19.171875 -8.296875 C 19.253906 -8.515625 19.296875 -8.6875 19.296875 -8.8125 C 19.296875 -9.03125 19.222656 -9.203125 19.078125 -9.328125 C 18.941406 -9.453125 18.769531 -9.515625 18.5625 -9.515625 C 18.28125 -9.515625 17.988281 -9.390625 17.6875 -9.140625 C 17.382812 -8.890625 17.117188 -8.5 16.890625 -7.96875 L 15.5 -3.46875 C 15.46875 -3.394531 15.453125 -3.296875 15.453125 -3.171875 C 15.453125 -3.046875 15.476562 -2.945312 15.53125 -2.875 C 15.59375 -2.8125 15.675781 -2.78125 15.78125 -2.78125 C 15.976562 -2.78125 16.144531 -2.867188 16.28125 -3.046875 C 16.425781 -3.222656 16.523438 -3.3125 16.578125 -3.3125 C 16.660156 -3.3125 16.726562 -3.253906 16.78125 -3.140625 C 16.832031 -3.035156 16.859375 -2.910156 16.859375 -2.765625 C 16.878906 -2.273438 16.71875 -1.800781 16.375 -1.34375 C 16.039062 -0.882812 15.550781 -0.507812 14.90625 -0.21875 C 14.257812 0.0703125 13.488281 0.21875 12.59375 0.21875 C 11.476562 0.21875 10.59375 -0.0351562 9.9375 -0.546875 C 9.289062 -1.054688 8.957031 -1.738281 8.9375 -2.59375 C 8.9375 -3.207031 9.085938 -3.898438 9.390625 -4.671875 L 10.78125 -8.296875 C 10.863281 -8.515625 10.90625 -8.6875 10.90625 -8.8125 C 10.90625 -9.03125 10.832031 -9.203125 10.6875 -9.328125 C 10.550781 -9.453125 10.378906 -9.515625 10.171875 -9.515625 C 9.890625 -9.515625 9.597656 -9.394531 9.296875 -9.15625 C 8.992188 -8.914062 8.742188 -8.523438 8.546875 -7.984375 L 6.890625 -2.609375 C 6.816406 -2.429688 6.78125 -2.253906 6.78125 -2.078125 C 6.78125 -1.878906 6.820312 -1.71875 6.90625 -1.59375 C 6.988281 -1.46875 7.109375 -1.335938 7.265625 -1.203125 C 7.378906 -1.109375 7.460938 -1.015625 7.515625 -0.921875 C 7.566406 -0.835938 7.570312 -0.738281 7.53125 -0.625 C 7.46875 -0.40625 7.3125 -0.242188 7.0625 -0.140625 C 6.8125 -0.046875 6.414062 0 5.875 0 L 0.15625 0 C -0.28125 0 -0.59375 -0.0664062 -0.78125 -0.203125 C -0.976562 -0.347656 -1.050781 -0.539062 -1 -0.78125 C -0.9375 -0.976562 -0.765625 -1.15625 -0.484375 -1.3125 C -0.222656 -1.4375 -0.0078125 -1.59375 0.15625 -1.78125 C 0.320312 -1.96875 0.460938 -2.257812 0.578125 -2.65625 L 2.8125 -9.921875 C 2.84375 -10.003906 2.859375 -10.125 2.859375 -10.28125 C 2.859375 -10.457031 2.820312 -10.597656 2.75 -10.703125 C 2.675781 -10.804688 2.554688 -10.929688 2.390625 -11.078125 C 2.222656 -11.210938 2.101562 -11.328125 2.03125 -11.421875 C 1.96875 -11.523438 1.960938 -11.660156 2.015625 -11.828125 C 2.109375 -12.210938 2.632812 -12.550781 3.59375 -12.84375 C 4.550781 -13.144531 5.546875 -13.296875 6.578125 -13.296875 C 7.398438 -13.296875 8.050781 -13.066406 8.53125 -12.609375 C 9.007812 -12.160156 9.238281 -11.539062 9.21875 -10.75 C 9.90625 -11.707031 10.628906 -12.367188 11.390625 -12.734375 C 12.148438 -13.109375 12.976562 -13.296875 13.875 -13.296875 C 14.84375 -13.296875 15.628906 -13.015625 16.234375 -12.453125 C 16.847656 -11.890625 17.191406 -11.15625 17.265625 -10.25 C 17.984375 -11.382812 18.75 -12.175781 19.5625 -12.625 C 20.382812 -13.070312 21.285156 -13.296875 22.265625 -13.296875 C 23.285156 -13.296875 24.109375 -12.984375 24.734375 -12.359375 C 25.359375 -11.742188 25.671875 -10.941406 25.671875 -9.953125 C 25.671875 -9.429688 25.585938 -8.921875 25.421875 -8.421875 Z M 23.890625 -3.46875 "/></g></g></g><g fill="#000000" fill-opacity="0.4"><g transform="translate(177.223874, 276.671522)"><g><path d="M 6.609375 -13.296875 C 7.578125 -13.296875 8.285156 -13.109375 8.734375 -12.734375 C 9.191406 -12.367188 9.421875 -11.867188 9.421875 -11.234375 C 9.421875 -10.847656 9.363281 -10.476562 9.25 -10.125 L 6.9375 -2.609375 C 6.882812 -2.410156 6.859375 -2.234375 6.859375 -2.078125 C 6.859375 -1.867188 6.898438 -1.695312 6.984375 -1.5625 C 7.066406 -1.4375 7.1875 -1.316406 7.34375 -1.203125 C 7.457031 -1.085938 7.539062 -0.988281 7.59375 -0.90625 C 7.644531 -0.832031 7.648438 -0.738281 7.609375 -0.625 C 7.523438 -0.40625 7.359375 -0.242188 7.109375 -0.140625 C 6.859375 -0.046875 6.472656 0 5.953125 0 L 0.234375 0 C -0.203125 0 -0.519531 -0.0664062 -0.71875 -0.203125 C -0.925781 -0.347656 -0.992188 -0.539062 -0.921875 -0.78125 C -0.859375 -0.976562 -0.6875 -1.15625 -0.40625 -1.3125 C -0.144531 -1.4375 0.0664062 -1.59375 0.234375 -1.78125 C 0.398438 -1.96875 0.539062 -2.257812 0.65625 -2.65625 L 2.84375 -9.921875 C 2.894531 -10.078125 2.921875 -10.203125 2.921875 -10.296875 C 2.921875 -10.484375 2.878906 -10.628906 2.796875 -10.734375 C 2.710938 -10.847656 2.585938 -10.960938 2.421875 -11.078125 C 2.242188 -11.210938 2.125 -11.328125 2.0625 -11.421875 C 2 -11.523438 1.988281 -11.660156 2.03125 -11.828125 C 2.132812 -12.210938 2.660156 -12.550781 3.609375 -12.84375 C 4.566406 -13.144531 5.566406 -13.296875 6.609375 -13.296875 Z M 8.296875 -18.84375 C 8.953125 -18.84375 9.492188 -18.628906 9.921875 -18.203125 C 10.359375 -17.773438 10.578125 -17.25 10.578125 -16.625 C 10.578125 -16.195312 10.460938 -15.769531 10.234375 -15.34375 C 10.015625 -14.925781 9.695312 -14.585938 9.28125 -14.328125 C 8.875 -14.066406 8.421875 -13.9375 7.921875 -13.9375 C 7.285156 -13.9375 6.753906 -14.148438 6.328125 -14.578125 C 5.898438 -15.003906 5.675781 -15.539062 5.65625 -16.1875 C 5.65625 -16.601562 5.765625 -17.015625 5.984375 -17.421875 C 6.203125 -17.835938 6.507812 -18.175781 6.90625 -18.4375 C 7.3125 -18.707031 7.773438 -18.84375 8.296875 -18.84375 Z M 8.296875 -18.84375 "/></g></g></g><g fill="#ffffff" fill-opacity="1"><g transform="translate(75.130531, 275.560819)"><g><path d="M 16.375 -16.734375 C 17 -16.734375 17.484375 -16.597656 17.828125 -16.328125 C 18.171875 -16.054688 18.34375 -15.6875 18.34375 -15.21875 C 18.34375 -14.988281 18.304688 -14.765625 18.234375 -14.546875 L 17.59375 -12.203125 C 17.46875 -11.773438 17.269531 -11.46875 17 -11.28125 C 16.738281 -11.09375 16.390625 -11 15.953125 -11 C 15.535156 -11 15.203125 -11.085938 14.953125 -11.265625 C 14.703125 -11.441406 14.515625 -11.734375 14.390625 -12.140625 L 14 -13.5625 C 13.925781 -13.8125 13.835938 -13.976562 13.734375 -14.0625 C 13.640625 -14.15625 13.429688 -14.203125 13.109375 -14.203125 L 10.609375 -14.203125 L 9.203125 -9.21875 L 9.671875 -9.21875 C 9.910156 -9.21875 10.113281 -9.25 10.28125 -9.3125 C 10.457031 -9.382812 10.648438 -9.515625 10.859375 -9.703125 L 11.640625 -10.34375 C 11.921875 -10.601562 12.171875 -10.785156 12.390625 -10.890625 C 12.617188 -11.003906 12.859375 -11.0625 13.109375 -11.0625 C 13.429688 -11.0625 13.695312 -10.96875 13.90625 -10.78125 C 14.113281 -10.59375 14.21875 -10.332031 14.21875 -10 C 14.21875 -9.863281 14.191406 -9.703125 14.140625 -9.515625 L 13.046875 -5.703125 C 12.785156 -4.878906 12.332031 -4.46875 11.6875 -4.46875 C 11.144531 -4.46875 10.722656 -4.742188 10.421875 -5.296875 L 9.96875 -6.15625 C 9.851562 -6.382812 9.742188 -6.53125 9.640625 -6.59375 C 9.546875 -6.664062 9.398438 -6.703125 9.203125 -6.703125 L 8.46875 -6.703125 L 7.40625 -2.96875 C 7.375 -2.863281 7.359375 -2.726562 7.359375 -2.5625 C 7.359375 -2.332031 7.410156 -2.140625 7.515625 -1.984375 C 7.628906 -1.835938 7.796875 -1.675781 8.015625 -1.5 C 8.203125 -1.351562 8.328125 -1.234375 8.390625 -1.140625 C 8.460938 -1.046875 8.5 -0.929688 8.5 -0.796875 C 8.5 -0.503906 8.363281 -0.296875 8.09375 -0.171875 C 7.820312 -0.0546875 7.425781 0 6.90625 0 L 0.609375 0 C 0.171875 0 -0.15625 -0.078125 -0.375 -0.234375 C -0.59375 -0.398438 -0.671875 -0.625 -0.609375 -0.90625 C -0.566406 -1.050781 -0.5 -1.171875 -0.40625 -1.265625 C -0.320312 -1.359375 -0.1875 -1.460938 0 -1.578125 C 0.28125 -1.742188 0.503906 -1.921875 0.671875 -2.109375 C 0.835938 -2.296875 0.972656 -2.582031 1.078125 -2.96875 L 4.171875 -13.796875 C 4.234375 -14.015625 4.265625 -14.210938 4.265625 -14.390625 C 4.265625 -14.597656 4.234375 -14.765625 4.171875 -14.890625 C 4.117188 -15.023438 4.035156 -15.171875 3.921875 -15.328125 C 3.765625 -15.546875 3.6875 -15.722656 3.6875 -15.859375 C 3.6875 -15.898438 3.707031 -15.988281 3.75 -16.125 C 3.8125 -16.34375 3.957031 -16.5 4.1875 -16.59375 C 4.425781 -16.6875 4.769531 -16.734375 5.21875 -16.734375 Z M 16.375 -16.734375 "/></g></g></g><g fill="#ffffff" fill-opacity="1"><g transform="translate(90.977347, 275.560819)"><g><path d="M 8.515625 -13.421875 C 10.640625 -13.421875 12.179688 -13.078125 13.140625 -12.390625 C 14.097656 -11.710938 14.578125 -10.847656 14.578125 -9.796875 C 14.578125 -9.484375 14.539062 -9.191406 14.46875 -8.921875 C 14.21875 -7.816406 13.519531 -7.023438 12.375 -6.546875 C 11.226562 -6.066406 9.875 -5.828125 8.3125 -5.828125 C 7.53125 -5.828125 6.796875 -5.878906 6.109375 -5.984375 C 6.085938 -5.109375 6.316406 -4.492188 6.796875 -4.140625 C 7.285156 -3.796875 7.96875 -3.625 8.84375 -3.625 C 9.25 -3.625 9.632812 -3.664062 10 -3.75 C 10.363281 -3.84375 10.832031 -3.984375 11.40625 -4.171875 C 11.875 -4.335938 12.191406 -4.421875 12.359375 -4.421875 C 12.546875 -4.421875 12.640625 -4.3125 12.640625 -4.09375 C 12.648438 -3.507812 12.429688 -2.894531 11.984375 -2.25 C 11.535156 -1.601562 10.863281 -1.050781 9.96875 -0.59375 C 9.082031 -0.144531 8.015625 0.078125 6.765625 0.078125 C 4.898438 0.078125 3.375 -0.390625 2.1875 -1.328125 C 1 -2.265625 0.40625 -3.628906 0.40625 -5.421875 C 0.40625 -5.929688 0.472656 -6.519531 0.609375 -7.1875 C 1.023438 -9.25 1.941406 -10.800781 3.359375 -11.84375 C 4.773438 -12.894531 6.492188 -13.421875 8.515625 -13.421875 Z M 6.28125 -7.484375 C 6.34375 -7.472656 6.4375 -7.46875 6.5625 -7.46875 C 7.257812 -7.46875 7.789062 -7.789062 8.15625 -8.4375 C 8.53125 -9.09375 8.707031 -9.820312 8.6875 -10.625 C 8.675781 -11.09375 8.546875 -11.328125 8.296875 -11.328125 C 8.109375 -11.328125 7.890625 -11.179688 7.640625 -10.890625 C 7.390625 -10.597656 7.140625 -10.15625 6.890625 -9.5625 C 6.648438 -8.976562 6.445312 -8.285156 6.28125 -7.484375 Z M 6.28125 -7.484375 "/></g></g></g><g fill="#ffffff" fill-opacity="1"><g transform="translate(105.041074, 275.560819)"><g><path d="M 13.3125 -13.296875 C 14.050781 -13.296875 14.640625 -12.992188 15.078125 -12.390625 C 15.523438 -11.796875 15.75 -10.988281 15.75 -9.96875 C 15.75 -9.082031 15.59375 -8.128906 15.28125 -7.109375 C 14.65625 -5.046875 13.660156 -3.101562 12.296875 -1.28125 C 10.929688 0.539062 9.363281 2.003906 7.59375 3.109375 C 5.832031 4.222656 4.070312 4.78125 2.3125 4.78125 C 1.4375 4.78125 0.6875 4.628906 0.0625 4.328125 C -0.5625 4.023438 -1.035156 3.617188 -1.359375 3.109375 C -1.691406 2.609375 -1.859375 2.070312 -1.859375 1.5 C -1.859375 1.25 -1.816406 0.972656 -1.734375 0.671875 C -1.578125 0.203125 -1.320312 -0.15625 -0.96875 -0.40625 C -0.625 -0.65625 -0.207031 -0.78125 0.28125 -0.78125 C 1.050781 -0.78125 1.679688 -0.519531 2.171875 0 C 2.671875 0.53125 2.984375 1.257812 3.109375 2.1875 C 4.179688 2.132812 5.171875 1.671875 6.078125 0.796875 C 5.222656 0.648438 4.585938 0.363281 4.171875 -0.0625 C 3.765625 -0.488281 3.488281 -1.15625 3.34375 -2.0625 L 2.34375 -8.21875 C 2.289062 -8.53125 2.21875 -8.75 2.125 -8.875 C 2.03125 -9 1.910156 -9.0625 1.765625 -9.0625 C 1.640625 -9.0625 1.5 -9.003906 1.34375 -8.890625 C 1.1875 -8.773438 1.070312 -8.71875 1 -8.71875 C 0.863281 -8.71875 0.796875 -8.859375 0.796875 -9.140625 C 0.796875 -9.378906 0.835938 -9.632812 0.921875 -9.90625 C 1.222656 -10.851562 1.785156 -11.65625 2.609375 -12.3125 C 3.429688 -12.976562 4.390625 -13.3125 5.484375 -13.3125 C 6.546875 -13.3125 7.332031 -12.992188 7.84375 -12.359375 C 8.363281 -11.722656 8.695312 -10.742188 8.84375 -9.421875 L 9.59375 -3.890625 C 9.644531 -3.472656 9.796875 -3.265625 10.046875 -3.265625 C 10.347656 -3.265625 10.695312 -3.535156 11.09375 -4.078125 C 11.5 -4.628906 11.894531 -5.40625 12.28125 -6.40625 C 11.78125 -6.851562 11.394531 -7.367188 11.125 -7.953125 C 10.863281 -8.546875 10.734375 -9.175781 10.734375 -9.84375 C 10.734375 -10.363281 10.796875 -10.832031 10.921875 -11.25 C 11.128906 -11.925781 11.445312 -12.4375 11.875 -12.78125 C 12.300781 -13.125 12.78125 -13.296875 13.3125 -13.296875 Z M 13.3125 -13.296875 "/></g></g></g><g fill="#ffffff" fill-opacity="1"><g transform="translate(120.611638, 275.560819)"><g><path d="M 6.609375 -13.296875 C 7.578125 -13.296875 8.285156 -13.109375 8.734375 -12.734375 C 9.191406 -12.367188 9.421875 -11.867188 9.421875 -11.234375 C 9.421875 -10.847656 9.363281 -10.476562 9.25 -10.125 L 6.9375 -2.609375 C 6.882812 -2.410156 6.859375 -2.234375 6.859375 -2.078125 C 6.859375 -1.867188 6.898438 -1.695312 6.984375 -1.5625 C 7.066406 -1.4375 7.1875 -1.316406 7.34375 -1.203125 C 7.457031 -1.085938 7.539062 -0.988281 7.59375 -0.90625 C 7.644531 -0.832031 7.648438 -0.738281 7.609375 -0.625 C 7.523438 -0.40625 7.359375 -0.242188 7.109375 -0.140625 C 6.859375 -0.046875 6.472656 0 5.953125 0 L 0.234375 0 C -0.203125 0 -0.519531 -0.0664062 -0.71875 -0.203125 C -0.925781 -0.347656 -0.992188 -0.539062 -0.921875 -0.78125 C -0.859375 -0.976562 -0.6875 -1.15625 -0.40625 -1.3125 C -0.144531 -1.4375 0.0664062 -1.59375 0.234375 -1.78125 C 0.398438 -1.96875 0.539062 -2.257812 0.65625 -2.65625 L 2.84375 -9.921875 C 2.894531 -10.078125 2.921875 -10.203125 2.921875 -10.296875 C 2.921875 -10.484375 2.878906 -10.628906 2.796875 -10.734375 C 2.710938 -10.847656 2.585938 -10.960938 2.421875 -11.078125 C 2.242188 -11.210938 2.125 -11.328125 2.0625 -11.421875 C 2 -11.523438 1.988281 -11.660156 2.03125 -11.828125 C 2.132812 -12.210938 2.660156 -12.550781 3.609375 -12.84375 C 4.566406 -13.144531 5.566406 -13.296875 6.609375 -13.296875 Z M 8.296875 -18.84375 C 8.953125 -18.84375 9.492188 -18.628906 9.921875 -18.203125 C 10.359375 -17.773438 10.578125 -17.25 10.578125 -16.625 C 10.578125 -16.195312 10.460938 -15.769531 10.234375 -15.34375 C 10.015625 -14.925781 9.695312 -14.585938 9.28125 -14.328125 C 8.875 -14.066406 8.421875 -13.9375 7.921875 -13.9375 C 7.285156 -13.9375 6.753906 -14.148438 6.328125 -14.578125 C 5.898438 -15.003906 5.675781 -15.539062 5.65625 -16.1875 C 5.65625 -16.601562 5.765625 -17.015625 5.984375 -17.421875 C 6.203125 -17.835938 6.507812 -18.175781 6.90625 -18.4375 C 7.3125 -18.707031 7.773438 -18.84375 8.296875 -18.84375 Z M 8.296875 -18.84375 "/></g></g></g><g fill="#ffffff" fill-opacity="1"><g transform="translate(129.8033, 275.560819)"><g><path d="M 11.234375 -12.96875 C 11.546875 -12.96875 11.789062 -12.898438 11.96875 -12.765625 C 12.144531 -12.628906 12.234375 -12.441406 12.234375 -12.203125 C 12.234375 -12.140625 12.21875 -12.023438 12.1875 -11.859375 C 11.96875 -11.117188 11.460938 -10.75 10.671875 -10.75 L 9.21875 -10.75 L 7.34375 -4.546875 C 7.25 -4.296875 7.203125 -4.035156 7.203125 -3.765625 C 7.203125 -3.460938 7.285156 -3.253906 7.453125 -3.140625 C 7.628906 -3.023438 7.867188 -2.96875 8.171875 -2.96875 C 8.429688 -2.96875 8.765625 -3 9.171875 -3.0625 C 9.367188 -3.113281 9.546875 -3.140625 9.703125 -3.140625 C 9.816406 -3.140625 9.898438 -3.101562 9.953125 -3.03125 C 10.015625 -2.957031 10.046875 -2.859375 10.046875 -2.734375 C 10.066406 -2.398438 9.820312 -1.992188 9.3125 -1.515625 C 8.800781 -1.035156 8.109375 -0.625 7.234375 -0.28125 C 6.359375 0.0507812 5.394531 0.21875 4.34375 0.21875 C 3.207031 0.21875 2.296875 -0.0351562 1.609375 -0.546875 C 0.921875 -1.066406 0.578125 -1.78125 0.578125 -2.6875 C 0.578125 -3.101562 0.644531 -3.503906 0.78125 -3.890625 L 2.390625 -8.875 C 2.472656 -9.15625 2.515625 -9.378906 2.515625 -9.546875 C 2.515625 -9.878906 2.429688 -10.160156 2.265625 -10.390625 C 2.109375 -10.628906 1.890625 -10.875 1.609375 -11.125 C 1.359375 -11.363281 1.179688 -11.5625 1.078125 -11.71875 C 0.972656 -11.875 0.945312 -12.0625 1 -12.28125 C 1.070312 -12.5 1.21875 -12.664062 1.4375 -12.78125 C 1.65625 -12.90625 2 -12.96875 2.46875 -12.96875 L 3.875 -12.96875 L 5.453125 -14.546875 C 6.003906 -15.097656 6.507812 -15.484375 6.96875 -15.703125 C 7.425781 -15.921875 8.023438 -16.03125 8.765625 -16.03125 C 9.816406 -16.03125 10.34375 -15.628906 10.34375 -14.828125 C 10.34375 -14.578125 10.3125 -14.34375 10.25 -14.125 L 9.90625 -12.96875 Z M 11.234375 -12.96875 "/></g></g></g><g fill="#ffffff" fill-opacity="1"><g transform="translate(140.602246, 275.560819)"><g><path d="M 6.609375 -13.296875 C 7.578125 -13.296875 8.285156 -13.109375 8.734375 -12.734375 C 9.191406 -12.367188 9.421875 -11.867188 9.421875 -11.234375 C 9.421875 -10.847656 9.363281 -10.476562 9.25 -10.125 L 6.9375 -2.609375 C 6.882812 -2.410156 6.859375 -2.234375 6.859375 -2.078125 C 6.859375 -1.867188 6.898438 -1.695312 6.984375 -1.5625 C 7.066406 -1.4375 7.1875 -1.316406 7.34375 -1.203125 C 7.457031 -1.085938 7.539062 -0.988281 7.59375 -0.90625 C 7.644531 -0.832031 7.648438 -0.738281 7.609375 -0.625 C 7.523438 -0.40625 7.359375 -0.242188 7.109375 -0.140625 C 6.859375 -0.046875 6.472656 0 5.953125 0 L 0.234375 0 C -0.203125 0 -0.519531 -0.0664062 -0.71875 -0.203125 C -0.925781 -0.347656 -0.992188 -0.539062 -0.921875 -0.78125 C -0.859375 -0.976562 -0.6875 -1.15625 -0.40625 -1.3125 C -0.144531 -1.4375 0.0664062 -1.59375 0.234375 -1.78125 C 0.398438 -1.96875 0.539062 -2.257812 0.65625 -2.65625 L 2.84375 -9.921875 C 2.894531 -10.078125 2.921875 -10.203125 2.921875 -10.296875 C 2.921875 -10.484375 2.878906 -10.628906 2.796875 -10.734375 C 2.710938 -10.847656 2.585938 -10.960938 2.421875 -11.078125 C 2.242188 -11.210938 2.125 -11.328125 2.0625 -11.421875 C 2 -11.523438 1.988281 -11.660156 2.03125 -11.828125 C 2.132812 -12.210938 2.660156 -12.550781 3.609375 -12.84375 C 4.566406 -13.144531 5.566406 -13.296875 6.609375 -13.296875 Z M 8.296875 -18.84375 C 8.953125 -18.84375 9.492188 -18.628906 9.921875 -18.203125 C 10.359375 -17.773438 10.578125 -17.25 10.578125 -16.625 C 10.578125 -16.195312 10.460938 -15.769531 10.234375 -15.34375 C 10.015625 -14.925781 9.695312 -14.585938 9.28125 -14.328125 C 8.875 -14.066406 8.421875 -13.9375 7.921875 -13.9375 C 7.285156 -13.9375 6.753906 -14.148438 6.328125 -14.578125 C 5.898438 -15.003906 5.675781 -15.539062 5.65625 -16.1875 C 5.65625 -16.601562 5.765625 -17.015625 5.984375 -17.421875 C 6.203125 -17.835938 6.507812 -18.175781 6.90625 -18.4375 C 7.3125 -18.707031 7.773438 -18.84375 8.296875 -18.84375 Z M 8.296875 -18.84375 "/></g></g></g><g fill="#ffffff" fill-opacity="1"><g transform="translate(149.793908, 275.560819)"><g><path d="M 23.890625 -3.46875 C 23.859375 -3.394531 23.84375 -3.296875 23.84375 -3.171875 C 23.84375 -3.046875 23.867188 -2.945312 23.921875 -2.875 C 23.984375 -2.8125 24.066406 -2.78125 24.171875 -2.78125 C 24.367188 -2.78125 24.539062 -2.867188 24.6875 -3.046875 C 24.832031 -3.222656 24.925781 -3.3125 24.96875 -3.3125 C 25.050781 -3.3125 25.117188 -3.253906 25.171875 -3.140625 C 25.222656 -3.035156 25.25 -2.910156 25.25 -2.765625 C 25.269531 -2.273438 25.109375 -1.800781 24.765625 -1.34375 C 24.429688 -0.882812 23.941406 -0.507812 23.296875 -0.21875 C 22.660156 0.0703125 21.890625 0.21875 20.984375 0.21875 C 19.878906 0.21875 19 -0.0351562 18.34375 -0.546875 C 17.6875 -1.054688 17.351562 -1.738281 17.34375 -2.59375 C 17.34375 -3.207031 17.488281 -3.898438 17.78125 -4.671875 L 19.171875 -8.296875 C 19.253906 -8.515625 19.296875 -8.6875 19.296875 -8.8125 C 19.296875 -9.03125 19.222656 -9.203125 19.078125 -9.328125 C 18.941406 -9.453125 18.769531 -9.515625 18.5625 -9.515625 C 18.28125 -9.515625 17.988281 -9.390625 17.6875 -9.140625 C 17.382812 -8.890625 17.117188 -8.5 16.890625 -7.96875 L 15.5 -3.46875 C 15.46875 -3.394531 15.453125 -3.296875 15.453125 -3.171875 C 15.453125 -3.046875 15.476562 -2.945312 15.53125 -2.875 C 15.59375 -2.8125 15.675781 -2.78125 15.78125 -2.78125 C 15.976562 -2.78125 16.144531 -2.867188 16.28125 -3.046875 C 16.425781 -3.222656 16.523438 -3.3125 16.578125 -3.3125 C 16.660156 -3.3125 16.726562 -3.253906 16.78125 -3.140625 C 16.832031 -3.035156 16.859375 -2.910156 16.859375 -2.765625 C 16.878906 -2.273438 16.71875 -1.800781 16.375 -1.34375 C 16.039062 -0.882812 15.550781 -0.507812 14.90625 -0.21875 C 14.257812 0.0703125 13.488281 0.21875 12.59375 0.21875 C 11.476562 0.21875 10.59375 -0.0351562 9.9375 -0.546875 C 9.289062 -1.054688 8.957031 -1.738281 8.9375 -2.59375 C 8.9375 -3.207031 9.085938 -3.898438 9.390625 -4.671875 L 10.78125 -8.296875 C 10.863281 -8.515625 10.90625 -8.6875 10.90625 -8.8125 C 10.90625 -9.03125 10.832031 -9.203125 10.6875 -9.328125 C 10.550781 -9.453125 10.378906 -9.515625 10.171875 -9.515625 C 9.890625 -9.515625 9.597656 -9.394531 9.296875 -9.15625 C 8.992188 -8.914062 8.742188 -8.523438 8.546875 -7.984375 L 6.890625 -2.609375 C 6.816406 -2.429688 6.78125 -2.253906 6.78125 -2.078125 C 6.78125 -1.878906 6.820312 -1.71875 6.90625 -1.59375 C 6.988281 -1.46875 7.109375 -1.335938 7.265625 -1.203125 C 7.378906 -1.109375 7.460938 -1.015625 7.515625 -0.921875 C 7.566406 -0.835938 7.570312 -0.738281 7.53125 -0.625 C 7.46875 -0.40625 7.3125 -0.242188 7.0625 -0.140625 C 6.8125 -0.046875 6.414062 0 5.875 0 L 0.15625 0 C -0.28125 0 -0.59375 -0.0664062 -0.78125 -0.203125 C -0.976562 -0.347656 -1.050781 -0.539062 -1 -0.78125 C -0.9375 -0.976562 -0.765625 -1.15625 -0.484375 -1.3125 C -0.222656 -1.4375 -0.0078125 -1.59375 0.15625 -1.78125 C 0.320312 -1.96875 0.460938 -2.257812 0.578125 -2.65625 L 2.8125 -9.921875 C 2.84375 -10.003906 2.859375 -10.125 2.859375 -10.28125 C 2.859375 -10.457031 2.820312 -10.597656 2.75 -10.703125 C 2.675781 -10.804688 2.554688 -10.929688 2.390625 -11.078125 C 2.222656 -11.210938 2.101562 -11.328125 2.03125 -11.421875 C 1.96875 -11.523438 1.960938 -11.660156 2.015625 -11.828125 C 2.109375 -12.210938 2.632812 -12.550781 3.59375 -12.84375 C 4.550781 -13.144531 5.546875 -13.296875 6.578125 -13.296875 C 7.398438 -13.296875 8.050781 -13.066406 8.53125 -12.609375 C 9.007812 -12.160156 9.238281 -11.539062 9.21875 -10.75 C 9.90625 -11.707031 10.628906 -12.367188 11.390625 -12.734375 C 12.148438 -13.109375 12.976562 -13.296875 13.875 -13.296875 C 14.84375 -13.296875 15.628906 -13.015625 16.234375 -12.453125 C 16.847656 -11.890625 17.191406 -11.15625 17.265625 -10.25 C 17.984375 -11.382812 18.75 -12.175781 19.5625 -12.625 C 20.382812 -13.070312 21.285156 -13.296875 22.265625 -13.296875 C 23.285156 -13.296875 24.109375 -12.984375 24.734375 -12.359375 C 25.359375 -11.742188 25.671875 -10.941406 25.671875 -9.953125 C 25.671875 -9.429688 25.585938 -8.921875 25.421875 -8.421875 Z M 23.890625 -3.46875 "/></g></g></g><g fill="#ffffff" fill-opacity="1"><g transform="translate(176.113186, 275.560819)"><g><path d="M 6.609375 -13.296875 C 7.578125 -13.296875 8.285156 -13.109375 8.734375 -12.734375 C 9.191406 -12.367188 9.421875 -11.867188 9.421875 -11.234375 C 9.421875 -10.847656 9.363281 -10.476562 9.25 -10.125 L 6.9375 -2.609375 C 6.882812 -2.410156 6.859375 -2.234375 6.859375 -2.078125 C 6.859375 -1.867188 6.898438 -1.695312 6.984375 -1.5625 C 7.066406 -1.4375 7.1875 -1.316406 7.34375 -1.203125 C 7.457031 -1.085938 7.539062 -0.988281 7.59375 -0.90625 C 7.644531 -0.832031 7.648438 -0.738281 7.609375 -0.625 C 7.523438 -0.40625 7.359375 -0.242188 7.109375 -0.140625 C 6.859375 -0.046875 6.472656 0 5.953125 0 L 0.234375 0 C -0.203125 0 -0.519531 -0.0664062 -0.71875 -0.203125 C -0.925781 -0.347656 -0.992188 -0.539062 -0.921875 -0.78125 C -0.859375 -0.976562 -0.6875 -1.15625 -0.40625 -1.3125 C -0.144531 -1.4375 0.0664062 -1.59375 0.234375 -1.78125 C 0.398438 -1.96875 0.539062 -2.257812 0.65625 -2.65625 L 2.84375 -9.921875 C 2.894531 -10.078125 2.921875 -10.203125 2.921875 -10.296875 C 2.921875 -10.484375 2.878906 -10.628906 2.796875 -10.734375 C 2.710938 -10.847656 2.585938 -10.960938 2.421875 -11.078125 C 2.242188 -11.210938 2.125 -11.328125 2.0625 -11.421875 C 2 -11.523438 1.988281 -11.660156 2.03125 -11.828125 C 2.132812 -12.210938 2.660156 -12.550781 3.609375 -12.84375 C 4.566406 -13.144531 5.566406 -13.296875 6.609375 -13.296875 Z M 8.296875 -18.84375 C 8.953125 -18.84375 9.492188 -18.628906 9.921875 -18.203125 C 10.359375 -17.773438 10.578125 -17.25 10.578125 -16.625 C 10.578125 -16.195312 10.460938 -15.769531 10.234375 -15.34375 C 10.015625 -14.925781 9.695312 -14.585938 9.28125 -14.328125 C 8.875 -14.066406 8.421875 -13.9375 7.921875 -13.9375 C 7.285156 -13.9375 6.753906 -14.148438 6.328125 -14.578125 C 5.898438 -15.003906 5.675781 -15.539062 5.65625 -16.1875 C 5.65625 -16.601562 5.765625 -17.015625 5.984375 -17.421875 C 6.203125 -17.835938 6.507812 -18.175781 6.90625 -18.4375 C 7.3125 -18.707031 7.773438 -18.84375 8.296875 -18.84375 Z M 8.296875 -18.84375 "/></g></g></g><g fill="#000000" fill-opacity="0.4"><g transform="translate(185.092507, 275.951382)"><g><path d="M 15.203125 -2.9375 C 15.140625 -2.71875 15.109375 -2.503906 15.109375 -2.296875 C 15.109375 -2.109375 15.132812 -1.953125 15.1875 -1.828125 C 15.238281 -1.703125 15.289062 -1.601562 15.34375 -1.53125 C 15.40625 -1.457031 15.441406 -1.40625 15.453125 -1.375 C 15.617188 -1.207031 15.703125 -1.039062 15.703125 -0.875 C 15.703125 -0.84375 15.6875 -0.757812 15.65625 -0.625 C 15.59375 -0.394531 15.445312 -0.234375 15.21875 -0.140625 C 15 -0.046875 14.65625 0 14.1875 0 L 8.28125 0 C 7.9375 0 7.664062 -0.0546875 7.46875 -0.171875 C 7.28125 -0.285156 7.1875 -0.441406 7.1875 -0.640625 C 7.1875 -0.742188 7.210938 -0.851562 7.265625 -0.96875 C 7.316406 -1.101562 7.382812 -1.207031 7.46875 -1.28125 C 7.5625 -1.351562 7.691406 -1.441406 7.859375 -1.546875 C 8.128906 -1.691406 8.347656 -1.851562 8.515625 -2.03125 C 8.679688 -2.21875 8.820312 -2.519531 8.9375 -2.9375 L 9.578125 -5.078125 L 5.703125 -5.078125 L 5.03125 -3.65625 C 4.75 -3.039062 4.609375 -2.5625 4.609375 -2.21875 C 4.609375 -2.019531 4.640625 -1.859375 4.703125 -1.734375 C 4.765625 -1.609375 4.863281 -1.476562 5 -1.34375 C 5.113281 -1.207031 5.191406 -1.09375 5.234375 -1 C 5.273438 -0.914062 5.28125 -0.796875 5.25 -0.640625 C 5.1875 -0.398438 5.050781 -0.234375 4.84375 -0.140625 C 4.632812 -0.046875 4.304688 0 3.859375 0 L 0.15625 0 C -0.226562 0 -0.519531 -0.0664062 -0.71875 -0.203125 C -0.914062 -0.347656 -1.015625 -0.535156 -1.015625 -0.765625 C -1.015625 -1.035156 -0.921875 -1.25 -0.734375 -1.40625 C -0.546875 -1.5625 -0.257812 -1.734375 0.125 -1.921875 C 0.625 -2.171875 1.019531 -2.414062 1.3125 -2.65625 C 1.613281 -2.894531 1.875 -3.226562 2.09375 -3.65625 L 6.515625 -12.84375 C 7.203125 -14.269531 8.003906 -15.300781 8.921875 -15.9375 C 9.847656 -16.582031 11.0625 -16.90625 12.5625 -16.90625 C 14.257812 -16.90625 15.570312 -16.554688 16.5 -15.859375 C 17.425781 -15.171875 17.890625 -14.21875 17.890625 -13 C 17.890625 -12.476562 17.804688 -11.945312 17.640625 -11.40625 Z M 10.328125 -7.5625 L 11.65625 -11.953125 C 11.71875 -12.148438 11.75 -12.351562 11.75 -12.5625 C 11.75 -12.882812 11.660156 -13.125 11.484375 -13.28125 C 11.304688 -13.4375 11.0625 -13.515625 10.75 -13.515625 C 10.351562 -13.515625 10.015625 -13.394531 9.734375 -13.15625 C 9.453125 -12.925781 9.171875 -12.515625 8.890625 -11.921875 L 6.84375 -7.5625 Z M 10.328125 -7.5625 "/></g></g></g><g fill="#000000" fill-opacity="0.4"><g transform="translate(202.467457, 275.951382)"><g><path d="M 15.40625 -3.4375 C 15.375 -3.363281 15.359375 -3.265625 15.359375 -3.140625 C 15.359375 -3.023438 15.382812 -2.929688 15.4375 -2.859375 C 15.5 -2.796875 15.582031 -2.765625 15.6875 -2.765625 C 15.882812 -2.765625 16.050781 -2.847656 16.1875 -3.015625 C 16.332031 -3.191406 16.429688 -3.28125 16.484375 -3.28125 C 16.566406 -3.28125 16.628906 -3.226562 16.671875 -3.125 C 16.722656 -3.019531 16.75 -2.890625 16.75 -2.734375 C 16.769531 -2.253906 16.613281 -1.785156 16.28125 -1.328125 C 15.945312 -0.867188 15.457031 -0.492188 14.8125 -0.203125 C 14.175781 0.078125 13.410156 0.21875 12.515625 0.21875 C 11.421875 0.21875 10.550781 -0.03125 9.90625 -0.53125 C 9.257812 -1.039062 8.925781 -1.71875 8.90625 -2.5625 C 8.90625 -3.175781 9.054688 -3.863281 9.359375 -4.625 L 10.734375 -8.21875 C 10.816406 -8.425781 10.859375 -8.597656 10.859375 -8.734375 C 10.859375 -8.953125 10.785156 -9.125 10.640625 -9.25 C 10.492188 -9.375 10.320312 -9.4375 10.125 -9.4375 C 9.757812 -9.4375 9.410156 -9.265625 9.078125 -8.921875 C 8.753906 -8.578125 8.515625 -8.160156 8.359375 -7.671875 L 6.8125 -2.59375 C 6.75 -2.40625 6.71875 -2.226562 6.71875 -2.0625 C 6.71875 -1.863281 6.757812 -1.703125 6.84375 -1.578125 C 6.925781 -1.453125 7.039062 -1.320312 7.1875 -1.1875 C 7.3125 -1.09375 7.394531 -1.003906 7.4375 -0.921875 C 7.488281 -0.835938 7.5 -0.738281 7.46875 -0.625 C 7.40625 -0.40625 7.25 -0.242188 7 -0.140625 C 6.75 -0.046875 6.359375 0 5.828125 0 L 0.15625 0 C -0.28125 0 -0.59375 -0.0664062 -0.78125 -0.203125 C -0.96875 -0.347656 -1.039062 -0.535156 -1 -0.765625 C -0.925781 -0.960938 -0.75 -1.140625 -0.46875 -1.296875 C -0.21875 -1.429688 -0.015625 -1.585938 0.140625 -1.765625 C 0.304688 -1.953125 0.453125 -2.242188 0.578125 -2.640625 L 2.78125 -9.828125 C 2.820312 -9.910156 2.84375 -10.03125 2.84375 -10.1875 C 2.84375 -10.363281 2.800781 -10.5 2.71875 -10.59375 C 2.644531 -10.695312 2.523438 -10.828125 2.359375 -10.984375 C 2.191406 -11.109375 2.078125 -11.21875 2.015625 -11.3125 C 1.953125 -11.414062 1.941406 -11.550781 1.984375 -11.71875 C 2.085938 -12.101562 2.613281 -12.441406 3.5625 -12.734375 C 4.507812 -13.023438 5.492188 -13.171875 6.515625 -13.171875 C 7.347656 -13.171875 8.003906 -12.941406 8.484375 -12.484375 C 8.960938 -12.023438 9.179688 -11.390625 9.140625 -10.578125 C 9.816406 -11.554688 10.535156 -12.234375 11.296875 -12.609375 C 12.066406 -12.984375 12.898438 -13.171875 13.796875 -13.171875 C 14.804688 -13.171875 15.617188 -12.863281 16.234375 -12.25 C 16.859375 -11.632812 17.171875 -10.835938 17.171875 -9.859375 C 17.171875 -9.335938 17.085938 -8.832031 16.921875 -8.34375 Z M 15.40625 -3.4375 "/></g></g></g><g fill="#000000" fill-opacity="0.4"><g transform="translate(220.290474, 275.951382)"><g><path d="M 11.125 -12.84375 C 11.4375 -12.84375 11.679688 -12.773438 11.859375 -12.640625 C 12.035156 -12.515625 12.125 -12.332031 12.125 -12.09375 C 12.125 -12.03125 12.109375 -11.914062 12.078125 -11.75 C 11.859375 -11.019531 11.359375 -10.65625 10.578125 -10.65625 L 9.140625 -10.65625 L 7.265625 -4.5 C 7.179688 -4.25 7.140625 -3.992188 7.140625 -3.734375 C 7.140625 -3.429688 7.222656 -3.222656 7.390625 -3.109375 C 7.554688 -2.992188 7.789062 -2.9375 8.09375 -2.9375 C 8.351562 -2.9375 8.679688 -2.96875 9.078125 -3.03125 C 9.285156 -3.082031 9.460938 -3.109375 9.609375 -3.109375 C 9.722656 -3.109375 9.804688 -3.070312 9.859375 -3 C 9.921875 -2.925781 9.953125 -2.832031 9.953125 -2.71875 C 9.972656 -2.382812 9.726562 -1.976562 9.21875 -1.5 C 8.71875 -1.03125 8.035156 -0.625 7.171875 -0.28125 C 6.304688 0.0507812 5.351562 0.21875 4.3125 0.21875 C 3.175781 0.21875 2.269531 -0.0351562 1.59375 -0.546875 C 0.914062 -1.054688 0.578125 -1.757812 0.578125 -2.65625 C 0.578125 -3.070312 0.640625 -3.472656 0.765625 -3.859375 L 2.359375 -8.78125 C 2.441406 -9.0625 2.484375 -9.285156 2.484375 -9.453125 C 2.484375 -9.785156 2.40625 -10.066406 2.25 -10.296875 C 2.09375 -10.535156 1.875 -10.78125 1.59375 -11.03125 C 1.34375 -11.257812 1.164062 -11.453125 1.0625 -11.609375 C 0.96875 -11.765625 0.945312 -11.953125 1 -12.171875 C 1.0625 -12.390625 1.203125 -12.554688 1.421875 -12.671875 C 1.640625 -12.785156 1.976562 -12.84375 2.4375 -12.84375 L 3.828125 -12.84375 L 5.40625 -14.40625 C 5.945312 -14.957031 6.445312 -15.335938 6.90625 -15.546875 C 7.363281 -15.765625 7.957031 -15.875 8.6875 -15.875 C 9.726562 -15.875 10.25 -15.476562 10.25 -14.6875 C 10.25 -14.4375 10.21875 -14.203125 10.15625 -13.984375 L 9.8125 -12.84375 Z M 11.125 -12.84375 "/></g></g></g><g fill="#000000" fill-opacity="0.4"><g transform="translate(230.994242, 275.951382)"><g><path d="M 15.265625 -3.4375 C 15.222656 -3.363281 15.203125 -3.265625 15.203125 -3.140625 C 15.203125 -3.023438 15.226562 -2.929688 15.28125 -2.859375 C 15.34375 -2.796875 15.425781 -2.765625 15.53125 -2.765625 C 15.726562 -2.765625 15.894531 -2.847656 16.03125 -3.015625 C 16.175781 -3.191406 16.273438 -3.28125 16.328125 -3.28125 C 16.410156 -3.28125 16.476562 -3.226562 16.53125 -3.125 C 16.582031 -3.019531 16.609375 -2.890625 16.609375 -2.734375 C 16.617188 -2.253906 16.457031 -1.785156 16.125 -1.328125 C 15.789062 -0.867188 15.304688 -0.492188 14.671875 -0.203125 C 14.035156 0.078125 13.269531 0.21875 12.375 0.21875 C 11.28125 0.21875 10.40625 -0.03125 9.75 -0.53125 C 9.101562 -1.039062 8.773438 -1.71875 8.765625 -2.5625 C 8.765625 -3.175781 8.910156 -3.863281 9.203125 -4.625 L 10.578125 -8.21875 C 10.660156 -8.425781 10.703125 -8.597656 10.703125 -8.734375 C 10.703125 -8.953125 10.628906 -9.125 10.484375 -9.25 C 10.347656 -9.375 10.179688 -9.4375 9.984375 -9.4375 C 9.671875 -9.4375 9.347656 -9.289062 9.015625 -9 C 8.691406 -8.707031 8.429688 -8.238281 8.234375 -7.59375 L 8.234375 -7.640625 L 6.671875 -2.59375 C 6.617188 -2.394531 6.59375 -2.21875 6.59375 -2.0625 C 6.59375 -1.851562 6.632812 -1.6875 6.71875 -1.5625 C 6.800781 -1.4375 6.914062 -1.3125 7.0625 -1.1875 C 7.1875 -1.070312 7.269531 -0.976562 7.3125 -0.90625 C 7.363281 -0.832031 7.375 -0.738281 7.34375 -0.625 C 7.257812 -0.40625 7.09375 -0.242188 6.84375 -0.140625 C 6.59375 -0.046875 6.210938 0 5.703125 0 L 0.03125 0 C -0.40625 0 -0.722656 -0.0664062 -0.921875 -0.203125 C -1.117188 -0.347656 -1.1875 -0.535156 -1.125 -0.765625 C -1.050781 -0.960938 -0.875 -1.140625 -0.59375 -1.296875 C -0.34375 -1.429688 -0.132812 -1.585938 0.03125 -1.765625 C 0.195312 -1.953125 0.335938 -2.242188 0.453125 -2.640625 L 4.234375 -15.0625 C 4.285156 -15.207031 4.3125 -15.332031 4.3125 -15.4375 C 4.3125 -15.613281 4.265625 -15.757812 4.171875 -15.875 C 4.078125 -15.988281 3.957031 -16.109375 3.8125 -16.234375 C 3.644531 -16.359375 3.519531 -16.46875 3.4375 -16.5625 C 3.363281 -16.664062 3.351562 -16.800781 3.40625 -16.96875 C 3.507812 -17.351562 4.03125 -17.6875 4.96875 -17.96875 C 5.914062 -18.25 6.90625 -18.390625 7.9375 -18.390625 C 8.90625 -18.390625 9.613281 -18.207031 10.0625 -17.84375 C 10.519531 -17.476562 10.75 -16.984375 10.75 -16.359375 C 10.75 -15.992188 10.691406 -15.632812 10.578125 -15.28125 L 9.234375 -10.90625 C 9.878906 -11.75 10.5625 -12.335938 11.28125 -12.671875 C 12.007812 -13.003906 12.796875 -13.171875 13.640625 -13.171875 C 14.648438 -13.171875 15.46875 -12.863281 16.09375 -12.25 C 16.71875 -11.632812 17.03125 -10.835938 17.03125 -9.859375 C 17.03125 -9.335938 16.945312 -8.832031 16.78125 -8.34375 Z M 15.265625 -3.4375 "/></g></g></g><g fill="#000000" fill-opacity="0.4"><g transform="translate(248.667903, 275.951382)"><g><path d="M 9.625 -13.171875 C 11.882812 -13.171875 13.550781 -12.710938 14.625 -11.796875 C 15.695312 -10.878906 16.234375 -9.6875 16.234375 -8.21875 C 16.234375 -7.71875 16.164062 -7.160156 16.03125 -6.546875 C 15.71875 -5.179688 15.128906 -3.988281 14.265625 -2.96875 C 13.398438 -1.945312 12.335938 -1.160156 11.078125 -0.609375 C 9.828125 -0.0546875 8.472656 0.21875 7.015625 0.21875 C 4.710938 0.21875 3.007812 -0.238281 1.90625 -1.15625 C 0.800781 -2.070312 0.25 -3.296875 0.25 -4.828125 C 0.25 -5.335938 0.316406 -5.910156 0.453125 -6.546875 C 0.765625 -7.835938 1.363281 -8.984375 2.25 -9.984375 C 3.132812 -10.992188 4.21875 -11.773438 5.5 -12.328125 C 6.789062 -12.890625 8.164062 -13.171875 9.625 -13.171875 Z M 9.5625 -10.953125 C 9.207031 -10.953125 8.832031 -10.640625 8.4375 -10.015625 C 8.050781 -9.390625 7.59375 -8.21875 7.0625 -6.5 C 6.53125 -4.769531 6.265625 -3.554688 6.265625 -2.859375 C 6.265625 -2.492188 6.320312 -2.25 6.4375 -2.125 C 6.5625 -2 6.722656 -1.9375 6.921875 -1.9375 C 7.265625 -1.90625 7.625 -2.203125 8 -2.828125 C 8.375 -3.460938 8.84375 -4.691406 9.40625 -6.515625 C 9.925781 -8.128906 10.1875 -9.300781 10.1875 -10.03125 C 10.1875 -10.375 10.128906 -10.613281 10.015625 -10.75 C 9.910156 -10.882812 9.757812 -10.953125 9.5625 -10.953125 Z M 9.5625 -10.953125 "/></g></g></g><g fill="#000000" fill-opacity="0.4"><g transform="translate(264.997368, 275.951382)"><g><path d="M 15.40625 -3.4375 C 15.375 -3.363281 15.359375 -3.265625 15.359375 -3.140625 C 15.359375 -3.023438 15.382812 -2.929688 15.4375 -2.859375 C 15.5 -2.796875 15.582031 -2.765625 15.6875 -2.765625 C 15.882812 -2.765625 16.050781 -2.847656 16.1875 -3.015625 C 16.332031 -3.191406 16.429688 -3.28125 16.484375 -3.28125 C 16.566406 -3.28125 16.628906 -3.226562 16.671875 -3.125 C 16.722656 -3.019531 16.75 -2.890625 16.75 -2.734375 C 16.769531 -2.253906 16.613281 -1.785156 16.28125 -1.328125 C 15.945312 -0.867188 15.457031 -0.492188 14.8125 -0.203125 C 14.175781 0.078125 13.410156 0.21875 12.515625 0.21875 C 11.421875 0.21875 10.550781 -0.03125 9.90625 -0.53125 C 9.257812 -1.039062 8.925781 -1.71875 8.90625 -2.5625 C 8.90625 -3.175781 9.054688 -3.863281 9.359375 -4.625 L 10.734375 -8.21875 C 10.816406 -8.425781 10.859375 -8.597656 10.859375 -8.734375 C 10.859375 -8.953125 10.785156 -9.125 10.640625 -9.25 C 10.492188 -9.375 10.320312 -9.4375 10.125 -9.4375 C 9.757812 -9.4375 9.410156 -9.265625 9.078125 -8.921875 C 8.753906 -8.578125 8.515625 -8.160156 8.359375 -7.671875 L 6.8125 -2.59375 C 6.75 -2.40625 6.71875 -2.226562 6.71875 -2.0625 C 6.71875 -1.863281 6.757812 -1.703125 6.84375 -1.578125 C 6.925781 -1.453125 7.039062 -1.320312 7.1875 -1.1875 C 7.3125 -1.09375 7.394531 -1.003906 7.4375 -0.921875 C 7.488281 -0.835938 7.5 -0.738281 7.46875 -0.625 C 7.40625 -0.40625 7.25 -0.242188 7 -0.140625 C 6.75 -0.046875 6.359375 0 5.828125 0 L 0.15625 0 C -0.28125 0 -0.59375 -0.0664062 -0.78125 -0.203125 C -0.96875 -0.347656 -1.039062 -0.535156 -1 -0.765625 C -0.925781 -0.960938 -0.75 -1.140625 -0.46875 -1.296875 C -0.21875 -1.429688 -0.015625 -1.585938 0.140625 -1.765625 C 0.304688 -1.953125 0.453125 -2.242188 0.578125 -2.640625 L 2.78125 -9.828125 C 2.820312 -9.910156 2.84375 -10.03125 2.84375 -10.1875 C 2.84375 -10.363281 2.800781 -10.5 2.71875 -10.59375 C 2.644531 -10.695312 2.523438 -10.828125 2.359375 -10.984375 C 2.191406 -11.109375 2.078125 -11.21875 2.015625 -11.3125 C 1.953125 -11.414062 1.941406 -11.550781 1.984375 -11.71875 C 2.085938 -12.101562 2.613281 -12.441406 3.5625 -12.734375 C 4.507812 -13.023438 5.492188 -13.171875 6.515625 -13.171875 C 7.347656 -13.171875 8.003906 -12.941406 8.484375 -12.484375 C 8.960938 -12.023438 9.179688 -11.390625 9.140625 -10.578125 C 9.816406 -11.554688 10.535156 -12.234375 11.296875 -12.609375 C 12.066406 -12.984375 12.898438 -13.171875 13.796875 -13.171875 C 14.804688 -13.171875 15.617188 -12.863281 16.234375 -12.25 C 16.859375 -11.632812 17.171875 -10.835938 17.171875 -9.859375 C 17.171875 -9.335938 17.085938 -8.832031 16.921875 -8.34375 Z M 15.40625 -3.4375 "/></g></g></g><g fill="#000000" fill-opacity="0.4"><g transform="translate(282.820388, 275.951382)"><g><path d="M 13.1875 -13.171875 C 13.914062 -13.171875 14.5 -12.875 14.9375 -12.28125 C 15.382812 -11.695312 15.609375 -10.894531 15.609375 -9.875 C 15.609375 -9 15.453125 -8.054688 15.140625 -7.046875 C 14.523438 -5.003906 13.539062 -3.078125 12.1875 -1.265625 C 10.832031 0.535156 9.28125 1.984375 7.53125 3.078125 C 5.78125 4.179688 4.035156 4.734375 2.296875 4.734375 C 1.429688 4.734375 0.6875 4.582031 0.0625 4.28125 C -0.5625 3.976562 -1.035156 3.578125 -1.359375 3.078125 C -1.679688 2.585938 -1.84375 2.0625 -1.84375 1.5 C -1.84375 1.25 -1.800781 0.972656 -1.71875 0.671875 C -1.570312 0.203125 -1.320312 -0.148438 -0.96875 -0.390625 C -0.625 -0.640625 -0.207031 -0.765625 0.28125 -0.765625 C 1.039062 -0.765625 1.664062 -0.503906 2.15625 0.015625 C 2.644531 0.535156 2.957031 1.253906 3.09375 2.171875 C 4.144531 2.117188 5.125 1.660156 6.03125 0.796875 C 5.175781 0.648438 4.546875 0.363281 4.140625 -0.0625 C 3.734375 -0.488281 3.457031 -1.148438 3.3125 -2.046875 L 2.3125 -8.140625 C 2.257812 -8.453125 2.1875 -8.671875 2.09375 -8.796875 C 2.007812 -8.921875 1.894531 -8.984375 1.75 -8.984375 C 1.625 -8.984375 1.484375 -8.925781 1.328125 -8.8125 C 1.171875 -8.695312 1.0625 -8.640625 1 -8.640625 C 0.863281 -8.640625 0.796875 -8.78125 0.796875 -9.0625 C 0.796875 -9.289062 0.835938 -9.539062 0.921875 -9.8125 C 1.222656 -10.75 1.78125 -11.546875 2.59375 -12.203125 C 3.40625 -12.859375 4.347656 -13.1875 5.421875 -13.1875 C 6.484375 -13.1875 7.265625 -12.867188 7.765625 -12.234375 C 8.273438 -11.609375 8.609375 -10.640625 8.765625 -9.328125 L 9.515625 -3.859375 C 9.554688 -3.441406 9.703125 -3.234375 9.953125 -3.234375 C 10.253906 -3.234375 10.601562 -3.503906 11 -4.046875 C 11.394531 -4.585938 11.785156 -5.351562 12.171875 -6.34375 C 11.671875 -6.789062 11.285156 -7.304688 11.015625 -7.890625 C 10.753906 -8.472656 10.625 -9.09375 10.625 -9.75 C 10.625 -10.269531 10.691406 -10.738281 10.828125 -11.15625 C 11.023438 -11.8125 11.332031 -12.3125 11.75 -12.65625 C 12.175781 -13 12.65625 -13.171875 13.1875 -13.171875 Z M 13.1875 -13.171875 "/></g></g></g><g fill="#004aad" fill-opacity="1"><g transform="translate(183.992366, 274.851227)"><g><path d="M 15.203125 -2.9375 C 15.140625 -2.71875 15.109375 -2.503906 15.109375 -2.296875 C 15.109375 -2.109375 15.132812 -1.953125 15.1875 -1.828125 C 15.238281 -1.703125 15.289062 -1.601562 15.34375 -1.53125 C 15.40625 -1.457031 15.441406 -1.40625 15.453125 -1.375 C 15.617188 -1.207031 15.703125 -1.039062 15.703125 -0.875 C 15.703125 -0.84375 15.6875 -0.757812 15.65625 -0.625 C 15.59375 -0.394531 15.445312 -0.234375 15.21875 -0.140625 C 15 -0.046875 14.65625 0 14.1875 0 L 8.28125 0 C 7.9375 0 7.664062 -0.0546875 7.46875 -0.171875 C 7.28125 -0.285156 7.1875 -0.441406 7.1875 -0.640625 C 7.1875 -0.742188 7.210938 -0.851562 7.265625 -0.96875 C 7.316406 -1.101562 7.382812 -1.207031 7.46875 -1.28125 C 7.5625 -1.351562 7.691406 -1.441406 7.859375 -1.546875 C 8.128906 -1.691406 8.347656 -1.851562 8.515625 -2.03125 C 8.679688 -2.21875 8.820312 -2.519531 8.9375 -2.9375 L 9.578125 -5.078125 L 5.703125 -5.078125 L 5.03125 -3.65625 C 4.75 -3.039062 4.609375 -2.5625 4.609375 -2.21875 C 4.609375 -2.019531 4.640625 -1.859375 4.703125 -1.734375 C 4.765625 -1.609375 4.863281 -1.476562 5 -1.34375 C 5.113281 -1.207031 5.191406 -1.09375 5.234375 -1 C 5.273438 -0.914062 5.28125 -0.796875 5.25 -0.640625 C 5.1875 -0.398438 5.050781 -0.234375 4.84375 -0.140625 C 4.632812 -0.046875 4.304688 0 3.859375 0 L 0.15625 0 C -0.226562 0 -0.519531 -0.0664062 -0.71875 -0.203125 C -0.914062 -0.347656 -1.015625 -0.535156 -1.015625 -0.765625 C -1.015625 -1.035156 -0.921875 -1.25 -0.734375 -1.40625 C -0.546875 -1.5625 -0.257812 -1.734375 0.125 -1.921875 C 0.625 -2.171875 1.019531 -2.414062 1.3125 -2.65625 C 1.613281 -2.894531 1.875 -3.226562 2.09375 -3.65625 L 6.515625 -12.84375 C 7.203125 -14.269531 8.003906 -15.300781 8.921875 -15.9375 C 9.847656 -16.582031 11.0625 -16.90625 12.5625 -16.90625 C 14.257812 -16.90625 15.570312 -16.554688 16.5 -15.859375 C 17.425781 -15.171875 17.890625 -14.21875 17.890625 -13 C 17.890625 -12.476562 17.804688 -11.945312 17.640625 -11.40625 Z M 10.328125 -7.5625 L 11.65625 -11.953125 C 11.71875 -12.148438 11.75 -12.351562 11.75 -12.5625 C 11.75 -12.882812 11.660156 -13.125 11.484375 -13.28125 C 11.304688 -13.4375 11.0625 -13.515625 10.75 -13.515625 C 10.351562 -13.515625 10.015625 -13.394531 9.734375 -13.15625 C 9.453125 -12.925781 9.171875 -12.515625 8.890625 -11.921875 L 6.84375 -7.5625 Z M 10.328125 -7.5625 "/></g></g></g><g fill="#004aad" fill-opacity="1"><g transform="translate(201.367317, 274.851227)"><g><path d="M 15.40625 -3.4375 C 15.375 -3.363281 15.359375 -3.265625 15.359375 -3.140625 C 15.359375 -3.023438 15.382812 -2.929688 15.4375 -2.859375 C 15.5 -2.796875 15.582031 -2.765625 15.6875 -2.765625 C 15.882812 -2.765625 16.050781 -2.847656 16.1875 -3.015625 C 16.332031 -3.191406 16.429688 -3.28125 16.484375 -3.28125 C 16.566406 -3.28125 16.628906 -3.226562 16.671875 -3.125 C 16.722656 -3.019531 16.75 -2.890625 16.75 -2.734375 C 16.769531 -2.253906 16.613281 -1.785156 16.28125 -1.328125 C 15.945312 -0.867188 15.457031 -0.492188 14.8125 -0.203125 C 14.175781 0.078125 13.410156 0.21875 12.515625 0.21875 C 11.421875 0.21875 10.550781 -0.03125 9.90625 -0.53125 C 9.257812 -1.039062 8.925781 -1.71875 8.90625 -2.5625 C 8.90625 -3.175781 9.054688 -3.863281 9.359375 -4.625 L 10.734375 -8.21875 C 10.816406 -8.425781 10.859375 -8.597656 10.859375 -8.734375 C 10.859375 -8.953125 10.785156 -9.125 10.640625 -9.25 C 10.492188 -9.375 10.320312 -9.4375 10.125 -9.4375 C 9.757812 -9.4375 9.410156 -9.265625 9.078125 -8.921875 C 8.753906 -8.578125 8.515625 -8.160156 8.359375 -7.671875 L 6.8125 -2.59375 C 6.75 -2.40625 6.71875 -2.226562 6.71875 -2.0625 C 6.71875 -1.863281 6.757812 -1.703125 6.84375 -1.578125 C 6.925781 -1.453125 7.039062 -1.320312 7.1875 -1.1875 C 7.3125 -1.09375 7.394531 -1.003906 7.4375 -0.921875 C 7.488281 -0.835938 7.5 -0.738281 7.46875 -0.625 C 7.40625 -0.40625 7.25 -0.242188 7 -0.140625 C 6.75 -0.046875 6.359375 0 5.828125 0 L 0.15625 0 C -0.28125 0 -0.59375 -0.0664062 -0.78125 -0.203125 C -0.96875 -0.347656 -1.039062 -0.535156 -1 -0.765625 C -0.925781 -0.960938 -0.75 -1.140625 -0.46875 -1.296875 C -0.21875 -1.429688 -0.015625 -1.585938 0.140625 -1.765625 C 0.304688 -1.953125 0.453125 -2.242188 0.578125 -2.640625 L 2.78125 -9.828125 C 2.820312 -9.910156 2.84375 -10.03125 2.84375 -10.1875 C 2.84375 -10.363281 2.800781 -10.5 2.71875 -10.59375 C 2.644531 -10.695312 2.523438 -10.828125 2.359375 -10.984375 C 2.191406 -11.109375 2.078125 -11.21875 2.015625 -11.3125 C 1.953125 -11.414062 1.941406 -11.550781 1.984375 -11.71875 C 2.085938 -12.101562 2.613281 -12.441406 3.5625 -12.734375 C 4.507812 -13.023438 5.492188 -13.171875 6.515625 -13.171875 C 7.347656 -13.171875 8.003906 -12.941406 8.484375 -12.484375 C 8.960938 -12.023438 9.179688 -11.390625 9.140625 -10.578125 C 9.816406 -11.554688 10.535156 -12.234375 11.296875 -12.609375 C 12.066406 -12.984375 12.898438 -13.171875 13.796875 -13.171875 C 14.804688 -13.171875 15.617188 -12.863281 16.234375 -12.25 C 16.859375 -11.632812 17.171875 -10.835938 17.171875 -9.859375 C 17.171875 -9.335938 17.085938 -8.832031 16.921875 -8.34375 Z M 15.40625 -3.4375 "/></g></g></g><g fill="#004aad" fill-opacity="1"><g transform="translate(219.190334, 274.851227)"><g><path d="M 11.125 -12.84375 C 11.4375 -12.84375 11.679688 -12.773438 11.859375 -12.640625 C 12.035156 -12.515625 12.125 -12.332031 12.125 -12.09375 C 12.125 -12.03125 12.109375 -11.914062 12.078125 -11.75 C 11.859375 -11.019531 11.359375 -10.65625 10.578125 -10.65625 L 9.140625 -10.65625 L 7.265625 -4.5 C 7.179688 -4.25 7.140625 -3.992188 7.140625 -3.734375 C 7.140625 -3.429688 7.222656 -3.222656 7.390625 -3.109375 C 7.554688 -2.992188 7.789062 -2.9375 8.09375 -2.9375 C 8.351562 -2.9375 8.679688 -2.96875 9.078125 -3.03125 C 9.285156 -3.082031 9.460938 -3.109375 9.609375 -3.109375 C 9.722656 -3.109375 9.804688 -3.070312 9.859375 -3 C 9.921875 -2.925781 9.953125 -2.832031 9.953125 -2.71875 C 9.972656 -2.382812 9.726562 -1.976562 9.21875 -1.5 C 8.71875 -1.03125 8.035156 -0.625 7.171875 -0.28125 C 6.304688 0.0507812 5.351562 0.21875 4.3125 0.21875 C 3.175781 0.21875 2.269531 -0.0351562 1.59375 -0.546875 C 0.914062 -1.054688 0.578125 -1.757812 0.578125 -2.65625 C 0.578125 -3.070312 0.640625 -3.472656 0.765625 -3.859375 L 2.359375 -8.78125 C 2.441406 -9.0625 2.484375 -9.285156 2.484375 -9.453125 C 2.484375 -9.785156 2.40625 -10.066406 2.25 -10.296875 C 2.09375 -10.535156 1.875 -10.78125 1.59375 -11.03125 C 1.34375 -11.257812 1.164062 -11.453125 1.0625 -11.609375 C 0.96875 -11.765625 0.945312 -11.953125 1 -12.171875 C 1.0625 -12.390625 1.203125 -12.554688 1.421875 -12.671875 C 1.640625 -12.785156 1.976562 -12.84375 2.4375 -12.84375 L 3.828125 -12.84375 L 5.40625 -14.40625 C 5.945312 -14.957031 6.445312 -15.335938 6.90625 -15.546875 C 7.363281 -15.765625 7.957031 -15.875 8.6875 -15.875 C 9.726562 -15.875 10.25 -15.476562 10.25 -14.6875 C 10.25 -14.4375 10.21875 -14.203125 10.15625 -13.984375 L 9.8125 -12.84375 Z M 11.125 -12.84375 "/></g></g></g><g fill="#004aad" fill-opacity="1"><g transform="translate(229.894101, 274.851227)"><g><path d="M 15.265625 -3.4375 C 15.222656 -3.363281 15.203125 -3.265625 15.203125 -3.140625 C 15.203125 -3.023438 15.226562 -2.929688 15.28125 -2.859375 C 15.34375 -2.796875 15.425781 -2.765625 15.53125 -2.765625 C 15.726562 -2.765625 15.894531 -2.847656 16.03125 -3.015625 C 16.175781 -3.191406 16.273438 -3.28125 16.328125 -3.28125 C 16.410156 -3.28125 16.476562 -3.226562 16.53125 -3.125 C 16.582031 -3.019531 16.609375 -2.890625 16.609375 -2.734375 C 16.617188 -2.253906 16.457031 -1.785156 16.125 -1.328125 C 15.789062 -0.867188 15.304688 -0.492188 14.671875 -0.203125 C 14.035156 0.078125 13.269531 0.21875 12.375 0.21875 C 11.28125 0.21875 10.40625 -0.03125 9.75 -0.53125 C 9.101562 -1.039062 8.773438 -1.71875 8.765625 -2.5625 C 8.765625 -3.175781 8.910156 -3.863281 9.203125 -4.625 L 10.578125 -8.21875 C 10.660156 -8.425781 10.703125 -8.597656 10.703125 -8.734375 C 10.703125 -8.953125 10.628906 -9.125 10.484375 -9.25 C 10.347656 -9.375 10.179688 -9.4375 9.984375 -9.4375 C 9.671875 -9.4375 9.347656 -9.289062 9.015625 -9 C 8.691406 -8.707031 8.429688 -8.238281 8.234375 -7.59375 L 8.234375 -7.640625 L 6.671875 -2.59375 C 6.617188 -2.394531 6.59375 -2.21875 6.59375 -2.0625 C 6.59375 -1.851562 6.632812 -1.6875 6.71875 -1.5625 C 6.800781 -1.4375 6.914062 -1.3125 7.0625 -1.1875 C 7.1875 -1.070312 7.269531 -0.976562 7.3125 -0.90625 C 7.363281 -0.832031 7.375 -0.738281 7.34375 -0.625 C 7.257812 -0.40625 7.09375 -0.242188 6.84375 -0.140625 C 6.59375 -0.046875 6.210938 0 5.703125 0 L 0.03125 0 C -0.40625 0 -0.722656 -0.0664062 -0.921875 -0.203125 C -1.117188 -0.347656 -1.1875 -0.535156 -1.125 -0.765625 C -1.050781 -0.960938 -0.875 -1.140625 -0.59375 -1.296875 C -0.34375 -1.429688 -0.132812 -1.585938 0.03125 -1.765625 C 0.195312 -1.953125 0.335938 -2.242188 0.453125 -2.640625 L 4.234375 -15.0625 C 4.285156 -15.207031 4.3125 -15.332031 4.3125 -15.4375 C 4.3125 -15.613281 4.265625 -15.757812 4.171875 -15.875 C 4.078125 -15.988281 3.957031 -16.109375 3.8125 -16.234375 C 3.644531 -16.359375 3.519531 -16.46875 3.4375 -16.5625 C 3.363281 -16.664062 3.351562 -16.800781 3.40625 -16.96875 C 3.507812 -17.351562 4.03125 -17.6875 4.96875 -17.96875 C 5.914062 -18.25 6.90625 -18.390625 7.9375 -18.390625 C 8.90625 -18.390625 9.613281 -18.207031 10.0625 -17.84375 C 10.519531 -17.476562 10.75 -16.984375 10.75 -16.359375 C 10.75 -15.992188 10.691406 -15.632812 10.578125 -15.28125 L 9.234375 -10.90625 C 9.878906 -11.75 10.5625 -12.335938 11.28125 -12.671875 C 12.007812 -13.003906 12.796875 -13.171875 13.640625 -13.171875 C 14.648438 -13.171875 15.46875 -12.863281 16.09375 -12.25 C 16.71875 -11.632812 17.03125 -10.835938 17.03125 -9.859375 C 17.03125 -9.335938 16.945312 -8.832031 16.78125 -8.34375 Z M 15.265625 -3.4375 "/></g></g></g><g fill="#004aad" fill-opacity="1"><g transform="translate(247.567763, 274.851227)"><g><path d="M 9.625 -13.171875 C 11.882812 -13.171875 13.550781 -12.710938 14.625 -11.796875 C 15.695312 -10.878906 16.234375 -9.6875 16.234375 -8.21875 C 16.234375 -7.71875 16.164062 -7.160156 16.03125 -6.546875 C 15.71875 -5.179688 15.128906 -3.988281 14.265625 -2.96875 C 13.398438 -1.945312 12.335938 -1.160156 11.078125 -0.609375 C 9.828125 -0.0546875 8.472656 0.21875 7.015625 0.21875 C 4.710938 0.21875 3.007812 -0.238281 1.90625 -1.15625 C 0.800781 -2.070312 0.25 -3.296875 0.25 -4.828125 C 0.25 -5.335938 0.316406 -5.910156 0.453125 -6.546875 C 0.765625 -7.835938 1.363281 -8.984375 2.25 -9.984375 C 3.132812 -10.992188 4.21875 -11.773438 5.5 -12.328125 C 6.789062 -12.890625 8.164062 -13.171875 9.625 -13.171875 Z M 9.5625 -10.953125 C 9.207031 -10.953125 8.832031 -10.640625 8.4375 -10.015625 C 8.050781 -9.390625 7.59375 -8.21875 7.0625 -6.5 C 6.53125 -4.769531 6.265625 -3.554688 6.265625 -2.859375 C 6.265625 -2.492188 6.320312 -2.25 6.4375 -2.125 C 6.5625 -2 6.722656 -1.9375 6.921875 -1.9375 C 7.265625 -1.90625 7.625 -2.203125 8 -2.828125 C 8.375 -3.460938 8.84375 -4.691406 9.40625 -6.515625 C 9.925781 -8.128906 10.1875 -9.300781 10.1875 -10.03125 C 10.1875 -10.375 10.128906 -10.613281 10.015625 -10.75 C 9.910156 -10.882812 9.757812 -10.953125 9.5625 -10.953125 Z M 9.5625 -10.953125 "/></g></g></g><g fill="#004aad" fill-opacity="1"><g transform="translate(263.897227, 274.851227)"><g><path d="M 15.40625 -3.4375 C 15.375 -3.363281 15.359375 -3.265625 15.359375 -3.140625 C 15.359375 -3.023438 15.382812 -2.929688 15.4375 -2.859375 C 15.5 -2.796875 15.582031 -2.765625 15.6875 -2.765625 C 15.882812 -2.765625 16.050781 -2.847656 16.1875 -3.015625 C 16.332031 -3.191406 16.429688 -3.28125 16.484375 -3.28125 C 16.566406 -3.28125 16.628906 -3.226562 16.671875 -3.125 C 16.722656 -3.019531 16.75 -2.890625 16.75 -2.734375 C 16.769531 -2.253906 16.613281 -1.785156 16.28125 -1.328125 C 15.945312 -0.867188 15.457031 -0.492188 14.8125 -0.203125 C 14.175781 0.078125 13.410156 0.21875 12.515625 0.21875 C 11.421875 0.21875 10.550781 -0.03125 9.90625 -0.53125 C 9.257812 -1.039062 8.925781 -1.71875 8.90625 -2.5625 C 8.90625 -3.175781 9.054688 -3.863281 9.359375 -4.625 L 10.734375 -8.21875 C 10.816406 -8.425781 10.859375 -8.597656 10.859375 -8.734375 C 10.859375 -8.953125 10.785156 -9.125 10.640625 -9.25 C 10.492188 -9.375 10.320312 -9.4375 10.125 -9.4375 C 9.757812 -9.4375 9.410156 -9.265625 9.078125 -8.921875 C 8.753906 -8.578125 8.515625 -8.160156 8.359375 -7.671875 L 6.8125 -2.59375 C 6.75 -2.40625 6.71875 -2.226562 6.71875 -2.0625 C 6.71875 -1.863281 6.757812 -1.703125 6.84375 -1.578125 C 6.925781 -1.453125 7.039062 -1.320312 7.1875 -1.1875 C 7.3125 -1.09375 7.394531 -1.003906 7.4375 -0.921875 C 7.488281 -0.835938 7.5 -0.738281 7.46875 -0.625 C 7.40625 -0.40625 7.25 -0.242188 7 -0.140625 C 6.75 -0.046875 6.359375 0 5.828125 0 L 0.15625 0 C -0.28125 0 -0.59375 -0.0664062 -0.78125 -0.203125 C -0.96875 -0.347656 -1.039062 -0.535156 -1 -0.765625 C -0.925781 -0.960938 -0.75 -1.140625 -0.46875 -1.296875 C -0.21875 -1.429688 -0.015625 -1.585938 0.140625 -1.765625 C 0.304688 -1.953125 0.453125 -2.242188 0.578125 -2.640625 L 2.78125 -9.828125 C 2.820312 -9.910156 2.84375 -10.03125 2.84375 -10.1875 C 2.84375 -10.363281 2.800781 -10.5 2.71875 -10.59375 C 2.644531 -10.695312 2.523438 -10.828125 2.359375 -10.984375 C 2.191406 -11.109375 2.078125 -11.21875 2.015625 -11.3125 C 1.953125 -11.414062 1.941406 -11.550781 1.984375 -11.71875 C 2.085938 -12.101562 2.613281 -12.441406 3.5625 -12.734375 C 4.507812 -13.023438 5.492188 -13.171875 6.515625 -13.171875 C 7.347656 -13.171875 8.003906 -12.941406 8.484375 -12.484375 C 8.960938 -12.023438 9.179688 -11.390625 9.140625 -10.578125 C 9.816406 -11.554688 10.535156 -12.234375 11.296875 -12.609375 C 12.066406 -12.984375 12.898438 -13.171875 13.796875 -13.171875 C 14.804688 -13.171875 15.617188 -12.863281 16.234375 -12.25 C 16.859375 -11.632812 17.171875 -10.835938 17.171875 -9.859375 C 17.171875 -9.335938 17.085938 -8.832031 16.921875 -8.34375 Z M 15.40625 -3.4375 "/></g></g></g><g fill="#004aad" fill-opacity="1"><g transform="translate(281.720247, 274.851227)"><g><path d="M 13.1875 -13.171875 C 13.914062 -13.171875 14.5 -12.875 14.9375 -12.28125 C 15.382812 -11.695312 15.609375 -10.894531 15.609375 -9.875 C 15.609375 -9 15.453125 -8.054688 15.140625 -7.046875 C 14.523438 -5.003906 13.539062 -3.078125 12.1875 -1.265625 C 10.832031 0.535156 9.28125 1.984375 7.53125 3.078125 C 5.78125 4.179688 4.035156 4.734375 2.296875 4.734375 C 1.429688 4.734375 0.6875 4.582031 0.0625 4.28125 C -0.5625 3.976562 -1.035156 3.578125 -1.359375 3.078125 C -1.679688 2.585938 -1.84375 2.0625 -1.84375 1.5 C -1.84375 1.25 -1.800781 0.972656 -1.71875 0.671875 C -1.570312 0.203125 -1.320312 -0.148438 -0.96875 -0.390625 C -0.625 -0.640625 -0.207031 -0.765625 0.28125 -0.765625 C 1.039062 -0.765625 1.664062 -0.503906 2.15625 0.015625 C 2.644531 0.535156 2.957031 1.253906 3.09375 2.171875 C 4.144531 2.117188 5.125 1.660156 6.03125 0.796875 C 5.175781 0.648438 4.546875 0.363281 4.140625 -0.0625 C 3.734375 -0.488281 3.457031 -1.148438 3.3125 -2.046875 L 2.3125 -8.140625 C 2.257812 -8.453125 2.1875 -8.671875 2.09375 -8.796875 C 2.007812 -8.921875 1.894531 -8.984375 1.75 -8.984375 C 1.625 -8.984375 1.484375 -8.925781 1.328125 -8.8125 C 1.171875 -8.695312 1.0625 -8.640625 1 -8.640625 C 0.863281 -8.640625 0.796875 -8.78125 0.796875 -9.0625 C 0.796875 -9.289062 0.835938 -9.539062 0.921875 -9.8125 C 1.222656 -10.75 1.78125 -11.546875 2.59375 -12.203125 C 3.40625 -12.859375 4.347656 -13.1875 5.421875 -13.1875 C 6.484375 -13.1875 7.265625 -12.867188 7.765625 -12.234375 C 8.273438 -11.609375 8.609375 -10.640625 8.765625 -9.328125 L 9.515625 -3.859375 C 9.554688 -3.441406 9.703125 -3.234375 9.953125 -3.234375 C 10.253906 -3.234375 10.601562 -3.503906 11 -4.046875 C 11.394531 -4.585938 11.785156 -5.351562 12.171875 -6.34375 C 11.671875 -6.789062 11.285156 -7.304688 11.015625 -7.890625 C 10.753906 -8.472656 10.625 -9.09375 10.625 -9.75 C 10.625 -10.269531 10.691406 -10.738281 10.828125 -11.15625 C 11.023438 -11.8125 11.332031 -12.3125 11.75 -12.65625 C 12.175781 -13 12.65625 -13.171875 13.1875 -13.171875 Z M 13.1875 -13.171875 "/></g></g></g></svg>