<svg xmlns="http://www.w3.org/2000/svg" xmlns:xlink="http://www.w3.org/1999/xlink" width="500" zoomAndPan="magnify" viewBox="0 0 375 374.999991" height="500" preserveAspectRatio="xMidYMid meet" version="1.0"><defs><g/><clipPath id="c72ead5cd7"><path d="M 119.714844 80.699219 L 247.964844 80.699219 L 247.964844 230.699219 L 119.714844 230.699219 Z M 119.714844 80.699219 " clip-rule="nonzero"/></clipPath><clipPath id="191f1865be"><path d="M 158 133 L 271 133 L 271 233 L 158 233 Z M 158 133 " clip-rule="nonzero"/></clipPath><clipPath id="94d0b2e2f8"><path d="M 161.175781 132.347656 L 272.660156 135.253906 L 270.117188 232.804688 L 158.628906 229.898438 Z M 161.175781 132.347656 " clip-rule="nonzero"/></clipPath><clipPath id="06959d349f"><path d="M 216.917969 133.800781 L 270.117188 232.804688 L 158.628906 229.898438 Z M 216.917969 133.800781 " clip-rule="nonzero"/></clipPath><clipPath id="acc5952685"><path d="M 190 151 L 255 151 L 255 223 L 190 223 Z M 190 151 " clip-rule="nonzero"/></clipPath><clipPath id="7a660bf1f6"><path d="M 192.460938 150.800781 L 256.605469 152.472656 L 254.78125 222.488281 L 190.632812 220.816406 Z M 192.460938 150.800781 " clip-rule="nonzero"/></clipPath><clipPath id="a2c2b6b349"><path d="M 224.53125 151.636719 L 254.78125 222.488281 L 190.632812 220.816406 Z M 224.53125 151.636719 " clip-rule="nonzero"/></clipPath><clipPath id="ec15d44b7d"><path d="M 182 140 L 275 140 L 275 233 L 182 233 Z M 182 140 " clip-rule="nonzero"/></clipPath><clipPath id="2080454a79"><path d="M 184.457031 139.242188 L 276.789062 141.652344 L 274.414062 232.804688 L 182.078125 230.398438 Z M 184.457031 139.242188 " clip-rule="nonzero"/></clipPath><clipPath id="2b1c3ddb85"><path d="M 230.625 140.449219 L 274.414062 232.804688 L 182.078125 230.398438 Z M 230.625 140.449219 " clip-rule="nonzero"/></clipPath><clipPath id="0fd6ad0130"><path d="M 196 150 L 255 150 L 255 246 L 196 246 Z M 196 150 " clip-rule="nonzero"/></clipPath><clipPath id="eee3322ab8"><path d="M 280.8125 235.578125 L 227.691406 255.433594 L 196 170.648438 L 249.121094 150.792969 Z M 280.8125 235.578125 " clip-rule="nonzero"/></clipPath><clipPath id="acfa5bd50a"><path d="M 254.253906 245.503906 L 196 170.648438 L 249.121094 150.792969 Z M 254.253906 245.503906 " clip-rule="nonzero"/></clipPath><clipPath id="54b0403344"><path d="M 207 162 L 247 162 L 247 226 L 207 226 Z M 207 162 " clip-rule="nonzero"/></clipPath><clipPath id="521b9ba7e4"><path d="M 264.546875 218.769531 L 229.007812 232.054688 L 207.808594 175.332031 L 243.347656 162.050781 Z M 264.546875 218.769531 " clip-rule="nonzero"/></clipPath><clipPath id="6c1603e984"><path d="M 246.777344 225.410156 L 207.808594 175.332031 L 243.347656 162.050781 Z M 246.777344 225.410156 " clip-rule="nonzero"/></clipPath><clipPath id="de340d0478"><path d="M 250.953125 80.699219 L 276.78125 80.699219 L 276.78125 232.804688 L 250.953125 232.804688 Z M 250.953125 80.699219 " clip-rule="nonzero"/></clipPath><clipPath id="57ae6fecba"><path d="M 140.0625 234.523438 L 227.0625 234.523438 L 227.0625 265.273438 L 140.0625 265.273438 Z M 140.0625 234.523438 " clip-rule="nonzero"/></clipPath><clipPath id="88f6695697"><path d="M 136.636719 259.648438 L 223.636719 259.648438 L 223.636719 290.398438 L 136.636719 290.398438 Z M 136.636719 259.648438 " clip-rule="nonzero"/></clipPath><clipPath id="9d291a3716"><path d="M 119.714844 237.722656 L 247.625 237.722656 L 247.625 265.335938 L 119.714844 265.335938 Z M 119.714844 237.722656 " clip-rule="nonzero"/></clipPath><clipPath id="932304e182"><path d="M 136.425781 255.148438 L 227.761719 255.148438 L 227.761719 286.875 L 136.425781 286.875 Z M 136.425781 255.148438 " clip-rule="nonzero"/></clipPath></defs><g clip-path="url(#c72ead5cd7)"><path fill="#ffffff" d="M 119.769531 80.699219 L 119.769531 86.355469 L 134.941406 86.355469 L 134.941406 224.863281 L 122.703125 224.863281 L 122.703125 230.699219 L 170.199219 230.699219 L 170.199219 224.863281 L 158.496094 224.863281 L 158.496094 153.933594 L 203.210938 153.933594 L 203.210938 145.761719 L 158.496094 145.761719 L 158.496094 86.355469 L 199.855469 86.355469 C 222.871094 86.355469 233.734375 97.546875 238.734375 114.785156 L 247.5625 114.785156 L 247.5625 80.699219 Z M 119.769531 80.699219 " fill-opacity="1" fill-rule="nonzero"/></g><g clip-path="url(#191f1865be)"><g clip-path="url(#94d0b2e2f8)"><g clip-path="url(#06959d349f)"><path fill="#ffffff" d="M 161.175781 132.347656 L 272.660156 135.253906 L 270.117188 232.804688 L 158.628906 229.898438 Z M 161.175781 132.347656 " fill-opacity="1" fill-rule="nonzero"/></g></g></g><g clip-path="url(#acc5952685)"><g clip-path="url(#7a660bf1f6)"><g clip-path="url(#a2c2b6b349)"><path fill="#ffffff" d="M 192.460938 150.800781 L 256.605469 152.472656 L 254.78125 222.488281 L 190.632812 220.816406 Z M 192.460938 150.800781 " fill-opacity="1" fill-rule="nonzero"/></g></g></g><g clip-path="url(#ec15d44b7d)"><g clip-path="url(#2080454a79)"><g clip-path="url(#2b1c3ddb85)"><path fill="#ffffff" d="M 184.457031 139.242188 L 276.789062 141.652344 L 274.414062 232.804688 L 182.078125 230.398438 Z M 184.457031 139.242188 " fill-opacity="1" fill-rule="nonzero"/></g></g></g><g clip-path="url(#0fd6ad0130)"><g clip-path="url(#eee3322ab8)"><g clip-path="url(#acfa5bd50a)"><path fill="#000000" d="M 280.8125 235.578125 L 227.691406 255.433594 L 196 170.648438 L 249.121094 150.792969 Z M 280.8125 235.578125 " fill-opacity="1" fill-rule="nonzero"/></g></g></g><g clip-path="url(#54b0403344)"><g clip-path="url(#521b9ba7e4)"><g clip-path="url(#6c1603e984)"><path fill="#004aad" d="M 264.546875 218.769531 L 229.007812 232.054688 L 207.808594 175.332031 L 243.347656 162.050781 Z M 264.546875 218.769531 " fill-opacity="1" fill-rule="nonzero"/></g></g></g><g clip-path="url(#de340d0478)"><path fill="#000000" d="M 276.78125 80.699219 L 276.78125 232.804688 L 250.953125 232.804688 L 250.953125 80.699219 Z M 276.78125 80.699219 " fill-opacity="1" fill-rule="nonzero"/></g><g clip-path="url(#57ae6fecba)"><path fill="#ffffff" d="M 225.730469 262.230469 L 224.183594 262.230469 L 224.183594 235.9375 C 224.183594 235.730469 224.144531 235.535156 224.066406 235.34375 C 223.988281 235.15625 223.878906 234.988281 223.730469 234.84375 C 223.585938 234.695312 223.417969 234.585938 223.230469 234.507812 C 223.039062 234.429688 222.84375 234.390625 222.636719 234.390625 L 213.359375 234.390625 C 213.152344 234.390625 212.957031 234.429688 212.765625 234.507812 C 212.578125 234.585938 212.410156 234.695312 212.265625 234.84375 C 212.121094 234.988281 212.007812 235.15625 211.929688 235.34375 C 211.851562 235.535156 211.8125 235.730469 211.8125 235.9375 L 211.8125 262.230469 L 205.625 262.230469 L 205.625 174.070312 C 205.625 173.863281 205.585938 173.667969 205.507812 173.476562 C 205.429688 173.289062 205.316406 173.121094 205.171875 172.976562 C 205.027344 172.828125 204.859375 172.71875 204.671875 172.640625 C 204.480469 172.5625 204.285156 172.523438 204.078125 172.523438 L 194.796875 172.523438 C 194.59375 172.523438 194.394531 172.5625 194.207031 172.640625 C 194.015625 172.71875 193.847656 172.828125 193.703125 172.976562 C 193.558594 173.121094 193.449219 173.289062 193.371094 173.476562 C 193.289062 173.667969 193.25 173.863281 193.25 174.070312 L 193.25 262.230469 L 187.066406 262.230469 L 187.066406 191.082031 C 187.066406 190.878906 187.027344 190.679688 186.945312 190.492188 C 186.867188 190.300781 186.757812 190.132812 186.613281 189.988281 C 186.464844 189.84375 186.300781 189.730469 186.109375 189.652344 C 185.921875 189.574219 185.722656 189.535156 185.519531 189.535156 L 176.238281 189.535156 C 176.03125 189.535156 175.835938 189.574219 175.644531 189.652344 C 175.457031 189.730469 175.289062 189.84375 175.144531 189.988281 C 175 190.132812 174.886719 190.300781 174.808594 190.492188 C 174.730469 190.679688 174.691406 190.878906 174.691406 191.082031 L 174.691406 262.230469 L 168.503906 262.230469 L 168.503906 220.46875 C 168.503906 220.265625 168.464844 220.066406 168.386719 219.878906 C 168.308594 219.6875 168.195312 219.519531 168.050781 219.375 C 167.90625 219.230469 167.738281 219.117188 167.550781 219.039062 C 167.359375 218.960938 167.164062 218.921875 166.957031 218.921875 L 157.679688 218.921875 C 157.472656 218.921875 157.277344 218.960938 157.085938 219.039062 C 156.894531 219.117188 156.730469 219.230469 156.585938 219.375 C 156.4375 219.519531 156.328125 219.6875 156.25 219.878906 C 156.171875 220.066406 156.132812 220.265625 156.132812 220.46875 L 156.132812 262.230469 L 149.945312 262.230469 L 149.945312 205.003906 C 149.945312 204.796875 149.90625 204.601562 149.828125 204.410156 C 149.75 204.222656 149.636719 204.054688 149.492188 203.910156 C 149.347656 203.761719 149.179688 203.652344 148.988281 203.574219 C 148.800781 203.496094 148.601562 203.457031 148.398438 203.457031 L 139.117188 203.457031 C 138.914062 203.457031 138.714844 203.496094 138.527344 203.574219 C 138.335938 203.652344 138.167969 203.761719 138.023438 203.910156 C 137.878906 204.054688 137.765625 204.222656 137.6875 204.410156 C 137.609375 204.601562 137.570312 204.796875 137.570312 205.003906 L 137.570312 262.230469 L 136.023438 262.230469 C 135.820312 262.230469 135.621094 262.269531 135.433594 262.347656 C 135.242188 262.425781 135.074219 262.539062 134.929688 262.683594 C 134.785156 262.828125 134.675781 262.996094 134.59375 263.183594 C 134.515625 263.375 134.476562 263.570312 134.476562 263.777344 C 134.476562 263.980469 134.515625 264.179688 134.59375 264.367188 C 134.675781 264.558594 134.785156 264.726562 134.929688 264.871094 C 135.074219 265.015625 135.242188 265.125 135.433594 265.207031 C 135.621094 265.285156 135.820312 265.324219 136.023438 265.324219 L 225.730469 265.324219 C 225.9375 265.324219 226.132812 265.285156 226.324219 265.207031 C 226.511719 265.125 226.679688 265.015625 226.824219 264.871094 C 226.96875 264.726562 227.082031 264.558594 227.160156 264.367188 C 227.238281 264.179688 227.277344 263.980469 227.277344 263.777344 C 227.277344 263.570312 227.238281 263.375 227.160156 263.183594 C 227.082031 262.996094 226.96875 262.828125 226.824219 262.683594 C 226.679688 262.539062 226.511719 262.425781 226.324219 262.347656 C 226.132812 262.269531 225.9375 262.230469 225.730469 262.230469 Z M 225.730469 262.230469 " fill-opacity="1" fill-rule="nonzero"/></g><g clip-path="url(#88f6695697)"><path fill="#ffffff" d="M 137.964844 262.691406 L 139.511719 262.691406 L 139.511719 288.984375 C 139.511719 289.1875 139.550781 289.386719 139.628906 289.574219 C 139.707031 289.765625 139.820312 289.933594 139.964844 290.078125 C 140.109375 290.222656 140.277344 290.332031 140.46875 290.414062 C 140.65625 290.492188 140.855469 290.53125 141.058594 290.53125 L 150.339844 290.53125 C 150.542969 290.53125 150.742188 290.492188 150.929688 290.414062 C 151.121094 290.332031 151.289062 290.222656 151.433594 290.078125 C 151.578125 289.933594 151.6875 289.765625 151.769531 289.574219 C 151.847656 289.386719 151.886719 289.1875 151.886719 288.984375 L 151.886719 262.691406 L 158.074219 262.691406 L 158.074219 350.851562 C 158.074219 351.054688 158.113281 351.253906 158.191406 351.441406 C 158.269531 351.632812 158.378906 351.800781 158.523438 351.945312 C 158.671875 352.089844 158.835938 352.199219 159.027344 352.28125 C 159.214844 352.359375 159.414062 352.398438 159.617188 352.398438 L 168.898438 352.398438 C 169.105469 352.398438 169.300781 352.359375 169.492188 352.28125 C 169.679688 352.199219 169.847656 352.089844 169.992188 351.945312 C 170.136719 351.800781 170.25 351.632812 170.328125 351.441406 C 170.40625 351.253906 170.445312 351.054688 170.445312 350.851562 L 170.445312 262.691406 L 176.632812 262.691406 L 176.632812 333.835938 C 176.632812 334.042969 176.671875 334.238281 176.75 334.429688 C 176.828125 334.617188 176.941406 334.785156 177.085938 334.929688 C 177.230469 335.074219 177.398438 335.1875 177.585938 335.265625 C 177.777344 335.34375 177.972656 335.382812 178.179688 335.382812 L 187.460938 335.382812 C 187.664062 335.382812 187.863281 335.34375 188.050781 335.265625 C 188.242188 335.1875 188.40625 335.074219 188.554688 334.929688 C 188.699219 334.785156 188.808594 334.617188 188.886719 334.429688 C 188.964844 334.238281 189.007812 334.042969 189.007812 333.835938 L 189.007812 262.691406 L 195.191406 262.691406 L 195.191406 304.449219 C 195.191406 304.65625 195.230469 304.851562 195.308594 305.042969 C 195.390625 305.230469 195.5 305.398438 195.644531 305.542969 C 195.789062 305.6875 195.957031 305.800781 196.148438 305.878906 C 196.335938 305.957031 196.535156 305.996094 196.738281 305.996094 L 206.019531 305.996094 C 206.222656 305.996094 206.421875 305.957031 206.609375 305.878906 C 206.800781 305.800781 206.96875 305.6875 207.113281 305.542969 C 207.257812 305.398438 207.371094 305.230469 207.449219 305.042969 C 207.527344 304.851562 207.566406 304.65625 207.566406 304.449219 L 207.566406 262.691406 L 213.753906 262.691406 L 213.753906 319.917969 C 213.753906 320.121094 213.792969 320.320312 213.871094 320.507812 C 213.949219 320.699219 214.0625 320.867188 214.207031 321.011719 C 214.351562 321.15625 214.519531 321.265625 214.707031 321.347656 C 214.898438 321.425781 215.09375 321.464844 215.300781 321.464844 L 224.578125 321.464844 C 224.785156 321.464844 224.980469 321.425781 225.171875 321.347656 C 225.359375 321.265625 225.527344 321.15625 225.671875 321.011719 C 225.816406 320.867188 225.929688 320.699219 226.007812 320.507812 C 226.085938 320.320312 226.125 320.121094 226.125 319.917969 L 226.125 262.691406 L 227.671875 262.691406 C 227.878906 262.691406 228.074219 262.652344 228.265625 262.570312 C 228.453125 262.492188 228.621094 262.382812 228.765625 262.238281 C 228.910156 262.09375 229.023438 261.925781 229.101562 261.734375 C 229.179688 261.546875 229.21875 261.347656 229.21875 261.144531 C 229.21875 260.9375 229.179688 260.742188 229.101562 260.550781 C 229.023438 260.363281 228.910156 260.195312 228.765625 260.050781 C 228.621094 259.90625 228.453125 259.792969 228.265625 259.714844 C 228.074219 259.636719 227.878906 259.597656 227.671875 259.597656 L 137.964844 259.597656 C 137.761719 259.597656 137.5625 259.636719 137.375 259.714844 C 137.183594 259.792969 137.015625 259.90625 136.871094 260.050781 C 136.726562 260.195312 136.613281 260.363281 136.535156 260.550781 C 136.457031 260.742188 136.417969 260.9375 136.417969 261.144531 C 136.417969 261.347656 136.457031 261.546875 136.535156 261.734375 C 136.613281 261.925781 136.726562 262.09375 136.871094 262.238281 C 137.015625 262.382812 137.183594 262.492188 137.375 262.570312 C 137.5625 262.652344 137.761719 262.691406 137.964844 262.691406 Z M 137.964844 262.691406 " fill-opacity="1" fill-rule="nonzero"/></g><g clip-path="url(#9d291a3716)"><path fill="#000000" d="M 119.714844 237.722656 L 247.625 237.722656 L 247.625 265.335938 L 119.714844 265.335938 Z M 119.714844 237.722656 " fill-opacity="1" fill-rule="nonzero"/></g><g clip-path="url(#932304e182)"><path fill="#000000" d="M 136.425781 255.148438 L 227.761719 255.148438 L 227.761719 286.875 L 136.425781 286.875 Z M 136.425781 255.148438 " fill-opacity="1" fill-rule="nonzero"/></g><g fill="#000000" fill-opacity="0.4"><g transform="translate(123.871345, 280.126578)"><g><path d="M 15.703125 -3.03125 C 15.640625 -2.8125 15.609375 -2.585938 15.609375 -2.359375 C 15.609375 -2.171875 15.628906 -2.015625 15.671875 -1.890625 C 15.722656 -1.765625 15.78125 -1.660156 15.84375 -1.578125 C 15.90625 -1.503906 15.945312 -1.445312 15.96875 -1.40625 C 16.132812 -1.238281 16.21875 -1.070312 16.21875 -0.90625 C 16.21875 -0.863281 16.203125 -0.773438 16.171875 -0.640625 C 16.097656 -0.398438 15.945312 -0.234375 15.71875 -0.140625 C 15.488281 -0.046875 15.132812 0 14.65625 0 L 8.5625 0 C 8.195312 0 7.914062 -0.0546875 7.71875 -0.171875 C 7.519531 -0.296875 7.421875 -0.460938 7.421875 -0.671875 C 7.421875 -0.773438 7.445312 -0.882812 7.5 -1 C 7.550781 -1.132812 7.625 -1.238281 7.71875 -1.3125 C 7.8125 -1.394531 7.945312 -1.488281 8.125 -1.59375 C 8.394531 -1.75 8.613281 -1.921875 8.78125 -2.109375 C 8.957031 -2.296875 9.109375 -2.601562 9.234375 -3.03125 L 9.890625 -5.25 L 5.890625 -5.25 L 5.1875 -3.78125 C 4.894531 -3.144531 4.75 -2.644531 4.75 -2.28125 C 4.75 -2.082031 4.78125 -1.914062 4.84375 -1.78125 C 4.914062 -1.65625 5.023438 -1.523438 5.171875 -1.390625 C 5.285156 -1.253906 5.363281 -1.140625 5.40625 -1.046875 C 5.445312 -0.953125 5.453125 -0.828125 5.421875 -0.671875 C 5.359375 -0.410156 5.21875 -0.234375 5 -0.140625 C 4.78125 -0.046875 4.441406 0 3.984375 0 L 0.15625 0 C -0.238281 0 -0.535156 -0.0703125 -0.734375 -0.21875 C -0.941406 -0.363281 -1.046875 -0.554688 -1.046875 -0.796875 C -1.046875 -1.066406 -0.945312 -1.285156 -0.75 -1.453125 C -0.5625 -1.617188 -0.269531 -1.796875 0.125 -1.984375 C 0.644531 -2.234375 1.054688 -2.484375 1.359375 -2.734375 C 1.671875 -2.984375 1.9375 -3.332031 2.15625 -3.78125 L 6.734375 -13.265625 C 7.429688 -14.734375 8.253906 -15.796875 9.203125 -16.453125 C 10.160156 -17.117188 11.421875 -17.453125 12.984375 -17.453125 C 14.734375 -17.453125 16.085938 -17.09375 17.046875 -16.375 C 18.003906 -15.664062 18.484375 -14.679688 18.484375 -13.421875 C 18.484375 -12.890625 18.394531 -12.335938 18.21875 -11.765625 Z M 10.671875 -7.8125 L 12.03125 -12.34375 C 12.09375 -12.539062 12.125 -12.753906 12.125 -12.984375 C 12.125 -13.304688 12.035156 -13.546875 11.859375 -13.703125 C 11.679688 -13.867188 11.429688 -13.953125 11.109375 -13.953125 C 10.691406 -13.953125 10.335938 -13.832031 10.046875 -13.59375 C 9.753906 -13.351562 9.460938 -12.925781 9.171875 -12.3125 L 7.0625 -7.8125 Z M 10.671875 -7.8125 "/></g></g></g><g fill="#000000" fill-opacity="0.4"><g transform="translate(141.815492, 280.126578)"><g><path d="M 15.90625 -3.546875 C 15.875 -3.472656 15.859375 -3.367188 15.859375 -3.234375 C 15.859375 -3.117188 15.882812 -3.023438 15.9375 -2.953125 C 16 -2.890625 16.082031 -2.859375 16.1875 -2.859375 C 16.394531 -2.859375 16.570312 -2.945312 16.71875 -3.125 C 16.863281 -3.300781 16.960938 -3.390625 17.015625 -3.390625 C 17.097656 -3.390625 17.164062 -3.332031 17.21875 -3.21875 C 17.269531 -3.113281 17.296875 -2.984375 17.296875 -2.828125 C 17.316406 -2.328125 17.15625 -1.84375 16.8125 -1.375 C 16.46875 -0.90625 15.960938 -0.519531 15.296875 -0.21875 C 14.640625 0.0820312 13.847656 0.234375 12.921875 0.234375 C 11.796875 0.234375 10.898438 -0.0234375 10.234375 -0.546875 C 9.566406 -1.078125 9.222656 -1.773438 9.203125 -2.640625 C 9.203125 -3.273438 9.359375 -3.988281 9.671875 -4.78125 L 11.078125 -8.484375 C 11.160156 -8.703125 11.203125 -8.878906 11.203125 -9.015625 C 11.203125 -9.242188 11.128906 -9.421875 10.984375 -9.546875 C 10.835938 -9.671875 10.664062 -9.734375 10.46875 -9.734375 C 10.082031 -9.734375 9.71875 -9.554688 9.375 -9.203125 C 9.039062 -8.859375 8.796875 -8.429688 8.640625 -7.921875 L 7.046875 -2.671875 C 6.972656 -2.484375 6.9375 -2.304688 6.9375 -2.140625 C 6.9375 -1.929688 6.976562 -1.757812 7.0625 -1.625 C 7.15625 -1.5 7.273438 -1.367188 7.421875 -1.234375 C 7.546875 -1.128906 7.632812 -1.035156 7.6875 -0.953125 C 7.738281 -0.867188 7.75 -0.765625 7.71875 -0.640625 C 7.644531 -0.421875 7.476562 -0.257812 7.21875 -0.15625 C 6.96875 -0.0507812 6.566406 0 6.015625 0 L 0.15625 0 C -0.289062 0 -0.613281 -0.0703125 -0.8125 -0.21875 C -1.007812 -0.363281 -1.082031 -0.554688 -1.03125 -0.796875 C -0.957031 -1.003906 -0.773438 -1.1875 -0.484375 -1.34375 C -0.234375 -1.476562 -0.0234375 -1.640625 0.140625 -1.828125 C 0.316406 -2.015625 0.46875 -2.3125 0.59375 -2.71875 L 2.875 -10.15625 C 2.914062 -10.238281 2.9375 -10.359375 2.9375 -10.515625 C 2.9375 -10.703125 2.894531 -10.847656 2.8125 -10.953125 C 2.738281 -11.054688 2.613281 -11.179688 2.4375 -11.328125 C 2.269531 -11.472656 2.148438 -11.59375 2.078125 -11.6875 C 2.015625 -11.789062 2.007812 -11.929688 2.0625 -12.109375 C 2.15625 -12.503906 2.691406 -12.847656 3.671875 -13.140625 C 4.648438 -13.441406 5.671875 -13.59375 6.734375 -13.59375 C 7.585938 -13.59375 8.265625 -13.359375 8.765625 -12.890625 C 9.265625 -12.421875 9.488281 -11.765625 9.4375 -10.921875 C 10.132812 -11.929688 10.878906 -12.628906 11.671875 -13.015625 C 12.460938 -13.398438 13.316406 -13.59375 14.234375 -13.59375 C 15.285156 -13.59375 16.128906 -13.273438 16.765625 -12.640625 C 17.410156 -12.003906 17.734375 -11.179688 17.734375 -10.171875 C 17.734375 -9.640625 17.648438 -9.117188 17.484375 -8.609375 Z M 15.90625 -3.546875 "/></g></g></g><g fill="#000000" fill-opacity="0.4"><g transform="translate(160.222383, 280.126578)"><g><path d="M 11.484375 -13.265625 C 11.816406 -13.265625 12.070312 -13.195312 12.25 -13.0625 C 12.425781 -12.925781 12.515625 -12.734375 12.515625 -12.484375 C 12.515625 -12.421875 12.5 -12.300781 12.46875 -12.125 C 12.238281 -11.375 11.722656 -11 10.921875 -11 L 9.4375 -11 L 7.5 -4.65625 C 7.414062 -4.394531 7.375 -4.128906 7.375 -3.859375 C 7.375 -3.546875 7.457031 -3.328125 7.625 -3.203125 C 7.800781 -3.085938 8.046875 -3.03125 8.359375 -3.03125 C 8.628906 -3.03125 8.96875 -3.066406 9.375 -3.140625 C 9.582031 -3.191406 9.765625 -3.21875 9.921875 -3.21875 C 10.035156 -3.21875 10.125 -3.175781 10.1875 -3.09375 C 10.25 -3.019531 10.28125 -2.921875 10.28125 -2.796875 C 10.300781 -2.453125 10.046875 -2.035156 9.515625 -1.546875 C 8.992188 -1.066406 8.285156 -0.648438 7.390625 -0.296875 C 6.503906 0.0546875 5.523438 0.234375 4.453125 0.234375 C 3.285156 0.234375 2.347656 -0.03125 1.640625 -0.5625 C 0.941406 -1.09375 0.59375 -1.820312 0.59375 -2.75 C 0.59375 -3.175781 0.660156 -3.585938 0.796875 -3.984375 L 2.4375 -9.078125 C 2.53125 -9.367188 2.578125 -9.597656 2.578125 -9.765625 C 2.578125 -10.109375 2.492188 -10.398438 2.328125 -10.640625 C 2.160156 -10.878906 1.929688 -11.128906 1.640625 -11.390625 C 1.390625 -11.628906 1.210938 -11.828125 1.109375 -11.984375 C 1.003906 -12.148438 0.976562 -12.34375 1.03125 -12.5625 C 1.09375 -12.789062 1.234375 -12.960938 1.453125 -13.078125 C 1.679688 -13.203125 2.035156 -13.265625 2.515625 -13.265625 L 3.953125 -13.265625 L 5.578125 -14.875 C 6.140625 -15.445312 6.65625 -15.84375 7.125 -16.0625 C 7.601562 -16.289062 8.21875 -16.40625 8.96875 -16.40625 C 10.050781 -16.40625 10.59375 -15.992188 10.59375 -15.171875 C 10.59375 -14.910156 10.554688 -14.664062 10.484375 -14.4375 L 10.125 -13.265625 Z M 11.484375 -13.265625 "/></g></g></g><g fill="#000000" fill-opacity="0.4"><g transform="translate(171.276801, 280.126578)"><g><path d="M 15.75 -3.546875 C 15.71875 -3.472656 15.703125 -3.367188 15.703125 -3.234375 C 15.703125 -3.117188 15.734375 -3.023438 15.796875 -2.953125 C 15.859375 -2.890625 15.9375 -2.859375 16.03125 -2.859375 C 16.238281 -2.859375 16.414062 -2.945312 16.5625 -3.125 C 16.707031 -3.300781 16.804688 -3.390625 16.859375 -3.390625 C 16.941406 -3.390625 17.007812 -3.332031 17.0625 -3.21875 C 17.113281 -3.113281 17.140625 -2.984375 17.140625 -2.828125 C 17.160156 -2.328125 17 -1.84375 16.65625 -1.375 C 16.3125 -0.90625 15.804688 -0.519531 15.140625 -0.21875 C 14.484375 0.0820312 13.695312 0.234375 12.78125 0.234375 C 11.644531 0.234375 10.742188 -0.0234375 10.078125 -0.546875 C 9.410156 -1.078125 9.066406 -1.773438 9.046875 -2.640625 C 9.046875 -3.273438 9.203125 -3.988281 9.515625 -4.78125 L 10.921875 -8.484375 C 11.003906 -8.703125 11.046875 -8.878906 11.046875 -9.015625 C 11.046875 -9.242188 10.972656 -9.421875 10.828125 -9.546875 C 10.679688 -9.671875 10.507812 -9.734375 10.3125 -9.734375 C 9.976562 -9.734375 9.644531 -9.582031 9.3125 -9.28125 C 8.976562 -8.988281 8.707031 -8.507812 8.5 -7.84375 L 8.5 -7.890625 L 6.890625 -2.671875 C 6.835938 -2.460938 6.8125 -2.285156 6.8125 -2.140625 C 6.8125 -1.910156 6.851562 -1.726562 6.9375 -1.59375 C 7.019531 -1.46875 7.140625 -1.347656 7.296875 -1.234375 C 7.421875 -1.109375 7.507812 -1.007812 7.5625 -0.9375 C 7.613281 -0.863281 7.617188 -0.765625 7.578125 -0.640625 C 7.492188 -0.421875 7.320312 -0.257812 7.0625 -0.15625 C 6.8125 -0.0507812 6.421875 0 5.890625 0 L 0.03125 0 C -0.414062 0 -0.742188 -0.0703125 -0.953125 -0.21875 C -1.160156 -0.363281 -1.226562 -0.554688 -1.15625 -0.796875 C -1.082031 -1.003906 -0.898438 -1.1875 -0.609375 -1.34375 C -0.359375 -1.476562 -0.148438 -1.640625 0.015625 -1.828125 C 0.191406 -2.015625 0.34375 -2.3125 0.46875 -2.71875 L 4.375 -15.546875 C 4.425781 -15.703125 4.453125 -15.832031 4.453125 -15.9375 C 4.453125 -16.125 4.398438 -16.273438 4.296875 -16.390625 C 4.203125 -16.515625 4.082031 -16.640625 3.9375 -16.765625 C 3.757812 -16.898438 3.628906 -17.015625 3.546875 -17.109375 C 3.472656 -17.210938 3.460938 -17.351562 3.515625 -17.53125 C 3.617188 -17.925781 4.160156 -18.269531 5.140625 -18.5625 C 6.117188 -18.851562 7.140625 -19 8.203125 -19 C 9.191406 -19 9.921875 -18.804688 10.390625 -18.421875 C 10.867188 -18.046875 11.109375 -17.535156 11.109375 -16.890625 C 11.109375 -16.515625 11.046875 -16.144531 10.921875 -15.78125 L 9.53125 -11.265625 C 10.195312 -12.128906 10.90625 -12.734375 11.65625 -13.078125 C 12.40625 -13.421875 13.210938 -13.59375 14.078125 -13.59375 C 15.128906 -13.59375 15.972656 -13.273438 16.609375 -12.640625 C 17.253906 -12.003906 17.578125 -11.179688 17.578125 -10.171875 C 17.578125 -9.640625 17.492188 -9.117188 17.328125 -8.609375 Z M 15.75 -3.546875 "/></g></g></g><g fill="#000000" fill-opacity="0.4"><g transform="translate(189.529444, 280.126578)"><g><path d="M 9.953125 -13.59375 C 12.273438 -13.59375 13.988281 -13.117188 15.09375 -12.171875 C 16.207031 -11.234375 16.765625 -10.003906 16.765625 -8.484375 C 16.765625 -7.972656 16.691406 -7.398438 16.546875 -6.765625 C 16.222656 -5.359375 15.613281 -4.125 14.71875 -3.0625 C 13.832031 -2.007812 12.742188 -1.195312 11.453125 -0.625 C 10.160156 -0.0507812 8.757812 0.234375 7.25 0.234375 C 4.863281 0.234375 3.097656 -0.238281 1.953125 -1.1875 C 0.816406 -2.144531 0.25 -3.410156 0.25 -4.984375 C 0.25 -5.515625 0.320312 -6.109375 0.46875 -6.765625 C 0.789062 -8.097656 1.410156 -9.28125 2.328125 -10.3125 C 3.242188 -11.351562 4.363281 -12.160156 5.6875 -12.734375 C 7.019531 -13.304688 8.441406 -13.59375 9.953125 -13.59375 Z M 9.875 -11.3125 C 9.507812 -11.3125 9.125 -10.988281 8.71875 -10.34375 C 8.320312 -9.695312 7.847656 -8.484375 7.296875 -6.703125 C 6.753906 -4.921875 6.484375 -3.671875 6.484375 -2.953125 C 6.484375 -2.578125 6.539062 -2.320312 6.65625 -2.1875 C 6.78125 -2.0625 6.941406 -2 7.140625 -2 C 7.503906 -1.96875 7.878906 -2.273438 8.265625 -2.921875 C 8.648438 -3.578125 9.132812 -4.847656 9.71875 -6.734375 C 10.25 -8.398438 10.515625 -9.609375 10.515625 -10.359375 C 10.515625 -10.710938 10.457031 -10.957031 10.34375 -11.09375 C 10.226562 -11.238281 10.070312 -11.3125 9.875 -11.3125 Z M 9.875 -11.3125 "/></g></g></g><g fill="#000000" fill-opacity="0.4"><g transform="translate(206.393855, 280.126578)"><g><path d="M 15.90625 -3.546875 C 15.875 -3.472656 15.859375 -3.367188 15.859375 -3.234375 C 15.859375 -3.117188 15.882812 -3.023438 15.9375 -2.953125 C 16 -2.890625 16.082031 -2.859375 16.1875 -2.859375 C 16.394531 -2.859375 16.570312 -2.945312 16.71875 -3.125 C 16.863281 -3.300781 16.960938 -3.390625 17.015625 -3.390625 C 17.097656 -3.390625 17.164062 -3.332031 17.21875 -3.21875 C 17.269531 -3.113281 17.296875 -2.984375 17.296875 -2.828125 C 17.316406 -2.328125 17.15625 -1.84375 16.8125 -1.375 C 16.46875 -0.90625 15.960938 -0.519531 15.296875 -0.21875 C 14.640625 0.0820312 13.847656 0.234375 12.921875 0.234375 C 11.796875 0.234375 10.898438 -0.0234375 10.234375 -0.546875 C 9.566406 -1.078125 9.222656 -1.773438 9.203125 -2.640625 C 9.203125 -3.273438 9.359375 -3.988281 9.671875 -4.78125 L 11.078125 -8.484375 C 11.160156 -8.703125 11.203125 -8.878906 11.203125 -9.015625 C 11.203125 -9.242188 11.128906 -9.421875 10.984375 -9.546875 C 10.835938 -9.671875 10.664062 -9.734375 10.46875 -9.734375 C 10.082031 -9.734375 9.71875 -9.554688 9.375 -9.203125 C 9.039062 -8.859375 8.796875 -8.429688 8.640625 -7.921875 L 7.046875 -2.671875 C 6.972656 -2.484375 6.9375 -2.304688 6.9375 -2.140625 C 6.9375 -1.929688 6.976562 -1.757812 7.0625 -1.625 C 7.15625 -1.5 7.273438 -1.367188 7.421875 -1.234375 C 7.546875 -1.128906 7.632812 -1.035156 7.6875 -0.953125 C 7.738281 -0.867188 7.75 -0.765625 7.71875 -0.640625 C 7.644531 -0.421875 7.476562 -0.257812 7.21875 -0.15625 C 6.96875 -0.0507812 6.566406 0 6.015625 0 L 0.15625 0 C -0.289062 0 -0.613281 -0.0703125 -0.8125 -0.21875 C -1.007812 -0.363281 -1.082031 -0.554688 -1.03125 -0.796875 C -0.957031 -1.003906 -0.773438 -1.1875 -0.484375 -1.34375 C -0.234375 -1.476562 -0.0234375 -1.640625 0.140625 -1.828125 C 0.316406 -2.015625 0.46875 -2.3125 0.59375 -2.71875 L 2.875 -10.15625 C 2.914062 -10.238281 2.9375 -10.359375 2.9375 -10.515625 C 2.9375 -10.703125 2.894531 -10.847656 2.8125 -10.953125 C 2.738281 -11.054688 2.613281 -11.179688 2.4375 -11.328125 C 2.269531 -11.472656 2.148438 -11.59375 2.078125 -11.6875 C 2.015625 -11.789062 2.007812 -11.929688 2.0625 -12.109375 C 2.15625 -12.503906 2.691406 -12.847656 3.671875 -13.140625 C 4.648438 -13.441406 5.671875 -13.59375 6.734375 -13.59375 C 7.585938 -13.59375 8.265625 -13.359375 8.765625 -12.890625 C 9.265625 -12.421875 9.488281 -11.765625 9.4375 -10.921875 C 10.132812 -11.929688 10.878906 -12.628906 11.671875 -13.015625 C 12.460938 -13.398438 13.316406 -13.59375 14.234375 -13.59375 C 15.285156 -13.59375 16.128906 -13.273438 16.765625 -12.640625 C 17.410156 -12.003906 17.734375 -11.179688 17.734375 -10.171875 C 17.734375 -9.640625 17.648438 -9.117188 17.484375 -8.609375 Z M 15.90625 -3.546875 "/></g></g></g><g fill="#000000" fill-opacity="0.4"><g transform="translate(224.800749, 280.126578)"><g><path d="M 13.625 -13.59375 C 14.375 -13.59375 14.972656 -13.285156 15.421875 -12.671875 C 15.878906 -12.066406 16.109375 -11.242188 16.109375 -10.203125 C 16.109375 -9.296875 15.945312 -8.320312 15.625 -7.28125 C 14.988281 -5.164062 13.972656 -3.175781 12.578125 -1.3125 C 11.179688 0.550781 9.578125 2.050781 7.765625 3.1875 C 5.960938 4.320312 4.160156 4.890625 2.359375 4.890625 C 1.472656 4.890625 0.707031 4.734375 0.0625 4.421875 C -0.582031 4.109375 -1.070312 3.695312 -1.40625 3.1875 C -1.738281 2.675781 -1.90625 2.128906 -1.90625 1.546875 C -1.90625 1.285156 -1.863281 1 -1.78125 0.6875 C -1.625 0.207031 -1.363281 -0.15625 -1 -0.40625 C -0.644531 -0.664062 -0.21875 -0.796875 0.28125 -0.796875 C 1.070312 -0.796875 1.71875 -0.523438 2.21875 0.015625 C 2.726562 0.554688 3.050781 1.296875 3.1875 2.234375 C 4.28125 2.179688 5.289062 1.710938 6.21875 0.828125 C 5.34375 0.671875 4.695312 0.375 4.28125 -0.0625 C 3.863281 -0.5 3.578125 -1.179688 3.421875 -2.109375 L 2.390625 -8.40625 C 2.335938 -8.726562 2.265625 -8.953125 2.171875 -9.078125 C 2.078125 -9.210938 1.953125 -9.28125 1.796875 -9.28125 C 1.679688 -9.28125 1.539062 -9.21875 1.375 -9.09375 C 1.207031 -8.976562 1.09375 -8.921875 1.03125 -8.921875 C 0.894531 -8.921875 0.828125 -9.066406 0.828125 -9.359375 C 0.828125 -9.597656 0.867188 -9.851562 0.953125 -10.125 C 1.253906 -11.101562 1.828125 -11.929688 2.671875 -12.609375 C 3.515625 -13.285156 4.492188 -13.625 5.609375 -13.625 C 6.703125 -13.625 7.507812 -13.296875 8.03125 -12.640625 C 8.550781 -11.992188 8.890625 -10.992188 9.046875 -9.640625 L 9.8125 -3.984375 C 9.863281 -3.554688 10.019531 -3.34375 10.28125 -3.34375 C 10.59375 -3.34375 10.953125 -3.617188 11.359375 -4.171875 C 11.773438 -4.734375 12.175781 -5.523438 12.5625 -6.546875 C 12.050781 -7.015625 11.65625 -7.546875 11.375 -8.140625 C 11.101562 -8.742188 10.96875 -9.390625 10.96875 -10.078125 C 10.96875 -10.609375 11.039062 -11.085938 11.1875 -11.515625 C 11.382812 -12.203125 11.703125 -12.71875 12.140625 -13.0625 C 12.578125 -13.414062 13.070312 -13.59375 13.625 -13.59375 Z M 13.625 -13.59375 "/></g></g></g><g fill="#004aad" fill-opacity="1"><g transform="translate(122.735159, 278.990384)"><g><path d="M 15.703125 -3.03125 C 15.640625 -2.8125 15.609375 -2.585938 15.609375 -2.359375 C 15.609375 -2.171875 15.628906 -2.015625 15.671875 -1.890625 C 15.722656 -1.765625 15.78125 -1.660156 15.84375 -1.578125 C 15.90625 -1.503906 15.945312 -1.445312 15.96875 -1.40625 C 16.132812 -1.238281 16.21875 -1.070312 16.21875 -0.90625 C 16.21875 -0.863281 16.203125 -0.773438 16.171875 -0.640625 C 16.097656 -0.398438 15.945312 -0.234375 15.71875 -0.140625 C 15.488281 -0.046875 15.132812 0 14.65625 0 L 8.5625 0 C 8.195312 0 7.914062 -0.0546875 7.71875 -0.171875 C 7.519531 -0.296875 7.421875 -0.460938 7.421875 -0.671875 C 7.421875 -0.773438 7.445312 -0.882812 7.5 -1 C 7.550781 -1.132812 7.625 -1.238281 7.71875 -1.3125 C 7.8125 -1.394531 7.945312 -1.488281 8.125 -1.59375 C 8.394531 -1.75 8.613281 -1.921875 8.78125 -2.109375 C 8.957031 -2.296875 9.109375 -2.601562 9.234375 -3.03125 L 9.890625 -5.25 L 5.890625 -5.25 L 5.1875 -3.78125 C 4.894531 -3.144531 4.75 -2.644531 4.75 -2.28125 C 4.75 -2.082031 4.78125 -1.914062 4.84375 -1.78125 C 4.914062 -1.65625 5.023438 -1.523438 5.171875 -1.390625 C 5.285156 -1.253906 5.363281 -1.140625 5.40625 -1.046875 C 5.445312 -0.953125 5.453125 -0.828125 5.421875 -0.671875 C 5.359375 -0.410156 5.21875 -0.234375 5 -0.140625 C 4.78125 -0.046875 4.441406 0 3.984375 0 L 0.15625 0 C -0.238281 0 -0.535156 -0.0703125 -0.734375 -0.21875 C -0.941406 -0.363281 -1.046875 -0.554688 -1.046875 -0.796875 C -1.046875 -1.066406 -0.945312 -1.285156 -0.75 -1.453125 C -0.5625 -1.617188 -0.269531 -1.796875 0.125 -1.984375 C 0.644531 -2.234375 1.054688 -2.484375 1.359375 -2.734375 C 1.671875 -2.984375 1.9375 -3.332031 2.15625 -3.78125 L 6.734375 -13.265625 C 7.429688 -14.734375 8.253906 -15.796875 9.203125 -16.453125 C 10.160156 -17.117188 11.421875 -17.453125 12.984375 -17.453125 C 14.734375 -17.453125 16.085938 -17.09375 17.046875 -16.375 C 18.003906 -15.664062 18.484375 -14.679688 18.484375 -13.421875 C 18.484375 -12.890625 18.394531 -12.335938 18.21875 -11.765625 Z M 10.671875 -7.8125 L 12.03125 -12.34375 C 12.09375 -12.539062 12.125 -12.753906 12.125 -12.984375 C 12.125 -13.304688 12.035156 -13.546875 11.859375 -13.703125 C 11.679688 -13.867188 11.429688 -13.953125 11.109375 -13.953125 C 10.691406 -13.953125 10.335938 -13.832031 10.046875 -13.59375 C 9.753906 -13.351562 9.460938 -12.925781 9.171875 -12.3125 L 7.0625 -7.8125 Z M 10.671875 -7.8125 "/></g></g></g><g fill="#004aad" fill-opacity="1"><g transform="translate(140.679305, 278.990384)"><g><path d="M 15.90625 -3.546875 C 15.875 -3.472656 15.859375 -3.367188 15.859375 -3.234375 C 15.859375 -3.117188 15.882812 -3.023438 15.9375 -2.953125 C 16 -2.890625 16.082031 -2.859375 16.1875 -2.859375 C 16.394531 -2.859375 16.570312 -2.945312 16.71875 -3.125 C 16.863281 -3.300781 16.960938 -3.390625 17.015625 -3.390625 C 17.097656 -3.390625 17.164062 -3.332031 17.21875 -3.21875 C 17.269531 -3.113281 17.296875 -2.984375 17.296875 -2.828125 C 17.316406 -2.328125 17.15625 -1.84375 16.8125 -1.375 C 16.46875 -0.90625 15.960938 -0.519531 15.296875 -0.21875 C 14.640625 0.0820312 13.847656 0.234375 12.921875 0.234375 C 11.796875 0.234375 10.898438 -0.0234375 10.234375 -0.546875 C 9.566406 -1.078125 9.222656 -1.773438 9.203125 -2.640625 C 9.203125 -3.273438 9.359375 -3.988281 9.671875 -4.78125 L 11.078125 -8.484375 C 11.160156 -8.703125 11.203125 -8.878906 11.203125 -9.015625 C 11.203125 -9.242188 11.128906 -9.421875 10.984375 -9.546875 C 10.835938 -9.671875 10.664062 -9.734375 10.46875 -9.734375 C 10.082031 -9.734375 9.71875 -9.554688 9.375 -9.203125 C 9.039062 -8.859375 8.796875 -8.429688 8.640625 -7.921875 L 7.046875 -2.671875 C 6.972656 -2.484375 6.9375 -2.304688 6.9375 -2.140625 C 6.9375 -1.929688 6.976562 -1.757812 7.0625 -1.625 C 7.15625 -1.5 7.273438 -1.367188 7.421875 -1.234375 C 7.546875 -1.128906 7.632812 -1.035156 7.6875 -0.953125 C 7.738281 -0.867188 7.75 -0.765625 7.71875 -0.640625 C 7.644531 -0.421875 7.476562 -0.257812 7.21875 -0.15625 C 6.96875 -0.0507812 6.566406 0 6.015625 0 L 0.15625 0 C -0.289062 0 -0.613281 -0.0703125 -0.8125 -0.21875 C -1.007812 -0.363281 -1.082031 -0.554688 -1.03125 -0.796875 C -0.957031 -1.003906 -0.773438 -1.1875 -0.484375 -1.34375 C -0.234375 -1.476562 -0.0234375 -1.640625 0.140625 -1.828125 C 0.316406 -2.015625 0.46875 -2.3125 0.59375 -2.71875 L 2.875 -10.15625 C 2.914062 -10.238281 2.9375 -10.359375 2.9375 -10.515625 C 2.9375 -10.703125 2.894531 -10.847656 2.8125 -10.953125 C 2.738281 -11.054688 2.613281 -11.179688 2.4375 -11.328125 C 2.269531 -11.472656 2.148438 -11.59375 2.078125 -11.6875 C 2.015625 -11.789062 2.007812 -11.929688 2.0625 -12.109375 C 2.15625 -12.503906 2.691406 -12.847656 3.671875 -13.140625 C 4.648438 -13.441406 5.671875 -13.59375 6.734375 -13.59375 C 7.585938 -13.59375 8.265625 -13.359375 8.765625 -12.890625 C 9.265625 -12.421875 9.488281 -11.765625 9.4375 -10.921875 C 10.132812 -11.929688 10.878906 -12.628906 11.671875 -13.015625 C 12.460938 -13.398438 13.316406 -13.59375 14.234375 -13.59375 C 15.285156 -13.59375 16.128906 -13.273438 16.765625 -12.640625 C 17.410156 -12.003906 17.734375 -11.179688 17.734375 -10.171875 C 17.734375 -9.640625 17.648438 -9.117188 17.484375 -8.609375 Z M 15.90625 -3.546875 "/></g></g></g><g fill="#004aad" fill-opacity="1"><g transform="translate(159.086196, 278.990384)"><g><path d="M 11.484375 -13.265625 C 11.816406 -13.265625 12.070312 -13.195312 12.25 -13.0625 C 12.425781 -12.925781 12.515625 -12.734375 12.515625 -12.484375 C 12.515625 -12.421875 12.5 -12.300781 12.46875 -12.125 C 12.238281 -11.375 11.722656 -11 10.921875 -11 L 9.4375 -11 L 7.5 -4.65625 C 7.414062 -4.394531 7.375 -4.128906 7.375 -3.859375 C 7.375 -3.546875 7.457031 -3.328125 7.625 -3.203125 C 7.800781 -3.085938 8.046875 -3.03125 8.359375 -3.03125 C 8.628906 -3.03125 8.96875 -3.066406 9.375 -3.140625 C 9.582031 -3.191406 9.765625 -3.21875 9.921875 -3.21875 C 10.035156 -3.21875 10.125 -3.175781 10.1875 -3.09375 C 10.25 -3.019531 10.28125 -2.921875 10.28125 -2.796875 C 10.300781 -2.453125 10.046875 -2.035156 9.515625 -1.546875 C 8.992188 -1.066406 8.285156 -0.648438 7.390625 -0.296875 C 6.503906 0.0546875 5.523438 0.234375 4.453125 0.234375 C 3.285156 0.234375 2.347656 -0.03125 1.640625 -0.5625 C 0.941406 -1.09375 0.59375 -1.820312 0.59375 -2.75 C 0.59375 -3.175781 0.660156 -3.585938 0.796875 -3.984375 L 2.4375 -9.078125 C 2.53125 -9.367188 2.578125 -9.597656 2.578125 -9.765625 C 2.578125 -10.109375 2.492188 -10.398438 2.328125 -10.640625 C 2.160156 -10.878906 1.929688 -11.128906 1.640625 -11.390625 C 1.390625 -11.628906 1.210938 -11.828125 1.109375 -11.984375 C 1.003906 -12.148438 0.976562 -12.34375 1.03125 -12.5625 C 1.09375 -12.789062 1.234375 -12.960938 1.453125 -13.078125 C 1.679688 -13.203125 2.035156 -13.265625 2.515625 -13.265625 L 3.953125 -13.265625 L 5.578125 -14.875 C 6.140625 -15.445312 6.65625 -15.84375 7.125 -16.0625 C 7.601562 -16.289062 8.21875 -16.40625 8.96875 -16.40625 C 10.050781 -16.40625 10.59375 -15.992188 10.59375 -15.171875 C 10.59375 -14.910156 10.554688 -14.664062 10.484375 -14.4375 L 10.125 -13.265625 Z M 11.484375 -13.265625 "/></g></g></g><g fill="#004aad" fill-opacity="1"><g transform="translate(170.140615, 278.990384)"><g><path d="M 15.75 -3.546875 C 15.71875 -3.472656 15.703125 -3.367188 15.703125 -3.234375 C 15.703125 -3.117188 15.734375 -3.023438 15.796875 -2.953125 C 15.859375 -2.890625 15.9375 -2.859375 16.03125 -2.859375 C 16.238281 -2.859375 16.414062 -2.945312 16.5625 -3.125 C 16.707031 -3.300781 16.804688 -3.390625 16.859375 -3.390625 C 16.941406 -3.390625 17.007812 -3.332031 17.0625 -3.21875 C 17.113281 -3.113281 17.140625 -2.984375 17.140625 -2.828125 C 17.160156 -2.328125 17 -1.84375 16.65625 -1.375 C 16.3125 -0.90625 15.804688 -0.519531 15.140625 -0.21875 C 14.484375 0.0820312 13.695312 0.234375 12.78125 0.234375 C 11.644531 0.234375 10.742188 -0.0234375 10.078125 -0.546875 C 9.410156 -1.078125 9.066406 -1.773438 9.046875 -2.640625 C 9.046875 -3.273438 9.203125 -3.988281 9.515625 -4.78125 L 10.921875 -8.484375 C 11.003906 -8.703125 11.046875 -8.878906 11.046875 -9.015625 C 11.046875 -9.242188 10.972656 -9.421875 10.828125 -9.546875 C 10.679688 -9.671875 10.507812 -9.734375 10.3125 -9.734375 C 9.976562 -9.734375 9.644531 -9.582031 9.3125 -9.28125 C 8.976562 -8.988281 8.707031 -8.507812 8.5 -7.84375 L 8.5 -7.890625 L 6.890625 -2.671875 C 6.835938 -2.460938 6.8125 -2.285156 6.8125 -2.140625 C 6.8125 -1.910156 6.851562 -1.726562 6.9375 -1.59375 C 7.019531 -1.46875 7.140625 -1.347656 7.296875 -1.234375 C 7.421875 -1.109375 7.507812 -1.007812 7.5625 -0.9375 C 7.613281 -0.863281 7.617188 -0.765625 7.578125 -0.640625 C 7.492188 -0.421875 7.320312 -0.257812 7.0625 -0.15625 C 6.8125 -0.0507812 6.421875 0 5.890625 0 L 0.03125 0 C -0.414062 0 -0.742188 -0.0703125 -0.953125 -0.21875 C -1.160156 -0.363281 -1.226562 -0.554688 -1.15625 -0.796875 C -1.082031 -1.003906 -0.898438 -1.1875 -0.609375 -1.34375 C -0.359375 -1.476562 -0.148438 -1.640625 0.015625 -1.828125 C 0.191406 -2.015625 0.34375 -2.3125 0.46875 -2.71875 L 4.375 -15.546875 C 4.425781 -15.703125 4.453125 -15.832031 4.453125 -15.9375 C 4.453125 -16.125 4.398438 -16.273438 4.296875 -16.390625 C 4.203125 -16.515625 4.082031 -16.640625 3.9375 -16.765625 C 3.757812 -16.898438 3.628906 -17.015625 3.546875 -17.109375 C 3.472656 -17.210938 3.460938 -17.351562 3.515625 -17.53125 C 3.617188 -17.925781 4.160156 -18.269531 5.140625 -18.5625 C 6.117188 -18.851562 7.140625 -19 8.203125 -19 C 9.191406 -19 9.921875 -18.804688 10.390625 -18.421875 C 10.867188 -18.046875 11.109375 -17.535156 11.109375 -16.890625 C 11.109375 -16.515625 11.046875 -16.144531 10.921875 -15.78125 L 9.53125 -11.265625 C 10.195312 -12.128906 10.90625 -12.734375 11.65625 -13.078125 C 12.40625 -13.421875 13.210938 -13.59375 14.078125 -13.59375 C 15.128906 -13.59375 15.972656 -13.273438 16.609375 -12.640625 C 17.253906 -12.003906 17.578125 -11.179688 17.578125 -10.171875 C 17.578125 -9.640625 17.492188 -9.117188 17.328125 -8.609375 Z M 15.75 -3.546875 "/></g></g></g><g fill="#004aad" fill-opacity="1"><g transform="translate(188.393258, 278.990384)"><g><path d="M 9.953125 -13.59375 C 12.273438 -13.59375 13.988281 -13.117188 15.09375 -12.171875 C 16.207031 -11.234375 16.765625 -10.003906 16.765625 -8.484375 C 16.765625 -7.972656 16.691406 -7.398438 16.546875 -6.765625 C 16.222656 -5.359375 15.613281 -4.125 14.71875 -3.0625 C 13.832031 -2.007812 12.742188 -1.195312 11.453125 -0.625 C 10.160156 -0.0507812 8.757812 0.234375 7.25 0.234375 C 4.863281 0.234375 3.097656 -0.238281 1.953125 -1.1875 C 0.816406 -2.144531 0.25 -3.410156 0.25 -4.984375 C 0.25 -5.515625 0.320312 -6.109375 0.46875 -6.765625 C 0.789062 -8.097656 1.410156 -9.28125 2.328125 -10.3125 C 3.242188 -11.351562 4.363281 -12.160156 5.6875 -12.734375 C 7.019531 -13.304688 8.441406 -13.59375 9.953125 -13.59375 Z M 9.875 -11.3125 C 9.507812 -11.3125 9.125 -10.988281 8.71875 -10.34375 C 8.320312 -9.695312 7.847656 -8.484375 7.296875 -6.703125 C 6.753906 -4.921875 6.484375 -3.671875 6.484375 -2.953125 C 6.484375 -2.578125 6.539062 -2.320312 6.65625 -2.1875 C 6.78125 -2.0625 6.941406 -2 7.140625 -2 C 7.503906 -1.96875 7.878906 -2.273438 8.265625 -2.921875 C 8.648438 -3.578125 9.132812 -4.847656 9.71875 -6.734375 C 10.25 -8.398438 10.515625 -9.609375 10.515625 -10.359375 C 10.515625 -10.710938 10.457031 -10.957031 10.34375 -11.09375 C 10.226562 -11.238281 10.070312 -11.3125 9.875 -11.3125 Z M 9.875 -11.3125 "/></g></g></g><g fill="#004aad" fill-opacity="1"><g transform="translate(205.257669, 278.990384)"><g><path d="M 15.90625 -3.546875 C 15.875 -3.472656 15.859375 -3.367188 15.859375 -3.234375 C 15.859375 -3.117188 15.882812 -3.023438 15.9375 -2.953125 C 16 -2.890625 16.082031 -2.859375 16.1875 -2.859375 C 16.394531 -2.859375 16.570312 -2.945312 16.71875 -3.125 C 16.863281 -3.300781 16.960938 -3.390625 17.015625 -3.390625 C 17.097656 -3.390625 17.164062 -3.332031 17.21875 -3.21875 C 17.269531 -3.113281 17.296875 -2.984375 17.296875 -2.828125 C 17.316406 -2.328125 17.15625 -1.84375 16.8125 -1.375 C 16.46875 -0.90625 15.960938 -0.519531 15.296875 -0.21875 C 14.640625 0.0820312 13.847656 0.234375 12.921875 0.234375 C 11.796875 0.234375 10.898438 -0.0234375 10.234375 -0.546875 C 9.566406 -1.078125 9.222656 -1.773438 9.203125 -2.640625 C 9.203125 -3.273438 9.359375 -3.988281 9.671875 -4.78125 L 11.078125 -8.484375 C 11.160156 -8.703125 11.203125 -8.878906 11.203125 -9.015625 C 11.203125 -9.242188 11.128906 -9.421875 10.984375 -9.546875 C 10.835938 -9.671875 10.664062 -9.734375 10.46875 -9.734375 C 10.082031 -9.734375 9.71875 -9.554688 9.375 -9.203125 C 9.039062 -8.859375 8.796875 -8.429688 8.640625 -7.921875 L 7.046875 -2.671875 C 6.972656 -2.484375 6.9375 -2.304688 6.9375 -2.140625 C 6.9375 -1.929688 6.976562 -1.757812 7.0625 -1.625 C 7.15625 -1.5 7.273438 -1.367188 7.421875 -1.234375 C 7.546875 -1.128906 7.632812 -1.035156 7.6875 -0.953125 C 7.738281 -0.867188 7.75 -0.765625 7.71875 -0.640625 C 7.644531 -0.421875 7.476562 -0.257812 7.21875 -0.15625 C 6.96875 -0.0507812 6.566406 0 6.015625 0 L 0.15625 0 C -0.289062 0 -0.613281 -0.0703125 -0.8125 -0.21875 C -1.007812 -0.363281 -1.082031 -0.554688 -1.03125 -0.796875 C -0.957031 -1.003906 -0.773438 -1.1875 -0.484375 -1.34375 C -0.234375 -1.476562 -0.0234375 -1.640625 0.140625 -1.828125 C 0.316406 -2.015625 0.46875 -2.3125 0.59375 -2.71875 L 2.875 -10.15625 C 2.914062 -10.238281 2.9375 -10.359375 2.9375 -10.515625 C 2.9375 -10.703125 2.894531 -10.847656 2.8125 -10.953125 C 2.738281 -11.054688 2.613281 -11.179688 2.4375 -11.328125 C 2.269531 -11.472656 2.148438 -11.59375 2.078125 -11.6875 C 2.015625 -11.789062 2.007812 -11.929688 2.0625 -12.109375 C 2.15625 -12.503906 2.691406 -12.847656 3.671875 -13.140625 C 4.648438 -13.441406 5.671875 -13.59375 6.734375 -13.59375 C 7.585938 -13.59375 8.265625 -13.359375 8.765625 -12.890625 C 9.265625 -12.421875 9.488281 -11.765625 9.4375 -10.921875 C 10.132812 -11.929688 10.878906 -12.628906 11.671875 -13.015625 C 12.460938 -13.398438 13.316406 -13.59375 14.234375 -13.59375 C 15.285156 -13.59375 16.128906 -13.273438 16.765625 -12.640625 C 17.410156 -12.003906 17.734375 -11.179688 17.734375 -10.171875 C 17.734375 -9.640625 17.648438 -9.117188 17.484375 -8.609375 Z M 15.90625 -3.546875 "/></g></g></g><g fill="#004aad" fill-opacity="1"><g transform="translate(223.664563, 278.990384)"><g><path d="M 13.625 -13.59375 C 14.375 -13.59375 14.972656 -13.285156 15.421875 -12.671875 C 15.878906 -12.066406 16.109375 -11.242188 16.109375 -10.203125 C 16.109375 -9.296875 15.945312 -8.320312 15.625 -7.28125 C 14.988281 -5.164062 13.972656 -3.175781 12.578125 -1.3125 C 11.179688 0.550781 9.578125 2.050781 7.765625 3.1875 C 5.960938 4.320312 4.160156 4.890625 2.359375 4.890625 C 1.472656 4.890625 0.707031 4.734375 0.0625 4.421875 C -0.582031 4.109375 -1.070312 3.695312 -1.40625 3.1875 C -1.738281 2.675781 -1.90625 2.128906 -1.90625 1.546875 C -1.90625 1.285156 -1.863281 1 -1.78125 0.6875 C -1.625 0.207031 -1.363281 -0.15625 -1 -0.40625 C -0.644531 -0.664062 -0.21875 -0.796875 0.28125 -0.796875 C 1.070312 -0.796875 1.71875 -0.523438 2.21875 0.015625 C 2.726562 0.554688 3.050781 1.296875 3.1875 2.234375 C 4.28125 2.179688 5.289062 1.710938 6.21875 0.828125 C 5.34375 0.671875 4.695312 0.375 4.28125 -0.0625 C 3.863281 -0.5 3.578125 -1.179688 3.421875 -2.109375 L 2.390625 -8.40625 C 2.335938 -8.726562 2.265625 -8.953125 2.171875 -9.078125 C 2.078125 -9.210938 1.953125 -9.28125 1.796875 -9.28125 C 1.679688 -9.28125 1.539062 -9.21875 1.375 -9.09375 C 1.207031 -8.976562 1.09375 -8.921875 1.03125 -8.921875 C 0.894531 -8.921875 0.828125 -9.066406 0.828125 -9.359375 C 0.828125 -9.597656 0.867188 -9.851562 0.953125 -10.125 C 1.253906 -11.101562 1.828125 -11.929688 2.671875 -12.609375 C 3.515625 -13.285156 4.492188 -13.625 5.609375 -13.625 C 6.703125 -13.625 7.507812 -13.296875 8.03125 -12.640625 C 8.550781 -11.992188 8.890625 -10.992188 9.046875 -9.640625 L 9.8125 -3.984375 C 9.863281 -3.554688 10.019531 -3.34375 10.28125 -3.34375 C 10.59375 -3.34375 10.953125 -3.617188 11.359375 -4.171875 C 11.773438 -4.734375 12.175781 -5.523438 12.5625 -6.546875 C 12.050781 -7.015625 11.65625 -7.546875 11.375 -8.140625 C 11.101562 -8.742188 10.96875 -9.390625 10.96875 -10.078125 C 10.96875 -10.609375 11.039062 -11.085938 11.1875 -11.515625 C 11.382812 -12.203125 11.703125 -12.71875 12.140625 -13.0625 C 12.578125 -13.414062 13.070312 -13.59375 13.625 -13.59375 Z M 13.625 -13.59375 "/></g></g></g><g fill="#000000" fill-opacity="0.4"><g transform="translate(125.991618, 263.462043)"><g><path d="M 16.8125 -17.1875 C 17.457031 -17.1875 17.953125 -17.046875 18.296875 -16.765625 C 18.648438 -16.492188 18.828125 -16.117188 18.828125 -15.640625 C 18.828125 -15.390625 18.796875 -15.15625 18.734375 -14.9375 L 18.0625 -12.53125 C 17.9375 -12.082031 17.734375 -11.765625 17.453125 -11.578125 C 17.179688 -11.390625 16.820312 -11.296875 16.375 -11.296875 C 15.945312 -11.296875 15.601562 -11.382812 15.34375 -11.5625 C 15.09375 -11.75 14.90625 -12.046875 14.78125 -12.453125 L 14.375 -13.9375 C 14.300781 -14.1875 14.210938 -14.351562 14.109375 -14.4375 C 14.003906 -14.53125 13.789062 -14.578125 13.46875 -14.578125 L 10.890625 -14.578125 L 9.4375 -9.46875 L 9.9375 -9.46875 C 10.175781 -9.46875 10.382812 -9.5 10.5625 -9.5625 C 10.738281 -9.632812 10.929688 -9.765625 11.140625 -9.953125 L 11.9375 -10.625 C 12.226562 -10.882812 12.488281 -11.066406 12.71875 -11.171875 C 12.957031 -11.285156 13.207031 -11.34375 13.46875 -11.34375 C 13.789062 -11.34375 14.054688 -11.25 14.265625 -11.0625 C 14.484375 -10.875 14.59375 -10.609375 14.59375 -10.265625 C 14.59375 -10.128906 14.570312 -9.96875 14.53125 -9.78125 L 13.390625 -5.859375 C 13.128906 -5.015625 12.664062 -4.59375 12 -4.59375 C 11.445312 -4.59375 11.015625 -4.875 10.703125 -5.4375 L 10.234375 -6.3125 C 10.117188 -6.5625 10.007812 -6.71875 9.90625 -6.78125 C 9.800781 -6.851562 9.644531 -6.890625 9.4375 -6.890625 L 8.6875 -6.890625 L 7.609375 -3.046875 C 7.578125 -2.941406 7.5625 -2.800781 7.5625 -2.625 C 7.5625 -2.382812 7.613281 -2.1875 7.71875 -2.03125 C 7.832031 -1.882812 8.003906 -1.722656 8.234375 -1.546875 C 8.421875 -1.390625 8.546875 -1.265625 8.609375 -1.171875 C 8.679688 -1.078125 8.71875 -0.960938 8.71875 -0.828125 C 8.71875 -0.515625 8.578125 -0.296875 8.296875 -0.171875 C 8.023438 -0.0546875 7.625 0 7.09375 0 L 0.625 0 C 0.175781 0 -0.15625 -0.078125 -0.375 -0.234375 C -0.601562 -0.398438 -0.6875 -0.628906 -0.625 -0.921875 C -0.582031 -1.078125 -0.515625 -1.203125 -0.421875 -1.296875 C -0.328125 -1.390625 -0.1875 -1.5 0 -1.625 C 0.289062 -1.800781 0.519531 -1.984375 0.6875 -2.171875 C 0.863281 -2.359375 1.003906 -2.648438 1.109375 -3.046875 L 4.28125 -14.15625 C 4.351562 -14.382812 4.390625 -14.59375 4.390625 -14.78125 C 4.390625 -14.988281 4.359375 -15.160156 4.296875 -15.296875 C 4.234375 -15.429688 4.144531 -15.578125 4.03125 -15.734375 C 3.875 -15.960938 3.796875 -16.144531 3.796875 -16.28125 C 3.796875 -16.332031 3.8125 -16.425781 3.84375 -16.5625 C 3.914062 -16.78125 4.070312 -16.9375 4.3125 -17.03125 C 4.550781 -17.132812 4.898438 -17.1875 5.359375 -17.1875 Z M 16.8125 -17.1875 "/></g></g></g><g fill="#000000" fill-opacity="0.4"><g transform="translate(142.255578, 263.462043)"><g><path d="M 8.75 -13.78125 C 10.925781 -13.78125 12.503906 -13.429688 13.484375 -12.734375 C 14.472656 -12.035156 14.96875 -11.144531 14.96875 -10.0625 C 14.96875 -9.738281 14.929688 -9.4375 14.859375 -9.15625 C 14.597656 -8.019531 13.878906 -7.207031 12.703125 -6.71875 C 11.523438 -6.226562 10.132812 -5.984375 8.53125 -5.984375 C 7.726562 -5.984375 6.972656 -6.035156 6.265625 -6.140625 C 6.253906 -5.242188 6.492188 -4.613281 6.984375 -4.25 C 7.484375 -3.894531 8.179688 -3.71875 9.078125 -3.71875 C 9.492188 -3.71875 9.890625 -3.765625 10.265625 -3.859375 C 10.640625 -3.953125 11.125 -4.09375 11.71875 -4.28125 C 12.195312 -4.457031 12.519531 -4.546875 12.6875 -4.546875 C 12.875 -4.546875 12.96875 -4.429688 12.96875 -4.203125 C 12.988281 -3.597656 12.765625 -2.960938 12.296875 -2.296875 C 11.835938 -1.640625 11.148438 -1.078125 10.234375 -0.609375 C 9.328125 -0.148438 8.226562 0.078125 6.9375 0.078125 C 5.03125 0.078125 3.460938 -0.398438 2.234375 -1.359375 C 1.015625 -2.328125 0.40625 -3.734375 0.40625 -5.578125 C 0.40625 -6.085938 0.476562 -6.6875 0.625 -7.375 C 1.050781 -9.488281 1.988281 -11.082031 3.4375 -12.15625 C 4.894531 -13.238281 6.664062 -13.78125 8.75 -13.78125 Z M 6.453125 -7.6875 C 6.515625 -7.664062 6.609375 -7.65625 6.734375 -7.65625 C 7.453125 -7.65625 8 -7.988281 8.375 -8.65625 C 8.757812 -9.332031 8.941406 -10.082031 8.921875 -10.90625 C 8.910156 -11.394531 8.773438 -11.640625 8.515625 -11.640625 C 8.328125 -11.640625 8.101562 -11.488281 7.84375 -11.1875 C 7.582031 -10.882812 7.328125 -10.429688 7.078125 -9.828125 C 6.828125 -9.222656 6.617188 -8.507812 6.453125 -7.6875 Z M 6.453125 -7.6875 "/></g></g></g><g fill="#000000" fill-opacity="0.4"><g transform="translate(156.689512, 263.462043)"><g><path d="M 13.671875 -13.640625 C 14.429688 -13.640625 15.035156 -13.332031 15.484375 -12.71875 C 15.941406 -12.113281 16.171875 -11.285156 16.171875 -10.234375 C 16.171875 -9.328125 16.007812 -8.347656 15.6875 -7.296875 C 15.050781 -5.179688 14.03125 -3.1875 12.625 -1.3125 C 11.226562 0.5625 9.617188 2.066406 7.796875 3.203125 C 5.984375 4.335938 4.175781 4.90625 2.375 4.90625 C 1.476562 4.90625 0.707031 4.75 0.0625 4.4375 C -0.582031 4.125 -1.070312 3.707031 -1.40625 3.1875 C -1.738281 2.675781 -1.90625 2.128906 -1.90625 1.546875 C -1.90625 1.285156 -1.863281 1.003906 -1.78125 0.703125 C -1.625 0.210938 -1.363281 -0.15625 -1 -0.40625 C -0.644531 -0.664062 -0.21875 -0.796875 0.28125 -0.796875 C 1.070312 -0.796875 1.722656 -0.523438 2.234375 0.015625 C 2.742188 0.554688 3.066406 1.300781 3.203125 2.25 C 4.296875 2.195312 5.3125 1.722656 6.25 0.828125 C 5.363281 0.671875 4.707031 0.375 4.28125 -0.0625 C 3.863281 -0.5 3.582031 -1.179688 3.4375 -2.109375 L 2.40625 -8.4375 C 2.351562 -8.757812 2.273438 -8.984375 2.171875 -9.109375 C 2.078125 -9.242188 1.957031 -9.3125 1.8125 -9.3125 C 1.6875 -9.3125 1.539062 -9.25 1.375 -9.125 C 1.21875 -9.007812 1.101562 -8.953125 1.03125 -8.953125 C 0.894531 -8.953125 0.828125 -9.097656 0.828125 -9.390625 C 0.828125 -9.628906 0.867188 -9.882812 0.953125 -10.15625 C 1.265625 -11.144531 1.84375 -11.976562 2.6875 -12.65625 C 3.53125 -13.332031 4.507812 -13.671875 5.625 -13.671875 C 6.726562 -13.671875 7.539062 -13.34375 8.0625 -12.6875 C 8.582031 -12.039062 8.921875 -11.035156 9.078125 -9.671875 L 9.859375 -4 C 9.910156 -3.570312 10.0625 -3.359375 10.3125 -3.359375 C 10.625 -3.359375 10.984375 -3.632812 11.390625 -4.1875 C 11.804688 -4.75 12.210938 -5.546875 12.609375 -6.578125 C 12.097656 -7.046875 11.703125 -7.578125 11.421875 -8.171875 C 11.148438 -8.773438 11.015625 -9.421875 11.015625 -10.109375 C 11.015625 -10.640625 11.082031 -11.125 11.21875 -11.5625 C 11.425781 -12.25 11.75 -12.765625 12.1875 -13.109375 C 12.625 -13.460938 13.117188 -13.640625 13.671875 -13.640625 Z M 13.671875 -13.640625 "/></g></g></g><g fill="#000000" fill-opacity="0.4"><g transform="translate(172.669948, 263.462043)"><g><path d="M 6.78125 -13.640625 C 7.78125 -13.640625 8.507812 -13.453125 8.96875 -13.078125 C 9.4375 -12.703125 9.671875 -12.1875 9.671875 -11.53125 C 9.671875 -11.132812 9.613281 -10.753906 9.5 -10.390625 L 7.125 -2.6875 C 7.070312 -2.476562 7.046875 -2.296875 7.046875 -2.140625 C 7.046875 -1.921875 7.085938 -1.742188 7.171875 -1.609375 C 7.253906 -1.484375 7.375 -1.359375 7.53125 -1.234375 C 7.65625 -1.117188 7.742188 -1.019531 7.796875 -0.9375 C 7.847656 -0.863281 7.851562 -0.765625 7.8125 -0.640625 C 7.726562 -0.421875 7.554688 -0.257812 7.296875 -0.15625 C 7.046875 -0.0507812 6.648438 0 6.109375 0 L 0.234375 0 C -0.210938 0 -0.539062 -0.0703125 -0.75 -0.21875 C -0.957031 -0.363281 -1.023438 -0.554688 -0.953125 -0.796875 C -0.878906 -1.003906 -0.695312 -1.1875 -0.40625 -1.34375 C -0.15625 -1.476562 0.0507812 -1.640625 0.21875 -1.828125 C 0.394531 -2.015625 0.546875 -2.316406 0.671875 -2.734375 L 2.921875 -10.1875 C 2.972656 -10.34375 3 -10.472656 3 -10.578125 C 3 -10.765625 2.953125 -10.914062 2.859375 -11.03125 C 2.773438 -11.144531 2.648438 -11.257812 2.484375 -11.375 C 2.304688 -11.507812 2.179688 -11.628906 2.109375 -11.734375 C 2.046875 -11.835938 2.039062 -11.976562 2.09375 -12.15625 C 2.195312 -12.550781 2.738281 -12.894531 3.71875 -13.1875 C 4.695312 -13.488281 5.71875 -13.640625 6.78125 -13.640625 Z M 8.5 -19.34375 C 9.175781 -19.34375 9.738281 -19.125 10.1875 -18.6875 C 10.632812 -18.25 10.859375 -17.710938 10.859375 -17.078125 C 10.859375 -16.628906 10.738281 -16.1875 10.5 -15.75 C 10.269531 -15.320312 9.941406 -14.972656 9.515625 -14.703125 C 9.097656 -14.441406 8.632812 -14.3125 8.125 -14.3125 C 7.46875 -14.3125 6.921875 -14.53125 6.484375 -14.96875 C 6.046875 -15.414062 5.816406 -15.960938 5.796875 -16.609375 C 5.796875 -17.046875 5.90625 -17.472656 6.125 -17.890625 C 6.351562 -18.304688 6.671875 -18.648438 7.078125 -18.921875 C 7.492188 -19.203125 7.96875 -19.34375 8.5 -19.34375 Z M 8.5 -19.34375 "/></g></g></g><g fill="#000000" fill-opacity="0.4"><g transform="translate(182.103567, 263.462043)"><g><path d="M 11.53125 -13.3125 C 11.851562 -13.3125 12.101562 -13.242188 12.28125 -13.109375 C 12.46875 -12.972656 12.5625 -12.78125 12.5625 -12.53125 C 12.5625 -12.46875 12.546875 -12.347656 12.515625 -12.171875 C 12.285156 -11.421875 11.769531 -11.046875 10.96875 -11.046875 L 9.46875 -11.046875 L 7.53125 -4.671875 C 7.445312 -4.410156 7.40625 -4.144531 7.40625 -3.875 C 7.40625 -3.5625 7.488281 -3.34375 7.65625 -3.21875 C 7.832031 -3.101562 8.078125 -3.046875 8.390625 -3.046875 C 8.660156 -3.046875 9.003906 -3.078125 9.421875 -3.140625 C 9.617188 -3.191406 9.796875 -3.21875 9.953125 -3.21875 C 10.078125 -3.21875 10.164062 -3.179688 10.21875 -3.109375 C 10.28125 -3.035156 10.3125 -2.9375 10.3125 -2.8125 C 10.332031 -2.46875 10.078125 -2.050781 9.546875 -1.5625 C 9.023438 -1.070312 8.316406 -0.648438 7.421875 -0.296875 C 6.535156 0.0546875 5.550781 0.234375 4.46875 0.234375 C 3.289062 0.234375 2.347656 -0.03125 1.640625 -0.5625 C 0.941406 -1.101562 0.59375 -1.835938 0.59375 -2.765625 C 0.59375 -3.191406 0.660156 -3.601562 0.796875 -4 L 2.453125 -9.109375 C 2.535156 -9.398438 2.578125 -9.628906 2.578125 -9.796875 C 2.578125 -10.140625 2.492188 -10.429688 2.328125 -10.671875 C 2.171875 -10.921875 1.945312 -11.171875 1.65625 -11.421875 C 1.394531 -11.671875 1.210938 -11.875 1.109375 -12.03125 C 1.003906 -12.195312 0.976562 -12.390625 1.03125 -12.609375 C 1.101562 -12.835938 1.25 -13.007812 1.46875 -13.125 C 1.695312 -13.25 2.050781 -13.3125 2.53125 -13.3125 L 3.96875 -13.3125 L 5.59375 -14.9375 C 6.164062 -15.5 6.6875 -15.890625 7.15625 -16.109375 C 7.632812 -16.335938 8.25 -16.453125 9 -16.453125 C 10.082031 -16.453125 10.625 -16.039062 10.625 -15.21875 C 10.625 -14.957031 10.59375 -14.71875 10.53125 -14.5 L 10.15625 -13.3125 Z M 11.53125 -13.3125 "/></g></g></g><g fill="#000000" fill-opacity="0.4"><g transform="translate(193.186779, 263.462043)"><g><path d="M 6.78125 -13.640625 C 7.78125 -13.640625 8.507812 -13.453125 8.96875 -13.078125 C 9.4375 -12.703125 9.671875 -12.1875 9.671875 -11.53125 C 9.671875 -11.132812 9.613281 -10.753906 9.5 -10.390625 L 7.125 -2.6875 C 7.070312 -2.476562 7.046875 -2.296875 7.046875 -2.140625 C 7.046875 -1.921875 7.085938 -1.742188 7.171875 -1.609375 C 7.253906 -1.484375 7.375 -1.359375 7.53125 -1.234375 C 7.65625 -1.117188 7.742188 -1.019531 7.796875 -0.9375 C 7.847656 -0.863281 7.851562 -0.765625 7.8125 -0.640625 C 7.726562 -0.421875 7.554688 -0.257812 7.296875 -0.15625 C 7.046875 -0.0507812 6.648438 0 6.109375 0 L 0.234375 0 C -0.210938 0 -0.539062 -0.0703125 -0.75 -0.21875 C -0.957031 -0.363281 -1.023438 -0.554688 -0.953125 -0.796875 C -0.878906 -1.003906 -0.695312 -1.1875 -0.40625 -1.34375 C -0.15625 -1.476562 0.0507812 -1.640625 0.21875 -1.828125 C 0.394531 -2.015625 0.546875 -2.316406 0.671875 -2.734375 L 2.921875 -10.1875 C 2.972656 -10.34375 3 -10.472656 3 -10.578125 C 3 -10.765625 2.953125 -10.914062 2.859375 -11.03125 C 2.773438 -11.144531 2.648438 -11.257812 2.484375 -11.375 C 2.304688 -11.507812 2.179688 -11.628906 2.109375 -11.734375 C 2.046875 -11.835938 2.039062 -11.976562 2.09375 -12.15625 C 2.195312 -12.550781 2.738281 -12.894531 3.71875 -13.1875 C 4.695312 -13.488281 5.71875 -13.640625 6.78125 -13.640625 Z M 8.5 -19.34375 C 9.175781 -19.34375 9.738281 -19.125 10.1875 -18.6875 C 10.632812 -18.25 10.859375 -17.710938 10.859375 -17.078125 C 10.859375 -16.628906 10.738281 -16.1875 10.5 -15.75 C 10.269531 -15.320312 9.941406 -14.972656 9.515625 -14.703125 C 9.097656 -14.441406 8.632812 -14.3125 8.125 -14.3125 C 7.46875 -14.3125 6.921875 -14.53125 6.484375 -14.96875 C 6.046875 -15.414062 5.816406 -15.960938 5.796875 -16.609375 C 5.796875 -17.046875 5.90625 -17.472656 6.125 -17.890625 C 6.351562 -18.304688 6.671875 -18.648438 7.078125 -18.921875 C 7.492188 -19.203125 7.96875 -19.34375 8.5 -19.34375 Z M 8.5 -19.34375 "/></g></g></g><g fill="#000000" fill-opacity="0.4"><g transform="translate(202.620399, 263.462043)"><g><path d="M 24.53125 -3.5625 C 24.5 -3.488281 24.484375 -3.382812 24.484375 -3.25 C 24.484375 -3.125 24.507812 -3.023438 24.5625 -2.953125 C 24.625 -2.890625 24.707031 -2.859375 24.8125 -2.859375 C 25.019531 -2.859375 25.195312 -2.945312 25.34375 -3.125 C 25.488281 -3.3125 25.585938 -3.40625 25.640625 -3.40625 C 25.722656 -3.40625 25.789062 -3.347656 25.84375 -3.234375 C 25.894531 -3.117188 25.921875 -2.988281 25.921875 -2.84375 C 25.941406 -2.34375 25.78125 -1.851562 25.4375 -1.375 C 25.09375 -0.90625 24.585938 -0.519531 23.921875 -0.21875 C 23.265625 0.0820312 22.472656 0.234375 21.546875 0.234375 C 20.410156 0.234375 19.503906 -0.0234375 18.828125 -0.546875 C 18.160156 -1.078125 17.816406 -1.78125 17.796875 -2.65625 C 17.796875 -3.289062 17.953125 -4.003906 18.265625 -4.796875 L 19.6875 -8.515625 C 19.769531 -8.734375 19.8125 -8.914062 19.8125 -9.0625 C 19.8125 -9.28125 19.738281 -9.453125 19.59375 -9.578125 C 19.445312 -9.710938 19.269531 -9.78125 19.0625 -9.78125 C 18.769531 -9.78125 18.46875 -9.648438 18.15625 -9.390625 C 17.851562 -9.128906 17.578125 -8.722656 17.328125 -8.171875 L 15.921875 -3.5625 C 15.878906 -3.488281 15.859375 -3.382812 15.859375 -3.25 C 15.859375 -3.125 15.890625 -3.023438 15.953125 -2.953125 C 16.015625 -2.890625 16.097656 -2.859375 16.203125 -2.859375 C 16.410156 -2.859375 16.585938 -2.945312 16.734375 -3.125 C 16.878906 -3.3125 16.976562 -3.40625 17.03125 -3.40625 C 17.113281 -3.40625 17.179688 -3.347656 17.234375 -3.234375 C 17.285156 -3.117188 17.3125 -2.988281 17.3125 -2.84375 C 17.320312 -2.34375 17.15625 -1.851562 16.8125 -1.375 C 16.46875 -0.90625 15.960938 -0.519531 15.296875 -0.21875 C 14.640625 0.0820312 13.847656 0.234375 12.921875 0.234375 C 11.785156 0.234375 10.878906 -0.0234375 10.203125 -0.546875 C 9.535156 -1.078125 9.195312 -1.78125 9.1875 -2.65625 C 9.1875 -3.289062 9.335938 -4.003906 9.640625 -4.796875 L 11.0625 -8.515625 C 11.15625 -8.734375 11.203125 -8.914062 11.203125 -9.0625 C 11.203125 -9.28125 11.125 -9.453125 10.96875 -9.578125 C 10.820312 -9.710938 10.648438 -9.78125 10.453125 -9.78125 C 10.160156 -9.78125 9.859375 -9.65625 9.546875 -9.40625 C 9.234375 -9.15625 8.972656 -8.753906 8.765625 -8.203125 L 7.0625 -2.6875 C 7 -2.5 6.96875 -2.316406 6.96875 -2.140625 C 6.96875 -1.929688 7.007812 -1.757812 7.09375 -1.625 C 7.175781 -1.5 7.296875 -1.367188 7.453125 -1.234375 C 7.578125 -1.128906 7.664062 -1.035156 7.71875 -0.953125 C 7.769531 -0.867188 7.773438 -0.765625 7.734375 -0.640625 C 7.671875 -0.421875 7.507812 -0.257812 7.25 -0.15625 C 6.988281 -0.0507812 6.582031 0 6.03125 0 L 0.15625 0 C -0.289062 0 -0.613281 -0.0703125 -0.8125 -0.21875 C -1.007812 -0.363281 -1.082031 -0.554688 -1.03125 -0.796875 C -0.957031 -1.003906 -0.773438 -1.1875 -0.484375 -1.34375 C -0.234375 -1.476562 -0.0234375 -1.640625 0.140625 -1.828125 C 0.316406 -2.015625 0.46875 -2.316406 0.59375 -2.734375 L 2.890625 -10.1875 C 2.921875 -10.269531 2.9375 -10.390625 2.9375 -10.546875 C 2.9375 -10.734375 2.894531 -10.878906 2.8125 -10.984375 C 2.738281 -11.085938 2.617188 -11.21875 2.453125 -11.375 C 2.273438 -11.507812 2.148438 -11.628906 2.078125 -11.734375 C 2.015625 -11.835938 2.007812 -11.976562 2.0625 -12.15625 C 2.164062 -12.550781 2.707031 -12.894531 3.6875 -13.1875 C 4.664062 -13.488281 5.691406 -13.640625 6.765625 -13.640625 C 7.597656 -13.640625 8.257812 -13.40625 8.75 -12.9375 C 9.25 -12.476562 9.488281 -11.847656 9.46875 -11.046875 C 10.175781 -12.023438 10.921875 -12.703125 11.703125 -13.078125 C 12.484375 -13.453125 13.328125 -13.640625 14.234375 -13.640625 C 15.234375 -13.640625 16.046875 -13.351562 16.671875 -12.78125 C 17.304688 -12.207031 17.65625 -11.457031 17.71875 -10.53125 C 18.457031 -11.695312 19.25 -12.503906 20.09375 -12.953125 C 20.9375 -13.410156 21.859375 -13.640625 22.859375 -13.640625 C 23.898438 -13.640625 24.742188 -13.320312 25.390625 -12.6875 C 26.035156 -12.050781 26.359375 -11.226562 26.359375 -10.21875 C 26.359375 -9.6875 26.273438 -9.160156 26.109375 -8.640625 Z M 24.53125 -3.5625 "/></g></g></g><g fill="#000000" fill-opacity="0.4"><g transform="translate(229.632492, 263.462043)"><g><path d="M 6.78125 -13.640625 C 7.78125 -13.640625 8.507812 -13.453125 8.96875 -13.078125 C 9.4375 -12.703125 9.671875 -12.1875 9.671875 -11.53125 C 9.671875 -11.132812 9.613281 -10.753906 9.5 -10.390625 L 7.125 -2.6875 C 7.070312 -2.476562 7.046875 -2.296875 7.046875 -2.140625 C 7.046875 -1.921875 7.085938 -1.742188 7.171875 -1.609375 C 7.253906 -1.484375 7.375 -1.359375 7.53125 -1.234375 C 7.65625 -1.117188 7.742188 -1.019531 7.796875 -0.9375 C 7.847656 -0.863281 7.851562 -0.765625 7.8125 -0.640625 C 7.726562 -0.421875 7.554688 -0.257812 7.296875 -0.15625 C 7.046875 -0.0507812 6.648438 0 6.109375 0 L 0.234375 0 C -0.210938 0 -0.539062 -0.0703125 -0.75 -0.21875 C -0.957031 -0.363281 -1.023438 -0.554688 -0.953125 -0.796875 C -0.878906 -1.003906 -0.695312 -1.1875 -0.40625 -1.34375 C -0.15625 -1.476562 0.0507812 -1.640625 0.21875 -1.828125 C 0.394531 -2.015625 0.546875 -2.316406 0.671875 -2.734375 L 2.921875 -10.1875 C 2.972656 -10.34375 3 -10.472656 3 -10.578125 C 3 -10.765625 2.953125 -10.914062 2.859375 -11.03125 C 2.773438 -11.144531 2.648438 -11.257812 2.484375 -11.375 C 2.304688 -11.507812 2.179688 -11.628906 2.109375 -11.734375 C 2.046875 -11.835938 2.039062 -11.976562 2.09375 -12.15625 C 2.195312 -12.550781 2.738281 -12.894531 3.71875 -13.1875 C 4.695312 -13.488281 5.71875 -13.640625 6.78125 -13.640625 Z M 8.5 -19.34375 C 9.175781 -19.34375 9.738281 -19.125 10.1875 -18.6875 C 10.632812 -18.25 10.859375 -17.710938 10.859375 -17.078125 C 10.859375 -16.628906 10.738281 -16.1875 10.5 -15.75 C 10.269531 -15.320312 9.941406 -14.972656 9.515625 -14.703125 C 9.097656 -14.441406 8.632812 -14.3125 8.125 -14.3125 C 7.46875 -14.3125 6.921875 -14.53125 6.484375 -14.96875 C 6.046875 -15.414062 5.816406 -15.960938 5.796875 -16.609375 C 5.796875 -17.046875 5.90625 -17.472656 6.125 -17.890625 C 6.351562 -18.304688 6.671875 -18.648438 7.078125 -18.921875 C 7.492188 -19.203125 7.96875 -19.34375 8.5 -19.34375 Z M 8.5 -19.34375 "/></g></g></g><g fill="#ffffff" fill-opacity="1"><g transform="translate(124.85169, 262.322118)"><g><path d="M 16.8125 -17.1875 C 17.457031 -17.1875 17.953125 -17.046875 18.296875 -16.765625 C 18.648438 -16.492188 18.828125 -16.117188 18.828125 -15.640625 C 18.828125 -15.390625 18.796875 -15.15625 18.734375 -14.9375 L 18.0625 -12.53125 C 17.9375 -12.082031 17.734375 -11.765625 17.453125 -11.578125 C 17.179688 -11.390625 16.820312 -11.296875 16.375 -11.296875 C 15.945312 -11.296875 15.601562 -11.382812 15.34375 -11.5625 C 15.09375 -11.75 14.90625 -12.046875 14.78125 -12.453125 L 14.375 -13.9375 C 14.300781 -14.1875 14.210938 -14.351562 14.109375 -14.4375 C 14.003906 -14.53125 13.789062 -14.578125 13.46875 -14.578125 L 10.890625 -14.578125 L 9.4375 -9.46875 L 9.9375 -9.46875 C 10.175781 -9.46875 10.382812 -9.5 10.5625 -9.5625 C 10.738281 -9.632812 10.929688 -9.765625 11.140625 -9.953125 L 11.9375 -10.625 C 12.226562 -10.882812 12.488281 -11.066406 12.71875 -11.171875 C 12.957031 -11.285156 13.207031 -11.34375 13.46875 -11.34375 C 13.789062 -11.34375 14.054688 -11.25 14.265625 -11.0625 C 14.484375 -10.875 14.59375 -10.609375 14.59375 -10.265625 C 14.59375 -10.128906 14.570312 -9.96875 14.53125 -9.78125 L 13.390625 -5.859375 C 13.128906 -5.015625 12.664062 -4.59375 12 -4.59375 C 11.445312 -4.59375 11.015625 -4.875 10.703125 -5.4375 L 10.234375 -6.3125 C 10.117188 -6.5625 10.007812 -6.71875 9.90625 -6.78125 C 9.800781 -6.851562 9.644531 -6.890625 9.4375 -6.890625 L 8.6875 -6.890625 L 7.609375 -3.046875 C 7.578125 -2.941406 7.5625 -2.800781 7.5625 -2.625 C 7.5625 -2.382812 7.613281 -2.1875 7.71875 -2.03125 C 7.832031 -1.882812 8.003906 -1.722656 8.234375 -1.546875 C 8.421875 -1.390625 8.546875 -1.265625 8.609375 -1.171875 C 8.679688 -1.078125 8.71875 -0.960938 8.71875 -0.828125 C 8.71875 -0.515625 8.578125 -0.296875 8.296875 -0.171875 C 8.023438 -0.0546875 7.625 0 7.09375 0 L 0.625 0 C 0.175781 0 -0.15625 -0.078125 -0.375 -0.234375 C -0.601562 -0.398438 -0.6875 -0.628906 -0.625 -0.921875 C -0.582031 -1.078125 -0.515625 -1.203125 -0.421875 -1.296875 C -0.328125 -1.390625 -0.1875 -1.5 0 -1.625 C 0.289062 -1.800781 0.519531 -1.984375 0.6875 -2.171875 C 0.863281 -2.359375 1.003906 -2.648438 1.109375 -3.046875 L 4.28125 -14.15625 C 4.351562 -14.382812 4.390625 -14.59375 4.390625 -14.78125 C 4.390625 -14.988281 4.359375 -15.160156 4.296875 -15.296875 C 4.234375 -15.429688 4.144531 -15.578125 4.03125 -15.734375 C 3.875 -15.960938 3.796875 -16.144531 3.796875 -16.28125 C 3.796875 -16.332031 3.8125 -16.425781 3.84375 -16.5625 C 3.914062 -16.78125 4.070312 -16.9375 4.3125 -17.03125 C 4.550781 -17.132812 4.898438 -17.1875 5.359375 -17.1875 Z M 16.8125 -17.1875 "/></g></g></g><g fill="#ffffff" fill-opacity="1"><g transform="translate(141.11565, 262.322118)"><g><path d="M 8.75 -13.78125 C 10.925781 -13.78125 12.503906 -13.429688 13.484375 -12.734375 C 14.472656 -12.035156 14.96875 -11.144531 14.96875 -10.0625 C 14.96875 -9.738281 14.929688 -9.4375 14.859375 -9.15625 C 14.597656 -8.019531 13.878906 -7.207031 12.703125 -6.71875 C 11.523438 -6.226562 10.132812 -5.984375 8.53125 -5.984375 C 7.726562 -5.984375 6.972656 -6.035156 6.265625 -6.140625 C 6.253906 -5.242188 6.492188 -4.613281 6.984375 -4.25 C 7.484375 -3.894531 8.179688 -3.71875 9.078125 -3.71875 C 9.492188 -3.71875 9.890625 -3.765625 10.265625 -3.859375 C 10.640625 -3.953125 11.125 -4.09375 11.71875 -4.28125 C 12.195312 -4.457031 12.519531 -4.546875 12.6875 -4.546875 C 12.875 -4.546875 12.96875 -4.429688 12.96875 -4.203125 C 12.988281 -3.597656 12.765625 -2.960938 12.296875 -2.296875 C 11.835938 -1.640625 11.148438 -1.078125 10.234375 -0.609375 C 9.328125 -0.148438 8.226562 0.078125 6.9375 0.078125 C 5.03125 0.078125 3.460938 -0.398438 2.234375 -1.359375 C 1.015625 -2.328125 0.40625 -3.734375 0.40625 -5.578125 C 0.40625 -6.085938 0.476562 -6.6875 0.625 -7.375 C 1.050781 -9.488281 1.988281 -11.082031 3.4375 -12.15625 C 4.894531 -13.238281 6.664062 -13.78125 8.75 -13.78125 Z M 6.453125 -7.6875 C 6.515625 -7.664062 6.609375 -7.65625 6.734375 -7.65625 C 7.453125 -7.65625 8 -7.988281 8.375 -8.65625 C 8.757812 -9.332031 8.941406 -10.082031 8.921875 -10.90625 C 8.910156 -11.394531 8.773438 -11.640625 8.515625 -11.640625 C 8.328125 -11.640625 8.101562 -11.488281 7.84375 -11.1875 C 7.582031 -10.882812 7.328125 -10.429688 7.078125 -9.828125 C 6.828125 -9.222656 6.617188 -8.507812 6.453125 -7.6875 Z M 6.453125 -7.6875 "/></g></g></g><g fill="#ffffff" fill-opacity="1"><g transform="translate(155.549584, 262.322118)"><g><path d="M 13.671875 -13.640625 C 14.429688 -13.640625 15.035156 -13.332031 15.484375 -12.71875 C 15.941406 -12.113281 16.171875 -11.285156 16.171875 -10.234375 C 16.171875 -9.328125 16.007812 -8.347656 15.6875 -7.296875 C 15.050781 -5.179688 14.03125 -3.1875 12.625 -1.3125 C 11.226562 0.5625 9.617188 2.066406 7.796875 3.203125 C 5.984375 4.335938 4.175781 4.90625 2.375 4.90625 C 1.476562 4.90625 0.707031 4.75 0.0625 4.4375 C -0.582031 4.125 -1.070312 3.707031 -1.40625 3.1875 C -1.738281 2.675781 -1.90625 2.128906 -1.90625 1.546875 C -1.90625 1.285156 -1.863281 1.003906 -1.78125 0.703125 C -1.625 0.210938 -1.363281 -0.15625 -1 -0.40625 C -0.644531 -0.664062 -0.21875 -0.796875 0.28125 -0.796875 C 1.070312 -0.796875 1.722656 -0.523438 2.234375 0.015625 C 2.742188 0.554688 3.066406 1.300781 3.203125 2.25 C 4.296875 2.195312 5.3125 1.722656 6.25 0.828125 C 5.363281 0.671875 4.707031 0.375 4.28125 -0.0625 C 3.863281 -0.5 3.582031 -1.179688 3.4375 -2.109375 L 2.40625 -8.4375 C 2.351562 -8.757812 2.273438 -8.984375 2.171875 -9.109375 C 2.078125 -9.242188 1.957031 -9.3125 1.8125 -9.3125 C 1.6875 -9.3125 1.539062 -9.25 1.375 -9.125 C 1.21875 -9.007812 1.101562 -8.953125 1.03125 -8.953125 C 0.894531 -8.953125 0.828125 -9.097656 0.828125 -9.390625 C 0.828125 -9.628906 0.867188 -9.882812 0.953125 -10.15625 C 1.265625 -11.144531 1.84375 -11.976562 2.6875 -12.65625 C 3.53125 -13.332031 4.507812 -13.671875 5.625 -13.671875 C 6.726562 -13.671875 7.539062 -13.34375 8.0625 -12.6875 C 8.582031 -12.039062 8.921875 -11.035156 9.078125 -9.671875 L 9.859375 -4 C 9.910156 -3.570312 10.0625 -3.359375 10.3125 -3.359375 C 10.625 -3.359375 10.984375 -3.632812 11.390625 -4.1875 C 11.804688 -4.75 12.210938 -5.546875 12.609375 -6.578125 C 12.097656 -7.046875 11.703125 -7.578125 11.421875 -8.171875 C 11.148438 -8.773438 11.015625 -9.421875 11.015625 -10.109375 C 11.015625 -10.640625 11.082031 -11.125 11.21875 -11.5625 C 11.425781 -12.25 11.75 -12.765625 12.1875 -13.109375 C 12.625 -13.460938 13.117188 -13.640625 13.671875 -13.640625 Z M 13.671875 -13.640625 "/></g></g></g><g fill="#ffffff" fill-opacity="1"><g transform="translate(171.53002, 262.322118)"><g><path d="M 6.78125 -13.640625 C 7.78125 -13.640625 8.507812 -13.453125 8.96875 -13.078125 C 9.4375 -12.703125 9.671875 -12.1875 9.671875 -11.53125 C 9.671875 -11.132812 9.613281 -10.753906 9.5 -10.390625 L 7.125 -2.6875 C 7.070312 -2.476562 7.046875 -2.296875 7.046875 -2.140625 C 7.046875 -1.921875 7.085938 -1.742188 7.171875 -1.609375 C 7.253906 -1.484375 7.375 -1.359375 7.53125 -1.234375 C 7.65625 -1.117188 7.742188 -1.019531 7.796875 -0.9375 C 7.847656 -0.863281 7.851562 -0.765625 7.8125 -0.640625 C 7.726562 -0.421875 7.554688 -0.257812 7.296875 -0.15625 C 7.046875 -0.0507812 6.648438 0 6.109375 0 L 0.234375 0 C -0.210938 0 -0.539062 -0.0703125 -0.75 -0.21875 C -0.957031 -0.363281 -1.023438 -0.554688 -0.953125 -0.796875 C -0.878906 -1.003906 -0.695312 -1.1875 -0.40625 -1.34375 C -0.15625 -1.476562 0.0507812 -1.640625 0.21875 -1.828125 C 0.394531 -2.015625 0.546875 -2.316406 0.671875 -2.734375 L 2.921875 -10.1875 C 2.972656 -10.34375 3 -10.472656 3 -10.578125 C 3 -10.765625 2.953125 -10.914062 2.859375 -11.03125 C 2.773438 -11.144531 2.648438 -11.257812 2.484375 -11.375 C 2.304688 -11.507812 2.179688 -11.628906 2.109375 -11.734375 C 2.046875 -11.835938 2.039062 -11.976562 2.09375 -12.15625 C 2.195312 -12.550781 2.738281 -12.894531 3.71875 -13.1875 C 4.695312 -13.488281 5.71875 -13.640625 6.78125 -13.640625 Z M 8.5 -19.34375 C 9.175781 -19.34375 9.738281 -19.125 10.1875 -18.6875 C 10.632812 -18.25 10.859375 -17.710938 10.859375 -17.078125 C 10.859375 -16.628906 10.738281 -16.1875 10.5 -15.75 C 10.269531 -15.320312 9.941406 -14.972656 9.515625 -14.703125 C 9.097656 -14.441406 8.632812 -14.3125 8.125 -14.3125 C 7.46875 -14.3125 6.921875 -14.53125 6.484375 -14.96875 C 6.046875 -15.414062 5.816406 -15.960938 5.796875 -16.609375 C 5.796875 -17.046875 5.90625 -17.472656 6.125 -17.890625 C 6.351562 -18.304688 6.671875 -18.648438 7.078125 -18.921875 C 7.492188 -19.203125 7.96875 -19.34375 8.5 -19.34375 Z M 8.5 -19.34375 "/></g></g></g><g fill="#ffffff" fill-opacity="1"><g transform="translate(180.963639, 262.322118)"><g><path d="M 11.53125 -13.3125 C 11.851562 -13.3125 12.101562 -13.242188 12.28125 -13.109375 C 12.46875 -12.972656 12.5625 -12.78125 12.5625 -12.53125 C 12.5625 -12.46875 12.546875 -12.347656 12.515625 -12.171875 C 12.285156 -11.421875 11.769531 -11.046875 10.96875 -11.046875 L 9.46875 -11.046875 L 7.53125 -4.671875 C 7.445312 -4.410156 7.40625 -4.144531 7.40625 -3.875 C 7.40625 -3.5625 7.488281 -3.34375 7.65625 -3.21875 C 7.832031 -3.101562 8.078125 -3.046875 8.390625 -3.046875 C 8.660156 -3.046875 9.003906 -3.078125 9.421875 -3.140625 C 9.617188 -3.191406 9.796875 -3.21875 9.953125 -3.21875 C 10.078125 -3.21875 10.164062 -3.179688 10.21875 -3.109375 C 10.28125 -3.035156 10.3125 -2.9375 10.3125 -2.8125 C 10.332031 -2.46875 10.078125 -2.050781 9.546875 -1.5625 C 9.023438 -1.070312 8.316406 -0.648438 7.421875 -0.296875 C 6.535156 0.0546875 5.550781 0.234375 4.46875 0.234375 C 3.289062 0.234375 2.347656 -0.03125 1.640625 -0.5625 C 0.941406 -1.101562 0.59375 -1.835938 0.59375 -2.765625 C 0.59375 -3.191406 0.660156 -3.601562 0.796875 -4 L 2.453125 -9.109375 C 2.535156 -9.398438 2.578125 -9.628906 2.578125 -9.796875 C 2.578125 -10.140625 2.492188 -10.429688 2.328125 -10.671875 C 2.171875 -10.921875 1.945312 -11.171875 1.65625 -11.421875 C 1.394531 -11.671875 1.210938 -11.875 1.109375 -12.03125 C 1.003906 -12.195312 0.976562 -12.390625 1.03125 -12.609375 C 1.101562 -12.835938 1.25 -13.007812 1.46875 -13.125 C 1.695312 -13.25 2.050781 -13.3125 2.53125 -13.3125 L 3.96875 -13.3125 L 5.59375 -14.9375 C 6.164062 -15.5 6.6875 -15.890625 7.15625 -16.109375 C 7.632812 -16.335938 8.25 -16.453125 9 -16.453125 C 10.082031 -16.453125 10.625 -16.039062 10.625 -15.21875 C 10.625 -14.957031 10.59375 -14.71875 10.53125 -14.5 L 10.15625 -13.3125 Z M 11.53125 -13.3125 "/></g></g></g><g fill="#ffffff" fill-opacity="1"><g transform="translate(192.046852, 262.322118)"><g><path d="M 6.78125 -13.640625 C 7.78125 -13.640625 8.507812 -13.453125 8.96875 -13.078125 C 9.4375 -12.703125 9.671875 -12.1875 9.671875 -11.53125 C 9.671875 -11.132812 9.613281 -10.753906 9.5 -10.390625 L 7.125 -2.6875 C 7.070312 -2.476562 7.046875 -2.296875 7.046875 -2.140625 C 7.046875 -1.921875 7.085938 -1.742188 7.171875 -1.609375 C 7.253906 -1.484375 7.375 -1.359375 7.53125 -1.234375 C 7.65625 -1.117188 7.742188 -1.019531 7.796875 -0.9375 C 7.847656 -0.863281 7.851562 -0.765625 7.8125 -0.640625 C 7.726562 -0.421875 7.554688 -0.257812 7.296875 -0.15625 C 7.046875 -0.0507812 6.648438 0 6.109375 0 L 0.234375 0 C -0.210938 0 -0.539062 -0.0703125 -0.75 -0.21875 C -0.957031 -0.363281 -1.023438 -0.554688 -0.953125 -0.796875 C -0.878906 -1.003906 -0.695312 -1.1875 -0.40625 -1.34375 C -0.15625 -1.476562 0.0507812 -1.640625 0.21875 -1.828125 C 0.394531 -2.015625 0.546875 -2.316406 0.671875 -2.734375 L 2.921875 -10.1875 C 2.972656 -10.34375 3 -10.472656 3 -10.578125 C 3 -10.765625 2.953125 -10.914062 2.859375 -11.03125 C 2.773438 -11.144531 2.648438 -11.257812 2.484375 -11.375 C 2.304688 -11.507812 2.179688 -11.628906 2.109375 -11.734375 C 2.046875 -11.835938 2.039062 -11.976562 2.09375 -12.15625 C 2.195312 -12.550781 2.738281 -12.894531 3.71875 -13.1875 C 4.695312 -13.488281 5.71875 -13.640625 6.78125 -13.640625 Z M 8.5 -19.34375 C 9.175781 -19.34375 9.738281 -19.125 10.1875 -18.6875 C 10.632812 -18.25 10.859375 -17.710938 10.859375 -17.078125 C 10.859375 -16.628906 10.738281 -16.1875 10.5 -15.75 C 10.269531 -15.320312 9.941406 -14.972656 9.515625 -14.703125 C 9.097656 -14.441406 8.632812 -14.3125 8.125 -14.3125 C 7.46875 -14.3125 6.921875 -14.53125 6.484375 -14.96875 C 6.046875 -15.414062 5.816406 -15.960938 5.796875 -16.609375 C 5.796875 -17.046875 5.90625 -17.472656 6.125 -17.890625 C 6.351562 -18.304688 6.671875 -18.648438 7.078125 -18.921875 C 7.492188 -19.203125 7.96875 -19.34375 8.5 -19.34375 Z M 8.5 -19.34375 "/></g></g></g><g fill="#ffffff" fill-opacity="1"><g transform="translate(201.480471, 262.322118)"><g><path d="M 24.53125 -3.5625 C 24.5 -3.488281 24.484375 -3.382812 24.484375 -3.25 C 24.484375 -3.125 24.507812 -3.023438 24.5625 -2.953125 C 24.625 -2.890625 24.707031 -2.859375 24.8125 -2.859375 C 25.019531 -2.859375 25.195312 -2.945312 25.34375 -3.125 C 25.488281 -3.3125 25.585938 -3.40625 25.640625 -3.40625 C 25.722656 -3.40625 25.789062 -3.347656 25.84375 -3.234375 C 25.894531 -3.117188 25.921875 -2.988281 25.921875 -2.84375 C 25.941406 -2.34375 25.78125 -1.851562 25.4375 -1.375 C 25.09375 -0.90625 24.585938 -0.519531 23.921875 -0.21875 C 23.265625 0.0820312 22.472656 0.234375 21.546875 0.234375 C 20.410156 0.234375 19.503906 -0.0234375 18.828125 -0.546875 C 18.160156 -1.078125 17.816406 -1.78125 17.796875 -2.65625 C 17.796875 -3.289062 17.953125 -4.003906 18.265625 -4.796875 L 19.6875 -8.515625 C 19.769531 -8.734375 19.8125 -8.914062 19.8125 -9.0625 C 19.8125 -9.28125 19.738281 -9.453125 19.59375 -9.578125 C 19.445312 -9.710938 19.269531 -9.78125 19.0625 -9.78125 C 18.769531 -9.78125 18.46875 -9.648438 18.15625 -9.390625 C 17.851562 -9.128906 17.578125 -8.722656 17.328125 -8.171875 L 15.921875 -3.5625 C 15.878906 -3.488281 15.859375 -3.382812 15.859375 -3.25 C 15.859375 -3.125 15.890625 -3.023438 15.953125 -2.953125 C 16.015625 -2.890625 16.097656 -2.859375 16.203125 -2.859375 C 16.410156 -2.859375 16.585938 -2.945312 16.734375 -3.125 C 16.878906 -3.3125 16.976562 -3.40625 17.03125 -3.40625 C 17.113281 -3.40625 17.179688 -3.347656 17.234375 -3.234375 C 17.285156 -3.117188 17.3125 -2.988281 17.3125 -2.84375 C 17.320312 -2.34375 17.15625 -1.851562 16.8125 -1.375 C 16.46875 -0.90625 15.960938 -0.519531 15.296875 -0.21875 C 14.640625 0.0820312 13.847656 0.234375 12.921875 0.234375 C 11.785156 0.234375 10.878906 -0.0234375 10.203125 -0.546875 C 9.535156 -1.078125 9.195312 -1.78125 9.1875 -2.65625 C 9.1875 -3.289062 9.335938 -4.003906 9.640625 -4.796875 L 11.0625 -8.515625 C 11.15625 -8.734375 11.203125 -8.914062 11.203125 -9.0625 C 11.203125 -9.28125 11.125 -9.453125 10.96875 -9.578125 C 10.820312 -9.710938 10.648438 -9.78125 10.453125 -9.78125 C 10.160156 -9.78125 9.859375 -9.65625 9.546875 -9.40625 C 9.234375 -9.15625 8.972656 -8.753906 8.765625 -8.203125 L 7.0625 -2.6875 C 7 -2.5 6.96875 -2.316406 6.96875 -2.140625 C 6.96875 -1.929688 7.007812 -1.757812 7.09375 -1.625 C 7.175781 -1.5 7.296875 -1.367188 7.453125 -1.234375 C 7.578125 -1.128906 7.664062 -1.035156 7.71875 -0.953125 C 7.769531 -0.867188 7.773438 -0.765625 7.734375 -0.640625 C 7.671875 -0.421875 7.507812 -0.257812 7.25 -0.15625 C 6.988281 -0.0507812 6.582031 0 6.03125 0 L 0.15625 0 C -0.289062 0 -0.613281 -0.0703125 -0.8125 -0.21875 C -1.007812 -0.363281 -1.082031 -0.554688 -1.03125 -0.796875 C -0.957031 -1.003906 -0.773438 -1.1875 -0.484375 -1.34375 C -0.234375 -1.476562 -0.0234375 -1.640625 0.140625 -1.828125 C 0.316406 -2.015625 0.46875 -2.316406 0.59375 -2.734375 L 2.890625 -10.1875 C 2.921875 -10.269531 2.9375 -10.390625 2.9375 -10.546875 C 2.9375 -10.734375 2.894531 -10.878906 2.8125 -10.984375 C 2.738281 -11.085938 2.617188 -11.21875 2.453125 -11.375 C 2.273438 -11.507812 2.148438 -11.628906 2.078125 -11.734375 C 2.015625 -11.835938 2.007812 -11.976562 2.0625 -12.15625 C 2.164062 -12.550781 2.707031 -12.894531 3.6875 -13.1875 C 4.664062 -13.488281 5.691406 -13.640625 6.765625 -13.640625 C 7.597656 -13.640625 8.257812 -13.40625 8.75 -12.9375 C 9.25 -12.476562 9.488281 -11.847656 9.46875 -11.046875 C 10.175781 -12.023438 10.921875 -12.703125 11.703125 -13.078125 C 12.484375 -13.453125 13.328125 -13.640625 14.234375 -13.640625 C 15.234375 -13.640625 16.046875 -13.351562 16.671875 -12.78125 C 17.304688 -12.207031 17.65625 -11.457031 17.71875 -10.53125 C 18.457031 -11.695312 19.25 -12.503906 20.09375 -12.953125 C 20.9375 -13.410156 21.859375 -13.640625 22.859375 -13.640625 C 23.898438 -13.640625 24.742188 -13.320312 25.390625 -12.6875 C 26.035156 -12.050781 26.359375 -11.226562 26.359375 -10.21875 C 26.359375 -9.6875 26.273438 -9.160156 26.109375 -8.640625 Z M 24.53125 -3.5625 "/></g></g></g><g fill="#ffffff" fill-opacity="1"><g transform="translate(228.492564, 262.322118)"><g><path d="M 6.78125 -13.640625 C 7.78125 -13.640625 8.507812 -13.453125 8.96875 -13.078125 C 9.4375 -12.703125 9.671875 -12.1875 9.671875 -11.53125 C 9.671875 -11.132812 9.613281 -10.753906 9.5 -10.390625 L 7.125 -2.6875 C 7.070312 -2.476562 7.046875 -2.296875 7.046875 -2.140625 C 7.046875 -1.921875 7.085938 -1.742188 7.171875 -1.609375 C 7.253906 -1.484375 7.375 -1.359375 7.53125 -1.234375 C 7.65625 -1.117188 7.742188 -1.019531 7.796875 -0.9375 C 7.847656 -0.863281 7.851562 -0.765625 7.8125 -0.640625 C 7.726562 -0.421875 7.554688 -0.257812 7.296875 -0.15625 C 7.046875 -0.0507812 6.648438 0 6.109375 0 L 0.234375 0 C -0.210938 0 -0.539062 -0.0703125 -0.75 -0.21875 C -0.957031 -0.363281 -1.023438 -0.554688 -0.953125 -0.796875 C -0.878906 -1.003906 -0.695312 -1.1875 -0.40625 -1.34375 C -0.15625 -1.476562 0.0507812 -1.640625 0.21875 -1.828125 C 0.394531 -2.015625 0.546875 -2.316406 0.671875 -2.734375 L 2.921875 -10.1875 C 2.972656 -10.34375 3 -10.472656 3 -10.578125 C 3 -10.765625 2.953125 -10.914062 2.859375 -11.03125 C 2.773438 -11.144531 2.648438 -11.257812 2.484375 -11.375 C 2.304688 -11.507812 2.179688 -11.628906 2.109375 -11.734375 C 2.046875 -11.835938 2.039062 -11.976562 2.09375 -12.15625 C 2.195312 -12.550781 2.738281 -12.894531 3.71875 -13.1875 C 4.695312 -13.488281 5.71875 -13.640625 6.78125 -13.640625 Z M 8.5 -19.34375 C 9.175781 -19.34375 9.738281 -19.125 10.1875 -18.6875 C 10.632812 -18.25 10.859375 -17.710938 10.859375 -17.078125 C 10.859375 -16.628906 10.738281 -16.1875 10.5 -15.75 C 10.269531 -15.320312 9.941406 -14.972656 9.515625 -14.703125 C 9.097656 -14.441406 8.632812 -14.3125 8.125 -14.3125 C 7.46875 -14.3125 6.921875 -14.53125 6.484375 -14.96875 C 6.046875 -15.414062 5.816406 -15.960938 5.796875 -16.609375 C 5.796875 -17.046875 5.90625 -17.472656 6.125 -17.890625 C 6.351562 -18.304688 6.671875 -18.648438 7.078125 -18.921875 C 7.492188 -19.203125 7.96875 -19.34375 8.5 -19.34375 Z M 8.5 -19.34375 "/></g></g></g></svg>