<svg xmlns="http://www.w3.org/2000/svg" xmlns:xlink="http://www.w3.org/1999/xlink" width="500" zoomAndPan="magnify" viewBox="0 0 375 374.999991" height="500" preserveAspectRatio="xMidYMid meet" version="1.0"><defs><g/><clipPath id="146c74f971"><path d="M 116.378906 82.414062 L 244.628906 82.414062 L 244.628906 232.414062 L 116.378906 232.414062 Z M 116.378906 82.414062 " clip-rule="nonzero"/></clipPath><clipPath id="9af9b02305"><path d="M 155 135 L 267 135 L 267 235 L 155 235 Z M 155 135 " clip-rule="nonzero"/></clipPath><clipPath id="6882057e4c"><path d="M 157.839844 134.0625 L 269.324219 136.972656 L 266.78125 234.523438 L 155.292969 231.613281 Z M 157.839844 134.0625 " clip-rule="nonzero"/></clipPath><clipPath id="4ffad519c9"><path d="M 213.582031 135.519531 L 266.78125 234.523438 L 155.292969 231.613281 Z M 213.582031 135.519531 " clip-rule="nonzero"/></clipPath><clipPath id="e16732dd95"><path d="M 187 153 L 252 153 L 252 225 L 187 225 Z M 187 153 " clip-rule="nonzero"/></clipPath><clipPath id="17dd4bbafb"><path d="M 189.125 152.519531 L 253.269531 154.191406 L 251.441406 224.203125 L 187.296875 222.53125 Z M 189.125 152.519531 " clip-rule="nonzero"/></clipPath><clipPath id="dd0cd6a0dd"><path d="M 221.195312 153.355469 L 251.441406 224.203125 L 187.296875 222.53125 Z M 221.195312 153.355469 " clip-rule="nonzero"/></clipPath><clipPath id="d97bfda8b3"><path d="M 178 142 L 272 142 L 272 235 L 178 235 Z M 178 142 " clip-rule="nonzero"/></clipPath><clipPath id="e2cfa02069"><path d="M 181.121094 140.960938 L 273.453125 143.367188 L 271.074219 234.523438 L 178.742188 232.113281 Z M 181.121094 140.960938 " clip-rule="nonzero"/></clipPath><clipPath id="8d1142d227"><path d="M 227.285156 142.164062 L 271.074219 234.523438 L 178.742188 232.113281 Z M 227.285156 142.164062 " clip-rule="nonzero"/></clipPath><clipPath id="783bbd5f7d"><path d="M 192 152 L 251 152 L 251 248 L 192 248 Z M 192 152 " clip-rule="nonzero"/></clipPath><clipPath id="e160964a96"><path d="M 277.476562 237.292969 L 224.355469 257.148438 L 192.664062 172.367188 L 245.785156 152.511719 Z M 277.476562 237.292969 " clip-rule="nonzero"/></clipPath><clipPath id="48368ccfec"><path d="M 250.914062 247.222656 L 192.664062 172.367188 L 245.785156 152.511719 Z M 250.914062 247.222656 " clip-rule="nonzero"/></clipPath><clipPath id="46a5b3b26c"><path d="M 204 163 L 244 163 L 244 228 L 204 228 Z M 204 163 " clip-rule="nonzero"/></clipPath><clipPath id="3083677354"><path d="M 261.210938 220.488281 L 225.671875 233.769531 L 204.46875 177.050781 L 240.007812 163.765625 Z M 261.210938 220.488281 " clip-rule="nonzero"/></clipPath><clipPath id="dc9aa4e36b"><path d="M 243.441406 227.128906 L 204.46875 177.050781 L 240.007812 163.765625 Z M 243.441406 227.128906 " clip-rule="nonzero"/></clipPath><clipPath id="916a1f1976"><path d="M 247.617188 82.414062 L 273.441406 82.414062 L 273.441406 234.523438 L 247.617188 234.523438 Z M 247.617188 82.414062 " clip-rule="nonzero"/></clipPath><clipPath id="7d1cd96deb"><path d="M 140.0625 234.523438 L 227.0625 234.523438 L 227.0625 265.273438 L 140.0625 265.273438 Z M 140.0625 234.523438 " clip-rule="nonzero"/></clipPath><clipPath id="7fbab32d8b"><path d="M 119.714844 237.722656 L 247.625 237.722656 L 247.625 265.335938 L 119.714844 265.335938 Z M 119.714844 237.722656 " clip-rule="nonzero"/></clipPath><clipPath id="9851af4fb9"><path d="M 136.636719 259.644531 L 223.636719 259.644531 L 223.636719 290.394531 L 136.636719 290.394531 Z M 136.636719 259.644531 " clip-rule="nonzero"/></clipPath><clipPath id="f0b443c5ea"><path d="M 136.425781 255.148438 L 227.761719 255.148438 L 227.761719 286.875 L 136.425781 286.875 Z M 136.425781 255.148438 " clip-rule="nonzero"/></clipPath></defs><g clip-path="url(#146c74f971)"><path fill="#000000" d="M 116.433594 82.414062 L 116.433594 88.070312 L 131.648438 88.070312 L 131.648438 226.578125 L 119.375 226.578125 L 119.375 232.414062 L 167 232.414062 L 167 226.578125 L 155.265625 226.578125 L 155.265625 155.648438 L 200.101562 155.648438 L 200.101562 147.480469 L 155.265625 147.480469 L 155.265625 88.070312 L 196.742188 88.070312 C 219.820312 88.070312 230.710938 99.265625 235.722656 116.503906 L 244.578125 116.503906 L 244.578125 82.414062 Z M 116.433594 82.414062 " fill-opacity="1" fill-rule="nonzero"/></g><g clip-path="url(#9af9b02305)"><g clip-path="url(#6882057e4c)"><g clip-path="url(#4ffad519c9)"><path fill="#000000" d="M 157.839844 134.0625 L 269.324219 136.972656 L 266.78125 234.523438 L 155.292969 231.613281 Z M 157.839844 134.0625 " fill-opacity="1" fill-rule="nonzero"/></g></g></g><g clip-path="url(#e16732dd95)"><g clip-path="url(#17dd4bbafb)"><g clip-path="url(#dd0cd6a0dd)"><path fill="#ffffff" d="M 189.125 152.519531 L 253.269531 154.191406 L 251.441406 224.203125 L 187.296875 222.53125 Z M 189.125 152.519531 " fill-opacity="1" fill-rule="nonzero"/></g></g></g><g clip-path="url(#d97bfda8b3)"><g clip-path="url(#e2cfa02069)"><g clip-path="url(#8d1142d227)"><path fill="#000000" d="M 181.121094 140.960938 L 273.453125 143.367188 L 271.074219 234.523438 L 178.742188 232.113281 Z M 181.121094 140.960938 " fill-opacity="1" fill-rule="nonzero"/></g></g></g><g clip-path="url(#783bbd5f7d)"><g clip-path="url(#e160964a96)"><g clip-path="url(#48368ccfec)"><path fill="#ffffff" d="M 277.476562 237.292969 L 224.355469 257.148438 L 192.664062 172.367188 L 245.785156 152.511719 Z M 277.476562 237.292969 " fill-opacity="1" fill-rule="nonzero"/></g></g></g><g clip-path="url(#46a5b3b26c)"><g clip-path="url(#3083677354)"><g clip-path="url(#dc9aa4e36b)"><path fill="#004aad" d="M 261.210938 220.488281 L 225.671875 233.769531 L 204.46875 177.050781 L 240.007812 163.765625 Z M 261.210938 220.488281 " fill-opacity="1" fill-rule="nonzero"/></g></g></g><g clip-path="url(#916a1f1976)"><path fill="#ffffff" d="M 273.441406 82.414062 L 273.441406 234.523438 L 247.617188 234.523438 L 247.617188 82.414062 Z M 273.441406 82.414062 " fill-opacity="1" fill-rule="nonzero"/></g><g clip-path="url(#7d1cd96deb)"><path fill="#000000" d="M 225.925781 262.421875 L 224.378906 262.421875 L 224.378906 236.070312 C 224.378906 235.867188 224.339844 235.667969 224.257812 235.480469 C 224.179688 235.289062 224.070312 235.121094 223.921875 234.976562 C 223.777344 234.832031 223.609375 234.71875 223.421875 234.640625 C 223.230469 234.5625 223.03125 234.523438 222.828125 234.523438 L 213.527344 234.523438 C 213.320312 234.523438 213.125 234.5625 212.933594 234.640625 C 212.746094 234.71875 212.578125 234.832031 212.429688 234.976562 C 212.285156 235.121094 212.175781 235.289062 212.09375 235.480469 C 212.015625 235.667969 211.976562 235.867188 211.976562 236.070312 L 211.976562 262.421875 L 205.777344 262.421875 L 205.777344 174.070312 C 205.777344 173.867188 205.738281 173.667969 205.660156 173.480469 C 205.582031 173.289062 205.46875 173.121094 205.324219 172.976562 C 205.179688 172.832031 205.011719 172.71875 204.820312 172.640625 C 204.632812 172.5625 204.433594 172.523438 204.226562 172.523438 L 194.925781 172.523438 C 194.722656 172.523438 194.523438 172.5625 194.335938 172.640625 C 194.144531 172.71875 193.976562 172.832031 193.832031 172.976562 C 193.6875 173.121094 193.574219 173.289062 193.496094 173.480469 C 193.417969 173.667969 193.378906 173.867188 193.378906 174.070312 L 193.378906 262.421875 L 187.175781 262.421875 L 187.175781 191.121094 C 187.175781 190.917969 187.136719 190.71875 187.058594 190.527344 C 186.980469 190.339844 186.867188 190.171875 186.722656 190.027344 C 186.578125 189.878906 186.410156 189.769531 186.222656 189.691406 C 186.03125 189.613281 185.832031 189.570312 185.628906 189.570312 L 176.328125 189.570312 C 176.121094 189.570312 175.925781 189.613281 175.734375 189.691406 C 175.542969 189.769531 175.375 189.878906 175.230469 190.027344 C 175.085938 190.171875 174.972656 190.339844 174.894531 190.527344 C 174.816406 190.71875 174.777344 190.917969 174.777344 191.121094 L 174.777344 262.421875 L 168.578125 262.421875 L 168.578125 220.570312 C 168.578125 220.367188 168.539062 220.167969 168.460938 219.980469 C 168.382812 219.789062 168.269531 219.621094 168.125 219.476562 C 167.976562 219.332031 167.8125 219.21875 167.621094 219.140625 C 167.429688 219.0625 167.234375 219.023438 167.027344 219.023438 L 157.726562 219.023438 C 157.523438 219.023438 157.324219 219.0625 157.132812 219.140625 C 156.945312 219.21875 156.777344 219.332031 156.632812 219.476562 C 156.484375 219.621094 156.375 219.789062 156.296875 219.980469 C 156.21875 220.167969 156.175781 220.367188 156.175781 220.570312 L 156.175781 262.421875 L 149.976562 262.421875 L 149.976562 205.070312 C 149.976562 204.867188 149.9375 204.667969 149.859375 204.480469 C 149.78125 204.289062 149.667969 204.121094 149.523438 203.976562 C 149.378906 203.832031 149.210938 203.71875 149.019531 203.640625 C 148.832031 203.5625 148.632812 203.523438 148.425781 203.523438 L 139.128906 203.523438 C 138.921875 203.523438 138.722656 203.5625 138.535156 203.640625 C 138.34375 203.71875 138.175781 203.832031 138.03125 203.976562 C 137.886719 204.121094 137.773438 204.289062 137.695312 204.480469 C 137.617188 204.667969 137.578125 204.867188 137.578125 205.070312 L 137.578125 262.421875 L 136.027344 262.421875 C 135.820312 262.421875 135.625 262.460938 135.433594 262.539062 C 135.246094 262.617188 135.078125 262.730469 134.929688 262.875 C 134.785156 263.019531 134.675781 263.1875 134.59375 263.378906 C 134.515625 263.570312 134.476562 263.765625 134.476562 263.972656 C 134.476562 264.175781 134.515625 264.375 134.59375 264.566406 C 134.675781 264.753906 134.785156 264.921875 134.929688 265.066406 C 135.078125 265.214844 135.246094 265.324219 135.433594 265.402344 C 135.625 265.484375 135.820312 265.523438 136.027344 265.523438 L 225.925781 265.523438 C 226.132812 265.523438 226.332031 265.484375 226.519531 265.402344 C 226.710938 265.324219 226.878906 265.214844 227.023438 265.066406 C 227.167969 264.921875 227.28125 264.753906 227.359375 264.566406 C 227.4375 264.375 227.476562 264.175781 227.476562 263.972656 C 227.476562 263.765625 227.4375 263.570312 227.359375 263.378906 C 227.28125 263.1875 227.167969 263.019531 227.023438 262.875 C 226.878906 262.730469 226.710938 262.617188 226.519531 262.539062 C 226.332031 262.460938 226.132812 262.421875 225.925781 262.421875 Z M 225.925781 262.421875 " fill-opacity="1" fill-rule="nonzero"/></g><g clip-path="url(#7fbab32d8b)"><path fill="#ffffff" d="M 119.714844 237.722656 L 247.625 237.722656 L 247.625 265.335938 L 119.714844 265.335938 Z M 119.714844 237.722656 " fill-opacity="1" fill-rule="nonzero"/></g><g clip-path="url(#9851af4fb9)"><path fill="#000000" d="M 137.769531 262.496094 L 139.320312 262.496094 L 139.320312 288.847656 C 139.320312 289.050781 139.359375 289.25 139.4375 289.441406 C 139.515625 289.628906 139.628906 289.796875 139.773438 289.941406 C 139.917969 290.089844 140.085938 290.199219 140.277344 290.277344 C 140.464844 290.359375 140.664062 290.398438 140.871094 290.398438 L 150.167969 290.398438 C 150.375 290.398438 150.574219 290.359375 150.761719 290.277344 C 150.953125 290.199219 151.121094 290.089844 151.265625 289.941406 C 151.410156 289.796875 151.523438 289.628906 151.601562 289.441406 C 151.679688 289.25 151.71875 289.050781 151.71875 288.847656 L 151.71875 262.496094 L 157.917969 262.496094 L 157.917969 350.847656 C 157.917969 351.050781 157.957031 351.25 158.039062 351.441406 C 158.117188 351.628906 158.226562 351.796875 158.375 351.941406 C 158.519531 352.089844 158.6875 352.199219 158.875 352.277344 C 159.066406 352.359375 159.265625 352.398438 159.46875 352.398438 L 168.769531 352.398438 C 168.976562 352.398438 169.171875 352.359375 169.363281 352.277344 C 169.550781 352.199219 169.71875 352.089844 169.867188 351.941406 C 170.011719 351.796875 170.121094 351.628906 170.203125 351.441406 C 170.28125 351.25 170.320312 351.050781 170.320312 350.847656 L 170.320312 262.496094 L 176.519531 262.496094 L 176.519531 333.796875 C 176.519531 334.003906 176.558594 334.199219 176.636719 334.390625 C 176.714844 334.582031 176.828125 334.746094 176.972656 334.894531 C 177.117188 335.039062 177.285156 335.152344 177.476562 335.230469 C 177.667969 335.308594 177.863281 335.347656 178.070312 335.347656 L 187.371094 335.347656 C 187.574219 335.347656 187.773438 335.308594 187.960938 335.230469 C 188.152344 335.152344 188.320312 335.039062 188.464844 334.894531 C 188.609375 334.746094 188.722656 334.582031 188.800781 334.390625 C 188.878906 334.199219 188.917969 334.003906 188.917969 333.796875 L 188.917969 262.496094 L 195.121094 262.496094 L 195.121094 304.347656 C 195.121094 304.550781 195.160156 304.75 195.238281 304.941406 C 195.316406 305.128906 195.429688 305.296875 195.574219 305.441406 C 195.71875 305.589844 195.886719 305.699219 196.078125 305.777344 C 196.265625 305.859375 196.464844 305.898438 196.667969 305.898438 L 205.96875 305.898438 C 206.175781 305.898438 206.371094 305.859375 206.5625 305.777344 C 206.753906 305.699219 206.921875 305.589844 207.066406 305.441406 C 207.210938 305.296875 207.324219 305.128906 207.402344 304.941406 C 207.480469 304.75 207.519531 304.550781 207.519531 304.347656 L 207.519531 262.496094 L 213.71875 262.496094 L 213.71875 319.847656 C 213.71875 320.050781 213.757812 320.25 213.835938 320.441406 C 213.917969 320.628906 214.027344 320.796875 214.171875 320.941406 C 214.320312 321.089844 214.488281 321.199219 214.675781 321.277344 C 214.867188 321.359375 215.0625 321.398438 215.269531 321.398438 L 224.570312 321.398438 C 224.773438 321.398438 224.972656 321.359375 225.164062 321.277344 C 225.351562 321.199219 225.519531 321.089844 225.664062 320.941406 C 225.8125 320.796875 225.921875 320.628906 226 320.441406 C 226.082031 320.25 226.121094 320.050781 226.121094 319.847656 L 226.121094 262.496094 L 227.667969 262.496094 C 227.875 262.496094 228.074219 262.457031 228.261719 262.378906 C 228.453125 262.300781 228.621094 262.1875 228.765625 262.042969 C 228.910156 261.898438 229.023438 261.730469 229.101562 261.539062 C 229.179688 261.351562 229.21875 261.152344 229.21875 260.945312 C 229.21875 260.742188 229.179688 260.542969 229.101562 260.355469 C 229.023438 260.164062 228.910156 259.996094 228.765625 259.851562 C 228.621094 259.707031 228.453125 259.59375 228.261719 259.515625 C 228.074219 259.4375 227.875 259.398438 227.667969 259.398438 L 137.769531 259.398438 C 137.5625 259.398438 137.367188 259.4375 137.175781 259.515625 C 136.988281 259.59375 136.820312 259.707031 136.671875 259.851562 C 136.527344 259.996094 136.417969 260.164062 136.335938 260.355469 C 136.257812 260.542969 136.21875 260.742188 136.21875 260.945312 C 136.21875 261.152344 136.257812 261.351562 136.335938 261.539062 C 136.417969 261.730469 136.527344 261.898438 136.671875 262.042969 C 136.820312 262.1875 136.988281 262.300781 137.175781 262.378906 C 137.367188 262.457031 137.5625 262.496094 137.769531 262.496094 Z M 137.769531 262.496094 " fill-opacity="1" fill-rule="nonzero"/></g><g clip-path="url(#f0b443c5ea)"><path fill="#ffffff" d="M 136.425781 255.148438 L 227.761719 255.148438 L 227.761719 286.875 L 136.425781 286.875 Z M 136.425781 255.148438 " fill-opacity="1" fill-rule="nonzero"/></g><g fill="#000000" fill-opacity="0.4"><g transform="translate(125.991618, 263.462043)"><g><path d="M 16.8125 -17.1875 C 17.457031 -17.1875 17.953125 -17.046875 18.296875 -16.765625 C 18.648438 -16.492188 18.828125 -16.117188 18.828125 -15.640625 C 18.828125 -15.390625 18.796875 -15.15625 18.734375 -14.9375 L 18.0625 -12.53125 C 17.9375 -12.082031 17.734375 -11.765625 17.453125 -11.578125 C 17.179688 -11.390625 16.820312 -11.296875 16.375 -11.296875 C 15.945312 -11.296875 15.601562 -11.382812 15.34375 -11.5625 C 15.09375 -11.75 14.90625 -12.046875 14.78125 -12.453125 L 14.375 -13.9375 C 14.300781 -14.1875 14.210938 -14.351562 14.109375 -14.4375 C 14.003906 -14.53125 13.789062 -14.578125 13.46875 -14.578125 L 10.890625 -14.578125 L 9.4375 -9.46875 L 9.9375 -9.46875 C 10.175781 -9.46875 10.382812 -9.5 10.5625 -9.5625 C 10.738281 -9.632812 10.929688 -9.765625 11.140625 -9.953125 L 11.9375 -10.625 C 12.226562 -10.882812 12.488281 -11.066406 12.71875 -11.171875 C 12.957031 -11.285156 13.207031 -11.34375 13.46875 -11.34375 C 13.789062 -11.34375 14.054688 -11.25 14.265625 -11.0625 C 14.484375 -10.875 14.59375 -10.609375 14.59375 -10.265625 C 14.59375 -10.128906 14.570312 -9.96875 14.53125 -9.78125 L 13.390625 -5.859375 C 13.128906 -5.015625 12.664062 -4.59375 12 -4.59375 C 11.445312 -4.59375 11.015625 -4.875 10.703125 -5.4375 L 10.234375 -6.3125 C 10.117188 -6.5625 10.007812 -6.71875 9.90625 -6.78125 C 9.800781 -6.851562 9.644531 -6.890625 9.4375 -6.890625 L 8.6875 -6.890625 L 7.609375 -3.046875 C 7.578125 -2.941406 7.5625 -2.800781 7.5625 -2.625 C 7.5625 -2.382812 7.613281 -2.1875 7.71875 -2.03125 C 7.832031 -1.882812 8.003906 -1.722656 8.234375 -1.546875 C 8.421875 -1.390625 8.546875 -1.265625 8.609375 -1.171875 C 8.679688 -1.078125 8.71875 -0.960938 8.71875 -0.828125 C 8.71875 -0.515625 8.578125 -0.296875 8.296875 -0.171875 C 8.023438 -0.0546875 7.625 0 7.09375 0 L 0.625 0 C 0.175781 0 -0.15625 -0.078125 -0.375 -0.234375 C -0.601562 -0.398438 -0.6875 -0.628906 -0.625 -0.921875 C -0.582031 -1.078125 -0.515625 -1.203125 -0.421875 -1.296875 C -0.328125 -1.390625 -0.1875 -1.5 0 -1.625 C 0.289062 -1.800781 0.519531 -1.984375 0.6875 -2.171875 C 0.863281 -2.359375 1.003906 -2.648438 1.109375 -3.046875 L 4.28125 -14.15625 C 4.351562 -14.382812 4.390625 -14.59375 4.390625 -14.78125 C 4.390625 -14.988281 4.359375 -15.160156 4.296875 -15.296875 C 4.234375 -15.429688 4.144531 -15.578125 4.03125 -15.734375 C 3.875 -15.960938 3.796875 -16.144531 3.796875 -16.28125 C 3.796875 -16.332031 3.8125 -16.425781 3.84375 -16.5625 C 3.914062 -16.78125 4.070312 -16.9375 4.3125 -17.03125 C 4.550781 -17.132812 4.898438 -17.1875 5.359375 -17.1875 Z M 16.8125 -17.1875 "/></g></g></g><g fill="#000000" fill-opacity="0.4"><g transform="translate(142.255578, 263.462043)"><g><path d="M 8.75 -13.78125 C 10.925781 -13.78125 12.503906 -13.429688 13.484375 -12.734375 C 14.472656 -12.035156 14.96875 -11.144531 14.96875 -10.0625 C 14.96875 -9.738281 14.929688 -9.4375 14.859375 -9.15625 C 14.597656 -8.019531 13.878906 -7.207031 12.703125 -6.71875 C 11.523438 -6.226562 10.132812 -5.984375 8.53125 -5.984375 C 7.726562 -5.984375 6.972656 -6.035156 6.265625 -6.140625 C 6.253906 -5.242188 6.492188 -4.613281 6.984375 -4.25 C 7.484375 -3.894531 8.179688 -3.71875 9.078125 -3.71875 C 9.492188 -3.71875 9.890625 -3.765625 10.265625 -3.859375 C 10.640625 -3.953125 11.125 -4.09375 11.71875 -4.28125 C 12.195312 -4.457031 12.519531 -4.546875 12.6875 -4.546875 C 12.875 -4.546875 12.96875 -4.429688 12.96875 -4.203125 C 12.988281 -3.597656 12.765625 -2.960938 12.296875 -2.296875 C 11.835938 -1.640625 11.148438 -1.078125 10.234375 -0.609375 C 9.328125 -0.148438 8.226562 0.078125 6.9375 0.078125 C 5.03125 0.078125 3.460938 -0.398438 2.234375 -1.359375 C 1.015625 -2.328125 0.40625 -3.734375 0.40625 -5.578125 C 0.40625 -6.085938 0.476562 -6.6875 0.625 -7.375 C 1.050781 -9.488281 1.988281 -11.082031 3.4375 -12.15625 C 4.894531 -13.238281 6.664062 -13.78125 8.75 -13.78125 Z M 6.453125 -7.6875 C 6.515625 -7.664062 6.609375 -7.65625 6.734375 -7.65625 C 7.453125 -7.65625 8 -7.988281 8.375 -8.65625 C 8.757812 -9.332031 8.941406 -10.082031 8.921875 -10.90625 C 8.910156 -11.394531 8.773438 -11.640625 8.515625 -11.640625 C 8.328125 -11.640625 8.101562 -11.488281 7.84375 -11.1875 C 7.582031 -10.882812 7.328125 -10.429688 7.078125 -9.828125 C 6.828125 -9.222656 6.617188 -8.507812 6.453125 -7.6875 Z M 6.453125 -7.6875 "/></g></g></g><g fill="#000000" fill-opacity="0.4"><g transform="translate(156.689512, 263.462043)"><g><path d="M 13.671875 -13.640625 C 14.429688 -13.640625 15.035156 -13.332031 15.484375 -12.71875 C 15.941406 -12.113281 16.171875 -11.285156 16.171875 -10.234375 C 16.171875 -9.328125 16.007812 -8.347656 15.6875 -7.296875 C 15.050781 -5.179688 14.03125 -3.1875 12.625 -1.3125 C 11.226562 0.5625 9.617188 2.066406 7.796875 3.203125 C 5.984375 4.335938 4.175781 4.90625 2.375 4.90625 C 1.476562 4.90625 0.707031 4.75 0.0625 4.4375 C -0.582031 4.125 -1.070312 3.707031 -1.40625 3.1875 C -1.738281 2.675781 -1.90625 2.128906 -1.90625 1.546875 C -1.90625 1.285156 -1.863281 1.003906 -1.78125 0.703125 C -1.625 0.210938 -1.363281 -0.15625 -1 -0.40625 C -0.644531 -0.664062 -0.21875 -0.796875 0.28125 -0.796875 C 1.070312 -0.796875 1.722656 -0.523438 2.234375 0.015625 C 2.742188 0.554688 3.066406 1.300781 3.203125 2.25 C 4.296875 2.195312 5.3125 1.722656 6.25 0.828125 C 5.363281 0.671875 4.707031 0.375 4.28125 -0.0625 C 3.863281 -0.5 3.582031 -1.179688 3.4375 -2.109375 L 2.40625 -8.4375 C 2.351562 -8.757812 2.273438 -8.984375 2.171875 -9.109375 C 2.078125 -9.242188 1.957031 -9.3125 1.8125 -9.3125 C 1.6875 -9.3125 1.539062 -9.25 1.375 -9.125 C 1.21875 -9.007812 1.101562 -8.953125 1.03125 -8.953125 C 0.894531 -8.953125 0.828125 -9.097656 0.828125 -9.390625 C 0.828125 -9.628906 0.867188 -9.882812 0.953125 -10.15625 C 1.265625 -11.144531 1.84375 -11.976562 2.6875 -12.65625 C 3.53125 -13.332031 4.507812 -13.671875 5.625 -13.671875 C 6.726562 -13.671875 7.539062 -13.34375 8.0625 -12.6875 C 8.582031 -12.039062 8.921875 -11.035156 9.078125 -9.671875 L 9.859375 -4 C 9.910156 -3.570312 10.0625 -3.359375 10.3125 -3.359375 C 10.625 -3.359375 10.984375 -3.632812 11.390625 -4.1875 C 11.804688 -4.75 12.210938 -5.546875 12.609375 -6.578125 C 12.097656 -7.046875 11.703125 -7.578125 11.421875 -8.171875 C 11.148438 -8.773438 11.015625 -9.421875 11.015625 -10.109375 C 11.015625 -10.640625 11.082031 -11.125 11.21875 -11.5625 C 11.425781 -12.25 11.75 -12.765625 12.1875 -13.109375 C 12.625 -13.460938 13.117188 -13.640625 13.671875 -13.640625 Z M 13.671875 -13.640625 "/></g></g></g><g fill="#000000" fill-opacity="0.4"><g transform="translate(172.669948, 263.462043)"><g><path d="M 6.78125 -13.640625 C 7.78125 -13.640625 8.507812 -13.453125 8.96875 -13.078125 C 9.4375 -12.703125 9.671875 -12.1875 9.671875 -11.53125 C 9.671875 -11.132812 9.613281 -10.753906 9.5 -10.390625 L 7.125 -2.6875 C 7.070312 -2.476562 7.046875 -2.296875 7.046875 -2.140625 C 7.046875 -1.921875 7.085938 -1.742188 7.171875 -1.609375 C 7.253906 -1.484375 7.375 -1.359375 7.53125 -1.234375 C 7.65625 -1.117188 7.742188 -1.019531 7.796875 -0.9375 C 7.847656 -0.863281 7.851562 -0.765625 7.8125 -0.640625 C 7.726562 -0.421875 7.554688 -0.257812 7.296875 -0.15625 C 7.046875 -0.0507812 6.648438 0 6.109375 0 L 0.234375 0 C -0.210938 0 -0.539062 -0.0703125 -0.75 -0.21875 C -0.957031 -0.363281 -1.023438 -0.554688 -0.953125 -0.796875 C -0.878906 -1.003906 -0.695312 -1.1875 -0.40625 -1.34375 C -0.15625 -1.476562 0.0507812 -1.640625 0.21875 -1.828125 C 0.394531 -2.015625 0.546875 -2.316406 0.671875 -2.734375 L 2.921875 -10.1875 C 2.972656 -10.34375 3 -10.472656 3 -10.578125 C 3 -10.765625 2.953125 -10.914062 2.859375 -11.03125 C 2.773438 -11.144531 2.648438 -11.257812 2.484375 -11.375 C 2.304688 -11.507812 2.179688 -11.628906 2.109375 -11.734375 C 2.046875 -11.835938 2.039062 -11.976562 2.09375 -12.15625 C 2.195312 -12.550781 2.738281 -12.894531 3.71875 -13.1875 C 4.695312 -13.488281 5.71875 -13.640625 6.78125 -13.640625 Z M 8.5 -19.34375 C 9.175781 -19.34375 9.738281 -19.125 10.1875 -18.6875 C 10.632812 -18.25 10.859375 -17.710938 10.859375 -17.078125 C 10.859375 -16.628906 10.738281 -16.1875 10.5 -15.75 C 10.269531 -15.320312 9.941406 -14.972656 9.515625 -14.703125 C 9.097656 -14.441406 8.632812 -14.3125 8.125 -14.3125 C 7.46875 -14.3125 6.921875 -14.53125 6.484375 -14.96875 C 6.046875 -15.414062 5.816406 -15.960938 5.796875 -16.609375 C 5.796875 -17.046875 5.90625 -17.472656 6.125 -17.890625 C 6.351562 -18.304688 6.671875 -18.648438 7.078125 -18.921875 C 7.492188 -19.203125 7.96875 -19.34375 8.5 -19.34375 Z M 8.5 -19.34375 "/></g></g></g><g fill="#000000" fill-opacity="0.4"><g transform="translate(182.103567, 263.462043)"><g><path d="M 11.53125 -13.3125 C 11.851562 -13.3125 12.101562 -13.242188 12.28125 -13.109375 C 12.46875 -12.972656 12.5625 -12.78125 12.5625 -12.53125 C 12.5625 -12.46875 12.546875 -12.347656 12.515625 -12.171875 C 12.285156 -11.421875 11.769531 -11.046875 10.96875 -11.046875 L 9.46875 -11.046875 L 7.53125 -4.671875 C 7.445312 -4.410156 7.40625 -4.144531 7.40625 -3.875 C 7.40625 -3.5625 7.488281 -3.34375 7.65625 -3.21875 C 7.832031 -3.101562 8.078125 -3.046875 8.390625 -3.046875 C 8.660156 -3.046875 9.003906 -3.078125 9.421875 -3.140625 C 9.617188 -3.191406 9.796875 -3.21875 9.953125 -3.21875 C 10.078125 -3.21875 10.164062 -3.179688 10.21875 -3.109375 C 10.28125 -3.035156 10.3125 -2.9375 10.3125 -2.8125 C 10.332031 -2.46875 10.078125 -2.050781 9.546875 -1.5625 C 9.023438 -1.070312 8.316406 -0.648438 7.421875 -0.296875 C 6.535156 0.0546875 5.550781 0.234375 4.46875 0.234375 C 3.289062 0.234375 2.347656 -0.03125 1.640625 -0.5625 C 0.941406 -1.101562 0.59375 -1.835938 0.59375 -2.765625 C 0.59375 -3.191406 0.660156 -3.601562 0.796875 -4 L 2.453125 -9.109375 C 2.535156 -9.398438 2.578125 -9.628906 2.578125 -9.796875 C 2.578125 -10.140625 2.492188 -10.429688 2.328125 -10.671875 C 2.171875 -10.921875 1.945312 -11.171875 1.65625 -11.421875 C 1.394531 -11.671875 1.210938 -11.875 1.109375 -12.03125 C 1.003906 -12.195312 0.976562 -12.390625 1.03125 -12.609375 C 1.101562 -12.835938 1.25 -13.007812 1.46875 -13.125 C 1.695312 -13.25 2.050781 -13.3125 2.53125 -13.3125 L 3.96875 -13.3125 L 5.59375 -14.9375 C 6.164062 -15.5 6.6875 -15.890625 7.15625 -16.109375 C 7.632812 -16.335938 8.25 -16.453125 9 -16.453125 C 10.082031 -16.453125 10.625 -16.039062 10.625 -15.21875 C 10.625 -14.957031 10.59375 -14.71875 10.53125 -14.5 L 10.15625 -13.3125 Z M 11.53125 -13.3125 "/></g></g></g><g fill="#000000" fill-opacity="0.4"><g transform="translate(193.186779, 263.462043)"><g><path d="M 6.78125 -13.640625 C 7.78125 -13.640625 8.507812 -13.453125 8.96875 -13.078125 C 9.4375 -12.703125 9.671875 -12.1875 9.671875 -11.53125 C 9.671875 -11.132812 9.613281 -10.753906 9.5 -10.390625 L 7.125 -2.6875 C 7.070312 -2.476562 7.046875 -2.296875 7.046875 -2.140625 C 7.046875 -1.921875 7.085938 -1.742188 7.171875 -1.609375 C 7.253906 -1.484375 7.375 -1.359375 7.53125 -1.234375 C 7.65625 -1.117188 7.742188 -1.019531 7.796875 -0.9375 C 7.847656 -0.863281 7.851562 -0.765625 7.8125 -0.640625 C 7.726562 -0.421875 7.554688 -0.257812 7.296875 -0.15625 C 7.046875 -0.0507812 6.648438 0 6.109375 0 L 0.234375 0 C -0.210938 0 -0.539062 -0.0703125 -0.75 -0.21875 C -0.957031 -0.363281 -1.023438 -0.554688 -0.953125 -0.796875 C -0.878906 -1.003906 -0.695312 -1.1875 -0.40625 -1.34375 C -0.15625 -1.476562 0.0507812 -1.640625 0.21875 -1.828125 C 0.394531 -2.015625 0.546875 -2.316406 0.671875 -2.734375 L 2.921875 -10.1875 C 2.972656 -10.34375 3 -10.472656 3 -10.578125 C 3 -10.765625 2.953125 -10.914062 2.859375 -11.03125 C 2.773438 -11.144531 2.648438 -11.257812 2.484375 -11.375 C 2.304688 -11.507812 2.179688 -11.628906 2.109375 -11.734375 C 2.046875 -11.835938 2.039062 -11.976562 2.09375 -12.15625 C 2.195312 -12.550781 2.738281 -12.894531 3.71875 -13.1875 C 4.695312 -13.488281 5.71875 -13.640625 6.78125 -13.640625 Z M 8.5 -19.34375 C 9.175781 -19.34375 9.738281 -19.125 10.1875 -18.6875 C 10.632812 -18.25 10.859375 -17.710938 10.859375 -17.078125 C 10.859375 -16.628906 10.738281 -16.1875 10.5 -15.75 C 10.269531 -15.320312 9.941406 -14.972656 9.515625 -14.703125 C 9.097656 -14.441406 8.632812 -14.3125 8.125 -14.3125 C 7.46875 -14.3125 6.921875 -14.53125 6.484375 -14.96875 C 6.046875 -15.414062 5.816406 -15.960938 5.796875 -16.609375 C 5.796875 -17.046875 5.90625 -17.472656 6.125 -17.890625 C 6.351562 -18.304688 6.671875 -18.648438 7.078125 -18.921875 C 7.492188 -19.203125 7.96875 -19.34375 8.5 -19.34375 Z M 8.5 -19.34375 "/></g></g></g><g fill="#000000" fill-opacity="0.4"><g transform="translate(202.620399, 263.462043)"><g><path d="M 24.53125 -3.5625 C 24.5 -3.488281 24.484375 -3.382812 24.484375 -3.25 C 24.484375 -3.125 24.507812 -3.023438 24.5625 -2.953125 C 24.625 -2.890625 24.707031 -2.859375 24.8125 -2.859375 C 25.019531 -2.859375 25.195312 -2.945312 25.34375 -3.125 C 25.488281 -3.3125 25.585938 -3.40625 25.640625 -3.40625 C 25.722656 -3.40625 25.789062 -3.347656 25.84375 -3.234375 C 25.894531 -3.117188 25.921875 -2.988281 25.921875 -2.84375 C 25.941406 -2.34375 25.78125 -1.851562 25.4375 -1.375 C 25.09375 -0.90625 24.585938 -0.519531 23.921875 -0.21875 C 23.265625 0.0820312 22.472656 0.234375 21.546875 0.234375 C 20.410156 0.234375 19.503906 -0.0234375 18.828125 -0.546875 C 18.160156 -1.078125 17.816406 -1.78125 17.796875 -2.65625 C 17.796875 -3.289062 17.953125 -4.003906 18.265625 -4.796875 L 19.6875 -8.515625 C 19.769531 -8.734375 19.8125 -8.914062 19.8125 -9.0625 C 19.8125 -9.28125 19.738281 -9.453125 19.59375 -9.578125 C 19.445312 -9.710938 19.269531 -9.78125 19.0625 -9.78125 C 18.769531 -9.78125 18.46875 -9.648438 18.15625 -9.390625 C 17.851562 -9.128906 17.578125 -8.722656 17.328125 -8.171875 L 15.921875 -3.5625 C 15.878906 -3.488281 15.859375 -3.382812 15.859375 -3.25 C 15.859375 -3.125 15.890625 -3.023438 15.953125 -2.953125 C 16.015625 -2.890625 16.097656 -2.859375 16.203125 -2.859375 C 16.410156 -2.859375 16.585938 -2.945312 16.734375 -3.125 C 16.878906 -3.3125 16.976562 -3.40625 17.03125 -3.40625 C 17.113281 -3.40625 17.179688 -3.347656 17.234375 -3.234375 C 17.285156 -3.117188 17.3125 -2.988281 17.3125 -2.84375 C 17.320312 -2.34375 17.15625 -1.851562 16.8125 -1.375 C 16.46875 -0.90625 15.960938 -0.519531 15.296875 -0.21875 C 14.640625 0.0820312 13.847656 0.234375 12.921875 0.234375 C 11.785156 0.234375 10.878906 -0.0234375 10.203125 -0.546875 C 9.535156 -1.078125 9.195312 -1.78125 9.1875 -2.65625 C 9.1875 -3.289062 9.335938 -4.003906 9.640625 -4.796875 L 11.0625 -8.515625 C 11.15625 -8.734375 11.203125 -8.914062 11.203125 -9.0625 C 11.203125 -9.28125 11.125 -9.453125 10.96875 -9.578125 C 10.820312 -9.710938 10.648438 -9.78125 10.453125 -9.78125 C 10.160156 -9.78125 9.859375 -9.65625 9.546875 -9.40625 C 9.234375 -9.15625 8.972656 -8.753906 8.765625 -8.203125 L 7.0625 -2.6875 C 7 -2.5 6.96875 -2.316406 6.96875 -2.140625 C 6.96875 -1.929688 7.007812 -1.757812 7.09375 -1.625 C 7.175781 -1.5 7.296875 -1.367188 7.453125 -1.234375 C 7.578125 -1.128906 7.664062 -1.035156 7.71875 -0.953125 C 7.769531 -0.867188 7.773438 -0.765625 7.734375 -0.640625 C 7.671875 -0.421875 7.507812 -0.257812 7.25 -0.15625 C 6.988281 -0.0507812 6.582031 0 6.03125 0 L 0.15625 0 C -0.289062 0 -0.613281 -0.0703125 -0.8125 -0.21875 C -1.007812 -0.363281 -1.082031 -0.554688 -1.03125 -0.796875 C -0.957031 -1.003906 -0.773438 -1.1875 -0.484375 -1.34375 C -0.234375 -1.476562 -0.0234375 -1.640625 0.140625 -1.828125 C 0.316406 -2.015625 0.46875 -2.316406 0.59375 -2.734375 L 2.890625 -10.1875 C 2.921875 -10.269531 2.9375 -10.390625 2.9375 -10.546875 C 2.9375 -10.734375 2.894531 -10.878906 2.8125 -10.984375 C 2.738281 -11.085938 2.617188 -11.21875 2.453125 -11.375 C 2.273438 -11.507812 2.148438 -11.628906 2.078125 -11.734375 C 2.015625 -11.835938 2.007812 -11.976562 2.0625 -12.15625 C 2.164062 -12.550781 2.707031 -12.894531 3.6875 -13.1875 C 4.664062 -13.488281 5.691406 -13.640625 6.765625 -13.640625 C 7.597656 -13.640625 8.257812 -13.40625 8.75 -12.9375 C 9.25 -12.476562 9.488281 -11.847656 9.46875 -11.046875 C 10.175781 -12.023438 10.921875 -12.703125 11.703125 -13.078125 C 12.484375 -13.453125 13.328125 -13.640625 14.234375 -13.640625 C 15.234375 -13.640625 16.046875 -13.351562 16.671875 -12.78125 C 17.304688 -12.207031 17.65625 -11.457031 17.71875 -10.53125 C 18.457031 -11.695312 19.25 -12.503906 20.09375 -12.953125 C 20.9375 -13.410156 21.859375 -13.640625 22.859375 -13.640625 C 23.898438 -13.640625 24.742188 -13.320312 25.390625 -12.6875 C 26.035156 -12.050781 26.359375 -11.226562 26.359375 -10.21875 C 26.359375 -9.6875 26.273438 -9.160156 26.109375 -8.640625 Z M 24.53125 -3.5625 "/></g></g></g><g fill="#000000" fill-opacity="0.4"><g transform="translate(229.632492, 263.462043)"><g><path d="M 6.78125 -13.640625 C 7.78125 -13.640625 8.507812 -13.453125 8.96875 -13.078125 C 9.4375 -12.703125 9.671875 -12.1875 9.671875 -11.53125 C 9.671875 -11.132812 9.613281 -10.753906 9.5 -10.390625 L 7.125 -2.6875 C 7.070312 -2.476562 7.046875 -2.296875 7.046875 -2.140625 C 7.046875 -1.921875 7.085938 -1.742188 7.171875 -1.609375 C 7.253906 -1.484375 7.375 -1.359375 7.53125 -1.234375 C 7.65625 -1.117188 7.742188 -1.019531 7.796875 -0.9375 C 7.847656 -0.863281 7.851562 -0.765625 7.8125 -0.640625 C 7.726562 -0.421875 7.554688 -0.257812 7.296875 -0.15625 C 7.046875 -0.0507812 6.648438 0 6.109375 0 L 0.234375 0 C -0.210938 0 -0.539062 -0.0703125 -0.75 -0.21875 C -0.957031 -0.363281 -1.023438 -0.554688 -0.953125 -0.796875 C -0.878906 -1.003906 -0.695312 -1.1875 -0.40625 -1.34375 C -0.15625 -1.476562 0.0507812 -1.640625 0.21875 -1.828125 C 0.394531 -2.015625 0.546875 -2.316406 0.671875 -2.734375 L 2.921875 -10.1875 C 2.972656 -10.34375 3 -10.472656 3 -10.578125 C 3 -10.765625 2.953125 -10.914062 2.859375 -11.03125 C 2.773438 -11.144531 2.648438 -11.257812 2.484375 -11.375 C 2.304688 -11.507812 2.179688 -11.628906 2.109375 -11.734375 C 2.046875 -11.835938 2.039062 -11.976562 2.09375 -12.15625 C 2.195312 -12.550781 2.738281 -12.894531 3.71875 -13.1875 C 4.695312 -13.488281 5.71875 -13.640625 6.78125 -13.640625 Z M 8.5 -19.34375 C 9.175781 -19.34375 9.738281 -19.125 10.1875 -18.6875 C 10.632812 -18.25 10.859375 -17.710938 10.859375 -17.078125 C 10.859375 -16.628906 10.738281 -16.1875 10.5 -15.75 C 10.269531 -15.320312 9.941406 -14.972656 9.515625 -14.703125 C 9.097656 -14.441406 8.632812 -14.3125 8.125 -14.3125 C 7.46875 -14.3125 6.921875 -14.53125 6.484375 -14.96875 C 6.046875 -15.414062 5.816406 -15.960938 5.796875 -16.609375 C 5.796875 -17.046875 5.90625 -17.472656 6.125 -17.890625 C 6.351562 -18.304688 6.671875 -18.648438 7.078125 -18.921875 C 7.492188 -19.203125 7.96875 -19.34375 8.5 -19.34375 Z M 8.5 -19.34375 "/></g></g></g><g fill="#000000" fill-opacity="1"><g transform="translate(124.85169, 262.322118)"><g><path d="M 16.8125 -17.1875 C 17.457031 -17.1875 17.953125 -17.046875 18.296875 -16.765625 C 18.648438 -16.492188 18.828125 -16.117188 18.828125 -15.640625 C 18.828125 -15.390625 18.796875 -15.15625 18.734375 -14.9375 L 18.0625 -12.53125 C 17.9375 -12.082031 17.734375 -11.765625 17.453125 -11.578125 C 17.179688 -11.390625 16.820312 -11.296875 16.375 -11.296875 C 15.945312 -11.296875 15.601562 -11.382812 15.34375 -11.5625 C 15.09375 -11.75 14.90625 -12.046875 14.78125 -12.453125 L 14.375 -13.9375 C 14.300781 -14.1875 14.210938 -14.351562 14.109375 -14.4375 C 14.003906 -14.53125 13.789062 -14.578125 13.46875 -14.578125 L 10.890625 -14.578125 L 9.4375 -9.46875 L 9.9375 -9.46875 C 10.175781 -9.46875 10.382812 -9.5 10.5625 -9.5625 C 10.738281 -9.632812 10.929688 -9.765625 11.140625 -9.953125 L 11.9375 -10.625 C 12.226562 -10.882812 12.488281 -11.066406 12.71875 -11.171875 C 12.957031 -11.285156 13.207031 -11.34375 13.46875 -11.34375 C 13.789062 -11.34375 14.054688 -11.25 14.265625 -11.0625 C 14.484375 -10.875 14.59375 -10.609375 14.59375 -10.265625 C 14.59375 -10.128906 14.570312 -9.96875 14.53125 -9.78125 L 13.390625 -5.859375 C 13.128906 -5.015625 12.664062 -4.59375 12 -4.59375 C 11.445312 -4.59375 11.015625 -4.875 10.703125 -5.4375 L 10.234375 -6.3125 C 10.117188 -6.5625 10.007812 -6.71875 9.90625 -6.78125 C 9.800781 -6.851562 9.644531 -6.890625 9.4375 -6.890625 L 8.6875 -6.890625 L 7.609375 -3.046875 C 7.578125 -2.941406 7.5625 -2.800781 7.5625 -2.625 C 7.5625 -2.382812 7.613281 -2.1875 7.71875 -2.03125 C 7.832031 -1.882812 8.003906 -1.722656 8.234375 -1.546875 C 8.421875 -1.390625 8.546875 -1.265625 8.609375 -1.171875 C 8.679688 -1.078125 8.71875 -0.960938 8.71875 -0.828125 C 8.71875 -0.515625 8.578125 -0.296875 8.296875 -0.171875 C 8.023438 -0.0546875 7.625 0 7.09375 0 L 0.625 0 C 0.175781 0 -0.15625 -0.078125 -0.375 -0.234375 C -0.601562 -0.398438 -0.6875 -0.628906 -0.625 -0.921875 C -0.582031 -1.078125 -0.515625 -1.203125 -0.421875 -1.296875 C -0.328125 -1.390625 -0.1875 -1.5 0 -1.625 C 0.289062 -1.800781 0.519531 -1.984375 0.6875 -2.171875 C 0.863281 -2.359375 1.003906 -2.648438 1.109375 -3.046875 L 4.28125 -14.15625 C 4.351562 -14.382812 4.390625 -14.59375 4.390625 -14.78125 C 4.390625 -14.988281 4.359375 -15.160156 4.296875 -15.296875 C 4.234375 -15.429688 4.144531 -15.578125 4.03125 -15.734375 C 3.875 -15.960938 3.796875 -16.144531 3.796875 -16.28125 C 3.796875 -16.332031 3.8125 -16.425781 3.84375 -16.5625 C 3.914062 -16.78125 4.070312 -16.9375 4.3125 -17.03125 C 4.550781 -17.132812 4.898438 -17.1875 5.359375 -17.1875 Z M 16.8125 -17.1875 "/></g></g></g><g fill="#000000" fill-opacity="1"><g transform="translate(141.11565, 262.322118)"><g><path d="M 8.75 -13.78125 C 10.925781 -13.78125 12.503906 -13.429688 13.484375 -12.734375 C 14.472656 -12.035156 14.96875 -11.144531 14.96875 -10.0625 C 14.96875 -9.738281 14.929688 -9.4375 14.859375 -9.15625 C 14.597656 -8.019531 13.878906 -7.207031 12.703125 -6.71875 C 11.523438 -6.226562 10.132812 -5.984375 8.53125 -5.984375 C 7.726562 -5.984375 6.972656 -6.035156 6.265625 -6.140625 C 6.253906 -5.242188 6.492188 -4.613281 6.984375 -4.25 C 7.484375 -3.894531 8.179688 -3.71875 9.078125 -3.71875 C 9.492188 -3.71875 9.890625 -3.765625 10.265625 -3.859375 C 10.640625 -3.953125 11.125 -4.09375 11.71875 -4.28125 C 12.195312 -4.457031 12.519531 -4.546875 12.6875 -4.546875 C 12.875 -4.546875 12.96875 -4.429688 12.96875 -4.203125 C 12.988281 -3.597656 12.765625 -2.960938 12.296875 -2.296875 C 11.835938 -1.640625 11.148438 -1.078125 10.234375 -0.609375 C 9.328125 -0.148438 8.226562 0.078125 6.9375 0.078125 C 5.03125 0.078125 3.460938 -0.398438 2.234375 -1.359375 C 1.015625 -2.328125 0.40625 -3.734375 0.40625 -5.578125 C 0.40625 -6.085938 0.476562 -6.6875 0.625 -7.375 C 1.050781 -9.488281 1.988281 -11.082031 3.4375 -12.15625 C 4.894531 -13.238281 6.664062 -13.78125 8.75 -13.78125 Z M 6.453125 -7.6875 C 6.515625 -7.664062 6.609375 -7.65625 6.734375 -7.65625 C 7.453125 -7.65625 8 -7.988281 8.375 -8.65625 C 8.757812 -9.332031 8.941406 -10.082031 8.921875 -10.90625 C 8.910156 -11.394531 8.773438 -11.640625 8.515625 -11.640625 C 8.328125 -11.640625 8.101562 -11.488281 7.84375 -11.1875 C 7.582031 -10.882812 7.328125 -10.429688 7.078125 -9.828125 C 6.828125 -9.222656 6.617188 -8.507812 6.453125 -7.6875 Z M 6.453125 -7.6875 "/></g></g></g><g fill="#000000" fill-opacity="1"><g transform="translate(155.549584, 262.322118)"><g><path d="M 13.671875 -13.640625 C 14.429688 -13.640625 15.035156 -13.332031 15.484375 -12.71875 C 15.941406 -12.113281 16.171875 -11.285156 16.171875 -10.234375 C 16.171875 -9.328125 16.007812 -8.347656 15.6875 -7.296875 C 15.050781 -5.179688 14.03125 -3.1875 12.625 -1.3125 C 11.226562 0.5625 9.617188 2.066406 7.796875 3.203125 C 5.984375 4.335938 4.175781 4.90625 2.375 4.90625 C 1.476562 4.90625 0.707031 4.75 0.0625 4.4375 C -0.582031 4.125 -1.070312 3.707031 -1.40625 3.1875 C -1.738281 2.675781 -1.90625 2.128906 -1.90625 1.546875 C -1.90625 1.285156 -1.863281 1.003906 -1.78125 0.703125 C -1.625 0.210938 -1.363281 -0.15625 -1 -0.40625 C -0.644531 -0.664062 -0.21875 -0.796875 0.28125 -0.796875 C 1.070312 -0.796875 1.722656 -0.523438 2.234375 0.015625 C 2.742188 0.554688 3.066406 1.300781 3.203125 2.25 C 4.296875 2.195312 5.3125 1.722656 6.25 0.828125 C 5.363281 0.671875 4.707031 0.375 4.28125 -0.0625 C 3.863281 -0.5 3.582031 -1.179688 3.4375 -2.109375 L 2.40625 -8.4375 C 2.351562 -8.757812 2.273438 -8.984375 2.171875 -9.109375 C 2.078125 -9.242188 1.957031 -9.3125 1.8125 -9.3125 C 1.6875 -9.3125 1.539062 -9.25 1.375 -9.125 C 1.21875 -9.007812 1.101562 -8.953125 1.03125 -8.953125 C 0.894531 -8.953125 0.828125 -9.097656 0.828125 -9.390625 C 0.828125 -9.628906 0.867188 -9.882812 0.953125 -10.15625 C 1.265625 -11.144531 1.84375 -11.976562 2.6875 -12.65625 C 3.53125 -13.332031 4.507812 -13.671875 5.625 -13.671875 C 6.726562 -13.671875 7.539062 -13.34375 8.0625 -12.6875 C 8.582031 -12.039062 8.921875 -11.035156 9.078125 -9.671875 L 9.859375 -4 C 9.910156 -3.570312 10.0625 -3.359375 10.3125 -3.359375 C 10.625 -3.359375 10.984375 -3.632812 11.390625 -4.1875 C 11.804688 -4.75 12.210938 -5.546875 12.609375 -6.578125 C 12.097656 -7.046875 11.703125 -7.578125 11.421875 -8.171875 C 11.148438 -8.773438 11.015625 -9.421875 11.015625 -10.109375 C 11.015625 -10.640625 11.082031 -11.125 11.21875 -11.5625 C 11.425781 -12.25 11.75 -12.765625 12.1875 -13.109375 C 12.625 -13.460938 13.117188 -13.640625 13.671875 -13.640625 Z M 13.671875 -13.640625 "/></g></g></g><g fill="#000000" fill-opacity="1"><g transform="translate(171.53002, 262.322118)"><g><path d="M 6.78125 -13.640625 C 7.78125 -13.640625 8.507812 -13.453125 8.96875 -13.078125 C 9.4375 -12.703125 9.671875 -12.1875 9.671875 -11.53125 C 9.671875 -11.132812 9.613281 -10.753906 9.5 -10.390625 L 7.125 -2.6875 C 7.070312 -2.476562 7.046875 -2.296875 7.046875 -2.140625 C 7.046875 -1.921875 7.085938 -1.742188 7.171875 -1.609375 C 7.253906 -1.484375 7.375 -1.359375 7.53125 -1.234375 C 7.65625 -1.117188 7.742188 -1.019531 7.796875 -0.9375 C 7.847656 -0.863281 7.851562 -0.765625 7.8125 -0.640625 C 7.726562 -0.421875 7.554688 -0.257812 7.296875 -0.15625 C 7.046875 -0.0507812 6.648438 0 6.109375 0 L 0.234375 0 C -0.210938 0 -0.539062 -0.0703125 -0.75 -0.21875 C -0.957031 -0.363281 -1.023438 -0.554688 -0.953125 -0.796875 C -0.878906 -1.003906 -0.695312 -1.1875 -0.40625 -1.34375 C -0.15625 -1.476562 0.0507812 -1.640625 0.21875 -1.828125 C 0.394531 -2.015625 0.546875 -2.316406 0.671875 -2.734375 L 2.921875 -10.1875 C 2.972656 -10.34375 3 -10.472656 3 -10.578125 C 3 -10.765625 2.953125 -10.914062 2.859375 -11.03125 C 2.773438 -11.144531 2.648438 -11.257812 2.484375 -11.375 C 2.304688 -11.507812 2.179688 -11.628906 2.109375 -11.734375 C 2.046875 -11.835938 2.039062 -11.976562 2.09375 -12.15625 C 2.195312 -12.550781 2.738281 -12.894531 3.71875 -13.1875 C 4.695312 -13.488281 5.71875 -13.640625 6.78125 -13.640625 Z M 8.5 -19.34375 C 9.175781 -19.34375 9.738281 -19.125 10.1875 -18.6875 C 10.632812 -18.25 10.859375 -17.710938 10.859375 -17.078125 C 10.859375 -16.628906 10.738281 -16.1875 10.5 -15.75 C 10.269531 -15.320312 9.941406 -14.972656 9.515625 -14.703125 C 9.097656 -14.441406 8.632812 -14.3125 8.125 -14.3125 C 7.46875 -14.3125 6.921875 -14.53125 6.484375 -14.96875 C 6.046875 -15.414062 5.816406 -15.960938 5.796875 -16.609375 C 5.796875 -17.046875 5.90625 -17.472656 6.125 -17.890625 C 6.351562 -18.304688 6.671875 -18.648438 7.078125 -18.921875 C 7.492188 -19.203125 7.96875 -19.34375 8.5 -19.34375 Z M 8.5 -19.34375 "/></g></g></g><g fill="#000000" fill-opacity="1"><g transform="translate(180.963639, 262.322118)"><g><path d="M 11.53125 -13.3125 C 11.851562 -13.3125 12.101562 -13.242188 12.28125 -13.109375 C 12.46875 -12.972656 12.5625 -12.78125 12.5625 -12.53125 C 12.5625 -12.46875 12.546875 -12.347656 12.515625 -12.171875 C 12.285156 -11.421875 11.769531 -11.046875 10.96875 -11.046875 L 9.46875 -11.046875 L 7.53125 -4.671875 C 7.445312 -4.410156 7.40625 -4.144531 7.40625 -3.875 C 7.40625 -3.5625 7.488281 -3.34375 7.65625 -3.21875 C 7.832031 -3.101562 8.078125 -3.046875 8.390625 -3.046875 C 8.660156 -3.046875 9.003906 -3.078125 9.421875 -3.140625 C 9.617188 -3.191406 9.796875 -3.21875 9.953125 -3.21875 C 10.078125 -3.21875 10.164062 -3.179688 10.21875 -3.109375 C 10.28125 -3.035156 10.3125 -2.9375 10.3125 -2.8125 C 10.332031 -2.46875 10.078125 -2.050781 9.546875 -1.5625 C 9.023438 -1.070312 8.316406 -0.648438 7.421875 -0.296875 C 6.535156 0.0546875 5.550781 0.234375 4.46875 0.234375 C 3.289062 0.234375 2.347656 -0.03125 1.640625 -0.5625 C 0.941406 -1.101562 0.59375 -1.835938 0.59375 -2.765625 C 0.59375 -3.191406 0.660156 -3.601562 0.796875 -4 L 2.453125 -9.109375 C 2.535156 -9.398438 2.578125 -9.628906 2.578125 -9.796875 C 2.578125 -10.140625 2.492188 -10.429688 2.328125 -10.671875 C 2.171875 -10.921875 1.945312 -11.171875 1.65625 -11.421875 C 1.394531 -11.671875 1.210938 -11.875 1.109375 -12.03125 C 1.003906 -12.195312 0.976562 -12.390625 1.03125 -12.609375 C 1.101562 -12.835938 1.25 -13.007812 1.46875 -13.125 C 1.695312 -13.25 2.050781 -13.3125 2.53125 -13.3125 L 3.96875 -13.3125 L 5.59375 -14.9375 C 6.164062 -15.5 6.6875 -15.890625 7.15625 -16.109375 C 7.632812 -16.335938 8.25 -16.453125 9 -16.453125 C 10.082031 -16.453125 10.625 -16.039062 10.625 -15.21875 C 10.625 -14.957031 10.59375 -14.71875 10.53125 -14.5 L 10.15625 -13.3125 Z M 11.53125 -13.3125 "/></g></g></g><g fill="#000000" fill-opacity="1"><g transform="translate(192.046852, 262.322118)"><g><path d="M 6.78125 -13.640625 C 7.78125 -13.640625 8.507812 -13.453125 8.96875 -13.078125 C 9.4375 -12.703125 9.671875 -12.1875 9.671875 -11.53125 C 9.671875 -11.132812 9.613281 -10.753906 9.5 -10.390625 L 7.125 -2.6875 C 7.070312 -2.476562 7.046875 -2.296875 7.046875 -2.140625 C 7.046875 -1.921875 7.085938 -1.742188 7.171875 -1.609375 C 7.253906 -1.484375 7.375 -1.359375 7.53125 -1.234375 C 7.65625 -1.117188 7.742188 -1.019531 7.796875 -0.9375 C 7.847656 -0.863281 7.851562 -0.765625 7.8125 -0.640625 C 7.726562 -0.421875 7.554688 -0.257812 7.296875 -0.15625 C 7.046875 -0.0507812 6.648438 0 6.109375 0 L 0.234375 0 C -0.210938 0 -0.539062 -0.0703125 -0.75 -0.21875 C -0.957031 -0.363281 -1.023438 -0.554688 -0.953125 -0.796875 C -0.878906 -1.003906 -0.695312 -1.1875 -0.40625 -1.34375 C -0.15625 -1.476562 0.0507812 -1.640625 0.21875 -1.828125 C 0.394531 -2.015625 0.546875 -2.316406 0.671875 -2.734375 L 2.921875 -10.1875 C 2.972656 -10.34375 3 -10.472656 3 -10.578125 C 3 -10.765625 2.953125 -10.914062 2.859375 -11.03125 C 2.773438 -11.144531 2.648438 -11.257812 2.484375 -11.375 C 2.304688 -11.507812 2.179688 -11.628906 2.109375 -11.734375 C 2.046875 -11.835938 2.039062 -11.976562 2.09375 -12.15625 C 2.195312 -12.550781 2.738281 -12.894531 3.71875 -13.1875 C 4.695312 -13.488281 5.71875 -13.640625 6.78125 -13.640625 Z M 8.5 -19.34375 C 9.175781 -19.34375 9.738281 -19.125 10.1875 -18.6875 C 10.632812 -18.25 10.859375 -17.710938 10.859375 -17.078125 C 10.859375 -16.628906 10.738281 -16.1875 10.5 -15.75 C 10.269531 -15.320312 9.941406 -14.972656 9.515625 -14.703125 C 9.097656 -14.441406 8.632812 -14.3125 8.125 -14.3125 C 7.46875 -14.3125 6.921875 -14.53125 6.484375 -14.96875 C 6.046875 -15.414062 5.816406 -15.960938 5.796875 -16.609375 C 5.796875 -17.046875 5.90625 -17.472656 6.125 -17.890625 C 6.351562 -18.304688 6.671875 -18.648438 7.078125 -18.921875 C 7.492188 -19.203125 7.96875 -19.34375 8.5 -19.34375 Z M 8.5 -19.34375 "/></g></g></g><g fill="#000000" fill-opacity="1"><g transform="translate(201.480471, 262.322118)"><g><path d="M 24.53125 -3.5625 C 24.5 -3.488281 24.484375 -3.382812 24.484375 -3.25 C 24.484375 -3.125 24.507812 -3.023438 24.5625 -2.953125 C 24.625 -2.890625 24.707031 -2.859375 24.8125 -2.859375 C 25.019531 -2.859375 25.195312 -2.945312 25.34375 -3.125 C 25.488281 -3.3125 25.585938 -3.40625 25.640625 -3.40625 C 25.722656 -3.40625 25.789062 -3.347656 25.84375 -3.234375 C 25.894531 -3.117188 25.921875 -2.988281 25.921875 -2.84375 C 25.941406 -2.34375 25.78125 -1.851562 25.4375 -1.375 C 25.09375 -0.90625 24.585938 -0.519531 23.921875 -0.21875 C 23.265625 0.0820312 22.472656 0.234375 21.546875 0.234375 C 20.410156 0.234375 19.503906 -0.0234375 18.828125 -0.546875 C 18.160156 -1.078125 17.816406 -1.78125 17.796875 -2.65625 C 17.796875 -3.289062 17.953125 -4.003906 18.265625 -4.796875 L 19.6875 -8.515625 C 19.769531 -8.734375 19.8125 -8.914062 19.8125 -9.0625 C 19.8125 -9.28125 19.738281 -9.453125 19.59375 -9.578125 C 19.445312 -9.710938 19.269531 -9.78125 19.0625 -9.78125 C 18.769531 -9.78125 18.46875 -9.648438 18.15625 -9.390625 C 17.851562 -9.128906 17.578125 -8.722656 17.328125 -8.171875 L 15.921875 -3.5625 C 15.878906 -3.488281 15.859375 -3.382812 15.859375 -3.25 C 15.859375 -3.125 15.890625 -3.023438 15.953125 -2.953125 C 16.015625 -2.890625 16.097656 -2.859375 16.203125 -2.859375 C 16.410156 -2.859375 16.585938 -2.945312 16.734375 -3.125 C 16.878906 -3.3125 16.976562 -3.40625 17.03125 -3.40625 C 17.113281 -3.40625 17.179688 -3.347656 17.234375 -3.234375 C 17.285156 -3.117188 17.3125 -2.988281 17.3125 -2.84375 C 17.320312 -2.34375 17.15625 -1.851562 16.8125 -1.375 C 16.46875 -0.90625 15.960938 -0.519531 15.296875 -0.21875 C 14.640625 0.0820312 13.847656 0.234375 12.921875 0.234375 C 11.785156 0.234375 10.878906 -0.0234375 10.203125 -0.546875 C 9.535156 -1.078125 9.195312 -1.78125 9.1875 -2.65625 C 9.1875 -3.289062 9.335938 -4.003906 9.640625 -4.796875 L 11.0625 -8.515625 C 11.15625 -8.734375 11.203125 -8.914062 11.203125 -9.0625 C 11.203125 -9.28125 11.125 -9.453125 10.96875 -9.578125 C 10.820312 -9.710938 10.648438 -9.78125 10.453125 -9.78125 C 10.160156 -9.78125 9.859375 -9.65625 9.546875 -9.40625 C 9.234375 -9.15625 8.972656 -8.753906 8.765625 -8.203125 L 7.0625 -2.6875 C 7 -2.5 6.96875 -2.316406 6.96875 -2.140625 C 6.96875 -1.929688 7.007812 -1.757812 7.09375 -1.625 C 7.175781 -1.5 7.296875 -1.367188 7.453125 -1.234375 C 7.578125 -1.128906 7.664062 -1.035156 7.71875 -0.953125 C 7.769531 -0.867188 7.773438 -0.765625 7.734375 -0.640625 C 7.671875 -0.421875 7.507812 -0.257812 7.25 -0.15625 C 6.988281 -0.0507812 6.582031 0 6.03125 0 L 0.15625 0 C -0.289062 0 -0.613281 -0.0703125 -0.8125 -0.21875 C -1.007812 -0.363281 -1.082031 -0.554688 -1.03125 -0.796875 C -0.957031 -1.003906 -0.773438 -1.1875 -0.484375 -1.34375 C -0.234375 -1.476562 -0.0234375 -1.640625 0.140625 -1.828125 C 0.316406 -2.015625 0.46875 -2.316406 0.59375 -2.734375 L 2.890625 -10.1875 C 2.921875 -10.269531 2.9375 -10.390625 2.9375 -10.546875 C 2.9375 -10.734375 2.894531 -10.878906 2.8125 -10.984375 C 2.738281 -11.085938 2.617188 -11.21875 2.453125 -11.375 C 2.273438 -11.507812 2.148438 -11.628906 2.078125 -11.734375 C 2.015625 -11.835938 2.007812 -11.976562 2.0625 -12.15625 C 2.164062 -12.550781 2.707031 -12.894531 3.6875 -13.1875 C 4.664062 -13.488281 5.691406 -13.640625 6.765625 -13.640625 C 7.597656 -13.640625 8.257812 -13.40625 8.75 -12.9375 C 9.25 -12.476562 9.488281 -11.847656 9.46875 -11.046875 C 10.175781 -12.023438 10.921875 -12.703125 11.703125 -13.078125 C 12.484375 -13.453125 13.328125 -13.640625 14.234375 -13.640625 C 15.234375 -13.640625 16.046875 -13.351562 16.671875 -12.78125 C 17.304688 -12.207031 17.65625 -11.457031 17.71875 -10.53125 C 18.457031 -11.695312 19.25 -12.503906 20.09375 -12.953125 C 20.9375 -13.410156 21.859375 -13.640625 22.859375 -13.640625 C 23.898438 -13.640625 24.742188 -13.320312 25.390625 -12.6875 C 26.035156 -12.050781 26.359375 -11.226562 26.359375 -10.21875 C 26.359375 -9.6875 26.273438 -9.160156 26.109375 -8.640625 Z M 24.53125 -3.5625 "/></g></g></g><g fill="#000000" fill-opacity="1"><g transform="translate(228.492564, 262.322118)"><g><path d="M 6.78125 -13.640625 C 7.78125 -13.640625 8.507812 -13.453125 8.96875 -13.078125 C 9.4375 -12.703125 9.671875 -12.1875 9.671875 -11.53125 C 9.671875 -11.132812 9.613281 -10.753906 9.5 -10.390625 L 7.125 -2.6875 C 7.070312 -2.476562 7.046875 -2.296875 7.046875 -2.140625 C 7.046875 -1.921875 7.085938 -1.742188 7.171875 -1.609375 C 7.253906 -1.484375 7.375 -1.359375 7.53125 -1.234375 C 7.65625 -1.117188 7.742188 -1.019531 7.796875 -0.9375 C 7.847656 -0.863281 7.851562 -0.765625 7.8125 -0.640625 C 7.726562 -0.421875 7.554688 -0.257812 7.296875 -0.15625 C 7.046875 -0.0507812 6.648438 0 6.109375 0 L 0.234375 0 C -0.210938 0 -0.539062 -0.0703125 -0.75 -0.21875 C -0.957031 -0.363281 -1.023438 -0.554688 -0.953125 -0.796875 C -0.878906 -1.003906 -0.695312 -1.1875 -0.40625 -1.34375 C -0.15625 -1.476562 0.0507812 -1.640625 0.21875 -1.828125 C 0.394531 -2.015625 0.546875 -2.316406 0.671875 -2.734375 L 2.921875 -10.1875 C 2.972656 -10.34375 3 -10.472656 3 -10.578125 C 3 -10.765625 2.953125 -10.914062 2.859375 -11.03125 C 2.773438 -11.144531 2.648438 -11.257812 2.484375 -11.375 C 2.304688 -11.507812 2.179688 -11.628906 2.109375 -11.734375 C 2.046875 -11.835938 2.039062 -11.976562 2.09375 -12.15625 C 2.195312 -12.550781 2.738281 -12.894531 3.71875 -13.1875 C 4.695312 -13.488281 5.71875 -13.640625 6.78125 -13.640625 Z M 8.5 -19.34375 C 9.175781 -19.34375 9.738281 -19.125 10.1875 -18.6875 C 10.632812 -18.25 10.859375 -17.710938 10.859375 -17.078125 C 10.859375 -16.628906 10.738281 -16.1875 10.5 -15.75 C 10.269531 -15.320312 9.941406 -14.972656 9.515625 -14.703125 C 9.097656 -14.441406 8.632812 -14.3125 8.125 -14.3125 C 7.46875 -14.3125 6.921875 -14.53125 6.484375 -14.96875 C 6.046875 -15.414062 5.816406 -15.960938 5.796875 -16.609375 C 5.796875 -17.046875 5.90625 -17.472656 6.125 -17.890625 C 6.351562 -18.304688 6.671875 -18.648438 7.078125 -18.921875 C 7.492188 -19.203125 7.96875 -19.34375 8.5 -19.34375 Z M 8.5 -19.34375 "/></g></g></g><g fill="#000000" fill-opacity="0.4"><g transform="translate(123.871345, 280.126578)"><g><path d="M 15.703125 -3.03125 C 15.640625 -2.8125 15.609375 -2.585938 15.609375 -2.359375 C 15.609375 -2.171875 15.628906 -2.015625 15.671875 -1.890625 C 15.722656 -1.765625 15.78125 -1.660156 15.84375 -1.578125 C 15.90625 -1.503906 15.945312 -1.445312 15.96875 -1.40625 C 16.132812 -1.238281 16.21875 -1.070312 16.21875 -0.90625 C 16.21875 -0.863281 16.203125 -0.773438 16.171875 -0.640625 C 16.097656 -0.398438 15.945312 -0.234375 15.71875 -0.140625 C 15.488281 -0.046875 15.132812 0 14.65625 0 L 8.5625 0 C 8.195312 0 7.914062 -0.0546875 7.71875 -0.171875 C 7.519531 -0.296875 7.421875 -0.460938 7.421875 -0.671875 C 7.421875 -0.773438 7.445312 -0.882812 7.5 -1 C 7.550781 -1.132812 7.625 -1.238281 7.71875 -1.3125 C 7.8125 -1.394531 7.945312 -1.488281 8.125 -1.59375 C 8.394531 -1.75 8.613281 -1.921875 8.78125 -2.109375 C 8.957031 -2.296875 9.109375 -2.601562 9.234375 -3.03125 L 9.890625 -5.25 L 5.890625 -5.25 L 5.1875 -3.78125 C 4.894531 -3.144531 4.75 -2.644531 4.75 -2.28125 C 4.75 -2.082031 4.78125 -1.914062 4.84375 -1.78125 C 4.914062 -1.65625 5.023438 -1.523438 5.171875 -1.390625 C 5.285156 -1.253906 5.363281 -1.140625 5.40625 -1.046875 C 5.445312 -0.953125 5.453125 -0.828125 5.421875 -0.671875 C 5.359375 -0.410156 5.21875 -0.234375 5 -0.140625 C 4.78125 -0.046875 4.441406 0 3.984375 0 L 0.15625 0 C -0.238281 0 -0.535156 -0.0703125 -0.734375 -0.21875 C -0.941406 -0.363281 -1.046875 -0.554688 -1.046875 -0.796875 C -1.046875 -1.066406 -0.945312 -1.285156 -0.75 -1.453125 C -0.5625 -1.617188 -0.269531 -1.796875 0.125 -1.984375 C 0.644531 -2.234375 1.054688 -2.484375 1.359375 -2.734375 C 1.671875 -2.984375 1.9375 -3.332031 2.15625 -3.78125 L 6.734375 -13.265625 C 7.429688 -14.734375 8.253906 -15.796875 9.203125 -16.453125 C 10.160156 -17.117188 11.421875 -17.453125 12.984375 -17.453125 C 14.734375 -17.453125 16.085938 -17.09375 17.046875 -16.375 C 18.003906 -15.664062 18.484375 -14.679688 18.484375 -13.421875 C 18.484375 -12.890625 18.394531 -12.335938 18.21875 -11.765625 Z M 10.671875 -7.8125 L 12.03125 -12.34375 C 12.09375 -12.539062 12.125 -12.753906 12.125 -12.984375 C 12.125 -13.304688 12.035156 -13.546875 11.859375 -13.703125 C 11.679688 -13.867188 11.429688 -13.953125 11.109375 -13.953125 C 10.691406 -13.953125 10.335938 -13.832031 10.046875 -13.59375 C 9.753906 -13.351562 9.460938 -12.925781 9.171875 -12.3125 L 7.0625 -7.8125 Z M 10.671875 -7.8125 "/></g></g></g><g fill="#000000" fill-opacity="0.4"><g transform="translate(141.815492, 280.126578)"><g><path d="M 15.90625 -3.546875 C 15.875 -3.472656 15.859375 -3.367188 15.859375 -3.234375 C 15.859375 -3.117188 15.882812 -3.023438 15.9375 -2.953125 C 16 -2.890625 16.082031 -2.859375 16.1875 -2.859375 C 16.394531 -2.859375 16.570312 -2.945312 16.71875 -3.125 C 16.863281 -3.300781 16.960938 -3.390625 17.015625 -3.390625 C 17.097656 -3.390625 17.164062 -3.332031 17.21875 -3.21875 C 17.269531 -3.113281 17.296875 -2.984375 17.296875 -2.828125 C 17.316406 -2.328125 17.15625 -1.84375 16.8125 -1.375 C 16.46875 -0.90625 15.960938 -0.519531 15.296875 -0.21875 C 14.640625 0.0820312 13.847656 0.234375 12.921875 0.234375 C 11.796875 0.234375 10.898438 -0.0234375 10.234375 -0.546875 C 9.566406 -1.078125 9.222656 -1.773438 9.203125 -2.640625 C 9.203125 -3.273438 9.359375 -3.988281 9.671875 -4.78125 L 11.078125 -8.484375 C 11.160156 -8.703125 11.203125 -8.878906 11.203125 -9.015625 C 11.203125 -9.242188 11.128906 -9.421875 10.984375 -9.546875 C 10.835938 -9.671875 10.664062 -9.734375 10.46875 -9.734375 C 10.082031 -9.734375 9.71875 -9.554688 9.375 -9.203125 C 9.039062 -8.859375 8.796875 -8.429688 8.640625 -7.921875 L 7.046875 -2.671875 C 6.972656 -2.484375 6.9375 -2.304688 6.9375 -2.140625 C 6.9375 -1.929688 6.976562 -1.757812 7.0625 -1.625 C 7.15625 -1.5 7.273438 -1.367188 7.421875 -1.234375 C 7.546875 -1.128906 7.632812 -1.035156 7.6875 -0.953125 C 7.738281 -0.867188 7.75 -0.765625 7.71875 -0.640625 C 7.644531 -0.421875 7.476562 -0.257812 7.21875 -0.15625 C 6.96875 -0.0507812 6.566406 0 6.015625 0 L 0.15625 0 C -0.289062 0 -0.613281 -0.0703125 -0.8125 -0.21875 C -1.007812 -0.363281 -1.082031 -0.554688 -1.03125 -0.796875 C -0.957031 -1.003906 -0.773438 -1.1875 -0.484375 -1.34375 C -0.234375 -1.476562 -0.0234375 -1.640625 0.140625 -1.828125 C 0.316406 -2.015625 0.46875 -2.3125 0.59375 -2.71875 L 2.875 -10.15625 C 2.914062 -10.238281 2.9375 -10.359375 2.9375 -10.515625 C 2.9375 -10.703125 2.894531 -10.847656 2.8125 -10.953125 C 2.738281 -11.054688 2.613281 -11.179688 2.4375 -11.328125 C 2.269531 -11.472656 2.148438 -11.59375 2.078125 -11.6875 C 2.015625 -11.789062 2.007812 -11.929688 2.0625 -12.109375 C 2.15625 -12.503906 2.691406 -12.847656 3.671875 -13.140625 C 4.648438 -13.441406 5.671875 -13.59375 6.734375 -13.59375 C 7.585938 -13.59375 8.265625 -13.359375 8.765625 -12.890625 C 9.265625 -12.421875 9.488281 -11.765625 9.4375 -10.921875 C 10.132812 -11.929688 10.878906 -12.628906 11.671875 -13.015625 C 12.460938 -13.398438 13.316406 -13.59375 14.234375 -13.59375 C 15.285156 -13.59375 16.128906 -13.273438 16.765625 -12.640625 C 17.410156 -12.003906 17.734375 -11.179688 17.734375 -10.171875 C 17.734375 -9.640625 17.648438 -9.117188 17.484375 -8.609375 Z M 15.90625 -3.546875 "/></g></g></g><g fill="#000000" fill-opacity="0.4"><g transform="translate(160.222383, 280.126578)"><g><path d="M 11.484375 -13.265625 C 11.816406 -13.265625 12.070312 -13.195312 12.25 -13.0625 C 12.425781 -12.925781 12.515625 -12.734375 12.515625 -12.484375 C 12.515625 -12.421875 12.5 -12.300781 12.46875 -12.125 C 12.238281 -11.375 11.722656 -11 10.921875 -11 L 9.4375 -11 L 7.5 -4.65625 C 7.414062 -4.394531 7.375 -4.128906 7.375 -3.859375 C 7.375 -3.546875 7.457031 -3.328125 7.625 -3.203125 C 7.800781 -3.085938 8.046875 -3.03125 8.359375 -3.03125 C 8.628906 -3.03125 8.96875 -3.066406 9.375 -3.140625 C 9.582031 -3.191406 9.765625 -3.21875 9.921875 -3.21875 C 10.035156 -3.21875 10.125 -3.175781 10.1875 -3.09375 C 10.25 -3.019531 10.28125 -2.921875 10.28125 -2.796875 C 10.300781 -2.453125 10.046875 -2.035156 9.515625 -1.546875 C 8.992188 -1.066406 8.285156 -0.648438 7.390625 -0.296875 C 6.503906 0.0546875 5.523438 0.234375 4.453125 0.234375 C 3.285156 0.234375 2.347656 -0.03125 1.640625 -0.5625 C 0.941406 -1.09375 0.59375 -1.820312 0.59375 -2.75 C 0.59375 -3.175781 0.660156 -3.585938 0.796875 -3.984375 L 2.4375 -9.078125 C 2.53125 -9.367188 2.578125 -9.597656 2.578125 -9.765625 C 2.578125 -10.109375 2.492188 -10.398438 2.328125 -10.640625 C 2.160156 -10.878906 1.929688 -11.128906 1.640625 -11.390625 C 1.390625 -11.628906 1.210938 -11.828125 1.109375 -11.984375 C 1.003906 -12.148438 0.976562 -12.34375 1.03125 -12.5625 C 1.09375 -12.789062 1.234375 -12.960938 1.453125 -13.078125 C 1.679688 -13.203125 2.035156 -13.265625 2.515625 -13.265625 L 3.953125 -13.265625 L 5.578125 -14.875 C 6.140625 -15.445312 6.65625 -15.84375 7.125 -16.0625 C 7.601562 -16.289062 8.21875 -16.40625 8.96875 -16.40625 C 10.050781 -16.40625 10.59375 -15.992188 10.59375 -15.171875 C 10.59375 -14.910156 10.554688 -14.664062 10.484375 -14.4375 L 10.125 -13.265625 Z M 11.484375 -13.265625 "/></g></g></g><g fill="#000000" fill-opacity="0.4"><g transform="translate(171.276801, 280.126578)"><g><path d="M 15.75 -3.546875 C 15.71875 -3.472656 15.703125 -3.367188 15.703125 -3.234375 C 15.703125 -3.117188 15.734375 -3.023438 15.796875 -2.953125 C 15.859375 -2.890625 15.9375 -2.859375 16.03125 -2.859375 C 16.238281 -2.859375 16.414062 -2.945312 16.5625 -3.125 C 16.707031 -3.300781 16.804688 -3.390625 16.859375 -3.390625 C 16.941406 -3.390625 17.007812 -3.332031 17.0625 -3.21875 C 17.113281 -3.113281 17.140625 -2.984375 17.140625 -2.828125 C 17.160156 -2.328125 17 -1.84375 16.65625 -1.375 C 16.3125 -0.90625 15.804688 -0.519531 15.140625 -0.21875 C 14.484375 0.0820312 13.695312 0.234375 12.78125 0.234375 C 11.644531 0.234375 10.742188 -0.0234375 10.078125 -0.546875 C 9.410156 -1.078125 9.066406 -1.773438 9.046875 -2.640625 C 9.046875 -3.273438 9.203125 -3.988281 9.515625 -4.78125 L 10.921875 -8.484375 C 11.003906 -8.703125 11.046875 -8.878906 11.046875 -9.015625 C 11.046875 -9.242188 10.972656 -9.421875 10.828125 -9.546875 C 10.679688 -9.671875 10.507812 -9.734375 10.3125 -9.734375 C 9.976562 -9.734375 9.644531 -9.582031 9.3125 -9.28125 C 8.976562 -8.988281 8.707031 -8.507812 8.5 -7.84375 L 8.5 -7.890625 L 6.890625 -2.671875 C 6.835938 -2.460938 6.8125 -2.285156 6.8125 -2.140625 C 6.8125 -1.910156 6.851562 -1.726562 6.9375 -1.59375 C 7.019531 -1.46875 7.140625 -1.347656 7.296875 -1.234375 C 7.421875 -1.109375 7.507812 -1.007812 7.5625 -0.9375 C 7.613281 -0.863281 7.617188 -0.765625 7.578125 -0.640625 C 7.492188 -0.421875 7.320312 -0.257812 7.0625 -0.15625 C 6.8125 -0.0507812 6.421875 0 5.890625 0 L 0.03125 0 C -0.414062 0 -0.742188 -0.0703125 -0.953125 -0.21875 C -1.160156 -0.363281 -1.226562 -0.554688 -1.15625 -0.796875 C -1.082031 -1.003906 -0.898438 -1.1875 -0.609375 -1.34375 C -0.359375 -1.476562 -0.148438 -1.640625 0.015625 -1.828125 C 0.191406 -2.015625 0.34375 -2.3125 0.46875 -2.71875 L 4.375 -15.546875 C 4.425781 -15.703125 4.453125 -15.832031 4.453125 -15.9375 C 4.453125 -16.125 4.398438 -16.273438 4.296875 -16.390625 C 4.203125 -16.515625 4.082031 -16.640625 3.9375 -16.765625 C 3.757812 -16.898438 3.628906 -17.015625 3.546875 -17.109375 C 3.472656 -17.210938 3.460938 -17.351562 3.515625 -17.53125 C 3.617188 -17.925781 4.160156 -18.269531 5.140625 -18.5625 C 6.117188 -18.851562 7.140625 -19 8.203125 -19 C 9.191406 -19 9.921875 -18.804688 10.390625 -18.421875 C 10.867188 -18.046875 11.109375 -17.535156 11.109375 -16.890625 C 11.109375 -16.515625 11.046875 -16.144531 10.921875 -15.78125 L 9.53125 -11.265625 C 10.195312 -12.128906 10.90625 -12.734375 11.65625 -13.078125 C 12.40625 -13.421875 13.210938 -13.59375 14.078125 -13.59375 C 15.128906 -13.59375 15.972656 -13.273438 16.609375 -12.640625 C 17.253906 -12.003906 17.578125 -11.179688 17.578125 -10.171875 C 17.578125 -9.640625 17.492188 -9.117188 17.328125 -8.609375 Z M 15.75 -3.546875 "/></g></g></g><g fill="#000000" fill-opacity="0.4"><g transform="translate(189.529444, 280.126578)"><g><path d="M 9.953125 -13.59375 C 12.273438 -13.59375 13.988281 -13.117188 15.09375 -12.171875 C 16.207031 -11.234375 16.765625 -10.003906 16.765625 -8.484375 C 16.765625 -7.972656 16.691406 -7.398438 16.546875 -6.765625 C 16.222656 -5.359375 15.613281 -4.125 14.71875 -3.0625 C 13.832031 -2.007812 12.742188 -1.195312 11.453125 -0.625 C 10.160156 -0.0507812 8.757812 0.234375 7.25 0.234375 C 4.863281 0.234375 3.097656 -0.238281 1.953125 -1.1875 C 0.816406 -2.144531 0.25 -3.410156 0.25 -4.984375 C 0.25 -5.515625 0.320312 -6.109375 0.46875 -6.765625 C 0.789062 -8.097656 1.410156 -9.28125 2.328125 -10.3125 C 3.242188 -11.351562 4.363281 -12.160156 5.6875 -12.734375 C 7.019531 -13.304688 8.441406 -13.59375 9.953125 -13.59375 Z M 9.875 -11.3125 C 9.507812 -11.3125 9.125 -10.988281 8.71875 -10.34375 C 8.320312 -9.695312 7.847656 -8.484375 7.296875 -6.703125 C 6.753906 -4.921875 6.484375 -3.671875 6.484375 -2.953125 C 6.484375 -2.578125 6.539062 -2.320312 6.65625 -2.1875 C 6.78125 -2.0625 6.941406 -2 7.140625 -2 C 7.503906 -1.96875 7.878906 -2.273438 8.265625 -2.921875 C 8.648438 -3.578125 9.132812 -4.847656 9.71875 -6.734375 C 10.25 -8.398438 10.515625 -9.609375 10.515625 -10.359375 C 10.515625 -10.710938 10.457031 -10.957031 10.34375 -11.09375 C 10.226562 -11.238281 10.070312 -11.3125 9.875 -11.3125 Z M 9.875 -11.3125 "/></g></g></g><g fill="#000000" fill-opacity="0.4"><g transform="translate(206.393855, 280.126578)"><g><path d="M 15.90625 -3.546875 C 15.875 -3.472656 15.859375 -3.367188 15.859375 -3.234375 C 15.859375 -3.117188 15.882812 -3.023438 15.9375 -2.953125 C 16 -2.890625 16.082031 -2.859375 16.1875 -2.859375 C 16.394531 -2.859375 16.570312 -2.945312 16.71875 -3.125 C 16.863281 -3.300781 16.960938 -3.390625 17.015625 -3.390625 C 17.097656 -3.390625 17.164062 -3.332031 17.21875 -3.21875 C 17.269531 -3.113281 17.296875 -2.984375 17.296875 -2.828125 C 17.316406 -2.328125 17.15625 -1.84375 16.8125 -1.375 C 16.46875 -0.90625 15.960938 -0.519531 15.296875 -0.21875 C 14.640625 0.0820312 13.847656 0.234375 12.921875 0.234375 C 11.796875 0.234375 10.898438 -0.0234375 10.234375 -0.546875 C 9.566406 -1.078125 9.222656 -1.773438 9.203125 -2.640625 C 9.203125 -3.273438 9.359375 -3.988281 9.671875 -4.78125 L 11.078125 -8.484375 C 11.160156 -8.703125 11.203125 -8.878906 11.203125 -9.015625 C 11.203125 -9.242188 11.128906 -9.421875 10.984375 -9.546875 C 10.835938 -9.671875 10.664062 -9.734375 10.46875 -9.734375 C 10.082031 -9.734375 9.71875 -9.554688 9.375 -9.203125 C 9.039062 -8.859375 8.796875 -8.429688 8.640625 -7.921875 L 7.046875 -2.671875 C 6.972656 -2.484375 6.9375 -2.304688 6.9375 -2.140625 C 6.9375 -1.929688 6.976562 -1.757812 7.0625 -1.625 C 7.15625 -1.5 7.273438 -1.367188 7.421875 -1.234375 C 7.546875 -1.128906 7.632812 -1.035156 7.6875 -0.953125 C 7.738281 -0.867188 7.75 -0.765625 7.71875 -0.640625 C 7.644531 -0.421875 7.476562 -0.257812 7.21875 -0.15625 C 6.96875 -0.0507812 6.566406 0 6.015625 0 L 0.15625 0 C -0.289062 0 -0.613281 -0.0703125 -0.8125 -0.21875 C -1.007812 -0.363281 -1.082031 -0.554688 -1.03125 -0.796875 C -0.957031 -1.003906 -0.773438 -1.1875 -0.484375 -1.34375 C -0.234375 -1.476562 -0.0234375 -1.640625 0.140625 -1.828125 C 0.316406 -2.015625 0.46875 -2.3125 0.59375 -2.71875 L 2.875 -10.15625 C 2.914062 -10.238281 2.9375 -10.359375 2.9375 -10.515625 C 2.9375 -10.703125 2.894531 -10.847656 2.8125 -10.953125 C 2.738281 -11.054688 2.613281 -11.179688 2.4375 -11.328125 C 2.269531 -11.472656 2.148438 -11.59375 2.078125 -11.6875 C 2.015625 -11.789062 2.007812 -11.929688 2.0625 -12.109375 C 2.15625 -12.503906 2.691406 -12.847656 3.671875 -13.140625 C 4.648438 -13.441406 5.671875 -13.59375 6.734375 -13.59375 C 7.585938 -13.59375 8.265625 -13.359375 8.765625 -12.890625 C 9.265625 -12.421875 9.488281 -11.765625 9.4375 -10.921875 C 10.132812 -11.929688 10.878906 -12.628906 11.671875 -13.015625 C 12.460938 -13.398438 13.316406 -13.59375 14.234375 -13.59375 C 15.285156 -13.59375 16.128906 -13.273438 16.765625 -12.640625 C 17.410156 -12.003906 17.734375 -11.179688 17.734375 -10.171875 C 17.734375 -9.640625 17.648438 -9.117188 17.484375 -8.609375 Z M 15.90625 -3.546875 "/></g></g></g><g fill="#000000" fill-opacity="0.4"><g transform="translate(224.800749, 280.126578)"><g><path d="M 13.625 -13.59375 C 14.375 -13.59375 14.972656 -13.285156 15.421875 -12.671875 C 15.878906 -12.066406 16.109375 -11.242188 16.109375 -10.203125 C 16.109375 -9.296875 15.945312 -8.320312 15.625 -7.28125 C 14.988281 -5.164062 13.972656 -3.175781 12.578125 -1.3125 C 11.179688 0.550781 9.578125 2.050781 7.765625 3.1875 C 5.960938 4.320312 4.160156 4.890625 2.359375 4.890625 C 1.472656 4.890625 0.707031 4.734375 0.0625 4.421875 C -0.582031 4.109375 -1.070312 3.695312 -1.40625 3.1875 C -1.738281 2.675781 -1.90625 2.128906 -1.90625 1.546875 C -1.90625 1.285156 -1.863281 1 -1.78125 0.6875 C -1.625 0.207031 -1.363281 -0.15625 -1 -0.40625 C -0.644531 -0.664062 -0.21875 -0.796875 0.28125 -0.796875 C 1.070312 -0.796875 1.71875 -0.523438 2.21875 0.015625 C 2.726562 0.554688 3.050781 1.296875 3.1875 2.234375 C 4.28125 2.179688 5.289062 1.710938 6.21875 0.828125 C 5.34375 0.671875 4.695312 0.375 4.28125 -0.0625 C 3.863281 -0.5 3.578125 -1.179688 3.421875 -2.109375 L 2.390625 -8.40625 C 2.335938 -8.726562 2.265625 -8.953125 2.171875 -9.078125 C 2.078125 -9.210938 1.953125 -9.28125 1.796875 -9.28125 C 1.679688 -9.28125 1.539062 -9.21875 1.375 -9.09375 C 1.207031 -8.976562 1.09375 -8.921875 1.03125 -8.921875 C 0.894531 -8.921875 0.828125 -9.066406 0.828125 -9.359375 C 0.828125 -9.597656 0.867188 -9.851562 0.953125 -10.125 C 1.253906 -11.101562 1.828125 -11.929688 2.671875 -12.609375 C 3.515625 -13.285156 4.492188 -13.625 5.609375 -13.625 C 6.703125 -13.625 7.507812 -13.296875 8.03125 -12.640625 C 8.550781 -11.992188 8.890625 -10.992188 9.046875 -9.640625 L 9.8125 -3.984375 C 9.863281 -3.554688 10.019531 -3.34375 10.28125 -3.34375 C 10.59375 -3.34375 10.953125 -3.617188 11.359375 -4.171875 C 11.773438 -4.734375 12.175781 -5.523438 12.5625 -6.546875 C 12.050781 -7.015625 11.65625 -7.546875 11.375 -8.140625 C 11.101562 -8.742188 10.96875 -9.390625 10.96875 -10.078125 C 10.96875 -10.609375 11.039062 -11.085938 11.1875 -11.515625 C 11.382812 -12.203125 11.703125 -12.71875 12.140625 -13.0625 C 12.578125 -13.414062 13.070312 -13.59375 13.625 -13.59375 Z M 13.625 -13.59375 "/></g></g></g><g fill="#004aad" fill-opacity="1"><g transform="translate(122.735159, 278.990384)"><g><path d="M 15.703125 -3.03125 C 15.640625 -2.8125 15.609375 -2.585938 15.609375 -2.359375 C 15.609375 -2.171875 15.628906 -2.015625 15.671875 -1.890625 C 15.722656 -1.765625 15.78125 -1.660156 15.84375 -1.578125 C 15.90625 -1.503906 15.945312 -1.445312 15.96875 -1.40625 C 16.132812 -1.238281 16.21875 -1.070312 16.21875 -0.90625 C 16.21875 -0.863281 16.203125 -0.773438 16.171875 -0.640625 C 16.097656 -0.398438 15.945312 -0.234375 15.71875 -0.140625 C 15.488281 -0.046875 15.132812 0 14.65625 0 L 8.5625 0 C 8.195312 0 7.914062 -0.0546875 7.71875 -0.171875 C 7.519531 -0.296875 7.421875 -0.460938 7.421875 -0.671875 C 7.421875 -0.773438 7.445312 -0.882812 7.5 -1 C 7.550781 -1.132812 7.625 -1.238281 7.71875 -1.3125 C 7.8125 -1.394531 7.945312 -1.488281 8.125 -1.59375 C 8.394531 -1.75 8.613281 -1.921875 8.78125 -2.109375 C 8.957031 -2.296875 9.109375 -2.601562 9.234375 -3.03125 L 9.890625 -5.25 L 5.890625 -5.25 L 5.1875 -3.78125 C 4.894531 -3.144531 4.75 -2.644531 4.75 -2.28125 C 4.75 -2.082031 4.78125 -1.914062 4.84375 -1.78125 C 4.914062 -1.65625 5.023438 -1.523438 5.171875 -1.390625 C 5.285156 -1.253906 5.363281 -1.140625 5.40625 -1.046875 C 5.445312 -0.953125 5.453125 -0.828125 5.421875 -0.671875 C 5.359375 -0.410156 5.21875 -0.234375 5 -0.140625 C 4.78125 -0.046875 4.441406 0 3.984375 0 L 0.15625 0 C -0.238281 0 -0.535156 -0.0703125 -0.734375 -0.21875 C -0.941406 -0.363281 -1.046875 -0.554688 -1.046875 -0.796875 C -1.046875 -1.066406 -0.945312 -1.285156 -0.75 -1.453125 C -0.5625 -1.617188 -0.269531 -1.796875 0.125 -1.984375 C 0.644531 -2.234375 1.054688 -2.484375 1.359375 -2.734375 C 1.671875 -2.984375 1.9375 -3.332031 2.15625 -3.78125 L 6.734375 -13.265625 C 7.429688 -14.734375 8.253906 -15.796875 9.203125 -16.453125 C 10.160156 -17.117188 11.421875 -17.453125 12.984375 -17.453125 C 14.734375 -17.453125 16.085938 -17.09375 17.046875 -16.375 C 18.003906 -15.664062 18.484375 -14.679688 18.484375 -13.421875 C 18.484375 -12.890625 18.394531 -12.335938 18.21875 -11.765625 Z M 10.671875 -7.8125 L 12.03125 -12.34375 C 12.09375 -12.539062 12.125 -12.753906 12.125 -12.984375 C 12.125 -13.304688 12.035156 -13.546875 11.859375 -13.703125 C 11.679688 -13.867188 11.429688 -13.953125 11.109375 -13.953125 C 10.691406 -13.953125 10.335938 -13.832031 10.046875 -13.59375 C 9.753906 -13.351562 9.460938 -12.925781 9.171875 -12.3125 L 7.0625 -7.8125 Z M 10.671875 -7.8125 "/></g></g></g><g fill="#004aad" fill-opacity="1"><g transform="translate(140.679305, 278.990384)"><g><path d="M 15.90625 -3.546875 C 15.875 -3.472656 15.859375 -3.367188 15.859375 -3.234375 C 15.859375 -3.117188 15.882812 -3.023438 15.9375 -2.953125 C 16 -2.890625 16.082031 -2.859375 16.1875 -2.859375 C 16.394531 -2.859375 16.570312 -2.945312 16.71875 -3.125 C 16.863281 -3.300781 16.960938 -3.390625 17.015625 -3.390625 C 17.097656 -3.390625 17.164062 -3.332031 17.21875 -3.21875 C 17.269531 -3.113281 17.296875 -2.984375 17.296875 -2.828125 C 17.316406 -2.328125 17.15625 -1.84375 16.8125 -1.375 C 16.46875 -0.90625 15.960938 -0.519531 15.296875 -0.21875 C 14.640625 0.0820312 13.847656 0.234375 12.921875 0.234375 C 11.796875 0.234375 10.898438 -0.0234375 10.234375 -0.546875 C 9.566406 -1.078125 9.222656 -1.773438 9.203125 -2.640625 C 9.203125 -3.273438 9.359375 -3.988281 9.671875 -4.78125 L 11.078125 -8.484375 C 11.160156 -8.703125 11.203125 -8.878906 11.203125 -9.015625 C 11.203125 -9.242188 11.128906 -9.421875 10.984375 -9.546875 C 10.835938 -9.671875 10.664062 -9.734375 10.46875 -9.734375 C 10.082031 -9.734375 9.71875 -9.554688 9.375 -9.203125 C 9.039062 -8.859375 8.796875 -8.429688 8.640625 -7.921875 L 7.046875 -2.671875 C 6.972656 -2.484375 6.9375 -2.304688 6.9375 -2.140625 C 6.9375 -1.929688 6.976562 -1.757812 7.0625 -1.625 C 7.15625 -1.5 7.273438 -1.367188 7.421875 -1.234375 C 7.546875 -1.128906 7.632812 -1.035156 7.6875 -0.953125 C 7.738281 -0.867188 7.75 -0.765625 7.71875 -0.640625 C 7.644531 -0.421875 7.476562 -0.257812 7.21875 -0.15625 C 6.96875 -0.0507812 6.566406 0 6.015625 0 L 0.15625 0 C -0.289062 0 -0.613281 -0.0703125 -0.8125 -0.21875 C -1.007812 -0.363281 -1.082031 -0.554688 -1.03125 -0.796875 C -0.957031 -1.003906 -0.773438 -1.1875 -0.484375 -1.34375 C -0.234375 -1.476562 -0.0234375 -1.640625 0.140625 -1.828125 C 0.316406 -2.015625 0.46875 -2.3125 0.59375 -2.71875 L 2.875 -10.15625 C 2.914062 -10.238281 2.9375 -10.359375 2.9375 -10.515625 C 2.9375 -10.703125 2.894531 -10.847656 2.8125 -10.953125 C 2.738281 -11.054688 2.613281 -11.179688 2.4375 -11.328125 C 2.269531 -11.472656 2.148438 -11.59375 2.078125 -11.6875 C 2.015625 -11.789062 2.007812 -11.929688 2.0625 -12.109375 C 2.15625 -12.503906 2.691406 -12.847656 3.671875 -13.140625 C 4.648438 -13.441406 5.671875 -13.59375 6.734375 -13.59375 C 7.585938 -13.59375 8.265625 -13.359375 8.765625 -12.890625 C 9.265625 -12.421875 9.488281 -11.765625 9.4375 -10.921875 C 10.132812 -11.929688 10.878906 -12.628906 11.671875 -13.015625 C 12.460938 -13.398438 13.316406 -13.59375 14.234375 -13.59375 C 15.285156 -13.59375 16.128906 -13.273438 16.765625 -12.640625 C 17.410156 -12.003906 17.734375 -11.179688 17.734375 -10.171875 C 17.734375 -9.640625 17.648438 -9.117188 17.484375 -8.609375 Z M 15.90625 -3.546875 "/></g></g></g><g fill="#004aad" fill-opacity="1"><g transform="translate(159.086196, 278.990384)"><g><path d="M 11.484375 -13.265625 C 11.816406 -13.265625 12.070312 -13.195312 12.25 -13.0625 C 12.425781 -12.925781 12.515625 -12.734375 12.515625 -12.484375 C 12.515625 -12.421875 12.5 -12.300781 12.46875 -12.125 C 12.238281 -11.375 11.722656 -11 10.921875 -11 L 9.4375 -11 L 7.5 -4.65625 C 7.414062 -4.394531 7.375 -4.128906 7.375 -3.859375 C 7.375 -3.546875 7.457031 -3.328125 7.625 -3.203125 C 7.800781 -3.085938 8.046875 -3.03125 8.359375 -3.03125 C 8.628906 -3.03125 8.96875 -3.066406 9.375 -3.140625 C 9.582031 -3.191406 9.765625 -3.21875 9.921875 -3.21875 C 10.035156 -3.21875 10.125 -3.175781 10.1875 -3.09375 C 10.25 -3.019531 10.28125 -2.921875 10.28125 -2.796875 C 10.300781 -2.453125 10.046875 -2.035156 9.515625 -1.546875 C 8.992188 -1.066406 8.285156 -0.648438 7.390625 -0.296875 C 6.503906 0.0546875 5.523438 0.234375 4.453125 0.234375 C 3.285156 0.234375 2.347656 -0.03125 1.640625 -0.5625 C 0.941406 -1.09375 0.59375 -1.820312 0.59375 -2.75 C 0.59375 -3.175781 0.660156 -3.585938 0.796875 -3.984375 L 2.4375 -9.078125 C 2.53125 -9.367188 2.578125 -9.597656 2.578125 -9.765625 C 2.578125 -10.109375 2.492188 -10.398438 2.328125 -10.640625 C 2.160156 -10.878906 1.929688 -11.128906 1.640625 -11.390625 C 1.390625 -11.628906 1.210938 -11.828125 1.109375 -11.984375 C 1.003906 -12.148438 0.976562 -12.34375 1.03125 -12.5625 C 1.09375 -12.789062 1.234375 -12.960938 1.453125 -13.078125 C 1.679688 -13.203125 2.035156 -13.265625 2.515625 -13.265625 L 3.953125 -13.265625 L 5.578125 -14.875 C 6.140625 -15.445312 6.65625 -15.84375 7.125 -16.0625 C 7.601562 -16.289062 8.21875 -16.40625 8.96875 -16.40625 C 10.050781 -16.40625 10.59375 -15.992188 10.59375 -15.171875 C 10.59375 -14.910156 10.554688 -14.664062 10.484375 -14.4375 L 10.125 -13.265625 Z M 11.484375 -13.265625 "/></g></g></g><g fill="#004aad" fill-opacity="1"><g transform="translate(170.140615, 278.990384)"><g><path d="M 15.75 -3.546875 C 15.71875 -3.472656 15.703125 -3.367188 15.703125 -3.234375 C 15.703125 -3.117188 15.734375 -3.023438 15.796875 -2.953125 C 15.859375 -2.890625 15.9375 -2.859375 16.03125 -2.859375 C 16.238281 -2.859375 16.414062 -2.945312 16.5625 -3.125 C 16.707031 -3.300781 16.804688 -3.390625 16.859375 -3.390625 C 16.941406 -3.390625 17.007812 -3.332031 17.0625 -3.21875 C 17.113281 -3.113281 17.140625 -2.984375 17.140625 -2.828125 C 17.160156 -2.328125 17 -1.84375 16.65625 -1.375 C 16.3125 -0.90625 15.804688 -0.519531 15.140625 -0.21875 C 14.484375 0.0820312 13.695312 0.234375 12.78125 0.234375 C 11.644531 0.234375 10.742188 -0.0234375 10.078125 -0.546875 C 9.410156 -1.078125 9.066406 -1.773438 9.046875 -2.640625 C 9.046875 -3.273438 9.203125 -3.988281 9.515625 -4.78125 L 10.921875 -8.484375 C 11.003906 -8.703125 11.046875 -8.878906 11.046875 -9.015625 C 11.046875 -9.242188 10.972656 -9.421875 10.828125 -9.546875 C 10.679688 -9.671875 10.507812 -9.734375 10.3125 -9.734375 C 9.976562 -9.734375 9.644531 -9.582031 9.3125 -9.28125 C 8.976562 -8.988281 8.707031 -8.507812 8.5 -7.84375 L 8.5 -7.890625 L 6.890625 -2.671875 C 6.835938 -2.460938 6.8125 -2.285156 6.8125 -2.140625 C 6.8125 -1.910156 6.851562 -1.726562 6.9375 -1.59375 C 7.019531 -1.46875 7.140625 -1.347656 7.296875 -1.234375 C 7.421875 -1.109375 7.507812 -1.007812 7.5625 -0.9375 C 7.613281 -0.863281 7.617188 -0.765625 7.578125 -0.640625 C 7.492188 -0.421875 7.320312 -0.257812 7.0625 -0.15625 C 6.8125 -0.0507812 6.421875 0 5.890625 0 L 0.03125 0 C -0.414062 0 -0.742188 -0.0703125 -0.953125 -0.21875 C -1.160156 -0.363281 -1.226562 -0.554688 -1.15625 -0.796875 C -1.082031 -1.003906 -0.898438 -1.1875 -0.609375 -1.34375 C -0.359375 -1.476562 -0.148438 -1.640625 0.015625 -1.828125 C 0.191406 -2.015625 0.34375 -2.3125 0.46875 -2.71875 L 4.375 -15.546875 C 4.425781 -15.703125 4.453125 -15.832031 4.453125 -15.9375 C 4.453125 -16.125 4.398438 -16.273438 4.296875 -16.390625 C 4.203125 -16.515625 4.082031 -16.640625 3.9375 -16.765625 C 3.757812 -16.898438 3.628906 -17.015625 3.546875 -17.109375 C 3.472656 -17.210938 3.460938 -17.351562 3.515625 -17.53125 C 3.617188 -17.925781 4.160156 -18.269531 5.140625 -18.5625 C 6.117188 -18.851562 7.140625 -19 8.203125 -19 C 9.191406 -19 9.921875 -18.804688 10.390625 -18.421875 C 10.867188 -18.046875 11.109375 -17.535156 11.109375 -16.890625 C 11.109375 -16.515625 11.046875 -16.144531 10.921875 -15.78125 L 9.53125 -11.265625 C 10.195312 -12.128906 10.90625 -12.734375 11.65625 -13.078125 C 12.40625 -13.421875 13.210938 -13.59375 14.078125 -13.59375 C 15.128906 -13.59375 15.972656 -13.273438 16.609375 -12.640625 C 17.253906 -12.003906 17.578125 -11.179688 17.578125 -10.171875 C 17.578125 -9.640625 17.492188 -9.117188 17.328125 -8.609375 Z M 15.75 -3.546875 "/></g></g></g><g fill="#004aad" fill-opacity="1"><g transform="translate(188.393258, 278.990384)"><g><path d="M 9.953125 -13.59375 C 12.273438 -13.59375 13.988281 -13.117188 15.09375 -12.171875 C 16.207031 -11.234375 16.765625 -10.003906 16.765625 -8.484375 C 16.765625 -7.972656 16.691406 -7.398438 16.546875 -6.765625 C 16.222656 -5.359375 15.613281 -4.125 14.71875 -3.0625 C 13.832031 -2.007812 12.742188 -1.195312 11.453125 -0.625 C 10.160156 -0.0507812 8.757812 0.234375 7.25 0.234375 C 4.863281 0.234375 3.097656 -0.238281 1.953125 -1.1875 C 0.816406 -2.144531 0.25 -3.410156 0.25 -4.984375 C 0.25 -5.515625 0.320312 -6.109375 0.46875 -6.765625 C 0.789062 -8.097656 1.410156 -9.28125 2.328125 -10.3125 C 3.242188 -11.351562 4.363281 -12.160156 5.6875 -12.734375 C 7.019531 -13.304688 8.441406 -13.59375 9.953125 -13.59375 Z M 9.875 -11.3125 C 9.507812 -11.3125 9.125 -10.988281 8.71875 -10.34375 C 8.320312 -9.695312 7.847656 -8.484375 7.296875 -6.703125 C 6.753906 -4.921875 6.484375 -3.671875 6.484375 -2.953125 C 6.484375 -2.578125 6.539062 -2.320312 6.65625 -2.1875 C 6.78125 -2.0625 6.941406 -2 7.140625 -2 C 7.503906 -1.96875 7.878906 -2.273438 8.265625 -2.921875 C 8.648438 -3.578125 9.132812 -4.847656 9.71875 -6.734375 C 10.25 -8.398438 10.515625 -9.609375 10.515625 -10.359375 C 10.515625 -10.710938 10.457031 -10.957031 10.34375 -11.09375 C 10.226562 -11.238281 10.070312 -11.3125 9.875 -11.3125 Z M 9.875 -11.3125 "/></g></g></g><g fill="#004aad" fill-opacity="1"><g transform="translate(205.257669, 278.990384)"><g><path d="M 15.90625 -3.546875 C 15.875 -3.472656 15.859375 -3.367188 15.859375 -3.234375 C 15.859375 -3.117188 15.882812 -3.023438 15.9375 -2.953125 C 16 -2.890625 16.082031 -2.859375 16.1875 -2.859375 C 16.394531 -2.859375 16.570312 -2.945312 16.71875 -3.125 C 16.863281 -3.300781 16.960938 -3.390625 17.015625 -3.390625 C 17.097656 -3.390625 17.164062 -3.332031 17.21875 -3.21875 C 17.269531 -3.113281 17.296875 -2.984375 17.296875 -2.828125 C 17.316406 -2.328125 17.15625 -1.84375 16.8125 -1.375 C 16.46875 -0.90625 15.960938 -0.519531 15.296875 -0.21875 C 14.640625 0.0820312 13.847656 0.234375 12.921875 0.234375 C 11.796875 0.234375 10.898438 -0.0234375 10.234375 -0.546875 C 9.566406 -1.078125 9.222656 -1.773438 9.203125 -2.640625 C 9.203125 -3.273438 9.359375 -3.988281 9.671875 -4.78125 L 11.078125 -8.484375 C 11.160156 -8.703125 11.203125 -8.878906 11.203125 -9.015625 C 11.203125 -9.242188 11.128906 -9.421875 10.984375 -9.546875 C 10.835938 -9.671875 10.664062 -9.734375 10.46875 -9.734375 C 10.082031 -9.734375 9.71875 -9.554688 9.375 -9.203125 C 9.039062 -8.859375 8.796875 -8.429688 8.640625 -7.921875 L 7.046875 -2.671875 C 6.972656 -2.484375 6.9375 -2.304688 6.9375 -2.140625 C 6.9375 -1.929688 6.976562 -1.757812 7.0625 -1.625 C 7.15625 -1.5 7.273438 -1.367188 7.421875 -1.234375 C 7.546875 -1.128906 7.632812 -1.035156 7.6875 -0.953125 C 7.738281 -0.867188 7.75 -0.765625 7.71875 -0.640625 C 7.644531 -0.421875 7.476562 -0.257812 7.21875 -0.15625 C 6.96875 -0.0507812 6.566406 0 6.015625 0 L 0.15625 0 C -0.289062 0 -0.613281 -0.0703125 -0.8125 -0.21875 C -1.007812 -0.363281 -1.082031 -0.554688 -1.03125 -0.796875 C -0.957031 -1.003906 -0.773438 -1.1875 -0.484375 -1.34375 C -0.234375 -1.476562 -0.0234375 -1.640625 0.140625 -1.828125 C 0.316406 -2.015625 0.46875 -2.3125 0.59375 -2.71875 L 2.875 -10.15625 C 2.914062 -10.238281 2.9375 -10.359375 2.9375 -10.515625 C 2.9375 -10.703125 2.894531 -10.847656 2.8125 -10.953125 C 2.738281 -11.054688 2.613281 -11.179688 2.4375 -11.328125 C 2.269531 -11.472656 2.148438 -11.59375 2.078125 -11.6875 C 2.015625 -11.789062 2.007812 -11.929688 2.0625 -12.109375 C 2.15625 -12.503906 2.691406 -12.847656 3.671875 -13.140625 C 4.648438 -13.441406 5.671875 -13.59375 6.734375 -13.59375 C 7.585938 -13.59375 8.265625 -13.359375 8.765625 -12.890625 C 9.265625 -12.421875 9.488281 -11.765625 9.4375 -10.921875 C 10.132812 -11.929688 10.878906 -12.628906 11.671875 -13.015625 C 12.460938 -13.398438 13.316406 -13.59375 14.234375 -13.59375 C 15.285156 -13.59375 16.128906 -13.273438 16.765625 -12.640625 C 17.410156 -12.003906 17.734375 -11.179688 17.734375 -10.171875 C 17.734375 -9.640625 17.648438 -9.117188 17.484375 -8.609375 Z M 15.90625 -3.546875 "/></g></g></g><g fill="#004aad" fill-opacity="1"><g transform="translate(223.664563, 278.990384)"><g><path d="M 13.625 -13.59375 C 14.375 -13.59375 14.972656 -13.285156 15.421875 -12.671875 C 15.878906 -12.066406 16.109375 -11.242188 16.109375 -10.203125 C 16.109375 -9.296875 15.945312 -8.320312 15.625 -7.28125 C 14.988281 -5.164062 13.972656 -3.175781 12.578125 -1.3125 C 11.179688 0.550781 9.578125 2.050781 7.765625 3.1875 C 5.960938 4.320312 4.160156 4.890625 2.359375 4.890625 C 1.472656 4.890625 0.707031 4.734375 0.0625 4.421875 C -0.582031 4.109375 -1.070312 3.695312 -1.40625 3.1875 C -1.738281 2.675781 -1.90625 2.128906 -1.90625 1.546875 C -1.90625 1.285156 -1.863281 1 -1.78125 0.6875 C -1.625 0.207031 -1.363281 -0.15625 -1 -0.40625 C -0.644531 -0.664062 -0.21875 -0.796875 0.28125 -0.796875 C 1.070312 -0.796875 1.71875 -0.523438 2.21875 0.015625 C 2.726562 0.554688 3.050781 1.296875 3.1875 2.234375 C 4.28125 2.179688 5.289062 1.710938 6.21875 0.828125 C 5.34375 0.671875 4.695312 0.375 4.28125 -0.0625 C 3.863281 -0.5 3.578125 -1.179688 3.421875 -2.109375 L 2.390625 -8.40625 C 2.335938 -8.726562 2.265625 -8.953125 2.171875 -9.078125 C 2.078125 -9.210938 1.953125 -9.28125 1.796875 -9.28125 C 1.679688 -9.28125 1.539062 -9.21875 1.375 -9.09375 C 1.207031 -8.976562 1.09375 -8.921875 1.03125 -8.921875 C 0.894531 -8.921875 0.828125 -9.066406 0.828125 -9.359375 C 0.828125 -9.597656 0.867188 -9.851562 0.953125 -10.125 C 1.253906 -11.101562 1.828125 -11.929688 2.671875 -12.609375 C 3.515625 -13.285156 4.492188 -13.625 5.609375 -13.625 C 6.703125 -13.625 7.507812 -13.296875 8.03125 -12.640625 C 8.550781 -11.992188 8.890625 -10.992188 9.046875 -9.640625 L 9.8125 -3.984375 C 9.863281 -3.554688 10.019531 -3.34375 10.28125 -3.34375 C 10.59375 -3.34375 10.953125 -3.617188 11.359375 -4.171875 C 11.773438 -4.734375 12.175781 -5.523438 12.5625 -6.546875 C 12.050781 -7.015625 11.65625 -7.546875 11.375 -8.140625 C 11.101562 -8.742188 10.96875 -9.390625 10.96875 -10.078125 C 10.96875 -10.609375 11.039062 -11.085938 11.1875 -11.515625 C 11.382812 -12.203125 11.703125 -12.71875 12.140625 -13.0625 C 12.578125 -13.414062 13.070312 -13.59375 13.625 -13.59375 Z M 13.625 -13.59375 "/></g></g></g></svg>