<svg xmlns="http://www.w3.org/2000/svg" xmlns:xlink="http://www.w3.org/1999/xlink" width="500" zoomAndPan="magnify" viewBox="0 0 375 374.999991" height="500" preserveAspectRatio="xMidYMid meet" version="1.0"><defs><g/><clipPath id="08e4442e09"><path d="M 99.15625 130.902344 L 275.402344 130.902344 L 275.402344 193.195312 L 99.15625 193.195312 Z M 99.15625 130.902344 " clip-rule="nonzero"/></clipPath><clipPath id="0fb2f0eaef"><path d="M 92.214844 181.796875 L 268.457031 181.796875 L 268.457031 244.089844 L 92.214844 244.089844 Z M 92.214844 181.796875 " clip-rule="nonzero"/></clipPath><clipPath id="2d7600566d"><path d="M 57.941406 137.386719 L 317.058594 137.386719 L 317.058594 193.320312 L 57.941406 193.320312 Z M 57.941406 137.386719 " clip-rule="nonzero"/></clipPath><clipPath id="1364e3c70e"><path d="M 91.785156 172.6875 L 276.816406 172.6875 L 276.816406 236.957031 L 91.785156 236.957031 Z M 91.785156 172.6875 " clip-rule="nonzero"/></clipPath></defs><g clip-path="url(#08e4442e09)"><path fill="#ffffff" d="M 272.707031 187.03125 L 269.574219 187.03125 L 269.574219 133.765625 C 269.574219 133.347656 269.492188 132.949219 269.332031 132.566406 C 269.175781 132.183594 268.949219 131.84375 268.65625 131.550781 C 268.359375 131.253906 268.023438 131.03125 267.636719 130.871094 C 267.253906 130.710938 266.855469 130.632812 266.4375 130.632812 L 247.640625 130.632812 C 247.222656 130.632812 246.824219 130.710938 246.441406 130.871094 C 246.058594 131.03125 245.71875 131.253906 245.425781 131.550781 C 245.128906 131.84375 244.902344 132.183594 244.746094 132.566406 C 244.585938 132.949219 244.507812 133.347656 244.507812 133.765625 L 244.507812 187.03125 L 231.972656 187.03125 L 231.972656 8.433594 C 231.972656 8.019531 231.894531 7.621094 231.734375 7.234375 C 231.574219 6.851562 231.347656 6.511719 231.054688 6.21875 C 230.761719 5.925781 230.421875 5.699219 230.039062 5.539062 C 229.65625 5.382812 229.253906 5.300781 228.839844 5.300781 L 210.039062 5.300781 C 209.625 5.300781 209.226562 5.382812 208.839844 5.539062 C 208.457031 5.699219 208.117188 5.925781 207.824219 6.21875 C 207.53125 6.511719 207.304688 6.851562 207.144531 7.234375 C 206.988281 7.621094 206.90625 8.019531 206.90625 8.433594 L 206.90625 187.03125 L 194.375 187.03125 L 194.375 42.902344 C 194.375 42.484375 194.292969 42.085938 194.136719 41.703125 C 193.976562 41.316406 193.75 40.980469 193.457031 40.683594 C 193.164062 40.390625 192.824219 40.164062 192.441406 40.003906 C 192.054688 39.847656 191.65625 39.765625 191.242188 39.765625 L 172.441406 39.765625 C 172.027344 39.765625 171.625 39.847656 171.242188 40.003906 C 170.859375 40.164062 170.519531 40.390625 170.226562 40.683594 C 169.933594 40.980469 169.707031 41.316406 169.546875 41.703125 C 169.386719 42.085938 169.308594 42.484375 169.308594 42.902344 L 169.308594 187.03125 L 156.773438 187.03125 L 156.773438 102.433594 C 156.773438 102.015625 156.695312 101.617188 156.535156 101.234375 C 156.378906 100.847656 156.152344 100.511719 155.859375 100.21875 C 155.5625 99.921875 155.226562 99.695312 154.839844 99.539062 C 154.457031 99.378906 154.058594 99.300781 153.640625 99.300781 L 134.84375 99.300781 C 134.425781 99.300781 134.027344 99.378906 133.644531 99.539062 C 133.257812 99.695312 132.921875 99.921875 132.625 100.21875 C 132.332031 100.511719 132.105469 100.847656 131.949219 101.234375 C 131.789062 101.617188 131.710938 102.015625 131.710938 102.433594 L 131.710938 187.03125 L 119.175781 187.03125 L 119.175781 71.101562 C 119.175781 70.683594 119.097656 70.285156 118.9375 69.902344 C 118.777344 69.515625 118.550781 69.179688 118.257812 68.882812 C 117.964844 68.589844 117.625 68.363281 117.242188 68.207031 C 116.859375 68.046875 116.457031 67.964844 116.042969 67.964844 L 97.242188 67.964844 C 96.828125 67.964844 96.429688 68.046875 96.042969 68.207031 C 95.660156 68.363281 95.320312 68.589844 95.027344 68.882812 C 94.734375 69.179688 94.507812 69.515625 94.347656 69.902344 C 94.191406 70.285156 94.109375 70.683594 94.109375 71.101562 L 94.109375 187.03125 L 90.976562 187.03125 C 90.5625 187.03125 90.160156 187.109375 89.777344 187.269531 C 89.394531 187.429688 89.054688 187.65625 88.761719 187.949219 C 88.46875 188.242188 88.242188 188.582031 88.082031 188.964844 C 87.921875 189.347656 87.84375 189.75 87.84375 190.164062 C 87.84375 190.578125 87.921875 190.980469 88.082031 191.363281 C 88.242188 191.746094 88.46875 192.085938 88.761719 192.378906 C 89.054688 192.671875 89.394531 192.898438 89.777344 193.058594 C 90.160156 193.21875 90.5625 193.296875 90.976562 193.296875 L 272.707031 193.296875 C 273.121094 193.296875 273.519531 193.21875 273.90625 193.058594 C 274.289062 192.898438 274.628906 192.671875 274.921875 192.378906 C 275.214844 192.085938 275.441406 191.746094 275.601562 191.363281 C 275.757812 190.980469 275.839844 190.578125 275.839844 190.164062 C 275.839844 189.75 275.757812 189.347656 275.601562 188.964844 C 275.441406 188.582031 275.214844 188.242188 274.921875 187.949219 C 274.628906 187.65625 274.289062 187.429688 273.90625 187.269531 C 273.519531 187.109375 273.121094 187.03125 272.707031 187.03125 Z M 272.707031 187.03125 " fill-opacity="1" fill-rule="nonzero"/></g><g clip-path="url(#0fb2f0eaef)"><path fill="#ffffff" d="M 94.910156 187.964844 L 98.042969 187.964844 L 98.042969 241.226562 C 98.042969 241.644531 98.121094 242.042969 98.28125 242.425781 C 98.441406 242.8125 98.667969 243.148438 98.960938 243.445312 C 99.253906 243.738281 99.59375 243.964844 99.976562 244.125 C 100.359375 244.28125 100.761719 244.363281 101.175781 244.363281 L 119.976562 244.363281 C 120.390625 244.363281 120.789062 244.28125 121.175781 244.125 C 121.558594 243.964844 121.898438 243.738281 122.191406 243.445312 C 122.484375 243.148438 122.710938 242.8125 122.871094 242.425781 C 123.027344 242.042969 123.109375 241.644531 123.109375 241.226562 L 123.109375 187.964844 L 135.640625 187.964844 L 135.640625 366.558594 C 135.640625 366.972656 135.722656 367.375 135.878906 367.757812 C 136.039062 368.140625 136.265625 368.480469 136.558594 368.773438 C 136.851562 369.066406 137.191406 369.292969 137.574219 369.453125 C 137.960938 369.613281 138.359375 369.691406 138.773438 369.691406 L 157.574219 369.691406 C 157.988281 369.691406 158.390625 369.613281 158.773438 369.453125 C 159.15625 369.292969 159.496094 369.066406 159.789062 368.773438 C 160.082031 368.480469 160.308594 368.140625 160.46875 367.757812 C 160.628906 367.375 160.707031 366.972656 160.707031 366.558594 L 160.707031 187.964844 L 173.242188 187.964844 L 173.242188 332.09375 C 173.242188 332.507812 173.320312 332.90625 173.480469 333.292969 C 173.636719 333.675781 173.863281 334.015625 174.160156 334.308594 C 174.453125 334.601562 174.792969 334.828125 175.175781 334.988281 C 175.558594 335.148438 175.957031 335.226562 176.375 335.226562 L 195.171875 335.226562 C 195.589844 335.226562 195.988281 335.148438 196.371094 334.988281 C 196.757812 334.828125 197.09375 334.601562 197.390625 334.308594 C 197.683594 334.015625 197.910156 333.675781 198.066406 333.292969 C 198.226562 332.90625 198.308594 332.507812 198.308594 332.09375 L 198.308594 187.964844 L 210.839844 187.964844 L 210.839844 272.5625 C 210.839844 272.976562 210.917969 273.375 211.078125 273.761719 C 211.238281 274.144531 211.464844 274.484375 211.757812 274.777344 C 212.050781 275.070312 212.390625 275.296875 212.773438 275.457031 C 213.15625 275.613281 213.558594 275.695312 213.972656 275.695312 L 232.773438 275.695312 C 233.1875 275.695312 233.585938 275.613281 233.972656 275.457031 C 234.355469 275.296875 234.695312 275.070312 234.988281 274.777344 C 235.28125 274.484375 235.507812 274.144531 235.667969 273.761719 C 235.828125 273.375 235.90625 272.976562 235.90625 272.5625 L 235.90625 187.964844 L 248.4375 187.964844 L 248.4375 303.894531 C 248.4375 304.308594 248.519531 304.707031 248.675781 305.09375 C 248.835938 305.476562 249.0625 305.816406 249.355469 306.109375 C 249.652344 306.402344 249.988281 306.628906 250.375 306.789062 C 250.757812 306.949219 251.15625 307.027344 251.570312 307.027344 L 270.371094 307.027344 C 270.789062 307.027344 271.1875 306.949219 271.570312 306.789062 C 271.953125 306.628906 272.292969 306.402344 272.585938 306.109375 C 272.882812 305.816406 273.109375 305.476562 273.265625 305.09375 C 273.425781 304.707031 273.503906 304.308594 273.503906 303.894531 L 273.503906 187.964844 L 276.636719 187.964844 C 277.054688 187.964844 277.453125 187.882812 277.835938 187.722656 C 278.222656 187.566406 278.558594 187.339844 278.855469 187.046875 C 279.148438 186.75 279.375 186.414062 279.53125 186.027344 C 279.691406 185.644531 279.773438 185.246094 279.773438 184.828125 C 279.773438 184.414062 279.691406 184.015625 279.53125 183.628906 C 279.375 183.246094 279.148438 182.90625 278.855469 182.613281 C 278.558594 182.320312 278.222656 182.09375 277.835938 181.933594 C 277.453125 181.777344 277.054688 181.695312 276.636719 181.695312 L 94.910156 181.695312 C 94.492188 181.695312 94.09375 181.777344 93.710938 181.933594 C 93.328125 182.09375 92.988281 182.320312 92.695312 182.613281 C 92.398438 182.90625 92.171875 183.246094 92.015625 183.628906 C 91.855469 184.015625 91.777344 184.414062 91.777344 184.828125 C 91.777344 185.246094 91.855469 185.644531 92.015625 186.027344 C 92.171875 186.414062 92.398438 186.75 92.695312 187.046875 C 92.988281 187.339844 93.328125 187.566406 93.710938 187.722656 C 94.09375 187.882812 94.492188 187.964844 94.910156 187.964844 Z M 94.910156 187.964844 " fill-opacity="1" fill-rule="nonzero"/></g><g clip-path="url(#2d7600566d)"><path fill="#000000" d="M 57.941406 137.386719 L 317.058594 137.386719 L 317.058594 193.320312 L 57.941406 193.320312 Z M 57.941406 137.386719 " fill-opacity="1" fill-rule="nonzero"/></g><g clip-path="url(#1364e3c70e)"><path fill="#000000" d="M 91.785156 172.6875 L 276.816406 172.6875 L 276.816406 236.957031 L 91.785156 236.957031 Z M 91.785156 172.6875 " fill-opacity="1" fill-rule="nonzero"/></g><g fill="#000000" fill-opacity="0.4"><g transform="translate(66.357327, 223.286415)"><g><path d="M 31.8125 -6.140625 C 31.675781 -5.691406 31.609375 -5.242188 31.609375 -4.796875 C 31.609375 -4.410156 31.660156 -4.085938 31.765625 -3.828125 C 31.867188 -3.566406 31.976562 -3.359375 32.09375 -3.203125 C 32.21875 -3.046875 32.300781 -2.929688 32.34375 -2.859375 C 32.6875 -2.515625 32.859375 -2.171875 32.859375 -1.828125 C 32.859375 -1.753906 32.820312 -1.578125 32.75 -1.296875 C 32.613281 -0.816406 32.3125 -0.476562 31.84375 -0.28125 C 31.375 -0.09375 30.65625 0 29.6875 0 L 17.34375 0 C 16.613281 0 16.046875 -0.117188 15.640625 -0.359375 C 15.242188 -0.609375 15.046875 -0.941406 15.046875 -1.359375 C 15.046875 -1.566406 15.097656 -1.789062 15.203125 -2.03125 C 15.304688 -2.3125 15.453125 -2.53125 15.640625 -2.6875 C 15.835938 -2.84375 16.109375 -3.023438 16.453125 -3.234375 C 17.015625 -3.546875 17.46875 -3.890625 17.8125 -4.265625 C 18.15625 -4.648438 18.453125 -5.273438 18.703125 -6.140625 L 20.046875 -10.625 L 11.921875 -10.625 L 10.515625 -7.65625 C 9.929688 -6.375 9.640625 -5.367188 9.640625 -4.640625 C 9.640625 -4.222656 9.707031 -3.882812 9.84375 -3.625 C 9.976562 -3.363281 10.1875 -3.09375 10.46875 -2.8125 C 10.707031 -2.53125 10.867188 -2.296875 10.953125 -2.109375 C 11.046875 -1.921875 11.054688 -1.671875 10.984375 -1.359375 C 10.847656 -0.835938 10.5625 -0.476562 10.125 -0.28125 C 9.695312 -0.09375 9.015625 0 8.078125 0 L 0.3125 0 C -0.488281 0 -1.097656 -0.144531 -1.515625 -0.4375 C -1.929688 -0.738281 -2.140625 -1.128906 -2.140625 -1.609375 C -2.140625 -2.171875 -1.9375 -2.613281 -1.53125 -2.9375 C -1.132812 -3.269531 -0.535156 -3.628906 0.265625 -4.015625 C 1.304688 -4.535156 2.140625 -5.046875 2.765625 -5.546875 C 3.390625 -6.046875 3.925781 -6.75 4.375 -7.65625 L 13.640625 -26.875 C 15.066406 -29.851562 16.742188 -32.007812 18.671875 -33.34375 C 20.597656 -34.6875 23.140625 -35.359375 26.296875 -35.359375 C 29.835938 -35.359375 32.578125 -34.632812 34.515625 -33.1875 C 36.460938 -31.75 37.4375 -29.75 37.4375 -27.1875 C 37.4375 -26.101562 37.265625 -24.992188 36.921875 -23.859375 Z M 21.609375 -15.828125 L 24.375 -25 C 24.507812 -25.414062 24.578125 -25.847656 24.578125 -26.296875 C 24.578125 -26.953125 24.394531 -27.445312 24.03125 -27.78125 C 23.664062 -28.113281 23.15625 -28.28125 22.5 -28.28125 C 21.664062 -28.28125 20.953125 -28.035156 20.359375 -27.546875 C 19.773438 -27.054688 19.1875 -26.191406 18.59375 -24.953125 L 14.328125 -15.828125 Z M 21.609375 -15.828125 "/></g></g></g><g fill="#000000" fill-opacity="0.4"><g transform="translate(102.708523, 223.286415)"><g><path d="M 32.234375 -7.1875 C 32.160156 -7.050781 32.125 -6.84375 32.125 -6.5625 C 32.125 -6.320312 32.1875 -6.128906 32.3125 -5.984375 C 32.4375 -5.847656 32.601562 -5.78125 32.8125 -5.78125 C 33.226562 -5.78125 33.582031 -5.960938 33.875 -6.328125 C 34.164062 -6.691406 34.363281 -6.875 34.46875 -6.875 C 34.644531 -6.875 34.785156 -6.757812 34.890625 -6.53125 C 34.992188 -6.3125 35.046875 -6.046875 35.046875 -5.734375 C 35.078125 -4.722656 34.742188 -3.738281 34.046875 -2.78125 C 33.359375 -1.832031 32.34375 -1.050781 31 -0.4375 C 29.664062 0.164062 28.0625 0.46875 26.1875 0.46875 C 23.90625 0.46875 22.085938 -0.0546875 20.734375 -1.109375 C 19.378906 -2.171875 18.679688 -3.585938 18.640625 -5.359375 C 18.640625 -6.648438 18.953125 -8.09375 19.578125 -9.6875 L 22.453125 -17.1875 C 22.617188 -17.632812 22.703125 -18 22.703125 -18.28125 C 22.703125 -18.726562 22.554688 -19.082031 22.265625 -19.34375 C 21.972656 -19.601562 21.617188 -19.734375 21.203125 -19.734375 C 20.429688 -19.734375 19.695312 -19.378906 19 -18.671875 C 18.3125 -17.960938 17.8125 -17.085938 17.5 -16.046875 L 14.265625 -5.421875 C 14.128906 -5.035156 14.0625 -4.671875 14.0625 -4.328125 C 14.0625 -3.910156 14.144531 -3.570312 14.3125 -3.3125 C 14.488281 -3.050781 14.734375 -2.78125 15.046875 -2.5 C 15.296875 -2.289062 15.472656 -2.097656 15.578125 -1.921875 C 15.679688 -1.753906 15.695312 -1.546875 15.625 -1.296875 C 15.488281 -0.847656 15.160156 -0.519531 14.640625 -0.3125 C 14.117188 -0.101562 13.300781 0 12.1875 0 L 0.3125 0 C -0.59375 0 -1.242188 -0.144531 -1.640625 -0.4375 C -2.035156 -0.738281 -2.179688 -1.128906 -2.078125 -1.609375 C -1.941406 -2.023438 -1.578125 -2.390625 -0.984375 -2.703125 C -0.460938 -2.984375 -0.03125 -3.3125 0.3125 -3.6875 C 0.65625 -4.070312 0.953125 -4.679688 1.203125 -5.515625 L 5.828125 -20.578125 C 5.898438 -20.742188 5.9375 -20.984375 5.9375 -21.296875 C 5.9375 -21.679688 5.859375 -21.976562 5.703125 -22.1875 C 5.546875 -22.394531 5.296875 -22.65625 4.953125 -22.96875 C 4.597656 -23.25 4.351562 -23.492188 4.21875 -23.703125 C 4.082031 -23.910156 4.066406 -24.1875 4.171875 -24.53125 C 4.378906 -25.320312 5.472656 -26.019531 7.453125 -26.625 C 9.429688 -27.238281 11.492188 -27.546875 13.640625 -27.546875 C 15.378906 -27.546875 16.75 -27.066406 17.75 -26.109375 C 18.757812 -25.160156 19.210938 -23.835938 19.109375 -22.140625 C 20.535156 -24.179688 22.046875 -25.59375 23.640625 -26.375 C 25.234375 -27.15625 26.96875 -27.546875 28.84375 -27.546875 C 30.96875 -27.546875 32.679688 -26.90625 33.984375 -25.625 C 35.285156 -24.34375 35.9375 -22.675781 35.9375 -20.625 C 35.9375 -19.550781 35.757812 -18.492188 35.40625 -17.453125 Z M 32.234375 -7.1875 "/></g></g></g><g fill="#000000" fill-opacity="0.4"><g transform="translate(139.997147, 223.286415)"><g><path d="M 23.28125 -26.875 C 23.9375 -26.875 24.445312 -26.734375 24.8125 -26.453125 C 25.175781 -26.171875 25.359375 -25.789062 25.359375 -25.3125 C 25.359375 -25.175781 25.328125 -24.929688 25.265625 -24.578125 C 24.804688 -23.054688 23.765625 -22.296875 22.140625 -22.296875 L 19.109375 -22.296875 L 15.203125 -9.421875 C 15.035156 -8.898438 14.953125 -8.363281 14.953125 -7.8125 C 14.953125 -7.1875 15.125 -6.75 15.46875 -6.5 C 15.8125 -6.257812 16.296875 -6.140625 16.921875 -6.140625 C 17.484375 -6.140625 18.179688 -6.210938 19.015625 -6.359375 C 19.429688 -6.460938 19.796875 -6.515625 20.109375 -6.515625 C 20.347656 -6.515625 20.523438 -6.4375 20.640625 -6.28125 C 20.765625 -6.125 20.828125 -5.921875 20.828125 -5.671875 C 20.867188 -4.984375 20.359375 -4.144531 19.296875 -3.15625 C 18.234375 -2.164062 16.800781 -1.3125 15 -0.59375 C 13.195312 0.113281 11.203125 0.46875 9.015625 0.46875 C 6.648438 0.46875 4.753906 -0.0664062 3.328125 -1.140625 C 1.910156 -2.222656 1.203125 -3.703125 1.203125 -5.578125 C 1.203125 -6.441406 1.335938 -7.273438 1.609375 -8.078125 L 4.953125 -18.390625 C 5.117188 -18.972656 5.203125 -19.441406 5.203125 -19.796875 C 5.203125 -20.484375 5.035156 -21.070312 4.703125 -21.5625 C 4.378906 -22.050781 3.921875 -22.554688 3.328125 -23.078125 C 2.804688 -23.554688 2.441406 -23.960938 2.234375 -24.296875 C 2.023438 -24.628906 1.972656 -25.019531 2.078125 -25.46875 C 2.222656 -25.914062 2.519531 -26.257812 2.96875 -26.5 C 3.414062 -26.75 4.128906 -26.875 5.109375 -26.875 L 8.015625 -26.875 L 11.296875 -30.15625 C 12.441406 -31.300781 13.492188 -32.097656 14.453125 -32.546875 C 15.410156 -32.992188 16.648438 -33.21875 18.171875 -33.21875 C 20.359375 -33.21875 21.453125 -32.382812 21.453125 -30.71875 C 21.453125 -30.195312 21.382812 -29.710938 21.25 -29.265625 L 20.515625 -26.875 Z M 23.28125 -26.875 "/></g></g></g><g fill="#000000" fill-opacity="0.4"><g transform="translate(162.391154, 223.286415)"><g><path d="M 31.921875 -7.1875 C 31.847656 -7.050781 31.8125 -6.84375 31.8125 -6.5625 C 31.8125 -6.320312 31.875 -6.128906 32 -5.984375 C 32.125 -5.847656 32.289062 -5.78125 32.5 -5.78125 C 32.914062 -5.78125 33.269531 -5.960938 33.5625 -6.328125 C 33.851562 -6.691406 34.050781 -6.875 34.15625 -6.875 C 34.332031 -6.875 34.472656 -6.757812 34.578125 -6.53125 C 34.679688 -6.3125 34.734375 -6.046875 34.734375 -5.734375 C 34.765625 -4.722656 34.429688 -3.738281 33.734375 -2.78125 C 33.046875 -1.832031 32.03125 -1.050781 30.6875 -0.4375 C 29.351562 0.164062 27.75 0.46875 25.875 0.46875 C 23.59375 0.46875 21.773438 -0.0546875 20.421875 -1.109375 C 19.066406 -2.171875 18.367188 -3.585938 18.328125 -5.359375 C 18.328125 -6.648438 18.640625 -8.09375 19.265625 -9.6875 L 22.140625 -17.1875 C 22.304688 -17.632812 22.390625 -18 22.390625 -18.28125 C 22.390625 -18.726562 22.242188 -19.082031 21.953125 -19.34375 C 21.660156 -19.601562 21.304688 -19.734375 20.890625 -19.734375 C 20.222656 -19.734375 19.550781 -19.429688 18.875 -18.828125 C 18.195312 -18.222656 17.648438 -17.242188 17.234375 -15.890625 L 17.234375 -15.984375 L 13.953125 -5.421875 C 13.847656 -5.003906 13.796875 -4.640625 13.796875 -4.328125 C 13.796875 -3.867188 13.882812 -3.507812 14.0625 -3.25 C 14.238281 -2.988281 14.484375 -2.738281 14.796875 -2.5 C 15.035156 -2.257812 15.207031 -2.0625 15.3125 -1.90625 C 15.414062 -1.75 15.429688 -1.546875 15.359375 -1.296875 C 15.191406 -0.847656 14.847656 -0.519531 14.328125 -0.3125 C 13.804688 -0.101562 13.003906 0 11.921875 0 L 0.046875 0 C -0.847656 0 -1.503906 -0.144531 -1.921875 -0.4375 C -2.335938 -0.738281 -2.476562 -1.128906 -2.34375 -1.609375 C -2.207031 -2.023438 -1.84375 -2.390625 -1.25 -2.703125 C -0.726562 -2.984375 -0.296875 -3.3125 0.046875 -3.6875 C 0.398438 -4.070312 0.695312 -4.679688 0.9375 -5.515625 L 8.859375 -31.5 C 8.960938 -31.8125 9.015625 -32.070312 9.015625 -32.28125 C 9.015625 -32.664062 8.914062 -32.976562 8.71875 -33.21875 C 8.53125 -33.46875 8.28125 -33.710938 7.96875 -33.953125 C 7.625 -34.234375 7.375 -34.476562 7.21875 -34.6875 C 7.0625 -34.894531 7.035156 -35.171875 7.140625 -35.515625 C 7.347656 -36.316406 8.441406 -37.007812 10.421875 -37.59375 C 12.398438 -38.1875 14.460938 -38.484375 16.609375 -38.484375 C 18.628906 -38.484375 20.113281 -38.097656 21.0625 -37.328125 C 22.019531 -36.566406 22.5 -35.53125 22.5 -34.21875 C 22.5 -33.445312 22.378906 -32.695312 22.140625 -31.96875 L 19.328125 -22.8125 C 20.679688 -24.582031 22.109375 -25.8125 23.609375 -26.5 C 25.117188 -27.195312 26.757812 -27.546875 28.53125 -27.546875 C 30.65625 -27.546875 32.367188 -26.90625 33.671875 -25.625 C 34.972656 -24.34375 35.625 -22.675781 35.625 -20.625 C 35.625 -19.550781 35.445312 -18.492188 35.09375 -17.453125 Z M 31.921875 -7.1875 "/></g></g></g><g fill="#000000" fill-opacity="0.4"><g transform="translate(199.367302, 223.286415)"><g><path d="M 20.15625 -27.546875 C 24.875 -27.546875 28.351562 -26.59375 30.59375 -24.6875 C 32.832031 -22.78125 33.953125 -20.28125 33.953125 -17.1875 C 33.953125 -16.144531 33.8125 -14.984375 33.53125 -13.703125 C 32.875 -10.847656 31.640625 -8.351562 29.828125 -6.21875 C 28.023438 -4.082031 25.8125 -2.429688 23.1875 -1.265625 C 20.570312 -0.109375 17.738281 0.46875 14.6875 0.46875 C 9.863281 0.46875 6.296875 -0.492188 3.984375 -2.421875 C 1.671875 -4.347656 0.515625 -6.910156 0.515625 -10.109375 C 0.515625 -11.179688 0.65625 -12.378906 0.9375 -13.703125 C 1.59375 -16.410156 2.847656 -18.8125 4.703125 -20.90625 C 6.566406 -23.007812 8.84375 -24.640625 11.53125 -25.796875 C 14.226562 -26.960938 17.101562 -27.546875 20.15625 -27.546875 Z M 20 -22.921875 C 19.269531 -22.921875 18.492188 -22.269531 17.671875 -20.96875 C 16.859375 -19.664062 15.898438 -17.207031 14.796875 -13.59375 C 13.679688 -9.976562 13.125 -7.441406 13.125 -5.984375 C 13.125 -5.222656 13.242188 -4.710938 13.484375 -4.453125 C 13.734375 -4.191406 14.066406 -4.0625 14.484375 -4.0625 C 15.210938 -3.988281 15.96875 -4.613281 16.75 -5.9375 C 17.53125 -7.257812 18.507812 -9.828125 19.6875 -13.640625 C 20.757812 -17.015625 21.296875 -19.460938 21.296875 -20.984375 C 21.296875 -21.710938 21.179688 -22.21875 20.953125 -22.5 C 20.734375 -22.78125 20.414062 -22.921875 20 -22.921875 Z M 20 -22.921875 "/></g></g></g><g fill="#000000" fill-opacity="0.4"><g transform="translate(233.531174, 223.286415)"><g><path d="M 32.234375 -7.1875 C 32.160156 -7.050781 32.125 -6.84375 32.125 -6.5625 C 32.125 -6.320312 32.1875 -6.128906 32.3125 -5.984375 C 32.4375 -5.847656 32.601562 -5.78125 32.8125 -5.78125 C 33.226562 -5.78125 33.582031 -5.960938 33.875 -6.328125 C 34.164062 -6.691406 34.363281 -6.875 34.46875 -6.875 C 34.644531 -6.875 34.785156 -6.757812 34.890625 -6.53125 C 34.992188 -6.3125 35.046875 -6.046875 35.046875 -5.734375 C 35.078125 -4.722656 34.742188 -3.738281 34.046875 -2.78125 C 33.359375 -1.832031 32.34375 -1.050781 31 -0.4375 C 29.664062 0.164062 28.0625 0.46875 26.1875 0.46875 C 23.90625 0.46875 22.085938 -0.0546875 20.734375 -1.109375 C 19.378906 -2.171875 18.679688 -3.585938 18.640625 -5.359375 C 18.640625 -6.648438 18.953125 -8.09375 19.578125 -9.6875 L 22.453125 -17.1875 C 22.617188 -17.632812 22.703125 -18 22.703125 -18.28125 C 22.703125 -18.726562 22.554688 -19.082031 22.265625 -19.34375 C 21.972656 -19.601562 21.617188 -19.734375 21.203125 -19.734375 C 20.429688 -19.734375 19.695312 -19.378906 19 -18.671875 C 18.3125 -17.960938 17.8125 -17.085938 17.5 -16.046875 L 14.265625 -5.421875 C 14.128906 -5.035156 14.0625 -4.671875 14.0625 -4.328125 C 14.0625 -3.910156 14.144531 -3.570312 14.3125 -3.3125 C 14.488281 -3.050781 14.734375 -2.78125 15.046875 -2.5 C 15.296875 -2.289062 15.472656 -2.097656 15.578125 -1.921875 C 15.679688 -1.753906 15.695312 -1.546875 15.625 -1.296875 C 15.488281 -0.847656 15.160156 -0.519531 14.640625 -0.3125 C 14.117188 -0.101562 13.300781 0 12.1875 0 L 0.3125 0 C -0.59375 0 -1.242188 -0.144531 -1.640625 -0.4375 C -2.035156 -0.738281 -2.179688 -1.128906 -2.078125 -1.609375 C -1.941406 -2.023438 -1.578125 -2.390625 -0.984375 -2.703125 C -0.460938 -2.984375 -0.03125 -3.3125 0.3125 -3.6875 C 0.65625 -4.070312 0.953125 -4.679688 1.203125 -5.515625 L 5.828125 -20.578125 C 5.898438 -20.742188 5.9375 -20.984375 5.9375 -21.296875 C 5.9375 -21.679688 5.859375 -21.976562 5.703125 -22.1875 C 5.546875 -22.394531 5.296875 -22.65625 4.953125 -22.96875 C 4.597656 -23.25 4.351562 -23.492188 4.21875 -23.703125 C 4.082031 -23.910156 4.066406 -24.1875 4.171875 -24.53125 C 4.378906 -25.320312 5.472656 -26.019531 7.453125 -26.625 C 9.429688 -27.238281 11.492188 -27.546875 13.640625 -27.546875 C 15.378906 -27.546875 16.75 -27.066406 17.75 -26.109375 C 18.757812 -25.160156 19.210938 -23.835938 19.109375 -22.140625 C 20.535156 -24.179688 22.046875 -25.59375 23.640625 -26.375 C 25.234375 -27.15625 26.96875 -27.546875 28.84375 -27.546875 C 30.96875 -27.546875 32.679688 -26.90625 33.984375 -25.625 C 35.285156 -24.34375 35.9375 -22.675781 35.9375 -20.625 C 35.9375 -19.550781 35.757812 -18.492188 35.40625 -17.453125 Z M 32.234375 -7.1875 "/></g></g></g><g fill="#000000" fill-opacity="0.4"><g transform="translate(270.819804, 223.286415)"><g><path d="M 27.59375 -27.546875 C 29.125 -27.546875 30.347656 -26.929688 31.265625 -25.703125 C 32.191406 -24.472656 32.65625 -22.796875 32.65625 -20.671875 C 32.65625 -18.835938 32.320312 -16.859375 31.65625 -14.734375 C 30.375 -10.460938 28.316406 -6.4375 25.484375 -2.65625 C 22.660156 1.125 19.414062 4.160156 15.75 6.453125 C 12.09375 8.742188 8.441406 9.890625 4.796875 9.890625 C 2.984375 9.890625 1.425781 9.578125 0.125 8.953125 C -1.175781 8.328125 -2.164062 7.492188 -2.84375 6.453125 C -3.519531 5.410156 -3.859375 4.300781 -3.859375 3.125 C -3.859375 2.601562 -3.769531 2.03125 -3.59375 1.40625 C -3.28125 0.4375 -2.757812 -0.304688 -2.03125 -0.828125 C -1.300781 -1.347656 -0.429688 -1.609375 0.578125 -1.609375 C 2.171875 -1.609375 3.476562 -1.0625 4.5 0.03125 C 5.53125 1.125 6.179688 2.625 6.453125 4.53125 C 8.679688 4.425781 10.734375 3.472656 12.609375 1.671875 C 10.835938 1.359375 9.523438 0.757812 8.671875 -0.125 C 7.816406 -1.007812 7.234375 -2.390625 6.921875 -4.265625 L 4.84375 -17.03125 C 4.738281 -17.6875 4.585938 -18.144531 4.390625 -18.40625 C 4.203125 -18.664062 3.953125 -18.796875 3.640625 -18.796875 C 3.398438 -18.796875 3.113281 -18.675781 2.78125 -18.4375 C 2.457031 -18.195312 2.222656 -18.078125 2.078125 -18.078125 C 1.804688 -18.078125 1.671875 -18.367188 1.671875 -18.953125 C 1.671875 -19.441406 1.753906 -19.960938 1.921875 -20.515625 C 2.546875 -22.492188 3.707031 -24.164062 5.40625 -25.53125 C 7.113281 -26.90625 9.097656 -27.59375 11.359375 -27.59375 C 13.578125 -27.59375 15.210938 -26.929688 16.265625 -25.609375 C 17.328125 -24.296875 18.015625 -22.269531 18.328125 -19.53125 L 19.890625 -8.078125 C 19.992188 -7.203125 20.304688 -6.765625 20.828125 -6.765625 C 21.453125 -6.765625 22.179688 -7.328125 23.015625 -8.453125 C 23.847656 -9.585938 24.664062 -11.195312 25.46875 -13.28125 C 24.425781 -14.21875 23.625 -15.289062 23.0625 -16.5 C 22.507812 -17.71875 22.234375 -19.023438 22.234375 -20.421875 C 22.234375 -21.492188 22.375 -22.460938 22.65625 -23.328125 C 23.070312 -24.722656 23.722656 -25.773438 24.609375 -26.484375 C 25.492188 -27.191406 26.488281 -27.546875 27.59375 -27.546875 Z M 27.59375 -27.546875 "/></g></g></g><g fill="#004aad" fill-opacity="1"><g transform="translate(64.055655, 220.984736)"><g><path d="M 31.8125 -6.140625 C 31.675781 -5.691406 31.609375 -5.242188 31.609375 -4.796875 C 31.609375 -4.410156 31.660156 -4.085938 31.765625 -3.828125 C 31.867188 -3.566406 31.976562 -3.359375 32.09375 -3.203125 C 32.21875 -3.046875 32.300781 -2.929688 32.34375 -2.859375 C 32.6875 -2.515625 32.859375 -2.171875 32.859375 -1.828125 C 32.859375 -1.753906 32.820312 -1.578125 32.75 -1.296875 C 32.613281 -0.816406 32.3125 -0.476562 31.84375 -0.28125 C 31.375 -0.09375 30.65625 0 29.6875 0 L 17.34375 0 C 16.613281 0 16.046875 -0.117188 15.640625 -0.359375 C 15.242188 -0.609375 15.046875 -0.941406 15.046875 -1.359375 C 15.046875 -1.566406 15.097656 -1.789062 15.203125 -2.03125 C 15.304688 -2.3125 15.453125 -2.53125 15.640625 -2.6875 C 15.835938 -2.84375 16.109375 -3.023438 16.453125 -3.234375 C 17.015625 -3.546875 17.46875 -3.890625 17.8125 -4.265625 C 18.15625 -4.648438 18.453125 -5.273438 18.703125 -6.140625 L 20.046875 -10.625 L 11.921875 -10.625 L 10.515625 -7.65625 C 9.929688 -6.375 9.640625 -5.367188 9.640625 -4.640625 C 9.640625 -4.222656 9.707031 -3.882812 9.84375 -3.625 C 9.976562 -3.363281 10.1875 -3.09375 10.46875 -2.8125 C 10.707031 -2.53125 10.867188 -2.296875 10.953125 -2.109375 C 11.046875 -1.921875 11.054688 -1.671875 10.984375 -1.359375 C 10.847656 -0.835938 10.5625 -0.476562 10.125 -0.28125 C 9.695312 -0.09375 9.015625 0 8.078125 0 L 0.3125 0 C -0.488281 0 -1.097656 -0.144531 -1.515625 -0.4375 C -1.929688 -0.738281 -2.140625 -1.128906 -2.140625 -1.609375 C -2.140625 -2.171875 -1.9375 -2.613281 -1.53125 -2.9375 C -1.132812 -3.269531 -0.535156 -3.628906 0.265625 -4.015625 C 1.304688 -4.535156 2.140625 -5.046875 2.765625 -5.546875 C 3.390625 -6.046875 3.925781 -6.75 4.375 -7.65625 L 13.640625 -26.875 C 15.066406 -29.851562 16.742188 -32.007812 18.671875 -33.34375 C 20.597656 -34.6875 23.140625 -35.359375 26.296875 -35.359375 C 29.835938 -35.359375 32.578125 -34.632812 34.515625 -33.1875 C 36.460938 -31.75 37.4375 -29.75 37.4375 -27.1875 C 37.4375 -26.101562 37.265625 -24.992188 36.921875 -23.859375 Z M 21.609375 -15.828125 L 24.375 -25 C 24.507812 -25.414062 24.578125 -25.847656 24.578125 -26.296875 C 24.578125 -26.953125 24.394531 -27.445312 24.03125 -27.78125 C 23.664062 -28.113281 23.15625 -28.28125 22.5 -28.28125 C 21.664062 -28.28125 20.953125 -28.035156 20.359375 -27.546875 C 19.773438 -27.054688 19.1875 -26.191406 18.59375 -24.953125 L 14.328125 -15.828125 Z M 21.609375 -15.828125 "/></g></g></g><g fill="#004aad" fill-opacity="1"><g transform="translate(100.406851, 220.984736)"><g><path d="M 32.234375 -7.1875 C 32.160156 -7.050781 32.125 -6.84375 32.125 -6.5625 C 32.125 -6.320312 32.1875 -6.128906 32.3125 -5.984375 C 32.4375 -5.847656 32.601562 -5.78125 32.8125 -5.78125 C 33.226562 -5.78125 33.582031 -5.960938 33.875 -6.328125 C 34.164062 -6.691406 34.363281 -6.875 34.46875 -6.875 C 34.644531 -6.875 34.785156 -6.757812 34.890625 -6.53125 C 34.992188 -6.3125 35.046875 -6.046875 35.046875 -5.734375 C 35.078125 -4.722656 34.742188 -3.738281 34.046875 -2.78125 C 33.359375 -1.832031 32.34375 -1.050781 31 -0.4375 C 29.664062 0.164062 28.0625 0.46875 26.1875 0.46875 C 23.90625 0.46875 22.085938 -0.0546875 20.734375 -1.109375 C 19.378906 -2.171875 18.679688 -3.585938 18.640625 -5.359375 C 18.640625 -6.648438 18.953125 -8.09375 19.578125 -9.6875 L 22.453125 -17.1875 C 22.617188 -17.632812 22.703125 -18 22.703125 -18.28125 C 22.703125 -18.726562 22.554688 -19.082031 22.265625 -19.34375 C 21.972656 -19.601562 21.617188 -19.734375 21.203125 -19.734375 C 20.429688 -19.734375 19.695312 -19.378906 19 -18.671875 C 18.3125 -17.960938 17.8125 -17.085938 17.5 -16.046875 L 14.265625 -5.421875 C 14.128906 -5.035156 14.0625 -4.671875 14.0625 -4.328125 C 14.0625 -3.910156 14.144531 -3.570312 14.3125 -3.3125 C 14.488281 -3.050781 14.734375 -2.78125 15.046875 -2.5 C 15.296875 -2.289062 15.472656 -2.097656 15.578125 -1.921875 C 15.679688 -1.753906 15.695312 -1.546875 15.625 -1.296875 C 15.488281 -0.847656 15.160156 -0.519531 14.640625 -0.3125 C 14.117188 -0.101562 13.300781 0 12.1875 0 L 0.3125 0 C -0.59375 0 -1.242188 -0.144531 -1.640625 -0.4375 C -2.035156 -0.738281 -2.179688 -1.128906 -2.078125 -1.609375 C -1.941406 -2.023438 -1.578125 -2.390625 -0.984375 -2.703125 C -0.460938 -2.984375 -0.03125 -3.3125 0.3125 -3.6875 C 0.65625 -4.070312 0.953125 -4.679688 1.203125 -5.515625 L 5.828125 -20.578125 C 5.898438 -20.742188 5.9375 -20.984375 5.9375 -21.296875 C 5.9375 -21.679688 5.859375 -21.976562 5.703125 -22.1875 C 5.546875 -22.394531 5.296875 -22.65625 4.953125 -22.96875 C 4.597656 -23.25 4.351562 -23.492188 4.21875 -23.703125 C 4.082031 -23.910156 4.066406 -24.1875 4.171875 -24.53125 C 4.378906 -25.320312 5.472656 -26.019531 7.453125 -26.625 C 9.429688 -27.238281 11.492188 -27.546875 13.640625 -27.546875 C 15.378906 -27.546875 16.75 -27.066406 17.75 -26.109375 C 18.757812 -25.160156 19.210938 -23.835938 19.109375 -22.140625 C 20.535156 -24.179688 22.046875 -25.59375 23.640625 -26.375 C 25.234375 -27.15625 26.96875 -27.546875 28.84375 -27.546875 C 30.96875 -27.546875 32.679688 -26.90625 33.984375 -25.625 C 35.285156 -24.34375 35.9375 -22.675781 35.9375 -20.625 C 35.9375 -19.550781 35.757812 -18.492188 35.40625 -17.453125 Z M 32.234375 -7.1875 "/></g></g></g><g fill="#004aad" fill-opacity="1"><g transform="translate(137.695475, 220.984736)"><g><path d="M 23.28125 -26.875 C 23.9375 -26.875 24.445312 -26.734375 24.8125 -26.453125 C 25.175781 -26.171875 25.359375 -25.789062 25.359375 -25.3125 C 25.359375 -25.175781 25.328125 -24.929688 25.265625 -24.578125 C 24.804688 -23.054688 23.765625 -22.296875 22.140625 -22.296875 L 19.109375 -22.296875 L 15.203125 -9.421875 C 15.035156 -8.898438 14.953125 -8.363281 14.953125 -7.8125 C 14.953125 -7.1875 15.125 -6.75 15.46875 -6.5 C 15.8125 -6.257812 16.296875 -6.140625 16.921875 -6.140625 C 17.484375 -6.140625 18.179688 -6.210938 19.015625 -6.359375 C 19.429688 -6.460938 19.796875 -6.515625 20.109375 -6.515625 C 20.347656 -6.515625 20.523438 -6.4375 20.640625 -6.28125 C 20.765625 -6.125 20.828125 -5.921875 20.828125 -5.671875 C 20.867188 -4.984375 20.359375 -4.144531 19.296875 -3.15625 C 18.234375 -2.164062 16.800781 -1.3125 15 -0.59375 C 13.195312 0.113281 11.203125 0.46875 9.015625 0.46875 C 6.648438 0.46875 4.753906 -0.0664062 3.328125 -1.140625 C 1.910156 -2.222656 1.203125 -3.703125 1.203125 -5.578125 C 1.203125 -6.441406 1.335938 -7.273438 1.609375 -8.078125 L 4.953125 -18.390625 C 5.117188 -18.972656 5.203125 -19.441406 5.203125 -19.796875 C 5.203125 -20.484375 5.035156 -21.070312 4.703125 -21.5625 C 4.378906 -22.050781 3.921875 -22.554688 3.328125 -23.078125 C 2.804688 -23.554688 2.441406 -23.960938 2.234375 -24.296875 C 2.023438 -24.628906 1.972656 -25.019531 2.078125 -25.46875 C 2.222656 -25.914062 2.519531 -26.257812 2.96875 -26.5 C 3.414062 -26.75 4.128906 -26.875 5.109375 -26.875 L 8.015625 -26.875 L 11.296875 -30.15625 C 12.441406 -31.300781 13.492188 -32.097656 14.453125 -32.546875 C 15.410156 -32.992188 16.648438 -33.21875 18.171875 -33.21875 C 20.359375 -33.21875 21.453125 -32.382812 21.453125 -30.71875 C 21.453125 -30.195312 21.382812 -29.710938 21.25 -29.265625 L 20.515625 -26.875 Z M 23.28125 -26.875 "/></g></g></g><g fill="#004aad" fill-opacity="1"><g transform="translate(160.089482, 220.984736)"><g><path d="M 31.921875 -7.1875 C 31.847656 -7.050781 31.8125 -6.84375 31.8125 -6.5625 C 31.8125 -6.320312 31.875 -6.128906 32 -5.984375 C 32.125 -5.847656 32.289062 -5.78125 32.5 -5.78125 C 32.914062 -5.78125 33.269531 -5.960938 33.5625 -6.328125 C 33.851562 -6.691406 34.050781 -6.875 34.15625 -6.875 C 34.332031 -6.875 34.472656 -6.757812 34.578125 -6.53125 C 34.679688 -6.3125 34.734375 -6.046875 34.734375 -5.734375 C 34.765625 -4.722656 34.429688 -3.738281 33.734375 -2.78125 C 33.046875 -1.832031 32.03125 -1.050781 30.6875 -0.4375 C 29.351562 0.164062 27.75 0.46875 25.875 0.46875 C 23.59375 0.46875 21.773438 -0.0546875 20.421875 -1.109375 C 19.066406 -2.171875 18.367188 -3.585938 18.328125 -5.359375 C 18.328125 -6.648438 18.640625 -8.09375 19.265625 -9.6875 L 22.140625 -17.1875 C 22.304688 -17.632812 22.390625 -18 22.390625 -18.28125 C 22.390625 -18.726562 22.242188 -19.082031 21.953125 -19.34375 C 21.660156 -19.601562 21.304688 -19.734375 20.890625 -19.734375 C 20.222656 -19.734375 19.550781 -19.429688 18.875 -18.828125 C 18.195312 -18.222656 17.648438 -17.242188 17.234375 -15.890625 L 17.234375 -15.984375 L 13.953125 -5.421875 C 13.847656 -5.003906 13.796875 -4.640625 13.796875 -4.328125 C 13.796875 -3.867188 13.882812 -3.507812 14.0625 -3.25 C 14.238281 -2.988281 14.484375 -2.738281 14.796875 -2.5 C 15.035156 -2.257812 15.207031 -2.0625 15.3125 -1.90625 C 15.414062 -1.75 15.429688 -1.546875 15.359375 -1.296875 C 15.191406 -0.847656 14.847656 -0.519531 14.328125 -0.3125 C 13.804688 -0.101562 13.003906 0 11.921875 0 L 0.046875 0 C -0.847656 0 -1.503906 -0.144531 -1.921875 -0.4375 C -2.335938 -0.738281 -2.476562 -1.128906 -2.34375 -1.609375 C -2.207031 -2.023438 -1.84375 -2.390625 -1.25 -2.703125 C -0.726562 -2.984375 -0.296875 -3.3125 0.046875 -3.6875 C 0.398438 -4.070312 0.695312 -4.679688 0.9375 -5.515625 L 8.859375 -31.5 C 8.960938 -31.8125 9.015625 -32.070312 9.015625 -32.28125 C 9.015625 -32.664062 8.914062 -32.976562 8.71875 -33.21875 C 8.53125 -33.46875 8.28125 -33.710938 7.96875 -33.953125 C 7.625 -34.234375 7.375 -34.476562 7.21875 -34.6875 C 7.0625 -34.894531 7.035156 -35.171875 7.140625 -35.515625 C 7.347656 -36.316406 8.441406 -37.007812 10.421875 -37.59375 C 12.398438 -38.1875 14.460938 -38.484375 16.609375 -38.484375 C 18.628906 -38.484375 20.113281 -38.097656 21.0625 -37.328125 C 22.019531 -36.566406 22.5 -35.53125 22.5 -34.21875 C 22.5 -33.445312 22.378906 -32.695312 22.140625 -31.96875 L 19.328125 -22.8125 C 20.679688 -24.582031 22.109375 -25.8125 23.609375 -26.5 C 25.117188 -27.195312 26.757812 -27.546875 28.53125 -27.546875 C 30.65625 -27.546875 32.367188 -26.90625 33.671875 -25.625 C 34.972656 -24.34375 35.625 -22.675781 35.625 -20.625 C 35.625 -19.550781 35.445312 -18.492188 35.09375 -17.453125 Z M 31.921875 -7.1875 "/></g></g></g><g fill="#004aad" fill-opacity="1"><g transform="translate(197.06563, 220.984736)"><g><path d="M 20.15625 -27.546875 C 24.875 -27.546875 28.351562 -26.59375 30.59375 -24.6875 C 32.832031 -22.78125 33.953125 -20.28125 33.953125 -17.1875 C 33.953125 -16.144531 33.8125 -14.984375 33.53125 -13.703125 C 32.875 -10.847656 31.640625 -8.351562 29.828125 -6.21875 C 28.023438 -4.082031 25.8125 -2.429688 23.1875 -1.265625 C 20.570312 -0.109375 17.738281 0.46875 14.6875 0.46875 C 9.863281 0.46875 6.296875 -0.492188 3.984375 -2.421875 C 1.671875 -4.347656 0.515625 -6.910156 0.515625 -10.109375 C 0.515625 -11.179688 0.65625 -12.378906 0.9375 -13.703125 C 1.59375 -16.410156 2.847656 -18.8125 4.703125 -20.90625 C 6.566406 -23.007812 8.84375 -24.640625 11.53125 -25.796875 C 14.226562 -26.960938 17.101562 -27.546875 20.15625 -27.546875 Z M 20 -22.921875 C 19.269531 -22.921875 18.492188 -22.269531 17.671875 -20.96875 C 16.859375 -19.664062 15.898438 -17.207031 14.796875 -13.59375 C 13.679688 -9.976562 13.125 -7.441406 13.125 -5.984375 C 13.125 -5.222656 13.242188 -4.710938 13.484375 -4.453125 C 13.734375 -4.191406 14.066406 -4.0625 14.484375 -4.0625 C 15.210938 -3.988281 15.96875 -4.613281 16.75 -5.9375 C 17.53125 -7.257812 18.507812 -9.828125 19.6875 -13.640625 C 20.757812 -17.015625 21.296875 -19.460938 21.296875 -20.984375 C 21.296875 -21.710938 21.179688 -22.21875 20.953125 -22.5 C 20.734375 -22.78125 20.414062 -22.921875 20 -22.921875 Z M 20 -22.921875 "/></g></g></g><g fill="#004aad" fill-opacity="1"><g transform="translate(231.229502, 220.984736)"><g><path d="M 32.234375 -7.1875 C 32.160156 -7.050781 32.125 -6.84375 32.125 -6.5625 C 32.125 -6.320312 32.1875 -6.128906 32.3125 -5.984375 C 32.4375 -5.847656 32.601562 -5.78125 32.8125 -5.78125 C 33.226562 -5.78125 33.582031 -5.960938 33.875 -6.328125 C 34.164062 -6.691406 34.363281 -6.875 34.46875 -6.875 C 34.644531 -6.875 34.785156 -6.757812 34.890625 -6.53125 C 34.992188 -6.3125 35.046875 -6.046875 35.046875 -5.734375 C 35.078125 -4.722656 34.742188 -3.738281 34.046875 -2.78125 C 33.359375 -1.832031 32.34375 -1.050781 31 -0.4375 C 29.664062 0.164062 28.0625 0.46875 26.1875 0.46875 C 23.90625 0.46875 22.085938 -0.0546875 20.734375 -1.109375 C 19.378906 -2.171875 18.679688 -3.585938 18.640625 -5.359375 C 18.640625 -6.648438 18.953125 -8.09375 19.578125 -9.6875 L 22.453125 -17.1875 C 22.617188 -17.632812 22.703125 -18 22.703125 -18.28125 C 22.703125 -18.726562 22.554688 -19.082031 22.265625 -19.34375 C 21.972656 -19.601562 21.617188 -19.734375 21.203125 -19.734375 C 20.429688 -19.734375 19.695312 -19.378906 19 -18.671875 C 18.3125 -17.960938 17.8125 -17.085938 17.5 -16.046875 L 14.265625 -5.421875 C 14.128906 -5.035156 14.0625 -4.671875 14.0625 -4.328125 C 14.0625 -3.910156 14.144531 -3.570312 14.3125 -3.3125 C 14.488281 -3.050781 14.734375 -2.78125 15.046875 -2.5 C 15.296875 -2.289062 15.472656 -2.097656 15.578125 -1.921875 C 15.679688 -1.753906 15.695312 -1.546875 15.625 -1.296875 C 15.488281 -0.847656 15.160156 -0.519531 14.640625 -0.3125 C 14.117188 -0.101562 13.300781 0 12.1875 0 L 0.3125 0 C -0.59375 0 -1.242188 -0.144531 -1.640625 -0.4375 C -2.035156 -0.738281 -2.179688 -1.128906 -2.078125 -1.609375 C -1.941406 -2.023438 -1.578125 -2.390625 -0.984375 -2.703125 C -0.460938 -2.984375 -0.03125 -3.3125 0.3125 -3.6875 C 0.65625 -4.070312 0.953125 -4.679688 1.203125 -5.515625 L 5.828125 -20.578125 C 5.898438 -20.742188 5.9375 -20.984375 5.9375 -21.296875 C 5.9375 -21.679688 5.859375 -21.976562 5.703125 -22.1875 C 5.546875 -22.394531 5.296875 -22.65625 4.953125 -22.96875 C 4.597656 -23.25 4.351562 -23.492188 4.21875 -23.703125 C 4.082031 -23.910156 4.066406 -24.1875 4.171875 -24.53125 C 4.378906 -25.320312 5.472656 -26.019531 7.453125 -26.625 C 9.429688 -27.238281 11.492188 -27.546875 13.640625 -27.546875 C 15.378906 -27.546875 16.75 -27.066406 17.75 -26.109375 C 18.757812 -25.160156 19.210938 -23.835938 19.109375 -22.140625 C 20.535156 -24.179688 22.046875 -25.59375 23.640625 -26.375 C 25.234375 -27.15625 26.96875 -27.546875 28.84375 -27.546875 C 30.96875 -27.546875 32.679688 -26.90625 33.984375 -25.625 C 35.285156 -24.34375 35.9375 -22.675781 35.9375 -20.625 C 35.9375 -19.550781 35.757812 -18.492188 35.40625 -17.453125 Z M 32.234375 -7.1875 "/></g></g></g><g fill="#004aad" fill-opacity="1"><g transform="translate(268.518132, 220.984736)"><g><path d="M 27.59375 -27.546875 C 29.125 -27.546875 30.347656 -26.929688 31.265625 -25.703125 C 32.191406 -24.472656 32.65625 -22.796875 32.65625 -20.671875 C 32.65625 -18.835938 32.320312 -16.859375 31.65625 -14.734375 C 30.375 -10.460938 28.316406 -6.4375 25.484375 -2.65625 C 22.660156 1.125 19.414062 4.160156 15.75 6.453125 C 12.09375 8.742188 8.441406 9.890625 4.796875 9.890625 C 2.984375 9.890625 1.425781 9.578125 0.125 8.953125 C -1.175781 8.328125 -2.164062 7.492188 -2.84375 6.453125 C -3.519531 5.410156 -3.859375 4.300781 -3.859375 3.125 C -3.859375 2.601562 -3.769531 2.03125 -3.59375 1.40625 C -3.28125 0.4375 -2.757812 -0.304688 -2.03125 -0.828125 C -1.300781 -1.347656 -0.429688 -1.609375 0.578125 -1.609375 C 2.171875 -1.609375 3.476562 -1.0625 4.5 0.03125 C 5.53125 1.125 6.179688 2.625 6.453125 4.53125 C 8.679688 4.425781 10.734375 3.472656 12.609375 1.671875 C 10.835938 1.359375 9.523438 0.757812 8.671875 -0.125 C 7.816406 -1.007812 7.234375 -2.390625 6.921875 -4.265625 L 4.84375 -17.03125 C 4.738281 -17.6875 4.585938 -18.144531 4.390625 -18.40625 C 4.203125 -18.664062 3.953125 -18.796875 3.640625 -18.796875 C 3.398438 -18.796875 3.113281 -18.675781 2.78125 -18.4375 C 2.457031 -18.195312 2.222656 -18.078125 2.078125 -18.078125 C 1.804688 -18.078125 1.671875 -18.367188 1.671875 -18.953125 C 1.671875 -19.441406 1.753906 -19.960938 1.921875 -20.515625 C 2.546875 -22.492188 3.707031 -24.164062 5.40625 -25.53125 C 7.113281 -26.90625 9.097656 -27.59375 11.359375 -27.59375 C 13.578125 -27.59375 15.210938 -26.929688 16.265625 -25.609375 C 17.328125 -24.296875 18.015625 -22.269531 18.328125 -19.53125 L 19.890625 -8.078125 C 19.992188 -7.203125 20.304688 -6.765625 20.828125 -6.765625 C 21.453125 -6.765625 22.179688 -7.328125 23.015625 -8.453125 C 23.847656 -9.585938 24.664062 -11.195312 25.46875 -13.28125 C 24.425781 -14.21875 23.625 -15.289062 23.0625 -16.5 C 22.507812 -17.71875 22.234375 -19.023438 22.234375 -20.421875 C 22.234375 -21.492188 22.375 -22.460938 22.65625 -23.328125 C 23.070312 -24.722656 23.722656 -25.773438 24.609375 -26.484375 C 25.492188 -27.191406 26.488281 -27.546875 27.59375 -27.546875 Z M 27.59375 -27.546875 "/></g></g></g><g fill="#000000" fill-opacity="0.4"><g transform="translate(70.652592, 189.527608)"><g><path d="M 34.0625 -34.796875 C 35.351562 -34.796875 36.351562 -34.515625 37.0625 -33.953125 C 37.78125 -33.398438 38.140625 -32.632812 38.140625 -31.65625 C 38.140625 -31.175781 38.070312 -30.707031 37.9375 -30.25 L 36.578125 -25.390625 C 36.328125 -24.484375 35.921875 -23.835938 35.359375 -23.453125 C 34.804688 -23.078125 34.078125 -22.890625 33.171875 -22.890625 C 32.304688 -22.890625 31.613281 -23.070312 31.09375 -23.4375 C 30.570312 -23.800781 30.1875 -24.398438 29.9375 -25.234375 L 29.109375 -28.21875 C 28.960938 -28.738281 28.785156 -29.082031 28.578125 -29.25 C 28.367188 -29.425781 27.9375 -29.515625 27.28125 -29.515625 L 22.046875 -29.515625 L 19.125 -19.171875 L 20.109375 -19.171875 C 20.597656 -19.171875 21.023438 -19.238281 21.390625 -19.375 C 21.753906 -19.519531 22.148438 -19.785156 22.578125 -20.171875 L 24.1875 -21.53125 C 24.78125 -22.050781 25.3125 -22.421875 25.78125 -22.640625 C 26.25 -22.867188 26.75 -22.984375 27.28125 -22.984375 C 27.9375 -22.984375 28.484375 -22.789062 28.921875 -22.40625 C 29.359375 -22.03125 29.578125 -21.492188 29.578125 -20.796875 C 29.578125 -20.515625 29.523438 -20.179688 29.421875 -19.796875 L 27.125 -11.859375 C 26.59375 -10.148438 25.648438 -9.296875 24.296875 -9.296875 C 23.179688 -9.296875 22.3125 -9.875 21.6875 -11.03125 L 20.75 -12.796875 C 20.5 -13.285156 20.269531 -13.597656 20.0625 -13.734375 C 19.851562 -13.878906 19.539062 -13.953125 19.125 -13.953125 L 17.609375 -13.953125 L 15.40625 -6.171875 C 15.34375 -5.960938 15.3125 -5.679688 15.3125 -5.328125 C 15.3125 -4.835938 15.421875 -4.4375 15.640625 -4.125 C 15.867188 -3.8125 16.210938 -3.484375 16.671875 -3.140625 C 17.054688 -2.828125 17.316406 -2.570312 17.453125 -2.375 C 17.585938 -2.1875 17.65625 -1.953125 17.65625 -1.671875 C 17.65625 -1.046875 17.375 -0.609375 16.8125 -0.359375 C 16.257812 -0.117188 15.445312 0 14.375 0 L 1.25 0 C 0.34375 0 -0.332031 -0.164062 -0.78125 -0.5 C -1.238281 -0.832031 -1.394531 -1.289062 -1.25 -1.875 C -1.1875 -2.1875 -1.054688 -2.4375 -0.859375 -2.625 C -0.671875 -2.820312 -0.382812 -3.046875 0 -3.296875 C 0.59375 -3.640625 1.0625 -4.003906 1.40625 -4.390625 C 1.757812 -4.773438 2.039062 -5.367188 2.25 -6.171875 L 8.671875 -28.6875 C 8.804688 -29.132812 8.875 -29.550781 8.875 -29.9375 C 8.875 -30.351562 8.8125 -30.703125 8.6875 -30.984375 C 8.570312 -31.265625 8.394531 -31.5625 8.15625 -31.875 C 7.84375 -32.320312 7.6875 -32.6875 7.6875 -32.96875 C 7.6875 -33.070312 7.71875 -33.265625 7.78125 -33.546875 C 7.925781 -33.992188 8.238281 -34.3125 8.71875 -34.5 C 9.207031 -34.695312 9.925781 -34.796875 10.875 -34.796875 Z M 34.0625 -34.796875 "/></g></g></g><g fill="#000000" fill-opacity="0.4"><g transform="translate(103.600076, 189.527608)"><g><path d="M 17.71875 -27.90625 C 22.132812 -27.90625 25.335938 -27.195312 27.328125 -25.78125 C 29.316406 -24.375 30.3125 -22.570312 30.3125 -20.375 C 30.3125 -19.71875 30.238281 -19.109375 30.09375 -18.546875 C 29.570312 -16.242188 28.117188 -14.597656 25.734375 -13.609375 C 23.347656 -12.617188 20.535156 -12.125 17.296875 -12.125 C 15.660156 -12.125 14.128906 -12.226562 12.703125 -12.4375 C 12.660156 -10.625 13.144531 -9.351562 14.15625 -8.625 C 15.164062 -7.894531 16.578125 -7.53125 18.390625 -7.53125 C 19.222656 -7.53125 20.019531 -7.625 20.78125 -7.8125 C 21.550781 -8 22.53125 -8.285156 23.71875 -8.671875 C 24.695312 -9.023438 25.359375 -9.203125 25.703125 -9.203125 C 26.085938 -9.203125 26.28125 -8.972656 26.28125 -8.515625 C 26.3125 -7.296875 25.859375 -6.015625 24.921875 -4.671875 C 23.984375 -3.335938 22.585938 -2.195312 20.734375 -1.25 C 18.890625 -0.3125 16.664062 0.15625 14.0625 0.15625 C 10.1875 0.15625 7.015625 -0.816406 4.546875 -2.765625 C 2.078125 -4.710938 0.84375 -7.550781 0.84375 -11.28125 C 0.84375 -12.332031 0.976562 -13.550781 1.25 -14.9375 C 2.125 -19.226562 4.03125 -22.460938 6.96875 -24.640625 C 9.914062 -26.816406 13.5 -27.90625 17.71875 -27.90625 Z M 13.0625 -15.578125 C 13.195312 -15.535156 13.390625 -15.515625 13.640625 -15.515625 C 15.097656 -15.515625 16.207031 -16.191406 16.96875 -17.546875 C 17.738281 -18.910156 18.109375 -20.429688 18.078125 -22.109375 C 18.046875 -23.078125 17.769531 -23.5625 17.25 -23.5625 C 16.863281 -23.5625 16.40625 -23.253906 15.875 -22.640625 C 15.351562 -22.035156 14.835938 -21.125 14.328125 -19.90625 C 13.828125 -18.6875 13.40625 -17.242188 13.0625 -15.578125 Z M 13.0625 -15.578125 "/></g></g></g><g fill="#000000" fill-opacity="0.4"><g transform="translate(132.840297, 189.527608)"><g><path d="M 27.6875 -27.640625 C 29.21875 -27.640625 30.445312 -27.019531 31.375 -25.78125 C 32.300781 -24.550781 32.765625 -22.875 32.765625 -20.75 C 32.765625 -18.894531 32.429688 -16.90625 31.765625 -14.78125 C 30.472656 -10.5 28.40625 -6.457031 25.5625 -2.65625 C 22.726562 1.132812 19.472656 4.175781 15.796875 6.46875 C 12.128906 8.769531 8.46875 9.921875 4.8125 9.921875 C 3 9.921875 1.4375 9.609375 0.125 8.984375 C -1.175781 8.359375 -2.164062 7.519531 -2.84375 6.46875 C -3.519531 5.425781 -3.859375 4.316406 -3.859375 3.140625 C -3.859375 2.609375 -3.773438 2.03125 -3.609375 1.40625 C -3.296875 0.4375 -2.769531 -0.304688 -2.03125 -0.828125 C -1.300781 -1.359375 -0.429688 -1.625 0.578125 -1.625 C 2.179688 -1.625 3.492188 -1.078125 4.515625 0.015625 C 5.546875 1.117188 6.203125 2.628906 6.484375 4.546875 C 8.710938 4.441406 10.765625 3.484375 12.640625 1.671875 C 10.867188 1.359375 9.554688 0.757812 8.703125 -0.125 C 7.847656 -1.019531 7.265625 -2.40625 6.953125 -4.28125 L 4.859375 -17.078125 C 4.753906 -17.742188 4.601562 -18.207031 4.40625 -18.46875 C 4.21875 -18.726562 3.96875 -18.859375 3.65625 -18.859375 C 3.414062 -18.859375 3.128906 -18.734375 2.796875 -18.484375 C 2.460938 -18.242188 2.226562 -18.125 2.09375 -18.125 C 1.8125 -18.125 1.671875 -18.421875 1.671875 -19.015625 C 1.671875 -19.503906 1.757812 -20.03125 1.9375 -20.59375 C 2.5625 -22.570312 3.726562 -24.25 5.4375 -25.625 C 7.144531 -27 9.128906 -27.6875 11.390625 -27.6875 C 13.617188 -27.6875 15.265625 -27.023438 16.328125 -25.703125 C 17.390625 -24.378906 18.078125 -22.34375 18.390625 -19.59375 L 19.953125 -8.09375 C 20.054688 -7.226562 20.375 -6.796875 20.90625 -6.796875 C 21.53125 -6.796875 22.257812 -7.359375 23.09375 -8.484375 C 23.925781 -9.617188 24.742188 -11.234375 25.546875 -13.328125 C 24.503906 -14.265625 23.703125 -15.34375 23.140625 -16.5625 C 22.585938 -17.78125 22.3125 -19.085938 22.3125 -20.484375 C 22.3125 -21.566406 22.453125 -22.539062 22.734375 -23.40625 C 23.148438 -24.800781 23.800781 -25.851562 24.6875 -26.5625 C 25.570312 -27.28125 26.570312 -27.640625 27.6875 -27.640625 Z M 27.6875 -27.640625 "/></g></g></g><g fill="#000000" fill-opacity="0.4"><g transform="translate(165.213418, 189.527608)"><g><path d="M 13.734375 -27.640625 C 15.753906 -27.640625 17.234375 -27.253906 18.171875 -26.484375 C 19.117188 -25.722656 19.59375 -24.679688 19.59375 -23.359375 C 19.59375 -22.554688 19.472656 -21.789062 19.234375 -21.0625 L 14.421875 -5.4375 C 14.316406 -5.019531 14.265625 -4.65625 14.265625 -4.34375 C 14.265625 -3.882812 14.347656 -3.523438 14.515625 -3.265625 C 14.691406 -3.003906 14.9375 -2.753906 15.25 -2.515625 C 15.5 -2.265625 15.675781 -2.0625 15.78125 -1.90625 C 15.882812 -1.75 15.898438 -1.550781 15.828125 -1.3125 C 15.648438 -0.851562 15.300781 -0.519531 14.78125 -0.3125 C 14.257812 -0.101562 13.457031 0 12.375 0 L 0.46875 0 C -0.4375 0 -1.097656 -0.144531 -1.515625 -0.4375 C -1.929688 -0.738281 -2.070312 -1.132812 -1.9375 -1.625 C -1.789062 -2.039062 -1.425781 -2.40625 -0.84375 -2.71875 C -0.3125 -3 0.125 -3.328125 0.46875 -3.703125 C 0.820312 -4.085938 1.117188 -4.695312 1.359375 -5.53125 L 5.90625 -20.640625 C 6.007812 -20.953125 6.0625 -21.210938 6.0625 -21.421875 C 6.0625 -21.804688 5.972656 -22.109375 5.796875 -22.328125 C 5.617188 -22.554688 5.359375 -22.796875 5.015625 -23.046875 C 4.671875 -23.316406 4.425781 -23.554688 4.28125 -23.765625 C 4.144531 -23.984375 4.128906 -24.265625 4.234375 -24.609375 C 4.441406 -25.410156 5.535156 -26.113281 7.515625 -26.71875 C 9.503906 -27.332031 11.578125 -27.640625 13.734375 -27.640625 Z M 17.234375 -39.1875 C 18.597656 -39.1875 19.734375 -38.738281 20.640625 -37.84375 C 21.546875 -36.957031 22 -35.875 22 -34.59375 C 22 -33.6875 21.757812 -32.796875 21.28125 -31.921875 C 20.8125 -31.054688 20.148438 -30.351562 19.296875 -29.8125 C 18.453125 -29.269531 17.503906 -29 16.453125 -29 C 15.128906 -29 14.023438 -29.441406 13.140625 -30.328125 C 12.253906 -31.210938 11.789062 -32.320312 11.75 -33.65625 C 11.75 -34.519531 11.972656 -35.378906 12.421875 -36.234375 C 12.878906 -37.085938 13.523438 -37.789062 14.359375 -38.34375 C 15.203125 -38.90625 16.160156 -39.1875 17.234375 -39.1875 Z M 17.234375 -39.1875 "/></g></g></g><g fill="#000000" fill-opacity="0.4"><g transform="translate(184.324017, 189.527608)"><g><path d="M 23.359375 -26.96875 C 24.015625 -26.96875 24.523438 -26.828125 24.890625 -26.546875 C 25.265625 -26.265625 25.453125 -25.878906 25.453125 -25.390625 C 25.453125 -25.253906 25.414062 -25.007812 25.34375 -24.65625 C 24.882812 -23.125 23.835938 -22.359375 22.203125 -22.359375 L 19.171875 -22.359375 L 15.25 -9.453125 C 15.082031 -8.929688 15 -8.394531 15 -7.84375 C 15 -7.207031 15.171875 -6.769531 15.515625 -6.53125 C 15.867188 -6.289062 16.359375 -6.171875 16.984375 -6.171875 C 17.535156 -6.171875 18.234375 -6.238281 19.078125 -6.375 C 19.492188 -6.476562 19.859375 -6.53125 20.171875 -6.53125 C 20.410156 -6.53125 20.59375 -6.453125 20.71875 -6.296875 C 20.84375 -6.140625 20.90625 -5.9375 20.90625 -5.6875 C 20.9375 -5 20.421875 -4.15625 19.359375 -3.15625 C 18.296875 -2.164062 16.859375 -1.3125 15.046875 -0.59375 C 13.234375 0.113281 11.234375 0.46875 9.046875 0.46875 C 6.671875 0.46875 4.769531 -0.0664062 3.34375 -1.140625 C 1.914062 -2.222656 1.203125 -3.707031 1.203125 -5.59375 C 1.203125 -6.457031 1.34375 -7.289062 1.625 -8.09375 L 4.96875 -18.4375 C 5.132812 -19.03125 5.21875 -19.503906 5.21875 -19.859375 C 5.21875 -20.554688 5.050781 -21.144531 4.71875 -21.625 C 4.394531 -22.113281 3.9375 -22.617188 3.34375 -23.140625 C 2.820312 -23.628906 2.457031 -24.039062 2.25 -24.375 C 2.039062 -24.707031 1.988281 -25.097656 2.09375 -25.546875 C 2.226562 -26.003906 2.519531 -26.351562 2.96875 -26.59375 C 3.425781 -26.84375 4.144531 -26.96875 5.125 -26.96875 L 8.046875 -26.96875 L 11.34375 -30.25 C 12.488281 -31.40625 13.539062 -32.207031 14.5 -32.65625 C 15.457031 -33.101562 16.703125 -33.328125 18.234375 -33.328125 C 20.429688 -33.328125 21.53125 -32.492188 21.53125 -30.828125 C 21.53125 -30.304688 21.457031 -29.816406 21.3125 -29.359375 L 20.59375 -26.96875 Z M 23.359375 -26.96875 "/></g></g></g><g fill="#000000" fill-opacity="0.4"><g transform="translate(206.776356, 189.527608)"><g><path d="M 13.734375 -27.640625 C 15.753906 -27.640625 17.234375 -27.253906 18.171875 -26.484375 C 19.117188 -25.722656 19.59375 -24.679688 19.59375 -23.359375 C 19.59375 -22.554688 19.472656 -21.789062 19.234375 -21.0625 L 14.421875 -5.4375 C 14.316406 -5.019531 14.265625 -4.65625 14.265625 -4.34375 C 14.265625 -3.882812 14.347656 -3.523438 14.515625 -3.265625 C 14.691406 -3.003906 14.9375 -2.753906 15.25 -2.515625 C 15.5 -2.265625 15.675781 -2.0625 15.78125 -1.90625 C 15.882812 -1.75 15.898438 -1.550781 15.828125 -1.3125 C 15.648438 -0.851562 15.300781 -0.519531 14.78125 -0.3125 C 14.257812 -0.101562 13.457031 0 12.375 0 L 0.46875 0 C -0.4375 0 -1.097656 -0.144531 -1.515625 -0.4375 C -1.929688 -0.738281 -2.070312 -1.132812 -1.9375 -1.625 C -1.789062 -2.039062 -1.425781 -2.40625 -0.84375 -2.71875 C -0.3125 -3 0.125 -3.328125 0.46875 -3.703125 C 0.820312 -4.085938 1.117188 -4.695312 1.359375 -5.53125 L 5.90625 -20.640625 C 6.007812 -20.953125 6.0625 -21.210938 6.0625 -21.421875 C 6.0625 -21.804688 5.972656 -22.109375 5.796875 -22.328125 C 5.617188 -22.554688 5.359375 -22.796875 5.015625 -23.046875 C 4.671875 -23.316406 4.425781 -23.554688 4.28125 -23.765625 C 4.144531 -23.984375 4.128906 -24.265625 4.234375 -24.609375 C 4.441406 -25.410156 5.535156 -26.113281 7.515625 -26.71875 C 9.503906 -27.332031 11.578125 -27.640625 13.734375 -27.640625 Z M 17.234375 -39.1875 C 18.597656 -39.1875 19.734375 -38.738281 20.640625 -37.84375 C 21.546875 -36.957031 22 -35.875 22 -34.59375 C 22 -33.6875 21.757812 -32.796875 21.28125 -31.921875 C 20.8125 -31.054688 20.148438 -30.351562 19.296875 -29.8125 C 18.453125 -29.269531 17.503906 -29 16.453125 -29 C 15.128906 -29 14.023438 -29.441406 13.140625 -30.328125 C 12.253906 -31.210938 11.789062 -32.320312 11.75 -33.65625 C 11.75 -34.519531 11.972656 -35.378906 12.421875 -36.234375 C 12.878906 -37.085938 13.523438 -37.789062 14.359375 -38.34375 C 15.203125 -38.90625 16.160156 -39.1875 17.234375 -39.1875 Z M 17.234375 -39.1875 "/></g></g></g><g fill="#000000" fill-opacity="0.4"><g transform="translate(225.886955, 189.527608)"><g><path d="M 49.6875 -7.203125 C 49.613281 -7.066406 49.578125 -6.859375 49.578125 -6.578125 C 49.578125 -6.335938 49.640625 -6.144531 49.765625 -6 C 49.890625 -5.863281 50.054688 -5.796875 50.265625 -5.796875 C 50.679688 -5.796875 51.035156 -5.976562 51.328125 -6.34375 C 51.628906 -6.707031 51.832031 -6.890625 51.9375 -6.890625 C 52.113281 -6.890625 52.253906 -6.773438 52.359375 -6.546875 C 52.460938 -6.328125 52.515625 -6.0625 52.515625 -5.75 C 52.546875 -4.738281 52.210938 -3.753906 51.515625 -2.796875 C 50.816406 -1.835938 49.796875 -1.050781 48.453125 -0.4375 C 47.117188 0.164062 45.507812 0.46875 43.625 0.46875 C 41.332031 0.46875 39.503906 -0.0625 38.140625 -1.125 C 36.785156 -2.1875 36.085938 -3.601562 36.046875 -5.375 C 36.046875 -6.664062 36.363281 -8.113281 37 -9.71875 L 39.859375 -17.25 C 40.035156 -17.695312 40.125 -18.0625 40.125 -18.34375 C 40.125 -18.789062 39.972656 -19.144531 39.671875 -19.40625 C 39.378906 -19.664062 39.023438 -19.796875 38.609375 -19.796875 C 38.015625 -19.796875 37.40625 -19.535156 36.78125 -19.015625 C 36.15625 -18.492188 35.597656 -17.675781 35.109375 -16.5625 L 32.234375 -7.203125 C 32.171875 -7.066406 32.140625 -6.859375 32.140625 -6.578125 C 32.140625 -6.335938 32.195312 -6.144531 32.3125 -6 C 32.4375 -5.863281 32.601562 -5.796875 32.8125 -5.796875 C 33.226562 -5.796875 33.582031 -5.976562 33.875 -6.34375 C 34.175781 -6.707031 34.378906 -6.890625 34.484375 -6.890625 C 34.660156 -6.890625 34.800781 -6.773438 34.90625 -6.546875 C 35.007812 -6.328125 35.0625 -6.0625 35.0625 -5.75 C 35.09375 -4.738281 34.757812 -3.753906 34.0625 -2.796875 C 33.363281 -1.835938 32.34375 -1.050781 31 -0.4375 C 29.664062 0.164062 28.054688 0.46875 26.171875 0.46875 C 23.878906 0.46875 22.050781 -0.0625 20.6875 -1.125 C 19.332031 -2.1875 18.632812 -3.601562 18.59375 -5.375 C 18.59375 -6.664062 18.910156 -8.113281 19.546875 -9.71875 L 22.421875 -17.25 C 22.585938 -17.695312 22.671875 -18.0625 22.671875 -18.34375 C 22.671875 -18.789062 22.519531 -19.144531 22.21875 -19.40625 C 21.925781 -19.664062 21.570312 -19.796875 21.15625 -19.796875 C 20.5625 -19.796875 19.953125 -19.539062 19.328125 -19.03125 C 18.703125 -18.53125 18.179688 -17.722656 17.765625 -16.609375 L 14.3125 -5.4375 C 14.175781 -5.050781 14.109375 -4.6875 14.109375 -4.34375 C 14.109375 -3.914062 14.191406 -3.570312 14.359375 -3.3125 C 14.535156 -3.050781 14.78125 -2.785156 15.09375 -2.515625 C 15.34375 -2.296875 15.519531 -2.097656 15.625 -1.921875 C 15.726562 -1.753906 15.742188 -1.550781 15.671875 -1.3125 C 15.535156 -0.851562 15.207031 -0.519531 14.6875 -0.3125 C 14.164062 -0.101562 13.34375 0 12.21875 0 L 0.3125 0 C -0.59375 0 -1.242188 -0.144531 -1.640625 -0.4375 C -2.046875 -0.738281 -2.195312 -1.132812 -2.09375 -1.625 C -1.945312 -2.039062 -1.582031 -2.40625 -1 -2.71875 C -0.46875 -3 -0.03125 -3.328125 0.3125 -3.703125 C 0.664062 -4.085938 0.960938 -4.695312 1.203125 -5.53125 L 5.859375 -20.640625 C 5.921875 -20.816406 5.953125 -21.0625 5.953125 -21.375 C 5.953125 -21.75 5.875 -22.039062 5.71875 -22.25 C 5.5625 -22.46875 5.3125 -22.734375 4.96875 -23.046875 C 4.613281 -23.316406 4.363281 -23.554688 4.21875 -23.765625 C 4.082031 -23.984375 4.070312 -24.265625 4.1875 -24.609375 C 4.394531 -25.410156 5.488281 -26.113281 7.46875 -26.71875 C 9.457031 -27.332031 11.53125 -27.640625 13.6875 -27.640625 C 15.394531 -27.640625 16.742188 -27.164062 17.734375 -26.21875 C 18.734375 -25.28125 19.210938 -23.992188 19.171875 -22.359375 C 20.597656 -24.347656 22.101562 -25.722656 23.6875 -26.484375 C 25.28125 -27.253906 27 -27.640625 28.84375 -27.640625 C 30.863281 -27.640625 32.507812 -27.054688 33.78125 -25.890625 C 35.050781 -24.722656 35.753906 -23.195312 35.890625 -21.3125 C 37.390625 -23.6875 38.992188 -25.332031 40.703125 -26.25 C 42.410156 -27.175781 44.273438 -27.640625 46.296875 -27.640625 C 48.421875 -27.640625 50.132812 -26.992188 51.4375 -25.703125 C 52.75 -24.421875 53.40625 -22.75 53.40625 -20.6875 C 53.40625 -19.613281 53.226562 -18.550781 52.875 -17.5 Z M 49.6875 -7.203125 "/></g></g></g><g fill="#000000" fill-opacity="0.4"><g transform="translate(280.607975, 189.527608)"><g><path d="M 13.734375 -27.640625 C 15.753906 -27.640625 17.234375 -27.253906 18.171875 -26.484375 C 19.117188 -25.722656 19.59375 -24.679688 19.59375 -23.359375 C 19.59375 -22.554688 19.472656 -21.789062 19.234375 -21.0625 L 14.421875 -5.4375 C 14.316406 -5.019531 14.265625 -4.65625 14.265625 -4.34375 C 14.265625 -3.882812 14.347656 -3.523438 14.515625 -3.265625 C 14.691406 -3.003906 14.9375 -2.753906 15.25 -2.515625 C 15.5 -2.265625 15.675781 -2.0625 15.78125 -1.90625 C 15.882812 -1.75 15.898438 -1.550781 15.828125 -1.3125 C 15.648438 -0.851562 15.300781 -0.519531 14.78125 -0.3125 C 14.257812 -0.101562 13.457031 0 12.375 0 L 0.46875 0 C -0.4375 0 -1.097656 -0.144531 -1.515625 -0.4375 C -1.929688 -0.738281 -2.070312 -1.132812 -1.9375 -1.625 C -1.789062 -2.039062 -1.425781 -2.40625 -0.84375 -2.71875 C -0.3125 -3 0.125 -3.328125 0.46875 -3.703125 C 0.820312 -4.085938 1.117188 -4.695312 1.359375 -5.53125 L 5.90625 -20.640625 C 6.007812 -20.953125 6.0625 -21.210938 6.0625 -21.421875 C 6.0625 -21.804688 5.972656 -22.109375 5.796875 -22.328125 C 5.617188 -22.554688 5.359375 -22.796875 5.015625 -23.046875 C 4.671875 -23.316406 4.425781 -23.554688 4.28125 -23.765625 C 4.144531 -23.984375 4.128906 -24.265625 4.234375 -24.609375 C 4.441406 -25.410156 5.535156 -26.113281 7.515625 -26.71875 C 9.503906 -27.332031 11.578125 -27.640625 13.734375 -27.640625 Z M 17.234375 -39.1875 C 18.597656 -39.1875 19.734375 -38.738281 20.640625 -37.84375 C 21.546875 -36.957031 22 -35.875 22 -34.59375 C 22 -33.6875 21.757812 -32.796875 21.28125 -31.921875 C 20.8125 -31.054688 20.148438 -30.351562 19.296875 -29.8125 C 18.453125 -29.269531 17.503906 -29 16.453125 -29 C 15.128906 -29 14.023438 -29.441406 13.140625 -30.328125 C 12.253906 -31.210938 11.789062 -32.320312 11.75 -33.65625 C 11.75 -34.519531 11.972656 -35.378906 12.421875 -36.234375 C 12.878906 -37.085938 13.523438 -37.789062 14.359375 -38.34375 C 15.203125 -38.90625 16.160156 -39.1875 17.234375 -39.1875 Z M 17.234375 -39.1875 "/></g></g></g><g fill="#ffffff" fill-opacity="1"><g transform="translate(68.343324, 187.21834)"><g><path d="M 34.0625 -34.796875 C 35.351562 -34.796875 36.351562 -34.515625 37.0625 -33.953125 C 37.78125 -33.398438 38.140625 -32.632812 38.140625 -31.65625 C 38.140625 -31.175781 38.070312 -30.707031 37.9375 -30.25 L 36.578125 -25.390625 C 36.328125 -24.484375 35.921875 -23.835938 35.359375 -23.453125 C 34.804688 -23.078125 34.078125 -22.890625 33.171875 -22.890625 C 32.304688 -22.890625 31.613281 -23.070312 31.09375 -23.4375 C 30.570312 -23.800781 30.1875 -24.398438 29.9375 -25.234375 L 29.109375 -28.21875 C 28.960938 -28.738281 28.785156 -29.082031 28.578125 -29.25 C 28.367188 -29.425781 27.9375 -29.515625 27.28125 -29.515625 L 22.046875 -29.515625 L 19.125 -19.171875 L 20.109375 -19.171875 C 20.597656 -19.171875 21.023438 -19.238281 21.390625 -19.375 C 21.753906 -19.519531 22.148438 -19.785156 22.578125 -20.171875 L 24.1875 -21.53125 C 24.78125 -22.050781 25.3125 -22.421875 25.78125 -22.640625 C 26.25 -22.867188 26.75 -22.984375 27.28125 -22.984375 C 27.9375 -22.984375 28.484375 -22.789062 28.921875 -22.40625 C 29.359375 -22.03125 29.578125 -21.492188 29.578125 -20.796875 C 29.578125 -20.515625 29.523438 -20.179688 29.421875 -19.796875 L 27.125 -11.859375 C 26.59375 -10.148438 25.648438 -9.296875 24.296875 -9.296875 C 23.179688 -9.296875 22.3125 -9.875 21.6875 -11.03125 L 20.75 -12.796875 C 20.5 -13.285156 20.269531 -13.597656 20.0625 -13.734375 C 19.851562 -13.878906 19.539062 -13.953125 19.125 -13.953125 L 17.609375 -13.953125 L 15.40625 -6.171875 C 15.34375 -5.960938 15.3125 -5.679688 15.3125 -5.328125 C 15.3125 -4.835938 15.421875 -4.4375 15.640625 -4.125 C 15.867188 -3.8125 16.210938 -3.484375 16.671875 -3.140625 C 17.054688 -2.828125 17.316406 -2.570312 17.453125 -2.375 C 17.585938 -2.1875 17.65625 -1.953125 17.65625 -1.671875 C 17.65625 -1.046875 17.375 -0.609375 16.8125 -0.359375 C 16.257812 -0.117188 15.445312 0 14.375 0 L 1.25 0 C 0.34375 0 -0.332031 -0.164062 -0.78125 -0.5 C -1.238281 -0.832031 -1.394531 -1.289062 -1.25 -1.875 C -1.1875 -2.1875 -1.054688 -2.4375 -0.859375 -2.625 C -0.671875 -2.820312 -0.382812 -3.046875 0 -3.296875 C 0.59375 -3.640625 1.0625 -4.003906 1.40625 -4.390625 C 1.757812 -4.773438 2.039062 -5.367188 2.25 -6.171875 L 8.671875 -28.6875 C 8.804688 -29.132812 8.875 -29.550781 8.875 -29.9375 C 8.875 -30.351562 8.8125 -30.703125 8.6875 -30.984375 C 8.570312 -31.265625 8.394531 -31.5625 8.15625 -31.875 C 7.84375 -32.320312 7.6875 -32.6875 7.6875 -32.96875 C 7.6875 -33.070312 7.71875 -33.265625 7.78125 -33.546875 C 7.925781 -33.992188 8.238281 -34.3125 8.71875 -34.5 C 9.207031 -34.695312 9.925781 -34.796875 10.875 -34.796875 Z M 34.0625 -34.796875 "/></g></g></g><g fill="#ffffff" fill-opacity="1"><g transform="translate(101.290808, 187.21834)"><g><path d="M 17.71875 -27.90625 C 22.132812 -27.90625 25.335938 -27.195312 27.328125 -25.78125 C 29.316406 -24.375 30.3125 -22.570312 30.3125 -20.375 C 30.3125 -19.71875 30.238281 -19.109375 30.09375 -18.546875 C 29.570312 -16.242188 28.117188 -14.597656 25.734375 -13.609375 C 23.347656 -12.617188 20.535156 -12.125 17.296875 -12.125 C 15.660156 -12.125 14.128906 -12.226562 12.703125 -12.4375 C 12.660156 -10.625 13.144531 -9.351562 14.15625 -8.625 C 15.164062 -7.894531 16.578125 -7.53125 18.390625 -7.53125 C 19.222656 -7.53125 20.019531 -7.625 20.78125 -7.8125 C 21.550781 -8 22.53125 -8.285156 23.71875 -8.671875 C 24.695312 -9.023438 25.359375 -9.203125 25.703125 -9.203125 C 26.085938 -9.203125 26.28125 -8.972656 26.28125 -8.515625 C 26.3125 -7.296875 25.859375 -6.015625 24.921875 -4.671875 C 23.984375 -3.335938 22.585938 -2.195312 20.734375 -1.25 C 18.890625 -0.3125 16.664062 0.15625 14.0625 0.15625 C 10.1875 0.15625 7.015625 -0.816406 4.546875 -2.765625 C 2.078125 -4.710938 0.84375 -7.550781 0.84375 -11.28125 C 0.84375 -12.332031 0.976562 -13.550781 1.25 -14.9375 C 2.125 -19.226562 4.03125 -22.460938 6.96875 -24.640625 C 9.914062 -26.816406 13.5 -27.90625 17.71875 -27.90625 Z M 13.0625 -15.578125 C 13.195312 -15.535156 13.390625 -15.515625 13.640625 -15.515625 C 15.097656 -15.515625 16.207031 -16.191406 16.96875 -17.546875 C 17.738281 -18.910156 18.109375 -20.429688 18.078125 -22.109375 C 18.046875 -23.078125 17.769531 -23.5625 17.25 -23.5625 C 16.863281 -23.5625 16.40625 -23.253906 15.875 -22.640625 C 15.351562 -22.035156 14.835938 -21.125 14.328125 -19.90625 C 13.828125 -18.6875 13.40625 -17.242188 13.0625 -15.578125 Z M 13.0625 -15.578125 "/></g></g></g><g fill="#ffffff" fill-opacity="1"><g transform="translate(130.53103, 187.21834)"><g><path d="M 27.6875 -27.640625 C 29.21875 -27.640625 30.445312 -27.019531 31.375 -25.78125 C 32.300781 -24.550781 32.765625 -22.875 32.765625 -20.75 C 32.765625 -18.894531 32.429688 -16.90625 31.765625 -14.78125 C 30.472656 -10.5 28.40625 -6.457031 25.5625 -2.65625 C 22.726562 1.132812 19.472656 4.175781 15.796875 6.46875 C 12.128906 8.769531 8.46875 9.921875 4.8125 9.921875 C 3 9.921875 1.4375 9.609375 0.125 8.984375 C -1.175781 8.359375 -2.164062 7.519531 -2.84375 6.46875 C -3.519531 5.425781 -3.859375 4.316406 -3.859375 3.140625 C -3.859375 2.609375 -3.773438 2.03125 -3.609375 1.40625 C -3.296875 0.4375 -2.769531 -0.304688 -2.03125 -0.828125 C -1.300781 -1.359375 -0.429688 -1.625 0.578125 -1.625 C 2.179688 -1.625 3.492188 -1.078125 4.515625 0.015625 C 5.546875 1.117188 6.203125 2.628906 6.484375 4.546875 C 8.710938 4.441406 10.765625 3.484375 12.640625 1.671875 C 10.867188 1.359375 9.554688 0.757812 8.703125 -0.125 C 7.847656 -1.019531 7.265625 -2.40625 6.953125 -4.28125 L 4.859375 -17.078125 C 4.753906 -17.742188 4.601562 -18.207031 4.40625 -18.46875 C 4.21875 -18.726562 3.96875 -18.859375 3.65625 -18.859375 C 3.414062 -18.859375 3.128906 -18.734375 2.796875 -18.484375 C 2.460938 -18.242188 2.226562 -18.125 2.09375 -18.125 C 1.8125 -18.125 1.671875 -18.421875 1.671875 -19.015625 C 1.671875 -19.503906 1.757812 -20.03125 1.9375 -20.59375 C 2.5625 -22.570312 3.726562 -24.25 5.4375 -25.625 C 7.144531 -27 9.128906 -27.6875 11.390625 -27.6875 C 13.617188 -27.6875 15.265625 -27.023438 16.328125 -25.703125 C 17.390625 -24.378906 18.078125 -22.34375 18.390625 -19.59375 L 19.953125 -8.09375 C 20.054688 -7.226562 20.375 -6.796875 20.90625 -6.796875 C 21.53125 -6.796875 22.257812 -7.359375 23.09375 -8.484375 C 23.925781 -9.617188 24.742188 -11.234375 25.546875 -13.328125 C 24.503906 -14.265625 23.703125 -15.34375 23.140625 -16.5625 C 22.585938 -17.78125 22.3125 -19.085938 22.3125 -20.484375 C 22.3125 -21.566406 22.453125 -22.539062 22.734375 -23.40625 C 23.148438 -24.800781 23.800781 -25.851562 24.6875 -26.5625 C 25.570312 -27.28125 26.570312 -27.640625 27.6875 -27.640625 Z M 27.6875 -27.640625 "/></g></g></g><g fill="#ffffff" fill-opacity="1"><g transform="translate(162.90415, 187.21834)"><g><path d="M 13.734375 -27.640625 C 15.753906 -27.640625 17.234375 -27.253906 18.171875 -26.484375 C 19.117188 -25.722656 19.59375 -24.679688 19.59375 -23.359375 C 19.59375 -22.554688 19.472656 -21.789062 19.234375 -21.0625 L 14.421875 -5.4375 C 14.316406 -5.019531 14.265625 -4.65625 14.265625 -4.34375 C 14.265625 -3.882812 14.347656 -3.523438 14.515625 -3.265625 C 14.691406 -3.003906 14.9375 -2.753906 15.25 -2.515625 C 15.5 -2.265625 15.675781 -2.0625 15.78125 -1.90625 C 15.882812 -1.75 15.898438 -1.550781 15.828125 -1.3125 C 15.648438 -0.851562 15.300781 -0.519531 14.78125 -0.3125 C 14.257812 -0.101562 13.457031 0 12.375 0 L 0.46875 0 C -0.4375 0 -1.097656 -0.144531 -1.515625 -0.4375 C -1.929688 -0.738281 -2.070312 -1.132812 -1.9375 -1.625 C -1.789062 -2.039062 -1.425781 -2.40625 -0.84375 -2.71875 C -0.3125 -3 0.125 -3.328125 0.46875 -3.703125 C 0.820312 -4.085938 1.117188 -4.695312 1.359375 -5.53125 L 5.90625 -20.640625 C 6.007812 -20.953125 6.0625 -21.210938 6.0625 -21.421875 C 6.0625 -21.804688 5.972656 -22.109375 5.796875 -22.328125 C 5.617188 -22.554688 5.359375 -22.796875 5.015625 -23.046875 C 4.671875 -23.316406 4.425781 -23.554688 4.28125 -23.765625 C 4.144531 -23.984375 4.128906 -24.265625 4.234375 -24.609375 C 4.441406 -25.410156 5.535156 -26.113281 7.515625 -26.71875 C 9.503906 -27.332031 11.578125 -27.640625 13.734375 -27.640625 Z M 17.234375 -39.1875 C 18.597656 -39.1875 19.734375 -38.738281 20.640625 -37.84375 C 21.546875 -36.957031 22 -35.875 22 -34.59375 C 22 -33.6875 21.757812 -32.796875 21.28125 -31.921875 C 20.8125 -31.054688 20.148438 -30.351562 19.296875 -29.8125 C 18.453125 -29.269531 17.503906 -29 16.453125 -29 C 15.128906 -29 14.023438 -29.441406 13.140625 -30.328125 C 12.253906 -31.210938 11.789062 -32.320312 11.75 -33.65625 C 11.75 -34.519531 11.972656 -35.378906 12.421875 -36.234375 C 12.878906 -37.085938 13.523438 -37.789062 14.359375 -38.34375 C 15.203125 -38.90625 16.160156 -39.1875 17.234375 -39.1875 Z M 17.234375 -39.1875 "/></g></g></g><g fill="#ffffff" fill-opacity="1"><g transform="translate(182.014749, 187.21834)"><g><path d="M 23.359375 -26.96875 C 24.015625 -26.96875 24.523438 -26.828125 24.890625 -26.546875 C 25.265625 -26.265625 25.453125 -25.878906 25.453125 -25.390625 C 25.453125 -25.253906 25.414062 -25.007812 25.34375 -24.65625 C 24.882812 -23.125 23.835938 -22.359375 22.203125 -22.359375 L 19.171875 -22.359375 L 15.25 -9.453125 C 15.082031 -8.929688 15 -8.394531 15 -7.84375 C 15 -7.207031 15.171875 -6.769531 15.515625 -6.53125 C 15.867188 -6.289062 16.359375 -6.171875 16.984375 -6.171875 C 17.535156 -6.171875 18.234375 -6.238281 19.078125 -6.375 C 19.492188 -6.476562 19.859375 -6.53125 20.171875 -6.53125 C 20.410156 -6.53125 20.59375 -6.453125 20.71875 -6.296875 C 20.84375 -6.140625 20.90625 -5.9375 20.90625 -5.6875 C 20.9375 -5 20.421875 -4.15625 19.359375 -3.15625 C 18.296875 -2.164062 16.859375 -1.3125 15.046875 -0.59375 C 13.234375 0.113281 11.234375 0.46875 9.046875 0.46875 C 6.671875 0.46875 4.769531 -0.0664062 3.34375 -1.140625 C 1.914062 -2.222656 1.203125 -3.707031 1.203125 -5.59375 C 1.203125 -6.457031 1.34375 -7.289062 1.625 -8.09375 L 4.96875 -18.4375 C 5.132812 -19.03125 5.21875 -19.503906 5.21875 -19.859375 C 5.21875 -20.554688 5.050781 -21.144531 4.71875 -21.625 C 4.394531 -22.113281 3.9375 -22.617188 3.34375 -23.140625 C 2.820312 -23.628906 2.457031 -24.039062 2.25 -24.375 C 2.039062 -24.707031 1.988281 -25.097656 2.09375 -25.546875 C 2.226562 -26.003906 2.519531 -26.351562 2.96875 -26.59375 C 3.425781 -26.84375 4.144531 -26.96875 5.125 -26.96875 L 8.046875 -26.96875 L 11.34375 -30.25 C 12.488281 -31.40625 13.539062 -32.207031 14.5 -32.65625 C 15.457031 -33.101562 16.703125 -33.328125 18.234375 -33.328125 C 20.429688 -33.328125 21.53125 -32.492188 21.53125 -30.828125 C 21.53125 -30.304688 21.457031 -29.816406 21.3125 -29.359375 L 20.59375 -26.96875 Z M 23.359375 -26.96875 "/></g></g></g><g fill="#ffffff" fill-opacity="1"><g transform="translate(204.467089, 187.21834)"><g><path d="M 13.734375 -27.640625 C 15.753906 -27.640625 17.234375 -27.253906 18.171875 -26.484375 C 19.117188 -25.722656 19.59375 -24.679688 19.59375 -23.359375 C 19.59375 -22.554688 19.472656 -21.789062 19.234375 -21.0625 L 14.421875 -5.4375 C 14.316406 -5.019531 14.265625 -4.65625 14.265625 -4.34375 C 14.265625 -3.882812 14.347656 -3.523438 14.515625 -3.265625 C 14.691406 -3.003906 14.9375 -2.753906 15.25 -2.515625 C 15.5 -2.265625 15.675781 -2.0625 15.78125 -1.90625 C 15.882812 -1.75 15.898438 -1.550781 15.828125 -1.3125 C 15.648438 -0.851562 15.300781 -0.519531 14.78125 -0.3125 C 14.257812 -0.101562 13.457031 0 12.375 0 L 0.46875 0 C -0.4375 0 -1.097656 -0.144531 -1.515625 -0.4375 C -1.929688 -0.738281 -2.070312 -1.132812 -1.9375 -1.625 C -1.789062 -2.039062 -1.425781 -2.40625 -0.84375 -2.71875 C -0.3125 -3 0.125 -3.328125 0.46875 -3.703125 C 0.820312 -4.085938 1.117188 -4.695312 1.359375 -5.53125 L 5.90625 -20.640625 C 6.007812 -20.953125 6.0625 -21.210938 6.0625 -21.421875 C 6.0625 -21.804688 5.972656 -22.109375 5.796875 -22.328125 C 5.617188 -22.554688 5.359375 -22.796875 5.015625 -23.046875 C 4.671875 -23.316406 4.425781 -23.554688 4.28125 -23.765625 C 4.144531 -23.984375 4.128906 -24.265625 4.234375 -24.609375 C 4.441406 -25.410156 5.535156 -26.113281 7.515625 -26.71875 C 9.503906 -27.332031 11.578125 -27.640625 13.734375 -27.640625 Z M 17.234375 -39.1875 C 18.597656 -39.1875 19.734375 -38.738281 20.640625 -37.84375 C 21.546875 -36.957031 22 -35.875 22 -34.59375 C 22 -33.6875 21.757812 -32.796875 21.28125 -31.921875 C 20.8125 -31.054688 20.148438 -30.351562 19.296875 -29.8125 C 18.453125 -29.269531 17.503906 -29 16.453125 -29 C 15.128906 -29 14.023438 -29.441406 13.140625 -30.328125 C 12.253906 -31.210938 11.789062 -32.320312 11.75 -33.65625 C 11.75 -34.519531 11.972656 -35.378906 12.421875 -36.234375 C 12.878906 -37.085938 13.523438 -37.789062 14.359375 -38.34375 C 15.203125 -38.90625 16.160156 -39.1875 17.234375 -39.1875 Z M 17.234375 -39.1875 "/></g></g></g><g fill="#ffffff" fill-opacity="1"><g transform="translate(223.577687, 187.21834)"><g><path d="M 49.6875 -7.203125 C 49.613281 -7.066406 49.578125 -6.859375 49.578125 -6.578125 C 49.578125 -6.335938 49.640625 -6.144531 49.765625 -6 C 49.890625 -5.863281 50.054688 -5.796875 50.265625 -5.796875 C 50.679688 -5.796875 51.035156 -5.976562 51.328125 -6.34375 C 51.628906 -6.707031 51.832031 -6.890625 51.9375 -6.890625 C 52.113281 -6.890625 52.253906 -6.773438 52.359375 -6.546875 C 52.460938 -6.328125 52.515625 -6.0625 52.515625 -5.75 C 52.546875 -4.738281 52.210938 -3.753906 51.515625 -2.796875 C 50.816406 -1.835938 49.796875 -1.050781 48.453125 -0.4375 C 47.117188 0.164062 45.507812 0.46875 43.625 0.46875 C 41.332031 0.46875 39.503906 -0.0625 38.140625 -1.125 C 36.785156 -2.1875 36.085938 -3.601562 36.046875 -5.375 C 36.046875 -6.664062 36.363281 -8.113281 37 -9.71875 L 39.859375 -17.25 C 40.035156 -17.695312 40.125 -18.0625 40.125 -18.34375 C 40.125 -18.789062 39.972656 -19.144531 39.671875 -19.40625 C 39.378906 -19.664062 39.023438 -19.796875 38.609375 -19.796875 C 38.015625 -19.796875 37.40625 -19.535156 36.78125 -19.015625 C 36.15625 -18.492188 35.597656 -17.675781 35.109375 -16.5625 L 32.234375 -7.203125 C 32.171875 -7.066406 32.140625 -6.859375 32.140625 -6.578125 C 32.140625 -6.335938 32.195312 -6.144531 32.3125 -6 C 32.4375 -5.863281 32.601562 -5.796875 32.8125 -5.796875 C 33.226562 -5.796875 33.582031 -5.976562 33.875 -6.34375 C 34.175781 -6.707031 34.378906 -6.890625 34.484375 -6.890625 C 34.660156 -6.890625 34.800781 -6.773438 34.90625 -6.546875 C 35.007812 -6.328125 35.0625 -6.0625 35.0625 -5.75 C 35.09375 -4.738281 34.757812 -3.753906 34.0625 -2.796875 C 33.363281 -1.835938 32.34375 -1.050781 31 -0.4375 C 29.664062 0.164062 28.054688 0.46875 26.171875 0.46875 C 23.878906 0.46875 22.050781 -0.0625 20.6875 -1.125 C 19.332031 -2.1875 18.632812 -3.601562 18.59375 -5.375 C 18.59375 -6.664062 18.910156 -8.113281 19.546875 -9.71875 L 22.421875 -17.25 C 22.585938 -17.695312 22.671875 -18.0625 22.671875 -18.34375 C 22.671875 -18.789062 22.519531 -19.144531 22.21875 -19.40625 C 21.925781 -19.664062 21.570312 -19.796875 21.15625 -19.796875 C 20.5625 -19.796875 19.953125 -19.539062 19.328125 -19.03125 C 18.703125 -18.53125 18.179688 -17.722656 17.765625 -16.609375 L 14.3125 -5.4375 C 14.175781 -5.050781 14.109375 -4.6875 14.109375 -4.34375 C 14.109375 -3.914062 14.191406 -3.570312 14.359375 -3.3125 C 14.535156 -3.050781 14.78125 -2.785156 15.09375 -2.515625 C 15.34375 -2.296875 15.519531 -2.097656 15.625 -1.921875 C 15.726562 -1.753906 15.742188 -1.550781 15.671875 -1.3125 C 15.535156 -0.851562 15.207031 -0.519531 14.6875 -0.3125 C 14.164062 -0.101562 13.34375 0 12.21875 0 L 0.3125 0 C -0.59375 0 -1.242188 -0.144531 -1.640625 -0.4375 C -2.046875 -0.738281 -2.195312 -1.132812 -2.09375 -1.625 C -1.945312 -2.039062 -1.582031 -2.40625 -1 -2.71875 C -0.46875 -3 -0.03125 -3.328125 0.3125 -3.703125 C 0.664062 -4.085938 0.960938 -4.695312 1.203125 -5.53125 L 5.859375 -20.640625 C 5.921875 -20.816406 5.953125 -21.0625 5.953125 -21.375 C 5.953125 -21.75 5.875 -22.039062 5.71875 -22.25 C 5.5625 -22.46875 5.3125 -22.734375 4.96875 -23.046875 C 4.613281 -23.316406 4.363281 -23.554688 4.21875 -23.765625 C 4.082031 -23.984375 4.070312 -24.265625 4.1875 -24.609375 C 4.394531 -25.410156 5.488281 -26.113281 7.46875 -26.71875 C 9.457031 -27.332031 11.53125 -27.640625 13.6875 -27.640625 C 15.394531 -27.640625 16.742188 -27.164062 17.734375 -26.21875 C 18.734375 -25.28125 19.210938 -23.992188 19.171875 -22.359375 C 20.597656 -24.347656 22.101562 -25.722656 23.6875 -26.484375 C 25.28125 -27.253906 27 -27.640625 28.84375 -27.640625 C 30.863281 -27.640625 32.507812 -27.054688 33.78125 -25.890625 C 35.050781 -24.722656 35.753906 -23.195312 35.890625 -21.3125 C 37.390625 -23.6875 38.992188 -25.332031 40.703125 -26.25 C 42.410156 -27.175781 44.273438 -27.640625 46.296875 -27.640625 C 48.421875 -27.640625 50.132812 -26.992188 51.4375 -25.703125 C 52.75 -24.421875 53.40625 -22.75 53.40625 -20.6875 C 53.40625 -19.613281 53.226562 -18.550781 52.875 -17.5 Z M 49.6875 -7.203125 "/></g></g></g><g fill="#ffffff" fill-opacity="1"><g transform="translate(278.298708, 187.21834)"><g><path d="M 13.734375 -27.640625 C 15.753906 -27.640625 17.234375 -27.253906 18.171875 -26.484375 C 19.117188 -25.722656 19.59375 -24.679688 19.59375 -23.359375 C 19.59375 -22.554688 19.472656 -21.789062 19.234375 -21.0625 L 14.421875 -5.4375 C 14.316406 -5.019531 14.265625 -4.65625 14.265625 -4.34375 C 14.265625 -3.882812 14.347656 -3.523438 14.515625 -3.265625 C 14.691406 -3.003906 14.9375 -2.753906 15.25 -2.515625 C 15.5 -2.265625 15.675781 -2.0625 15.78125 -1.90625 C 15.882812 -1.75 15.898438 -1.550781 15.828125 -1.3125 C 15.648438 -0.851562 15.300781 -0.519531 14.78125 -0.3125 C 14.257812 -0.101562 13.457031 0 12.375 0 L 0.46875 0 C -0.4375 0 -1.097656 -0.144531 -1.515625 -0.4375 C -1.929688 -0.738281 -2.070312 -1.132812 -1.9375 -1.625 C -1.789062 -2.039062 -1.425781 -2.40625 -0.84375 -2.71875 C -0.3125 -3 0.125 -3.328125 0.46875 -3.703125 C 0.820312 -4.085938 1.117188 -4.695312 1.359375 -5.53125 L 5.90625 -20.640625 C 6.007812 -20.953125 6.0625 -21.210938 6.0625 -21.421875 C 6.0625 -21.804688 5.972656 -22.109375 5.796875 -22.328125 C 5.617188 -22.554688 5.359375 -22.796875 5.015625 -23.046875 C 4.671875 -23.316406 4.425781 -23.554688 4.28125 -23.765625 C 4.144531 -23.984375 4.128906 -24.265625 4.234375 -24.609375 C 4.441406 -25.410156 5.535156 -26.113281 7.515625 -26.71875 C 9.503906 -27.332031 11.578125 -27.640625 13.734375 -27.640625 Z M 17.234375 -39.1875 C 18.597656 -39.1875 19.734375 -38.738281 20.640625 -37.84375 C 21.546875 -36.957031 22 -35.875 22 -34.59375 C 22 -33.6875 21.757812 -32.796875 21.28125 -31.921875 C 20.8125 -31.054688 20.148438 -30.351562 19.296875 -29.8125 C 18.453125 -29.269531 17.503906 -29 16.453125 -29 C 15.128906 -29 14.023438 -29.441406 13.140625 -30.328125 C 12.253906 -31.210938 11.789062 -32.320312 11.75 -33.65625 C 11.75 -34.519531 11.972656 -35.378906 12.421875 -36.234375 C 12.878906 -37.085938 13.523438 -37.789062 14.359375 -38.34375 C 15.203125 -38.90625 16.160156 -39.1875 17.234375 -39.1875 Z M 17.234375 -39.1875 "/></g></g></g></svg>