<svg xmlns="http://www.w3.org/2000/svg" xmlns:xlink="http://www.w3.org/1999/xlink" width="500" zoomAndPan="magnify" viewBox="0 0 375 374.999991" height="500" preserveAspectRatio="xMidYMid meet" version="1.0"><defs><clipPath id="18a3f1d005"><path d="M 116.191406 108.824219 L 244.441406 108.824219 L 244.441406 258.824219 L 116.191406 258.824219 Z M 116.191406 108.824219 " clip-rule="nonzero"/></clipPath><clipPath id="b8bc8e46cc"><path d="M 155 162 L 267 162 L 267 262 L 155 262 Z M 155 162 " clip-rule="nonzero"/></clipPath><clipPath id="46d90638d7"><path d="M 157.652344 161.222656 L 269.136719 164.128906 L 266.59375 261.679688 L 155.105469 258.773438 Z M 157.652344 161.222656 " clip-rule="nonzero"/></clipPath><clipPath id="177c87ab2d"><path d="M 213.394531 162.675781 L 266.59375 261.679688 L 155.105469 258.773438 Z M 213.394531 162.675781 " clip-rule="nonzero"/></clipPath><clipPath id="636fce8300"><path d="M 187 179 L 252 179 L 252 251 L 187 251 Z M 187 179 " clip-rule="nonzero"/></clipPath><clipPath id="2116350650"><path d="M 188.9375 178.925781 L 253.082031 180.597656 L 251.253906 250.613281 L 187.109375 248.941406 Z M 188.9375 178.925781 " clip-rule="nonzero"/></clipPath><clipPath id="b853d0d633"><path d="M 221.007812 179.761719 L 251.253906 250.613281 L 187.109375 248.941406 Z M 221.007812 179.761719 " clip-rule="nonzero"/></clipPath><clipPath id="b2e0b1952c"><path d="M 178 168 L 271 168 L 271 261 L 178 261 Z M 178 168 " clip-rule="nonzero"/></clipPath><clipPath id="7993564456"><path d="M 180.933594 167.367188 L 273.265625 169.777344 L 270.886719 260.929688 L 178.554688 258.523438 Z M 180.933594 167.367188 " clip-rule="nonzero"/></clipPath><clipPath id="30c3d9ec96"><path d="M 227.097656 168.574219 L 270.886719 260.929688 L 178.554688 258.523438 Z M 227.097656 168.574219 " clip-rule="nonzero"/></clipPath><clipPath id="bff95147e5"><path d="M 192 178 L 251 178 L 251 274 L 192 274 Z M 192 178 " clip-rule="nonzero"/></clipPath><clipPath id="d71a90deca"><path d="M 277.289062 263.703125 L 224.167969 283.558594 L 192.476562 198.773438 L 245.597656 178.917969 Z M 277.289062 263.703125 " clip-rule="nonzero"/></clipPath><clipPath id="e7f1c91987"><path d="M 250.726562 273.628906 L 192.476562 198.773438 L 245.597656 178.917969 Z M 250.726562 273.628906 " clip-rule="nonzero"/></clipPath><clipPath id="eb308c8b98"><path d="M 204 190 L 244 190 L 244 254 L 204 254 Z M 204 190 " clip-rule="nonzero"/></clipPath><clipPath id="669bfe07b7"><path d="M 261.023438 246.894531 L 225.484375 260.179688 L 204.28125 203.457031 L 239.820312 190.175781 Z M 261.023438 246.894531 " clip-rule="nonzero"/></clipPath><clipPath id="e8148321e4"><path d="M 243.253906 253.535156 L 204.28125 203.457031 L 239.820312 190.175781 Z M 243.253906 253.535156 " clip-rule="nonzero"/></clipPath><clipPath id="59ca807e4e"><path d="M 247.429688 108.820312 L 273.257812 108.820312 L 273.257812 269.203125 L 247.429688 269.203125 Z M 247.429688 108.820312 " clip-rule="nonzero"/></clipPath></defs><g clip-path="url(#18a3f1d005)"><path fill="#545454" d="M 116.246094 108.824219 L 116.246094 114.480469 L 131.417969 114.480469 L 131.417969 252.988281 L 119.179688 252.988281 L 119.179688 258.824219 L 166.675781 258.824219 L 166.675781 252.988281 L 154.972656 252.988281 L 154.972656 182.058594 L 199.683594 182.058594 L 199.683594 173.886719 L 154.972656 173.886719 L 154.972656 114.480469 L 196.332031 114.480469 C 219.347656 114.480469 230.210938 125.671875 235.210938 142.910156 L 244.039062 142.910156 L 244.039062 108.824219 Z M 116.246094 108.824219 " fill-opacity="1" fill-rule="nonzero"/></g><g clip-path="url(#b8bc8e46cc)"><g clip-path="url(#46d90638d7)"><g clip-path="url(#177c87ab2d)"><path fill="#545454" d="M 157.652344 161.222656 L 269.136719 164.128906 L 266.59375 261.679688 L 155.105469 258.773438 Z M 157.652344 161.222656 " fill-opacity="1" fill-rule="nonzero"/></g></g></g><g clip-path="url(#636fce8300)"><g clip-path="url(#2116350650)"><g clip-path="url(#b853d0d633)"><path fill="#ffffff" d="M 188.9375 178.925781 L 253.082031 180.597656 L 251.253906 250.613281 L 187.109375 248.941406 Z M 188.9375 178.925781 " fill-opacity="1" fill-rule="nonzero"/></g></g></g><g clip-path="url(#b2e0b1952c)"><g clip-path="url(#7993564456)"><g clip-path="url(#30c3d9ec96)"><path fill="#545454" d="M 180.933594 167.367188 L 273.265625 169.777344 L 270.886719 260.929688 L 178.554688 258.523438 Z M 180.933594 167.367188 " fill-opacity="1" fill-rule="nonzero"/></g></g></g><g clip-path="url(#bff95147e5)"><g clip-path="url(#d71a90deca)"><g clip-path="url(#e7f1c91987)"><path fill="#ffffff" d="M 277.289062 263.703125 L 224.167969 283.558594 L 192.476562 198.773438 L 245.597656 178.917969 Z M 277.289062 263.703125 " fill-opacity="1" fill-rule="nonzero"/></g></g></g><g clip-path="url(#eb308c8b98)"><g clip-path="url(#669bfe07b7)"><g clip-path="url(#e8148321e4)"><path fill="#004aad" d="M 261.023438 246.894531 L 225.484375 260.179688 L 204.28125 203.457031 L 239.820312 190.175781 Z M 261.023438 246.894531 " fill-opacity="1" fill-rule="nonzero"/></g></g></g><g clip-path="url(#59ca807e4e)"><path fill="#ffffff" d="M 273.257812 108.820312 L 273.257812 269.203125 L 247.429688 269.203125 L 247.429688 108.820312 Z M 273.257812 108.820312 " fill-opacity="1" fill-rule="nonzero"/></g></svg>