<svg xmlns="http://www.w3.org/2000/svg" xmlns:xlink="http://www.w3.org/1999/xlink" width="500" zoomAndPan="magnify" viewBox="0 0 375 374.999991" height="500" preserveAspectRatio="xMidYMid meet" version="1.0"><defs><g/><clipPath id="2c7c2807b0"><path d="M 103.625 129.167969 L 279.441406 129.167969 L 279.441406 190.972656 L 103.625 190.972656 Z M 103.625 129.167969 " clip-rule="nonzero"/></clipPath><clipPath id="d22a44e9a4"><path d="M 62.503906 135.636719 L 321.03125 135.636719 L 321.03125 191.441406 L 62.503906 191.441406 Z M 62.503906 135.636719 " clip-rule="nonzero"/></clipPath><clipPath id="cde9eedbd6"><path d="M 96.730469 180.285156 L 272.546875 180.285156 L 272.546875 242.089844 L 96.730469 242.089844 Z M 96.730469 180.285156 " clip-rule="nonzero"/></clipPath><clipPath id="6a183c7854"><path d="M 96.273438 170.859375 L 280.878906 170.859375 L 280.878906 234.980469 L 96.273438 234.980469 Z M 96.273438 170.859375 " clip-rule="nonzero"/></clipPath></defs><g clip-path="url(#2c7c2807b0)"><path fill="#000000" d="M 276.339844 184.734375 L 273.222656 184.734375 L 273.222656 131.71875 C 273.222656 131.304688 273.144531 130.90625 272.984375 130.523438 C 272.828125 130.144531 272.601562 129.804688 272.308594 129.511719 C 272.015625 129.21875 271.679688 128.996094 271.296875 128.835938 C 270.914062 128.679688 270.515625 128.601562 270.101562 128.601562 L 251.390625 128.601562 C 250.976562 128.601562 250.578125 128.679688 250.199219 128.835938 C 249.816406 128.996094 249.476562 129.21875 249.1875 129.511719 C 248.894531 129.804688 248.667969 130.144531 248.511719 130.523438 C 248.351562 130.90625 248.273438 131.304688 248.273438 131.71875 L 248.273438 184.734375 L 235.796875 184.734375 L 235.796875 6.96875 C 235.796875 6.558594 235.71875 6.160156 235.558594 5.777344 C 235.402344 5.394531 235.175781 5.058594 234.882812 4.765625 C 234.59375 4.472656 234.253906 4.246094 233.871094 4.089844 C 233.492188 3.929688 233.09375 3.851562 232.679688 3.851562 L 213.96875 3.851562 C 213.554688 3.851562 213.15625 3.929688 212.773438 4.089844 C 212.390625 4.246094 212.054688 4.472656 211.761719 4.765625 C 211.46875 5.058594 211.242188 5.394531 211.085938 5.777344 C 210.925781 6.160156 210.847656 6.558594 210.847656 6.96875 L 210.847656 184.734375 L 198.375 184.734375 L 198.375 41.277344 C 198.375 40.863281 198.292969 40.464844 198.136719 40.082031 C 197.976562 39.699219 197.753906 39.363281 197.460938 39.070312 C 197.167969 38.777344 196.832031 38.554688 196.449219 38.394531 C 196.066406 38.238281 195.667969 38.15625 195.253906 38.15625 L 176.542969 38.15625 C 176.128906 38.15625 175.730469 38.238281 175.347656 38.394531 C 174.96875 38.554688 174.628906 38.777344 174.335938 39.070312 C 174.042969 39.363281 173.820312 39.699219 173.660156 40.082031 C 173.503906 40.464844 173.421875 40.863281 173.421875 41.277344 L 173.421875 184.734375 L 160.949219 184.734375 L 160.949219 100.53125 C 160.949219 100.117188 160.871094 99.71875 160.710938 99.339844 C 160.554688 98.957031 160.328125 98.617188 160.035156 98.324219 C 159.742188 98.035156 159.40625 97.808594 159.023438 97.648438 C 158.640625 97.492188 158.242188 97.414062 157.832031 97.414062 L 139.117188 97.414062 C 138.703125 97.414062 138.304688 97.492188 137.925781 97.648438 C 137.542969 97.808594 137.207031 98.035156 136.914062 98.324219 C 136.621094 98.617188 136.394531 98.957031 136.238281 99.339844 C 136.078125 99.71875 136 100.117188 136 100.53125 L 136 184.734375 L 123.523438 184.734375 L 123.523438 69.34375 C 123.523438 68.929688 123.445312 68.53125 123.289062 68.152344 C 123.128906 67.769531 122.902344 67.429688 122.609375 67.140625 C 122.320312 66.847656 121.980469 66.621094 121.597656 66.464844 C 121.21875 66.304688 120.820312 66.226562 120.40625 66.226562 L 101.695312 66.226562 C 101.28125 66.226562 100.882812 66.304688 100.5 66.464844 C 100.117188 66.621094 99.78125 66.847656 99.488281 67.140625 C 99.195312 67.429688 98.96875 67.769531 98.8125 68.152344 C 98.652344 68.53125 98.574219 68.929688 98.574219 69.34375 L 98.574219 184.734375 L 95.457031 184.734375 C 95.042969 184.734375 94.644531 184.816406 94.261719 184.972656 C 93.878906 185.132812 93.542969 185.355469 93.25 185.648438 C 92.957031 185.941406 92.734375 186.28125 92.574219 186.660156 C 92.417969 187.042969 92.335938 187.441406 92.335938 187.855469 C 92.335938 188.269531 92.417969 188.667969 92.574219 189.046875 C 92.734375 189.429688 92.957031 189.769531 93.25 190.058594 C 93.542969 190.351562 93.878906 190.578125 94.261719 190.734375 C 94.644531 190.894531 95.042969 190.972656 95.457031 190.972656 L 276.339844 190.972656 C 276.753906 190.972656 277.152344 190.894531 277.535156 190.734375 C 277.917969 190.578125 278.253906 190.351562 278.546875 190.058594 C 278.839844 189.769531 279.0625 189.429688 279.222656 189.046875 C 279.378906 188.667969 279.460938 188.269531 279.460938 187.855469 C 279.460938 187.441406 279.378906 187.042969 279.222656 186.660156 C 279.0625 186.28125 278.839844 185.941406 278.546875 185.648438 C 278.253906 185.355469 277.917969 185.132812 277.535156 184.972656 C 277.152344 184.816406 276.753906 184.734375 276.339844 184.734375 Z M 276.339844 184.734375 " fill-opacity="1" fill-rule="nonzero"/></g><g clip-path="url(#d22a44e9a4)"><path fill="#ffffff" d="M 62.503906 135.636719 L 321.03125 135.636719 L 321.03125 191.441406 L 62.503906 191.441406 Z M 62.503906 135.636719 " fill-opacity="1" fill-rule="nonzero"/></g><g clip-path="url(#cde9eedbd6)"><path fill="#000000" d="M 99.832031 186.523438 L 102.949219 186.523438 L 102.949219 239.539062 C 102.949219 239.953125 103.027344 240.351562 103.1875 240.734375 C 103.34375 241.113281 103.570312 241.453125 103.863281 241.746094 C 104.15625 242.039062 104.492188 242.261719 104.875 242.421875 C 105.257812 242.578125 105.65625 242.660156 106.070312 242.660156 L 124.78125 242.660156 C 125.195312 242.660156 125.59375 242.578125 125.972656 242.421875 C 126.355469 242.261719 126.695312 242.039062 126.984375 241.746094 C 127.277344 241.453125 127.503906 241.113281 127.664062 240.734375 C 127.820312 240.351562 127.898438 239.953125 127.898438 239.539062 L 127.898438 186.523438 L 140.375 186.523438 L 140.375 364.289062 C 140.375 364.699219 140.453125 365.097656 140.613281 365.480469 C 140.769531 365.863281 140.996094 366.199219 141.289062 366.492188 C 141.582031 366.785156 141.917969 367.011719 142.300781 367.167969 C 142.683594 367.328125 143.078125 367.40625 143.492188 367.40625 L 162.207031 367.40625 C 162.617188 367.40625 163.015625 367.328125 163.398438 367.167969 C 163.78125 367.011719 164.117188 366.785156 164.410156 366.492188 C 164.703125 366.199219 164.929688 365.863281 165.085938 365.480469 C 165.246094 365.097656 165.324219 364.699219 165.324219 364.289062 L 165.324219 186.523438 L 177.796875 186.523438 L 177.796875 329.980469 C 177.796875 330.394531 177.878906 330.792969 178.035156 331.175781 C 178.195312 331.558594 178.417969 331.894531 178.710938 332.1875 C 179.003906 332.480469 179.34375 332.703125 179.722656 332.863281 C 180.105469 333.019531 180.503906 333.101562 180.917969 333.101562 L 199.628906 333.101562 C 200.042969 333.101562 200.441406 333.019531 200.824219 332.863281 C 201.207031 332.703125 201.542969 332.480469 201.835938 332.1875 C 202.128906 331.894531 202.351562 331.558594 202.511719 331.175781 C 202.667969 330.792969 202.75 330.394531 202.75 329.980469 L 202.75 186.523438 L 215.222656 186.523438 L 215.222656 270.726562 C 215.222656 271.140625 215.300781 271.539062 215.460938 271.921875 C 215.617188 272.300781 215.84375 272.640625 216.136719 272.933594 C 216.429688 273.222656 216.765625 273.449219 217.148438 273.609375 C 217.53125 273.765625 217.929688 273.84375 218.34375 273.84375 L 237.054688 273.84375 C 237.46875 273.84375 237.867188 273.765625 238.246094 273.609375 C 238.628906 273.449219 238.96875 273.222656 239.257812 272.933594 C 239.550781 272.640625 239.777344 272.300781 239.933594 271.921875 C 240.09375 271.539062 240.171875 271.140625 240.171875 270.726562 L 240.171875 186.523438 L 252.648438 186.523438 L 252.648438 301.914062 C 252.648438 302.328125 252.726562 302.726562 252.886719 303.105469 C 253.042969 303.488281 253.269531 303.828125 253.5625 304.117188 C 253.851562 304.410156 254.191406 304.636719 254.574219 304.792969 C 254.953125 304.953125 255.351562 305.03125 255.765625 305.03125 L 274.476562 305.03125 C 274.890625 305.03125 275.289062 304.953125 275.671875 304.792969 C 276.054688 304.636719 276.390625 304.410156 276.683594 304.117188 C 276.976562 303.828125 277.203125 303.488281 277.359375 303.105469 C 277.519531 302.726562 277.597656 302.328125 277.597656 301.914062 L 277.597656 186.523438 L 280.714844 186.523438 C 281.128906 186.523438 281.527344 186.441406 281.910156 186.285156 C 282.292969 186.125 282.628906 185.902344 282.921875 185.609375 C 283.214844 185.316406 283.4375 184.980469 283.597656 184.597656 C 283.753906 184.214844 283.835938 183.816406 283.835938 183.402344 C 283.835938 182.988281 283.753906 182.589844 283.597656 182.210938 C 283.4375 181.828125 283.214844 181.488281 282.921875 181.199219 C 282.628906 180.90625 282.292969 180.679688 281.910156 180.523438 C 281.527344 180.363281 281.128906 180.285156 280.714844 180.285156 L 99.832031 180.285156 C 99.417969 180.285156 99.019531 180.363281 98.636719 180.523438 C 98.253906 180.679688 97.917969 180.90625 97.625 181.199219 C 97.332031 181.488281 97.109375 181.828125 96.949219 182.210938 C 96.792969 182.589844 96.710938 182.988281 96.710938 183.402344 C 96.710938 183.816406 96.792969 184.214844 96.949219 184.597656 C 97.109375 184.980469 97.332031 185.316406 97.625 185.609375 C 97.917969 185.902344 98.253906 186.125 98.636719 186.285156 C 99.019531 186.441406 99.417969 186.523438 99.832031 186.523438 Z M 99.832031 186.523438 " fill-opacity="1" fill-rule="nonzero"/></g><g clip-path="url(#6a183c7854)"><path fill="#ffffff" d="M 96.273438 170.859375 L 280.878906 170.859375 L 280.878906 234.980469 L 96.273438 234.980469 Z M 96.273438 170.859375 " fill-opacity="1" fill-rule="nonzero"/></g><g fill="#000000" fill-opacity="0.4"><g transform="translate(75.185836, 187.658781)"><g><path d="M 34 -34.71875 C 35.28125 -34.71875 36.273438 -34.441406 36.984375 -33.890625 C 37.703125 -33.335938 38.0625 -32.570312 38.0625 -31.59375 C 38.0625 -31.113281 37.992188 -30.644531 37.859375 -30.1875 L 36.5 -25.34375 C 36.257812 -24.4375 35.859375 -23.789062 35.296875 -23.40625 C 34.742188 -23.03125 34.015625 -22.84375 33.109375 -22.84375 C 32.242188 -22.84375 31.546875 -23.023438 31.015625 -23.390625 C 30.492188 -23.753906 30.113281 -24.351562 29.875 -25.1875 L 29.046875 -28.15625 C 28.898438 -28.675781 28.722656 -29.019531 28.515625 -29.1875 C 28.304688 -29.363281 27.875 -29.453125 27.21875 -29.453125 L 22 -29.453125 L 19.078125 -19.140625 L 20.078125 -19.140625 C 20.554688 -19.140625 20.976562 -19.207031 21.34375 -19.34375 C 21.71875 -19.476562 22.113281 -19.738281 22.53125 -20.125 L 24.140625 -21.484375 C 24.734375 -22.003906 25.265625 -22.375 25.734375 -22.59375 C 26.203125 -22.820312 26.695312 -22.9375 27.21875 -22.9375 C 27.875 -22.9375 28.421875 -22.742188 28.859375 -22.359375 C 29.296875 -21.984375 29.515625 -21.445312 29.515625 -20.75 C 29.515625 -20.46875 29.460938 -20.140625 29.359375 -19.765625 L 27.0625 -11.84375 C 26.539062 -10.132812 25.601562 -9.28125 24.25 -9.28125 C 23.132812 -9.28125 22.265625 -9.851562 21.640625 -11 L 20.703125 -12.78125 C 20.453125 -13.257812 20.222656 -13.566406 20.015625 -13.703125 C 19.804688 -13.847656 19.492188 -13.921875 19.078125 -13.921875 L 17.578125 -13.921875 L 15.375 -6.15625 C 15.3125 -5.945312 15.28125 -5.664062 15.28125 -5.3125 C 15.28125 -4.832031 15.390625 -4.4375 15.609375 -4.125 C 15.835938 -3.8125 16.179688 -3.476562 16.640625 -3.125 C 17.015625 -2.8125 17.269531 -2.554688 17.40625 -2.359375 C 17.550781 -2.171875 17.625 -1.941406 17.625 -1.671875 C 17.625 -1.046875 17.34375 -0.609375 16.78125 -0.359375 C 16.226562 -0.117188 15.414062 0 14.34375 0 L 1.25 0 C 0.34375 0 -0.332031 -0.160156 -0.78125 -0.484375 C -1.226562 -0.816406 -1.382812 -1.28125 -1.25 -1.875 C -1.175781 -2.1875 -1.046875 -2.4375 -0.859375 -2.625 C -0.671875 -2.820312 -0.382812 -3.039062 0 -3.28125 C 0.59375 -3.632812 1.0625 -4 1.40625 -4.375 C 1.75 -4.757812 2.023438 -5.351562 2.234375 -6.15625 L 8.65625 -28.625 C 8.789062 -29.070312 8.859375 -29.488281 8.859375 -29.875 C 8.859375 -30.289062 8.796875 -30.640625 8.671875 -30.921875 C 8.554688 -31.203125 8.378906 -31.5 8.140625 -31.8125 C 7.828125 -32.257812 7.671875 -32.625 7.671875 -32.90625 C 7.671875 -33.007812 7.703125 -33.195312 7.765625 -33.46875 C 7.910156 -33.925781 8.222656 -34.25 8.703125 -34.4375 C 9.191406 -34.625 9.90625 -34.71875 10.84375 -34.71875 Z M 34 -34.71875 "/></g></g></g><g fill="#000000" fill-opacity="0.4"><g transform="translate(108.058361, 187.658781)"><g><path d="M 17.671875 -27.84375 C 22.085938 -27.84375 25.285156 -27.140625 27.265625 -25.734375 C 29.242188 -24.328125 30.234375 -22.523438 30.234375 -20.328125 C 30.234375 -19.671875 30.164062 -19.066406 30.03125 -18.515625 C 29.507812 -16.210938 28.054688 -14.566406 25.671875 -13.578125 C 23.296875 -12.585938 20.492188 -12.09375 17.265625 -12.09375 C 15.628906 -12.09375 14.097656 -12.195312 12.671875 -12.40625 C 12.640625 -10.601562 13.125 -9.335938 14.125 -8.609375 C 15.132812 -7.878906 16.546875 -7.515625 18.359375 -7.515625 C 19.191406 -7.515625 19.988281 -7.609375 20.75 -7.796875 C 21.519531 -7.984375 22.492188 -8.269531 23.671875 -8.65625 C 24.640625 -9 25.300781 -9.171875 25.65625 -9.171875 C 26.039062 -9.171875 26.234375 -8.945312 26.234375 -8.5 C 26.265625 -7.28125 25.8125 -6 24.875 -4.65625 C 23.9375 -3.320312 22.546875 -2.1875 20.703125 -1.25 C 18.859375 -0.3125 16.632812 0.15625 14.03125 0.15625 C 10.164062 0.15625 7 -0.816406 4.53125 -2.765625 C 2.0625 -4.710938 0.828125 -7.546875 0.828125 -11.265625 C 0.828125 -12.304688 0.96875 -13.519531 1.25 -14.90625 C 2.125 -19.1875 4.023438 -22.410156 6.953125 -24.578125 C 9.890625 -26.753906 13.460938 -27.84375 17.671875 -27.84375 Z M 13.03125 -15.53125 C 13.175781 -15.5 13.367188 -15.484375 13.609375 -15.484375 C 15.066406 -15.484375 16.175781 -16.160156 16.9375 -17.515625 C 17.707031 -18.867188 18.078125 -20.382812 18.046875 -22.0625 C 18.003906 -23.03125 17.722656 -23.515625 17.203125 -23.515625 C 16.828125 -23.515625 16.375 -23.207031 15.84375 -22.59375 C 15.320312 -21.988281 14.8125 -21.078125 14.3125 -19.859375 C 13.8125 -18.648438 13.382812 -17.207031 13.03125 -15.53125 Z M 13.03125 -15.53125 "/></g></g></g><g fill="#000000" fill-opacity="0.4"><g transform="translate(137.232057, 187.658781)"><g><path d="M 27.640625 -27.578125 C 29.160156 -27.578125 30.378906 -26.957031 31.296875 -25.71875 C 32.222656 -24.488281 32.6875 -22.816406 32.6875 -20.703125 C 32.6875 -18.859375 32.359375 -16.875 31.703125 -14.75 C 30.410156 -10.476562 28.347656 -6.445312 25.515625 -2.65625 C 22.679688 1.132812 19.429688 4.175781 15.765625 6.46875 C 12.097656 8.757812 8.441406 9.90625 4.796875 9.90625 C 2.984375 9.90625 1.425781 9.59375 0.125 8.96875 C -1.175781 8.34375 -2.164062 7.507812 -2.84375 6.46875 C -3.519531 5.425781 -3.859375 4.3125 -3.859375 3.125 C -3.859375 2.601562 -3.769531 2.03125 -3.59375 1.40625 C -3.28125 0.4375 -2.757812 -0.304688 -2.03125 -0.828125 C -1.300781 -1.347656 -0.429688 -1.609375 0.578125 -1.609375 C 2.171875 -1.609375 3.476562 -1.0625 4.5 0.03125 C 5.53125 1.125 6.1875 2.625 6.46875 4.53125 C 8.6875 4.425781 10.738281 3.472656 12.625 1.671875 C 10.84375 1.359375 9.523438 0.757812 8.671875 -0.125 C 7.828125 -1.007812 7.25 -2.394531 6.9375 -4.28125 L 4.84375 -17.046875 C 4.738281 -17.710938 4.59375 -18.175781 4.40625 -18.4375 C 4.21875 -18.695312 3.96875 -18.828125 3.65625 -18.828125 C 3.40625 -18.828125 3.113281 -18.703125 2.78125 -18.453125 C 2.457031 -18.210938 2.222656 -18.09375 2.078125 -18.09375 C 1.804688 -18.09375 1.671875 -18.390625 1.671875 -18.984375 C 1.671875 -19.460938 1.753906 -19.984375 1.921875 -20.546875 C 2.554688 -22.523438 3.722656 -24.203125 5.421875 -25.578125 C 7.128906 -26.953125 9.109375 -27.640625 11.359375 -27.640625 C 13.585938 -27.640625 15.234375 -26.976562 16.296875 -25.65625 C 17.359375 -24.332031 18.046875 -22.296875 18.359375 -19.546875 L 19.921875 -8.078125 C 20.023438 -7.210938 20.335938 -6.78125 20.859375 -6.78125 C 21.484375 -6.78125 22.210938 -7.34375 23.046875 -8.46875 C 23.878906 -9.601562 24.695312 -11.210938 25.5 -13.296875 C 24.457031 -14.234375 23.65625 -15.3125 23.09375 -16.53125 C 22.539062 -17.75 22.265625 -19.050781 22.265625 -20.4375 C 22.265625 -21.519531 22.40625 -22.492188 22.6875 -23.359375 C 23.101562 -24.742188 23.753906 -25.789062 24.640625 -26.5 C 25.523438 -27.21875 26.523438 -27.578125 27.640625 -27.578125 Z M 27.640625 -27.578125 "/></g></g></g><g fill="#000000" fill-opacity="0.4"><g transform="translate(169.531524, 187.658781)"><g><path d="M 13.71875 -27.578125 C 15.726562 -27.578125 17.203125 -27.191406 18.140625 -26.421875 C 19.078125 -25.660156 19.546875 -24.625 19.546875 -23.3125 C 19.546875 -22.507812 19.425781 -21.742188 19.1875 -21.015625 L 14.390625 -5.421875 C 14.285156 -5.003906 14.234375 -4.640625 14.234375 -4.328125 C 14.234375 -3.878906 14.316406 -3.523438 14.484375 -3.265625 C 14.660156 -3.003906 14.90625 -2.75 15.21875 -2.5 C 15.46875 -2.257812 15.644531 -2.0625 15.75 -1.90625 C 15.851562 -1.75 15.867188 -1.546875 15.796875 -1.296875 C 15.617188 -0.847656 15.269531 -0.519531 14.75 -0.3125 C 14.226562 -0.101562 13.429688 0 12.359375 0 L 0.46875 0 C -0.4375 0 -1.097656 -0.144531 -1.515625 -0.4375 C -1.929688 -0.738281 -2.066406 -1.128906 -1.921875 -1.609375 C -1.785156 -2.023438 -1.421875 -2.394531 -0.828125 -2.71875 C -0.304688 -2.988281 0.125 -3.316406 0.46875 -3.703125 C 0.8125 -4.085938 1.109375 -4.695312 1.359375 -5.53125 L 5.890625 -20.59375 C 5.992188 -20.90625 6.046875 -21.164062 6.046875 -21.375 C 6.046875 -21.757812 5.957031 -22.0625 5.78125 -22.28125 C 5.613281 -22.507812 5.351562 -22.75 5 -23 C 4.65625 -23.269531 4.410156 -23.507812 4.265625 -23.71875 C 4.128906 -23.925781 4.113281 -24.207031 4.21875 -24.5625 C 4.425781 -25.351562 5.519531 -26.050781 7.5 -26.65625 C 9.488281 -27.269531 11.5625 -27.578125 13.71875 -27.578125 Z M 17.203125 -39.109375 C 18.554688 -39.109375 19.679688 -38.664062 20.578125 -37.78125 C 21.484375 -36.894531 21.9375 -35.804688 21.9375 -34.515625 C 21.9375 -33.609375 21.703125 -32.71875 21.234375 -31.84375 C 20.765625 -30.976562 20.101562 -30.273438 19.25 -29.734375 C 18.40625 -29.203125 17.460938 -28.9375 16.421875 -28.9375 C 15.097656 -28.9375 13.992188 -29.378906 13.109375 -30.265625 C 12.222656 -31.148438 11.757812 -32.253906 11.71875 -33.578125 C 11.71875 -34.441406 11.941406 -35.300781 12.390625 -36.15625 C 12.847656 -37.007812 13.492188 -37.710938 14.328125 -38.265625 C 15.160156 -38.828125 16.117188 -39.109375 17.203125 -39.109375 Z M 17.203125 -39.109375 "/></g></g></g><g fill="#000000" fill-opacity="0.4"><g transform="translate(188.598644, 187.658781)"><g><path d="M 23.3125 -26.90625 C 23.96875 -26.90625 24.476562 -26.765625 24.84375 -26.484375 C 25.207031 -26.210938 25.390625 -25.832031 25.390625 -25.34375 C 25.390625 -25.195312 25.351562 -24.953125 25.28125 -24.609375 C 24.832031 -23.078125 23.789062 -22.3125 22.15625 -22.3125 L 19.140625 -22.3125 L 15.21875 -9.4375 C 15.050781 -8.914062 14.96875 -8.378906 14.96875 -7.828125 C 14.96875 -7.191406 15.140625 -6.753906 15.484375 -6.515625 C 15.828125 -6.273438 16.316406 -6.15625 16.953125 -6.15625 C 17.503906 -6.15625 18.195312 -6.222656 19.03125 -6.359375 C 19.445312 -6.460938 19.8125 -6.515625 20.125 -6.515625 C 20.363281 -6.515625 20.546875 -6.4375 20.671875 -6.28125 C 20.796875 -6.125 20.859375 -5.925781 20.859375 -5.6875 C 20.890625 -4.988281 20.375 -4.144531 19.3125 -3.15625 C 18.257812 -2.164062 16.828125 -1.3125 15.015625 -0.59375 C 13.210938 0.113281 11.210938 0.46875 9.015625 0.46875 C 6.648438 0.46875 4.753906 -0.0664062 3.328125 -1.140625 C 1.910156 -2.222656 1.203125 -3.703125 1.203125 -5.578125 C 1.203125 -6.441406 1.335938 -7.273438 1.609375 -8.078125 L 4.953125 -18.40625 C 5.128906 -19 5.21875 -19.46875 5.21875 -19.8125 C 5.21875 -20.507812 5.050781 -21.097656 4.71875 -21.578125 C 4.382812 -22.066406 3.925781 -22.570312 3.34375 -23.09375 C 2.820312 -23.582031 2.453125 -23.988281 2.234375 -24.3125 C 2.023438 -24.644531 1.972656 -25.039062 2.078125 -25.5 C 2.222656 -25.945312 2.519531 -26.289062 2.96875 -26.53125 C 3.425781 -26.78125 4.140625 -26.90625 5.109375 -26.90625 L 8.03125 -26.90625 L 11.3125 -30.1875 C 12.457031 -31.332031 13.507812 -32.128906 14.46875 -32.578125 C 15.425781 -33.035156 16.671875 -33.265625 18.203125 -33.265625 C 20.390625 -33.265625 21.484375 -32.429688 21.484375 -30.765625 C 21.484375 -30.242188 21.410156 -29.753906 21.265625 -29.296875 L 20.546875 -26.90625 Z M 23.3125 -26.90625 "/></g></g></g><g fill="#000000" fill-opacity="0.4"><g transform="translate(210.999901, 187.658781)"><g><path d="M 13.71875 -27.578125 C 15.726562 -27.578125 17.203125 -27.191406 18.140625 -26.421875 C 19.078125 -25.660156 19.546875 -24.625 19.546875 -23.3125 C 19.546875 -22.507812 19.425781 -21.742188 19.1875 -21.015625 L 14.390625 -5.421875 C 14.285156 -5.003906 14.234375 -4.640625 14.234375 -4.328125 C 14.234375 -3.878906 14.316406 -3.523438 14.484375 -3.265625 C 14.660156 -3.003906 14.90625 -2.75 15.21875 -2.5 C 15.46875 -2.257812 15.644531 -2.0625 15.75 -1.90625 C 15.851562 -1.75 15.867188 -1.546875 15.796875 -1.296875 C 15.617188 -0.847656 15.269531 -0.519531 14.75 -0.3125 C 14.226562 -0.101562 13.429688 0 12.359375 0 L 0.46875 0 C -0.4375 0 -1.097656 -0.144531 -1.515625 -0.4375 C -1.929688 -0.738281 -2.066406 -1.128906 -1.921875 -1.609375 C -1.785156 -2.023438 -1.421875 -2.394531 -0.828125 -2.71875 C -0.304688 -2.988281 0.125 -3.316406 0.46875 -3.703125 C 0.8125 -4.085938 1.109375 -4.695312 1.359375 -5.53125 L 5.890625 -20.59375 C 5.992188 -20.90625 6.046875 -21.164062 6.046875 -21.375 C 6.046875 -21.757812 5.957031 -22.0625 5.78125 -22.28125 C 5.613281 -22.507812 5.351562 -22.75 5 -23 C 4.65625 -23.269531 4.410156 -23.507812 4.265625 -23.71875 C 4.128906 -23.925781 4.113281 -24.207031 4.21875 -24.5625 C 4.425781 -25.351562 5.519531 -26.050781 7.5 -26.65625 C 9.488281 -27.269531 11.5625 -27.578125 13.71875 -27.578125 Z M 17.203125 -39.109375 C 18.554688 -39.109375 19.679688 -38.664062 20.578125 -37.78125 C 21.484375 -36.894531 21.9375 -35.804688 21.9375 -34.515625 C 21.9375 -33.609375 21.703125 -32.71875 21.234375 -31.84375 C 20.765625 -30.976562 20.101562 -30.273438 19.25 -29.734375 C 18.40625 -29.203125 17.460938 -28.9375 16.421875 -28.9375 C 15.097656 -28.9375 13.992188 -29.378906 13.109375 -30.265625 C 12.222656 -31.148438 11.757812 -32.253906 11.71875 -33.578125 C 11.71875 -34.441406 11.941406 -35.300781 12.390625 -36.15625 C 12.847656 -37.007812 13.492188 -37.710938 14.328125 -38.265625 C 15.160156 -38.828125 16.117188 -39.109375 17.203125 -39.109375 Z M 17.203125 -39.109375 "/></g></g></g><g fill="#000000" fill-opacity="0.4"><g transform="translate(230.067021, 187.658781)"><g><path d="M 49.578125 -7.203125 C 49.515625 -7.054688 49.484375 -6.84375 49.484375 -6.5625 C 49.484375 -6.320312 49.539062 -6.128906 49.65625 -5.984375 C 49.78125 -5.847656 49.945312 -5.78125 50.15625 -5.78125 C 50.570312 -5.78125 50.925781 -5.960938 51.21875 -6.328125 C 51.519531 -6.691406 51.722656 -6.875 51.828125 -6.875 C 52.003906 -6.875 52.144531 -6.757812 52.25 -6.53125 C 52.351562 -6.3125 52.40625 -6.046875 52.40625 -5.734375 C 52.4375 -4.722656 52.101562 -3.738281 51.40625 -2.78125 C 50.71875 -1.832031 49.703125 -1.050781 48.359375 -0.4375 C 47.023438 0.164062 45.414062 0.46875 43.53125 0.46875 C 41.238281 0.46875 39.414062 -0.0625 38.0625 -1.125 C 36.707031 -2.1875 36.015625 -3.601562 35.984375 -5.375 C 35.984375 -6.65625 36.296875 -8.097656 36.921875 -9.703125 L 39.78125 -17.203125 C 39.957031 -17.660156 40.046875 -18.023438 40.046875 -18.296875 C 40.046875 -18.753906 39.894531 -19.113281 39.59375 -19.375 C 39.300781 -19.632812 38.945312 -19.765625 38.53125 -19.765625 C 37.9375 -19.765625 37.328125 -19.503906 36.703125 -18.984375 C 36.078125 -18.460938 35.519531 -17.644531 35.03125 -16.53125 L 32.171875 -7.203125 C 32.097656 -7.054688 32.0625 -6.84375 32.0625 -6.5625 C 32.0625 -6.320312 32.125 -6.128906 32.25 -5.984375 C 32.375 -5.847656 32.539062 -5.78125 32.75 -5.78125 C 33.164062 -5.78125 33.519531 -5.960938 33.8125 -6.328125 C 34.101562 -6.691406 34.300781 -6.875 34.40625 -6.875 C 34.582031 -6.875 34.722656 -6.757812 34.828125 -6.53125 C 34.929688 -6.3125 34.984375 -6.046875 34.984375 -5.734375 C 35.015625 -4.722656 34.679688 -3.738281 33.984375 -2.78125 C 33.296875 -1.832031 32.28125 -1.050781 30.9375 -0.4375 C 29.601562 0.164062 28 0.46875 26.125 0.46875 C 23.832031 0.46875 22.003906 -0.0625 20.640625 -1.125 C 19.285156 -2.1875 18.59375 -3.601562 18.5625 -5.375 C 18.5625 -6.65625 18.875 -8.097656 19.5 -9.703125 L 22.375 -17.203125 C 22.539062 -17.660156 22.625 -18.023438 22.625 -18.296875 C 22.625 -18.753906 22.476562 -19.113281 22.1875 -19.375 C 21.894531 -19.632812 21.535156 -19.765625 21.109375 -19.765625 C 20.523438 -19.765625 19.921875 -19.507812 19.296875 -19 C 18.671875 -18.5 18.148438 -17.691406 17.734375 -16.578125 L 14.28125 -5.421875 C 14.144531 -5.035156 14.078125 -4.671875 14.078125 -4.328125 C 14.078125 -3.910156 14.160156 -3.570312 14.328125 -3.3125 C 14.503906 -3.050781 14.75 -2.78125 15.0625 -2.5 C 15.3125 -2.289062 15.488281 -2.097656 15.59375 -1.921875 C 15.695312 -1.753906 15.710938 -1.546875 15.640625 -1.296875 C 15.503906 -0.847656 15.175781 -0.519531 14.65625 -0.3125 C 14.132812 -0.101562 13.316406 0 12.203125 0 L 0.3125 0 C -0.59375 0 -1.242188 -0.144531 -1.640625 -0.4375 C -2.035156 -0.738281 -2.179688 -1.128906 -2.078125 -1.609375 C -1.941406 -2.023438 -1.578125 -2.394531 -0.984375 -2.71875 C -0.460938 -2.988281 -0.03125 -3.316406 0.3125 -3.703125 C 0.65625 -4.085938 0.953125 -4.695312 1.203125 -5.53125 L 5.84375 -20.59375 C 5.90625 -20.769531 5.9375 -21.015625 5.9375 -21.328125 C 5.9375 -21.710938 5.859375 -22.007812 5.703125 -22.21875 C 5.546875 -22.425781 5.296875 -22.6875 4.953125 -23 C 4.609375 -23.269531 4.363281 -23.507812 4.21875 -23.71875 C 4.082031 -23.925781 4.066406 -24.207031 4.171875 -24.5625 C 4.378906 -25.351562 5.472656 -26.050781 7.453125 -26.65625 C 9.429688 -27.269531 11.5 -27.578125 13.65625 -27.578125 C 15.363281 -27.578125 16.710938 -27.109375 17.703125 -26.171875 C 18.691406 -25.234375 19.171875 -23.945312 19.140625 -22.3125 C 20.554688 -24.289062 22.054688 -25.660156 23.640625 -26.421875 C 25.222656 -27.191406 26.9375 -27.578125 28.78125 -27.578125 C 30.800781 -27.578125 32.441406 -26.992188 33.703125 -25.828125 C 34.972656 -24.671875 35.679688 -23.148438 35.828125 -21.265625 C 37.316406 -23.628906 38.910156 -25.269531 40.609375 -26.1875 C 42.316406 -27.113281 44.179688 -27.578125 46.203125 -27.578125 C 48.316406 -27.578125 50.023438 -26.929688 51.328125 -25.640625 C 52.628906 -24.359375 53.28125 -22.691406 53.28125 -20.640625 C 53.28125 -19.566406 53.109375 -18.507812 52.765625 -17.46875 Z M 49.578125 -7.203125 "/></g></g></g><g fill="#000000" fill-opacity="0.4"><g transform="translate(284.663544, 187.658781)"><g><path d="M 13.71875 -27.578125 C 15.726562 -27.578125 17.203125 -27.191406 18.140625 -26.421875 C 19.078125 -25.660156 19.546875 -24.625 19.546875 -23.3125 C 19.546875 -22.507812 19.425781 -21.742188 19.1875 -21.015625 L 14.390625 -5.421875 C 14.285156 -5.003906 14.234375 -4.640625 14.234375 -4.328125 C 14.234375 -3.878906 14.316406 -3.523438 14.484375 -3.265625 C 14.660156 -3.003906 14.90625 -2.75 15.21875 -2.5 C 15.46875 -2.257812 15.644531 -2.0625 15.75 -1.90625 C 15.851562 -1.75 15.867188 -1.546875 15.796875 -1.296875 C 15.617188 -0.847656 15.269531 -0.519531 14.75 -0.3125 C 14.226562 -0.101562 13.429688 0 12.359375 0 L 0.46875 0 C -0.4375 0 -1.097656 -0.144531 -1.515625 -0.4375 C -1.929688 -0.738281 -2.066406 -1.128906 -1.921875 -1.609375 C -1.785156 -2.023438 -1.421875 -2.394531 -0.828125 -2.71875 C -0.304688 -2.988281 0.125 -3.316406 0.46875 -3.703125 C 0.8125 -4.085938 1.109375 -4.695312 1.359375 -5.53125 L 5.890625 -20.59375 C 5.992188 -20.90625 6.046875 -21.164062 6.046875 -21.375 C 6.046875 -21.757812 5.957031 -22.0625 5.78125 -22.28125 C 5.613281 -22.507812 5.351562 -22.75 5 -23 C 4.65625 -23.269531 4.410156 -23.507812 4.265625 -23.71875 C 4.128906 -23.925781 4.113281 -24.207031 4.21875 -24.5625 C 4.425781 -25.351562 5.519531 -26.050781 7.5 -26.65625 C 9.488281 -27.269531 11.5625 -27.578125 13.71875 -27.578125 Z M 17.203125 -39.109375 C 18.554688 -39.109375 19.679688 -38.664062 20.578125 -37.78125 C 21.484375 -36.894531 21.9375 -35.804688 21.9375 -34.515625 C 21.9375 -33.609375 21.703125 -32.71875 21.234375 -31.84375 C 20.765625 -30.976562 20.101562 -30.273438 19.25 -29.734375 C 18.40625 -29.203125 17.460938 -28.9375 16.421875 -28.9375 C 15.097656 -28.9375 13.992188 -29.378906 13.109375 -30.265625 C 12.222656 -31.148438 11.757812 -32.253906 11.71875 -33.578125 C 11.71875 -34.441406 11.941406 -35.300781 12.390625 -36.15625 C 12.847656 -37.007812 13.492188 -37.710938 14.328125 -38.265625 C 15.160156 -38.828125 16.117188 -39.109375 17.203125 -39.109375 Z M 17.203125 -39.109375 "/></g></g></g><g fill="#000000" fill-opacity="1"><g transform="translate(72.881829, 185.354772)"><g><path d="M 34 -34.71875 C 35.28125 -34.71875 36.273438 -34.441406 36.984375 -33.890625 C 37.703125 -33.335938 38.0625 -32.570312 38.0625 -31.59375 C 38.0625 -31.113281 37.992188 -30.644531 37.859375 -30.1875 L 36.5 -25.34375 C 36.257812 -24.4375 35.859375 -23.789062 35.296875 -23.40625 C 34.742188 -23.03125 34.015625 -22.84375 33.109375 -22.84375 C 32.242188 -22.84375 31.546875 -23.023438 31.015625 -23.390625 C 30.492188 -23.753906 30.113281 -24.351562 29.875 -25.1875 L 29.046875 -28.15625 C 28.898438 -28.675781 28.722656 -29.019531 28.515625 -29.1875 C 28.304688 -29.363281 27.875 -29.453125 27.21875 -29.453125 L 22 -29.453125 L 19.078125 -19.140625 L 20.078125 -19.140625 C 20.554688 -19.140625 20.976562 -19.207031 21.34375 -19.34375 C 21.71875 -19.476562 22.113281 -19.738281 22.53125 -20.125 L 24.140625 -21.484375 C 24.734375 -22.003906 25.265625 -22.375 25.734375 -22.59375 C 26.203125 -22.820312 26.695312 -22.9375 27.21875 -22.9375 C 27.875 -22.9375 28.421875 -22.742188 28.859375 -22.359375 C 29.296875 -21.984375 29.515625 -21.445312 29.515625 -20.75 C 29.515625 -20.46875 29.460938 -20.140625 29.359375 -19.765625 L 27.0625 -11.84375 C 26.539062 -10.132812 25.601562 -9.28125 24.25 -9.28125 C 23.132812 -9.28125 22.265625 -9.851562 21.640625 -11 L 20.703125 -12.78125 C 20.453125 -13.257812 20.222656 -13.566406 20.015625 -13.703125 C 19.804688 -13.847656 19.492188 -13.921875 19.078125 -13.921875 L 17.578125 -13.921875 L 15.375 -6.15625 C 15.3125 -5.945312 15.28125 -5.664062 15.28125 -5.3125 C 15.28125 -4.832031 15.390625 -4.4375 15.609375 -4.125 C 15.835938 -3.8125 16.179688 -3.476562 16.640625 -3.125 C 17.015625 -2.8125 17.269531 -2.554688 17.40625 -2.359375 C 17.550781 -2.171875 17.625 -1.941406 17.625 -1.671875 C 17.625 -1.046875 17.34375 -0.609375 16.78125 -0.359375 C 16.226562 -0.117188 15.414062 0 14.34375 0 L 1.25 0 C 0.34375 0 -0.332031 -0.160156 -0.78125 -0.484375 C -1.226562 -0.816406 -1.382812 -1.28125 -1.25 -1.875 C -1.175781 -2.1875 -1.046875 -2.4375 -0.859375 -2.625 C -0.671875 -2.820312 -0.382812 -3.039062 0 -3.28125 C 0.59375 -3.632812 1.0625 -4 1.40625 -4.375 C 1.75 -4.757812 2.023438 -5.351562 2.234375 -6.15625 L 8.65625 -28.625 C 8.789062 -29.070312 8.859375 -29.488281 8.859375 -29.875 C 8.859375 -30.289062 8.796875 -30.640625 8.671875 -30.921875 C 8.554688 -31.203125 8.378906 -31.5 8.140625 -31.8125 C 7.828125 -32.257812 7.671875 -32.625 7.671875 -32.90625 C 7.671875 -33.007812 7.703125 -33.195312 7.765625 -33.46875 C 7.910156 -33.925781 8.222656 -34.25 8.703125 -34.4375 C 9.191406 -34.625 9.90625 -34.71875 10.84375 -34.71875 Z M 34 -34.71875 "/></g></g></g><g fill="#000000" fill-opacity="1"><g transform="translate(105.754354, 185.354772)"><g><path d="M 17.671875 -27.84375 C 22.085938 -27.84375 25.285156 -27.140625 27.265625 -25.734375 C 29.242188 -24.328125 30.234375 -22.523438 30.234375 -20.328125 C 30.234375 -19.671875 30.164062 -19.066406 30.03125 -18.515625 C 29.507812 -16.210938 28.054688 -14.566406 25.671875 -13.578125 C 23.296875 -12.585938 20.492188 -12.09375 17.265625 -12.09375 C 15.628906 -12.09375 14.097656 -12.195312 12.671875 -12.40625 C 12.640625 -10.601562 13.125 -9.335938 14.125 -8.609375 C 15.132812 -7.878906 16.546875 -7.515625 18.359375 -7.515625 C 19.191406 -7.515625 19.988281 -7.609375 20.75 -7.796875 C 21.519531 -7.984375 22.492188 -8.269531 23.671875 -8.65625 C 24.640625 -9 25.300781 -9.171875 25.65625 -9.171875 C 26.039062 -9.171875 26.234375 -8.945312 26.234375 -8.5 C 26.265625 -7.28125 25.8125 -6 24.875 -4.65625 C 23.9375 -3.320312 22.546875 -2.1875 20.703125 -1.25 C 18.859375 -0.3125 16.632812 0.15625 14.03125 0.15625 C 10.164062 0.15625 7 -0.816406 4.53125 -2.765625 C 2.0625 -4.710938 0.828125 -7.546875 0.828125 -11.265625 C 0.828125 -12.304688 0.96875 -13.519531 1.25 -14.90625 C 2.125 -19.1875 4.023438 -22.410156 6.953125 -24.578125 C 9.890625 -26.753906 13.460938 -27.84375 17.671875 -27.84375 Z M 13.03125 -15.53125 C 13.175781 -15.5 13.367188 -15.484375 13.609375 -15.484375 C 15.066406 -15.484375 16.175781 -16.160156 16.9375 -17.515625 C 17.707031 -18.867188 18.078125 -20.382812 18.046875 -22.0625 C 18.003906 -23.03125 17.722656 -23.515625 17.203125 -23.515625 C 16.828125 -23.515625 16.375 -23.207031 15.84375 -22.59375 C 15.320312 -21.988281 14.8125 -21.078125 14.3125 -19.859375 C 13.8125 -18.648438 13.382812 -17.207031 13.03125 -15.53125 Z M 13.03125 -15.53125 "/></g></g></g><g fill="#000000" fill-opacity="1"><g transform="translate(134.92805, 185.354772)"><g><path d="M 27.640625 -27.578125 C 29.160156 -27.578125 30.378906 -26.957031 31.296875 -25.71875 C 32.222656 -24.488281 32.6875 -22.816406 32.6875 -20.703125 C 32.6875 -18.859375 32.359375 -16.875 31.703125 -14.75 C 30.410156 -10.476562 28.347656 -6.445312 25.515625 -2.65625 C 22.679688 1.132812 19.429688 4.175781 15.765625 6.46875 C 12.097656 8.757812 8.441406 9.90625 4.796875 9.90625 C 2.984375 9.90625 1.425781 9.59375 0.125 8.96875 C -1.175781 8.34375 -2.164062 7.507812 -2.84375 6.46875 C -3.519531 5.425781 -3.859375 4.3125 -3.859375 3.125 C -3.859375 2.601562 -3.769531 2.03125 -3.59375 1.40625 C -3.28125 0.4375 -2.757812 -0.304688 -2.03125 -0.828125 C -1.300781 -1.347656 -0.429688 -1.609375 0.578125 -1.609375 C 2.171875 -1.609375 3.476562 -1.0625 4.5 0.03125 C 5.53125 1.125 6.1875 2.625 6.46875 4.53125 C 8.6875 4.425781 10.738281 3.472656 12.625 1.671875 C 10.84375 1.359375 9.523438 0.757812 8.671875 -0.125 C 7.828125 -1.007812 7.25 -2.394531 6.9375 -4.28125 L 4.84375 -17.046875 C 4.738281 -17.710938 4.59375 -18.175781 4.40625 -18.4375 C 4.21875 -18.695312 3.96875 -18.828125 3.65625 -18.828125 C 3.40625 -18.828125 3.113281 -18.703125 2.78125 -18.453125 C 2.457031 -18.210938 2.222656 -18.09375 2.078125 -18.09375 C 1.804688 -18.09375 1.671875 -18.390625 1.671875 -18.984375 C 1.671875 -19.460938 1.753906 -19.984375 1.921875 -20.546875 C 2.554688 -22.523438 3.722656 -24.203125 5.421875 -25.578125 C 7.128906 -26.953125 9.109375 -27.640625 11.359375 -27.640625 C 13.585938 -27.640625 15.234375 -26.976562 16.296875 -25.65625 C 17.359375 -24.332031 18.046875 -22.296875 18.359375 -19.546875 L 19.921875 -8.078125 C 20.023438 -7.210938 20.335938 -6.78125 20.859375 -6.78125 C 21.484375 -6.78125 22.210938 -7.34375 23.046875 -8.46875 C 23.878906 -9.601562 24.695312 -11.210938 25.5 -13.296875 C 24.457031 -14.234375 23.65625 -15.3125 23.09375 -16.53125 C 22.539062 -17.75 22.265625 -19.050781 22.265625 -20.4375 C 22.265625 -21.519531 22.40625 -22.492188 22.6875 -23.359375 C 23.101562 -24.742188 23.753906 -25.789062 24.640625 -26.5 C 25.523438 -27.21875 26.523438 -27.578125 27.640625 -27.578125 Z M 27.640625 -27.578125 "/></g></g></g><g fill="#000000" fill-opacity="1"><g transform="translate(167.227517, 185.354772)"><g><path d="M 13.71875 -27.578125 C 15.726562 -27.578125 17.203125 -27.191406 18.140625 -26.421875 C 19.078125 -25.660156 19.546875 -24.625 19.546875 -23.3125 C 19.546875 -22.507812 19.425781 -21.742188 19.1875 -21.015625 L 14.390625 -5.421875 C 14.285156 -5.003906 14.234375 -4.640625 14.234375 -4.328125 C 14.234375 -3.878906 14.316406 -3.523438 14.484375 -3.265625 C 14.660156 -3.003906 14.90625 -2.75 15.21875 -2.5 C 15.46875 -2.257812 15.644531 -2.0625 15.75 -1.90625 C 15.851562 -1.75 15.867188 -1.546875 15.796875 -1.296875 C 15.617188 -0.847656 15.269531 -0.519531 14.75 -0.3125 C 14.226562 -0.101562 13.429688 0 12.359375 0 L 0.46875 0 C -0.4375 0 -1.097656 -0.144531 -1.515625 -0.4375 C -1.929688 -0.738281 -2.066406 -1.128906 -1.921875 -1.609375 C -1.785156 -2.023438 -1.421875 -2.394531 -0.828125 -2.71875 C -0.304688 -2.988281 0.125 -3.316406 0.46875 -3.703125 C 0.8125 -4.085938 1.109375 -4.695312 1.359375 -5.53125 L 5.890625 -20.59375 C 5.992188 -20.90625 6.046875 -21.164062 6.046875 -21.375 C 6.046875 -21.757812 5.957031 -22.0625 5.78125 -22.28125 C 5.613281 -22.507812 5.351562 -22.75 5 -23 C 4.65625 -23.269531 4.410156 -23.507812 4.265625 -23.71875 C 4.128906 -23.925781 4.113281 -24.207031 4.21875 -24.5625 C 4.425781 -25.351562 5.519531 -26.050781 7.5 -26.65625 C 9.488281 -27.269531 11.5625 -27.578125 13.71875 -27.578125 Z M 17.203125 -39.109375 C 18.554688 -39.109375 19.679688 -38.664062 20.578125 -37.78125 C 21.484375 -36.894531 21.9375 -35.804688 21.9375 -34.515625 C 21.9375 -33.609375 21.703125 -32.71875 21.234375 -31.84375 C 20.765625 -30.976562 20.101562 -30.273438 19.25 -29.734375 C 18.40625 -29.203125 17.460938 -28.9375 16.421875 -28.9375 C 15.097656 -28.9375 13.992188 -29.378906 13.109375 -30.265625 C 12.222656 -31.148438 11.757812 -32.253906 11.71875 -33.578125 C 11.71875 -34.441406 11.941406 -35.300781 12.390625 -36.15625 C 12.847656 -37.007812 13.492188 -37.710938 14.328125 -38.265625 C 15.160156 -38.828125 16.117188 -39.109375 17.203125 -39.109375 Z M 17.203125 -39.109375 "/></g></g></g><g fill="#000000" fill-opacity="1"><g transform="translate(186.294637, 185.354772)"><g><path d="M 23.3125 -26.90625 C 23.96875 -26.90625 24.476562 -26.765625 24.84375 -26.484375 C 25.207031 -26.210938 25.390625 -25.832031 25.390625 -25.34375 C 25.390625 -25.195312 25.351562 -24.953125 25.28125 -24.609375 C 24.832031 -23.078125 23.789062 -22.3125 22.15625 -22.3125 L 19.140625 -22.3125 L 15.21875 -9.4375 C 15.050781 -8.914062 14.96875 -8.378906 14.96875 -7.828125 C 14.96875 -7.191406 15.140625 -6.753906 15.484375 -6.515625 C 15.828125 -6.273438 16.316406 -6.15625 16.953125 -6.15625 C 17.503906 -6.15625 18.195312 -6.222656 19.03125 -6.359375 C 19.445312 -6.460938 19.8125 -6.515625 20.125 -6.515625 C 20.363281 -6.515625 20.546875 -6.4375 20.671875 -6.28125 C 20.796875 -6.125 20.859375 -5.925781 20.859375 -5.6875 C 20.890625 -4.988281 20.375 -4.144531 19.3125 -3.15625 C 18.257812 -2.164062 16.828125 -1.3125 15.015625 -0.59375 C 13.210938 0.113281 11.210938 0.46875 9.015625 0.46875 C 6.648438 0.46875 4.753906 -0.0664062 3.328125 -1.140625 C 1.910156 -2.222656 1.203125 -3.703125 1.203125 -5.578125 C 1.203125 -6.441406 1.335938 -7.273438 1.609375 -8.078125 L 4.953125 -18.40625 C 5.128906 -19 5.21875 -19.46875 5.21875 -19.8125 C 5.21875 -20.507812 5.050781 -21.097656 4.71875 -21.578125 C 4.382812 -22.066406 3.925781 -22.570312 3.34375 -23.09375 C 2.820312 -23.582031 2.453125 -23.988281 2.234375 -24.3125 C 2.023438 -24.644531 1.972656 -25.039062 2.078125 -25.5 C 2.222656 -25.945312 2.519531 -26.289062 2.96875 -26.53125 C 3.425781 -26.78125 4.140625 -26.90625 5.109375 -26.90625 L 8.03125 -26.90625 L 11.3125 -30.1875 C 12.457031 -31.332031 13.507812 -32.128906 14.46875 -32.578125 C 15.425781 -33.035156 16.671875 -33.265625 18.203125 -33.265625 C 20.390625 -33.265625 21.484375 -32.429688 21.484375 -30.765625 C 21.484375 -30.242188 21.410156 -29.753906 21.265625 -29.296875 L 20.546875 -26.90625 Z M 23.3125 -26.90625 "/></g></g></g><g fill="#000000" fill-opacity="1"><g transform="translate(208.695894, 185.354772)"><g><path d="M 13.71875 -27.578125 C 15.726562 -27.578125 17.203125 -27.191406 18.140625 -26.421875 C 19.078125 -25.660156 19.546875 -24.625 19.546875 -23.3125 C 19.546875 -22.507812 19.425781 -21.742188 19.1875 -21.015625 L 14.390625 -5.421875 C 14.285156 -5.003906 14.234375 -4.640625 14.234375 -4.328125 C 14.234375 -3.878906 14.316406 -3.523438 14.484375 -3.265625 C 14.660156 -3.003906 14.90625 -2.75 15.21875 -2.5 C 15.46875 -2.257812 15.644531 -2.0625 15.75 -1.90625 C 15.851562 -1.75 15.867188 -1.546875 15.796875 -1.296875 C 15.617188 -0.847656 15.269531 -0.519531 14.75 -0.3125 C 14.226562 -0.101562 13.429688 0 12.359375 0 L 0.46875 0 C -0.4375 0 -1.097656 -0.144531 -1.515625 -0.4375 C -1.929688 -0.738281 -2.066406 -1.128906 -1.921875 -1.609375 C -1.785156 -2.023438 -1.421875 -2.394531 -0.828125 -2.71875 C -0.304688 -2.988281 0.125 -3.316406 0.46875 -3.703125 C 0.8125 -4.085938 1.109375 -4.695312 1.359375 -5.53125 L 5.890625 -20.59375 C 5.992188 -20.90625 6.046875 -21.164062 6.046875 -21.375 C 6.046875 -21.757812 5.957031 -22.0625 5.78125 -22.28125 C 5.613281 -22.507812 5.351562 -22.75 5 -23 C 4.65625 -23.269531 4.410156 -23.507812 4.265625 -23.71875 C 4.128906 -23.925781 4.113281 -24.207031 4.21875 -24.5625 C 4.425781 -25.351562 5.519531 -26.050781 7.5 -26.65625 C 9.488281 -27.269531 11.5625 -27.578125 13.71875 -27.578125 Z M 17.203125 -39.109375 C 18.554688 -39.109375 19.679688 -38.664062 20.578125 -37.78125 C 21.484375 -36.894531 21.9375 -35.804688 21.9375 -34.515625 C 21.9375 -33.609375 21.703125 -32.71875 21.234375 -31.84375 C 20.765625 -30.976562 20.101562 -30.273438 19.25 -29.734375 C 18.40625 -29.203125 17.460938 -28.9375 16.421875 -28.9375 C 15.097656 -28.9375 13.992188 -29.378906 13.109375 -30.265625 C 12.222656 -31.148438 11.757812 -32.253906 11.71875 -33.578125 C 11.71875 -34.441406 11.941406 -35.300781 12.390625 -36.15625 C 12.847656 -37.007812 13.492188 -37.710938 14.328125 -38.265625 C 15.160156 -38.828125 16.117188 -39.109375 17.203125 -39.109375 Z M 17.203125 -39.109375 "/></g></g></g><g fill="#000000" fill-opacity="1"><g transform="translate(227.763014, 185.354772)"><g><path d="M 49.578125 -7.203125 C 49.515625 -7.054688 49.484375 -6.84375 49.484375 -6.5625 C 49.484375 -6.320312 49.539062 -6.128906 49.65625 -5.984375 C 49.78125 -5.847656 49.945312 -5.78125 50.15625 -5.78125 C 50.570312 -5.78125 50.925781 -5.960938 51.21875 -6.328125 C 51.519531 -6.691406 51.722656 -6.875 51.828125 -6.875 C 52.003906 -6.875 52.144531 -6.757812 52.25 -6.53125 C 52.351562 -6.3125 52.40625 -6.046875 52.40625 -5.734375 C 52.4375 -4.722656 52.101562 -3.738281 51.40625 -2.78125 C 50.71875 -1.832031 49.703125 -1.050781 48.359375 -0.4375 C 47.023438 0.164062 45.414062 0.46875 43.53125 0.46875 C 41.238281 0.46875 39.414062 -0.0625 38.0625 -1.125 C 36.707031 -2.1875 36.015625 -3.601562 35.984375 -5.375 C 35.984375 -6.65625 36.296875 -8.097656 36.921875 -9.703125 L 39.78125 -17.203125 C 39.957031 -17.660156 40.046875 -18.023438 40.046875 -18.296875 C 40.046875 -18.753906 39.894531 -19.113281 39.59375 -19.375 C 39.300781 -19.632812 38.945312 -19.765625 38.53125 -19.765625 C 37.9375 -19.765625 37.328125 -19.503906 36.703125 -18.984375 C 36.078125 -18.460938 35.519531 -17.644531 35.03125 -16.53125 L 32.171875 -7.203125 C 32.097656 -7.054688 32.0625 -6.84375 32.0625 -6.5625 C 32.0625 -6.320312 32.125 -6.128906 32.25 -5.984375 C 32.375 -5.847656 32.539062 -5.78125 32.75 -5.78125 C 33.164062 -5.78125 33.519531 -5.960938 33.8125 -6.328125 C 34.101562 -6.691406 34.300781 -6.875 34.40625 -6.875 C 34.582031 -6.875 34.722656 -6.757812 34.828125 -6.53125 C 34.929688 -6.3125 34.984375 -6.046875 34.984375 -5.734375 C 35.015625 -4.722656 34.679688 -3.738281 33.984375 -2.78125 C 33.296875 -1.832031 32.28125 -1.050781 30.9375 -0.4375 C 29.601562 0.164062 28 0.46875 26.125 0.46875 C 23.832031 0.46875 22.003906 -0.0625 20.640625 -1.125 C 19.285156 -2.1875 18.59375 -3.601562 18.5625 -5.375 C 18.5625 -6.65625 18.875 -8.097656 19.5 -9.703125 L 22.375 -17.203125 C 22.539062 -17.660156 22.625 -18.023438 22.625 -18.296875 C 22.625 -18.753906 22.476562 -19.113281 22.1875 -19.375 C 21.894531 -19.632812 21.535156 -19.765625 21.109375 -19.765625 C 20.523438 -19.765625 19.921875 -19.507812 19.296875 -19 C 18.671875 -18.5 18.148438 -17.691406 17.734375 -16.578125 L 14.28125 -5.421875 C 14.144531 -5.035156 14.078125 -4.671875 14.078125 -4.328125 C 14.078125 -3.910156 14.160156 -3.570312 14.328125 -3.3125 C 14.503906 -3.050781 14.75 -2.78125 15.0625 -2.5 C 15.3125 -2.289062 15.488281 -2.097656 15.59375 -1.921875 C 15.695312 -1.753906 15.710938 -1.546875 15.640625 -1.296875 C 15.503906 -0.847656 15.175781 -0.519531 14.65625 -0.3125 C 14.132812 -0.101562 13.316406 0 12.203125 0 L 0.3125 0 C -0.59375 0 -1.242188 -0.144531 -1.640625 -0.4375 C -2.035156 -0.738281 -2.179688 -1.128906 -2.078125 -1.609375 C -1.941406 -2.023438 -1.578125 -2.394531 -0.984375 -2.71875 C -0.460938 -2.988281 -0.03125 -3.316406 0.3125 -3.703125 C 0.65625 -4.085938 0.953125 -4.695312 1.203125 -5.53125 L 5.84375 -20.59375 C 5.90625 -20.769531 5.9375 -21.015625 5.9375 -21.328125 C 5.9375 -21.710938 5.859375 -22.007812 5.703125 -22.21875 C 5.546875 -22.425781 5.296875 -22.6875 4.953125 -23 C 4.609375 -23.269531 4.363281 -23.507812 4.21875 -23.71875 C 4.082031 -23.925781 4.066406 -24.207031 4.171875 -24.5625 C 4.378906 -25.351562 5.472656 -26.050781 7.453125 -26.65625 C 9.429688 -27.269531 11.5 -27.578125 13.65625 -27.578125 C 15.363281 -27.578125 16.710938 -27.109375 17.703125 -26.171875 C 18.691406 -25.234375 19.171875 -23.945312 19.140625 -22.3125 C 20.554688 -24.289062 22.054688 -25.660156 23.640625 -26.421875 C 25.222656 -27.191406 26.9375 -27.578125 28.78125 -27.578125 C 30.800781 -27.578125 32.441406 -26.992188 33.703125 -25.828125 C 34.972656 -24.671875 35.679688 -23.148438 35.828125 -21.265625 C 37.316406 -23.628906 38.910156 -25.269531 40.609375 -26.1875 C 42.316406 -27.113281 44.179688 -27.578125 46.203125 -27.578125 C 48.316406 -27.578125 50.023438 -26.929688 51.328125 -25.640625 C 52.628906 -24.359375 53.28125 -22.691406 53.28125 -20.640625 C 53.28125 -19.566406 53.109375 -18.507812 52.765625 -17.46875 Z M 49.578125 -7.203125 "/></g></g></g><g fill="#000000" fill-opacity="1"><g transform="translate(282.359537, 185.354772)"><g><path d="M 13.71875 -27.578125 C 15.726562 -27.578125 17.203125 -27.191406 18.140625 -26.421875 C 19.078125 -25.660156 19.546875 -24.625 19.546875 -23.3125 C 19.546875 -22.507812 19.425781 -21.742188 19.1875 -21.015625 L 14.390625 -5.421875 C 14.285156 -5.003906 14.234375 -4.640625 14.234375 -4.328125 C 14.234375 -3.878906 14.316406 -3.523438 14.484375 -3.265625 C 14.660156 -3.003906 14.90625 -2.75 15.21875 -2.5 C 15.46875 -2.257812 15.644531 -2.0625 15.75 -1.90625 C 15.851562 -1.75 15.867188 -1.546875 15.796875 -1.296875 C 15.617188 -0.847656 15.269531 -0.519531 14.75 -0.3125 C 14.226562 -0.101562 13.429688 0 12.359375 0 L 0.46875 0 C -0.4375 0 -1.097656 -0.144531 -1.515625 -0.4375 C -1.929688 -0.738281 -2.066406 -1.128906 -1.921875 -1.609375 C -1.785156 -2.023438 -1.421875 -2.394531 -0.828125 -2.71875 C -0.304688 -2.988281 0.125 -3.316406 0.46875 -3.703125 C 0.8125 -4.085938 1.109375 -4.695312 1.359375 -5.53125 L 5.890625 -20.59375 C 5.992188 -20.90625 6.046875 -21.164062 6.046875 -21.375 C 6.046875 -21.757812 5.957031 -22.0625 5.78125 -22.28125 C 5.613281 -22.507812 5.351562 -22.75 5 -23 C 4.65625 -23.269531 4.410156 -23.507812 4.265625 -23.71875 C 4.128906 -23.925781 4.113281 -24.207031 4.21875 -24.5625 C 4.425781 -25.351562 5.519531 -26.050781 7.5 -26.65625 C 9.488281 -27.269531 11.5625 -27.578125 13.71875 -27.578125 Z M 17.203125 -39.109375 C 18.554688 -39.109375 19.679688 -38.664062 20.578125 -37.78125 C 21.484375 -36.894531 21.9375 -35.804688 21.9375 -34.515625 C 21.9375 -33.609375 21.703125 -32.71875 21.234375 -31.84375 C 20.765625 -30.976562 20.101562 -30.273438 19.25 -29.734375 C 18.40625 -29.203125 17.460938 -28.9375 16.421875 -28.9375 C 15.097656 -28.9375 13.992188 -29.378906 13.109375 -30.265625 C 12.222656 -31.148438 11.757812 -32.253906 11.71875 -33.578125 C 11.71875 -34.441406 11.941406 -35.300781 12.390625 -36.15625 C 12.847656 -37.007812 13.492188 -37.710938 14.328125 -38.265625 C 15.160156 -38.828125 16.117188 -39.109375 17.203125 -39.109375 Z M 17.203125 -39.109375 "/></g></g></g><g fill="#000000" fill-opacity="0.4"><g transform="translate(70.900341, 221.34072)"><g><path d="M 31.75 -6.125 C 31.613281 -5.675781 31.546875 -5.226562 31.546875 -4.78125 C 31.546875 -4.394531 31.597656 -4.070312 31.703125 -3.8125 C 31.804688 -3.5625 31.914062 -3.359375 32.03125 -3.203125 C 32.15625 -3.046875 32.234375 -2.929688 32.265625 -2.859375 C 32.617188 -2.515625 32.796875 -2.164062 32.796875 -1.8125 C 32.796875 -1.75 32.757812 -1.578125 32.6875 -1.296875 C 32.550781 -0.816406 32.25 -0.476562 31.78125 -0.28125 C 31.3125 -0.09375 30.59375 0 29.625 0 L 17.3125 0 C 16.582031 0 16.015625 -0.117188 15.609375 -0.359375 C 15.210938 -0.609375 15.015625 -0.9375 15.015625 -1.34375 C 15.015625 -1.550781 15.066406 -1.78125 15.171875 -2.03125 C 15.273438 -2.300781 15.421875 -2.515625 15.609375 -2.671875 C 15.804688 -2.828125 16.078125 -3.007812 16.421875 -3.21875 C 16.972656 -3.53125 17.421875 -3.875 17.765625 -4.25 C 18.117188 -4.632812 18.414062 -5.257812 18.65625 -6.125 L 20.015625 -10.609375 L 11.90625 -10.609375 L 10.5 -7.640625 C 9.90625 -6.359375 9.609375 -5.351562 9.609375 -4.625 C 9.609375 -4.207031 9.675781 -3.867188 9.8125 -3.609375 C 9.957031 -3.347656 10.171875 -3.082031 10.453125 -2.8125 C 10.691406 -2.53125 10.851562 -2.289062 10.9375 -2.09375 C 11.019531 -1.90625 11.03125 -1.65625 10.96875 -1.34375 C 10.820312 -0.832031 10.53125 -0.476562 10.09375 -0.28125 C 9.664062 -0.09375 8.988281 0 8.0625 0 L 0.3125 0 C -0.488281 0 -1.09375 -0.144531 -1.5 -0.4375 C -1.914062 -0.738281 -2.125 -1.128906 -2.125 -1.609375 C -2.125 -2.160156 -1.925781 -2.601562 -1.53125 -2.9375 C -1.132812 -3.269531 -0.535156 -3.625 0.265625 -4 C 1.296875 -4.519531 2.125 -5.03125 2.75 -5.53125 C 3.375 -6.03125 3.910156 -6.734375 4.359375 -7.640625 L 13.609375 -26.8125 C 15.035156 -29.789062 16.707031 -31.945312 18.625 -33.28125 C 20.550781 -34.613281 23.09375 -35.28125 26.25 -35.28125 C 29.78125 -35.28125 32.515625 -34.5625 34.453125 -33.125 C 36.390625 -31.6875 37.359375 -29.6875 37.359375 -27.125 C 37.359375 -26.050781 37.1875 -24.941406 36.84375 -23.796875 Z M 21.5625 -15.796875 L 24.328125 -24.9375 C 24.460938 -25.351562 24.53125 -25.789062 24.53125 -26.25 C 24.53125 -26.90625 24.347656 -27.394531 23.984375 -27.71875 C 23.617188 -28.050781 23.109375 -28.21875 22.453125 -28.21875 C 21.617188 -28.21875 20.90625 -27.972656 20.3125 -27.484375 C 19.726562 -27.003906 19.140625 -26.140625 18.546875 -24.890625 L 14.296875 -15.796875 Z M 21.5625 -15.796875 "/></g></g></g><g fill="#000000" fill-opacity="0.4"><g transform="translate(107.168834, 221.34072)"><g><path d="M 32.171875 -7.171875 C 32.097656 -7.035156 32.0625 -6.828125 32.0625 -6.546875 C 32.0625 -6.304688 32.117188 -6.113281 32.234375 -5.96875 C 32.359375 -5.832031 32.523438 -5.765625 32.734375 -5.765625 C 33.148438 -5.765625 33.503906 -5.945312 33.796875 -6.3125 C 34.097656 -6.675781 34.300781 -6.859375 34.40625 -6.859375 C 34.570312 -6.859375 34.707031 -6.742188 34.8125 -6.515625 C 34.914062 -6.296875 34.96875 -6.03125 34.96875 -5.71875 C 35.007812 -4.707031 34.679688 -3.722656 33.984375 -2.765625 C 33.296875 -1.816406 32.285156 -1.039062 30.953125 -0.4375 C 29.617188 0.164062 28.015625 0.46875 26.140625 0.46875 C 23.847656 0.46875 22.023438 -0.0546875 20.671875 -1.109375 C 19.328125 -2.171875 18.640625 -3.585938 18.609375 -5.359375 C 18.609375 -6.640625 18.921875 -8.078125 19.546875 -9.671875 L 22.40625 -17.15625 C 22.570312 -17.601562 22.65625 -17.960938 22.65625 -18.234375 C 22.65625 -18.691406 22.507812 -19.050781 22.21875 -19.3125 C 21.925781 -19.570312 21.570312 -19.703125 21.15625 -19.703125 C 20.394531 -19.703125 19.664062 -19.34375 18.96875 -18.625 C 18.269531 -17.914062 17.769531 -17.039062 17.46875 -16 L 14.234375 -5.40625 C 14.097656 -5.019531 14.03125 -4.65625 14.03125 -4.3125 C 14.03125 -3.894531 14.113281 -3.554688 14.28125 -3.296875 C 14.457031 -3.035156 14.703125 -2.769531 15.015625 -2.5 C 15.253906 -2.289062 15.425781 -2.097656 15.53125 -1.921875 C 15.632812 -1.742188 15.65625 -1.535156 15.59375 -1.296875 C 15.445312 -0.847656 15.113281 -0.519531 14.59375 -0.3125 C 14.082031 -0.101562 13.269531 0 12.15625 0 L 0.3125 0 C -0.59375 0 -1.242188 -0.144531 -1.640625 -0.4375 C -2.035156 -0.738281 -2.179688 -1.128906 -2.078125 -1.609375 C -1.941406 -2.023438 -1.578125 -2.390625 -0.984375 -2.703125 C -0.460938 -2.984375 -0.03125 -3.3125 0.3125 -3.6875 C 0.65625 -4.070312 0.945312 -4.679688 1.1875 -5.515625 L 5.828125 -20.53125 C 5.890625 -20.695312 5.921875 -20.9375 5.921875 -21.25 C 5.921875 -21.632812 5.84375 -21.929688 5.6875 -22.140625 C 5.53125 -22.347656 5.28125 -22.609375 4.9375 -22.921875 C 4.59375 -23.191406 4.347656 -23.429688 4.203125 -23.640625 C 4.066406 -23.847656 4.050781 -24.128906 4.15625 -24.484375 C 4.363281 -25.273438 5.453125 -25.972656 7.421875 -26.578125 C 9.398438 -27.179688 11.460938 -27.484375 13.609375 -27.484375 C 15.347656 -27.484375 16.71875 -27.007812 17.71875 -26.0625 C 18.726562 -25.113281 19.179688 -23.789062 19.078125 -22.09375 C 20.492188 -24.132812 22 -25.539062 23.59375 -26.3125 C 25.1875 -27.09375 26.921875 -27.484375 28.796875 -27.484375 C 30.898438 -27.484375 32.601562 -26.84375 33.90625 -25.5625 C 35.207031 -24.28125 35.859375 -22.617188 35.859375 -20.578125 C 35.859375 -19.503906 35.6875 -18.445312 35.34375 -17.40625 Z M 32.171875 -7.171875 "/></g></g></g><g fill="#000000" fill-opacity="0.4"><g transform="translate(144.372621, 221.34072)"><g><path d="M 23.234375 -26.8125 C 23.890625 -26.8125 24.398438 -26.671875 24.765625 -26.390625 C 25.128906 -26.117188 25.3125 -25.738281 25.3125 -25.25 C 25.3125 -25.113281 25.273438 -24.875 25.203125 -24.53125 C 24.753906 -23.007812 23.71875 -22.25 22.09375 -22.25 L 19.078125 -22.25 L 15.171875 -9.40625 C 15.003906 -8.882812 14.921875 -8.347656 14.921875 -7.796875 C 14.921875 -7.171875 15.09375 -6.734375 15.4375 -6.484375 C 15.78125 -6.242188 16.265625 -6.125 16.890625 -6.125 C 17.441406 -6.125 18.132812 -6.195312 18.96875 -6.34375 C 19.382812 -6.445312 19.75 -6.5 20.0625 -6.5 C 20.300781 -6.5 20.476562 -6.421875 20.59375 -6.265625 C 20.71875 -6.109375 20.78125 -5.910156 20.78125 -5.671875 C 20.820312 -4.972656 20.3125 -4.128906 19.25 -3.140625 C 18.195312 -2.148438 16.769531 -1.300781 14.96875 -0.59375 C 13.164062 0.113281 11.171875 0.46875 8.984375 0.46875 C 6.628906 0.46875 4.738281 -0.0664062 3.3125 -1.140625 C 1.894531 -2.210938 1.1875 -3.6875 1.1875 -5.5625 C 1.1875 -6.425781 1.328125 -7.257812 1.609375 -8.0625 L 4.9375 -18.34375 C 5.113281 -18.9375 5.203125 -19.40625 5.203125 -19.75 C 5.203125 -20.4375 5.035156 -21.023438 4.703125 -21.515625 C 4.367188 -22.003906 3.910156 -22.503906 3.328125 -23.015625 C 2.804688 -23.503906 2.441406 -23.910156 2.234375 -24.234375 C 2.023438 -24.566406 1.972656 -24.957031 2.078125 -25.40625 C 2.210938 -25.863281 2.503906 -26.210938 2.953125 -26.453125 C 3.410156 -26.691406 4.125 -26.8125 5.09375 -26.8125 L 8 -26.8125 L 11.28125 -30.09375 C 12.425781 -31.238281 13.472656 -32.035156 14.421875 -32.484375 C 15.367188 -32.929688 16.609375 -33.15625 18.140625 -33.15625 C 20.316406 -33.15625 21.40625 -32.320312 21.40625 -30.65625 C 21.40625 -30.132812 21.335938 -29.648438 21.203125 -29.203125 L 20.46875 -26.8125 Z M 23.234375 -26.8125 "/></g></g></g><g fill="#000000" fill-opacity="0.4"><g transform="translate(166.715677, 221.34072)"><g><path d="M 31.859375 -7.171875 C 31.785156 -7.035156 31.75 -6.828125 31.75 -6.546875 C 31.75 -6.304688 31.804688 -6.113281 31.921875 -5.96875 C 32.046875 -5.832031 32.210938 -5.765625 32.421875 -5.765625 C 32.835938 -5.765625 33.191406 -5.945312 33.484375 -6.3125 C 33.785156 -6.675781 33.988281 -6.859375 34.09375 -6.859375 C 34.257812 -6.859375 34.394531 -6.742188 34.5 -6.515625 C 34.601562 -6.296875 34.65625 -6.03125 34.65625 -5.71875 C 34.695312 -4.707031 34.367188 -3.722656 33.671875 -2.765625 C 32.984375 -1.816406 31.972656 -1.039062 30.640625 -0.4375 C 29.304688 0.164062 27.703125 0.46875 25.828125 0.46875 C 23.546875 0.46875 21.726562 -0.0546875 20.375 -1.109375 C 19.019531 -2.171875 18.328125 -3.585938 18.296875 -5.359375 C 18.296875 -6.640625 18.609375 -8.078125 19.234375 -9.671875 L 22.09375 -17.15625 C 22.257812 -17.601562 22.34375 -17.960938 22.34375 -18.234375 C 22.34375 -18.691406 22.195312 -19.050781 21.90625 -19.3125 C 21.613281 -19.570312 21.257812 -19.703125 20.84375 -19.703125 C 20.1875 -19.703125 19.519531 -19.394531 18.84375 -18.78125 C 18.164062 -18.175781 17.617188 -17.195312 17.203125 -15.84375 L 17.203125 -15.953125 L 13.921875 -5.40625 C 13.816406 -4.988281 13.765625 -4.625 13.765625 -4.3125 C 13.765625 -3.863281 13.851562 -3.507812 14.03125 -3.25 C 14.207031 -2.988281 14.453125 -2.738281 14.765625 -2.5 C 15.003906 -2.25 15.175781 -2.046875 15.28125 -1.890625 C 15.382812 -1.734375 15.398438 -1.535156 15.328125 -1.296875 C 15.160156 -0.847656 14.816406 -0.519531 14.296875 -0.3125 C 13.773438 -0.101562 12.976562 0 11.90625 0 L 0.046875 0 C -0.847656 0 -1.503906 -0.144531 -1.921875 -0.4375 C -2.335938 -0.738281 -2.476562 -1.128906 -2.34375 -1.609375 C -2.195312 -2.023438 -1.832031 -2.390625 -1.25 -2.703125 C -0.726562 -2.984375 -0.296875 -3.3125 0.046875 -3.6875 C 0.398438 -4.070312 0.695312 -4.679688 0.9375 -5.515625 L 8.828125 -31.4375 C 8.929688 -31.75 8.984375 -32.007812 8.984375 -32.21875 C 8.984375 -32.601562 8.890625 -32.914062 8.703125 -33.15625 C 8.515625 -33.394531 8.265625 -33.640625 7.953125 -33.890625 C 7.609375 -34.160156 7.359375 -34.398438 7.203125 -34.609375 C 7.046875 -34.816406 7.019531 -35.09375 7.125 -35.4375 C 7.332031 -36.238281 8.421875 -36.929688 10.390625 -37.515625 C 12.367188 -38.109375 14.429688 -38.40625 16.578125 -38.40625 C 18.585938 -38.40625 20.066406 -38.023438 21.015625 -37.265625 C 21.972656 -36.503906 22.453125 -35.460938 22.453125 -34.140625 C 22.453125 -33.378906 22.332031 -32.632812 22.09375 -31.90625 L 19.28125 -22.765625 C 20.632812 -24.523438 22.0625 -25.75 23.5625 -26.4375 C 25.070312 -27.132812 26.710938 -27.484375 28.484375 -27.484375 C 30.597656 -27.484375 32.300781 -26.84375 33.59375 -25.5625 C 34.894531 -24.28125 35.546875 -22.617188 35.546875 -20.578125 C 35.546875 -19.503906 35.375 -18.445312 35.03125 -17.40625 Z M 31.859375 -7.171875 "/></g></g></g><g fill="#000000" fill-opacity="0.4"><g transform="translate(203.6077, 221.34072)"><g><path d="M 20.109375 -27.484375 C 24.828125 -27.484375 28.300781 -26.53125 30.53125 -24.625 C 32.769531 -22.726562 33.890625 -20.238281 33.890625 -17.15625 C 33.890625 -16.113281 33.75 -14.953125 33.46875 -13.671875 C 32.8125 -10.828125 31.582031 -8.335938 29.78125 -6.203125 C 27.976562 -4.078125 25.769531 -2.429688 23.15625 -1.265625 C 20.539062 -0.109375 17.707031 0.46875 14.65625 0.46875 C 9.84375 0.46875 6.28125 -0.488281 3.96875 -2.40625 C 1.664062 -4.332031 0.515625 -6.890625 0.515625 -10.078125 C 0.515625 -11.148438 0.65625 -12.347656 0.9375 -13.671875 C 1.59375 -16.367188 2.847656 -18.765625 4.703125 -20.859375 C 6.554688 -22.960938 8.820312 -24.59375 11.5 -25.75 C 14.1875 -26.90625 17.054688 -27.484375 20.109375 -27.484375 Z M 19.953125 -22.859375 C 19.222656 -22.859375 18.453125 -22.207031 17.640625 -20.90625 C 16.828125 -19.613281 15.867188 -17.164062 14.765625 -13.5625 C 13.648438 -9.957031 13.09375 -7.425781 13.09375 -5.96875 C 13.09375 -5.207031 13.210938 -4.695312 13.453125 -4.4375 C 13.703125 -4.175781 14.035156 -4.046875 14.453125 -4.046875 C 15.171875 -3.984375 15.921875 -4.609375 16.703125 -5.921875 C 17.484375 -7.242188 18.460938 -9.804688 19.640625 -13.609375 C 20.710938 -16.972656 21.25 -19.414062 21.25 -20.9375 C 21.25 -21.664062 21.132812 -22.164062 20.90625 -22.4375 C 20.6875 -22.71875 20.367188 -22.859375 19.953125 -22.859375 Z M 19.953125 -22.859375 "/></g></g></g><g fill="#000000" fill-opacity="0.4"><g transform="translate(237.693844, 221.34072)"><g><path d="M 32.171875 -7.171875 C 32.097656 -7.035156 32.0625 -6.828125 32.0625 -6.546875 C 32.0625 -6.304688 32.117188 -6.113281 32.234375 -5.96875 C 32.359375 -5.832031 32.523438 -5.765625 32.734375 -5.765625 C 33.148438 -5.765625 33.503906 -5.945312 33.796875 -6.3125 C 34.097656 -6.675781 34.300781 -6.859375 34.40625 -6.859375 C 34.570312 -6.859375 34.707031 -6.742188 34.8125 -6.515625 C 34.914062 -6.296875 34.96875 -6.03125 34.96875 -5.71875 C 35.007812 -4.707031 34.679688 -3.722656 33.984375 -2.765625 C 33.296875 -1.816406 32.285156 -1.039062 30.953125 -0.4375 C 29.617188 0.164062 28.015625 0.46875 26.140625 0.46875 C 23.847656 0.46875 22.023438 -0.0546875 20.671875 -1.109375 C 19.328125 -2.171875 18.640625 -3.585938 18.609375 -5.359375 C 18.609375 -6.640625 18.921875 -8.078125 19.546875 -9.671875 L 22.40625 -17.15625 C 22.570312 -17.601562 22.65625 -17.960938 22.65625 -18.234375 C 22.65625 -18.691406 22.507812 -19.050781 22.21875 -19.3125 C 21.925781 -19.570312 21.570312 -19.703125 21.15625 -19.703125 C 20.394531 -19.703125 19.664062 -19.34375 18.96875 -18.625 C 18.269531 -17.914062 17.769531 -17.039062 17.46875 -16 L 14.234375 -5.40625 C 14.097656 -5.019531 14.03125 -4.65625 14.03125 -4.3125 C 14.03125 -3.894531 14.113281 -3.554688 14.28125 -3.296875 C 14.457031 -3.035156 14.703125 -2.769531 15.015625 -2.5 C 15.253906 -2.289062 15.425781 -2.097656 15.53125 -1.921875 C 15.632812 -1.742188 15.65625 -1.535156 15.59375 -1.296875 C 15.445312 -0.847656 15.113281 -0.519531 14.59375 -0.3125 C 14.082031 -0.101562 13.269531 0 12.15625 0 L 0.3125 0 C -0.59375 0 -1.242188 -0.144531 -1.640625 -0.4375 C -2.035156 -0.738281 -2.179688 -1.128906 -2.078125 -1.609375 C -1.941406 -2.023438 -1.578125 -2.390625 -0.984375 -2.703125 C -0.460938 -2.984375 -0.03125 -3.3125 0.3125 -3.6875 C 0.65625 -4.070312 0.945312 -4.679688 1.1875 -5.515625 L 5.828125 -20.53125 C 5.890625 -20.695312 5.921875 -20.9375 5.921875 -21.25 C 5.921875 -21.632812 5.84375 -21.929688 5.6875 -22.140625 C 5.53125 -22.347656 5.28125 -22.609375 4.9375 -22.921875 C 4.59375 -23.191406 4.347656 -23.429688 4.203125 -23.640625 C 4.066406 -23.847656 4.050781 -24.128906 4.15625 -24.484375 C 4.363281 -25.273438 5.453125 -25.972656 7.421875 -26.578125 C 9.398438 -27.179688 11.460938 -27.484375 13.609375 -27.484375 C 15.347656 -27.484375 16.71875 -27.007812 17.71875 -26.0625 C 18.726562 -25.113281 19.179688 -23.789062 19.078125 -22.09375 C 20.492188 -24.132812 22 -25.539062 23.59375 -26.3125 C 25.1875 -27.09375 26.921875 -27.484375 28.796875 -27.484375 C 30.898438 -27.484375 32.601562 -26.84375 33.90625 -25.5625 C 35.207031 -24.28125 35.859375 -22.617188 35.859375 -20.578125 C 35.859375 -19.503906 35.6875 -18.445312 35.34375 -17.40625 Z M 32.171875 -7.171875 "/></g></g></g><g fill="#000000" fill-opacity="0.4"><g transform="translate(274.897637, 221.34072)"><g><path d="M 27.546875 -27.484375 C 29.066406 -27.484375 30.285156 -26.867188 31.203125 -25.640625 C 32.117188 -24.410156 32.578125 -22.738281 32.578125 -20.625 C 32.578125 -18.789062 32.25 -16.816406 31.59375 -14.703125 C 30.3125 -10.441406 28.257812 -6.421875 25.4375 -2.640625 C 22.613281 1.128906 19.375 4.15625 15.71875 6.4375 C 12.0625 8.726562 8.414062 9.875 4.78125 9.875 C 2.976562 9.875 1.425781 9.5625 0.125 8.9375 C -1.164062 8.3125 -2.148438 7.476562 -2.828125 6.4375 C -3.503906 5.40625 -3.84375 4.300781 -3.84375 3.125 C -3.84375 2.601562 -3.753906 2.03125 -3.578125 1.40625 C -3.273438 0.4375 -2.757812 -0.304688 -2.03125 -0.828125 C -1.300781 -1.347656 -0.429688 -1.609375 0.578125 -1.609375 C 2.171875 -1.609375 3.476562 -1.066406 4.5 0.015625 C 5.519531 1.109375 6.164062 2.609375 6.4375 4.515625 C 8.65625 4.410156 10.703125 3.457031 12.578125 1.65625 C 10.804688 1.34375 9.492188 0.75 8.640625 -0.125 C 7.796875 -1.007812 7.21875 -2.390625 6.90625 -4.265625 L 4.828125 -17 C 4.722656 -17.65625 4.578125 -18.113281 4.390625 -18.375 C 4.203125 -18.632812 3.953125 -18.765625 3.640625 -18.765625 C 3.398438 -18.765625 3.113281 -18.640625 2.78125 -18.390625 C 2.445312 -18.148438 2.210938 -18.03125 2.078125 -18.03125 C 1.796875 -18.03125 1.65625 -18.328125 1.65625 -18.921875 C 1.65625 -19.398438 1.742188 -19.914062 1.921875 -20.46875 C 2.546875 -22.445312 3.707031 -24.117188 5.40625 -25.484375 C 7.101562 -26.859375 9.078125 -27.546875 11.328125 -27.546875 C 13.546875 -27.546875 15.179688 -26.882812 16.234375 -25.5625 C 17.296875 -24.25 17.984375 -22.222656 18.296875 -19.484375 L 19.859375 -8.0625 C 19.960938 -7.1875 20.269531 -6.75 20.78125 -6.75 C 21.40625 -6.75 22.132812 -7.3125 22.96875 -8.4375 C 23.800781 -9.570312 24.613281 -11.175781 25.40625 -13.25 C 24.375 -14.1875 23.578125 -15.257812 23.015625 -16.46875 C 22.460938 -17.6875 22.1875 -18.988281 22.1875 -20.375 C 22.1875 -21.445312 22.328125 -22.414062 22.609375 -23.28125 C 23.023438 -24.664062 23.671875 -25.710938 24.546875 -26.421875 C 25.429688 -27.128906 26.429688 -27.484375 27.546875 -27.484375 Z M 27.546875 -27.484375 "/></g></g></g><g fill="#004aad" fill-opacity="1"><g transform="translate(68.603906, 219.044285)"><g><path d="M 31.75 -6.125 C 31.613281 -5.675781 31.546875 -5.226562 31.546875 -4.78125 C 31.546875 -4.394531 31.597656 -4.070312 31.703125 -3.8125 C 31.804688 -3.5625 31.914062 -3.359375 32.03125 -3.203125 C 32.15625 -3.046875 32.234375 -2.929688 32.265625 -2.859375 C 32.617188 -2.515625 32.796875 -2.164062 32.796875 -1.8125 C 32.796875 -1.75 32.757812 -1.578125 32.6875 -1.296875 C 32.550781 -0.816406 32.25 -0.476562 31.78125 -0.28125 C 31.3125 -0.09375 30.59375 0 29.625 0 L 17.3125 0 C 16.582031 0 16.015625 -0.117188 15.609375 -0.359375 C 15.210938 -0.609375 15.015625 -0.9375 15.015625 -1.34375 C 15.015625 -1.550781 15.066406 -1.78125 15.171875 -2.03125 C 15.273438 -2.300781 15.421875 -2.515625 15.609375 -2.671875 C 15.804688 -2.828125 16.078125 -3.007812 16.421875 -3.21875 C 16.972656 -3.53125 17.421875 -3.875 17.765625 -4.25 C 18.117188 -4.632812 18.414062 -5.257812 18.65625 -6.125 L 20.015625 -10.609375 L 11.90625 -10.609375 L 10.5 -7.640625 C 9.90625 -6.359375 9.609375 -5.351562 9.609375 -4.625 C 9.609375 -4.207031 9.675781 -3.867188 9.8125 -3.609375 C 9.957031 -3.347656 10.171875 -3.082031 10.453125 -2.8125 C 10.691406 -2.53125 10.851562 -2.289062 10.9375 -2.09375 C 11.019531 -1.90625 11.03125 -1.65625 10.96875 -1.34375 C 10.820312 -0.832031 10.53125 -0.476562 10.09375 -0.28125 C 9.664062 -0.09375 8.988281 0 8.0625 0 L 0.3125 0 C -0.488281 0 -1.09375 -0.144531 -1.5 -0.4375 C -1.914062 -0.738281 -2.125 -1.128906 -2.125 -1.609375 C -2.125 -2.160156 -1.925781 -2.601562 -1.53125 -2.9375 C -1.132812 -3.269531 -0.535156 -3.625 0.265625 -4 C 1.296875 -4.519531 2.125 -5.03125 2.75 -5.53125 C 3.375 -6.03125 3.910156 -6.734375 4.359375 -7.640625 L 13.609375 -26.8125 C 15.035156 -29.789062 16.707031 -31.945312 18.625 -33.28125 C 20.550781 -34.613281 23.09375 -35.28125 26.25 -35.28125 C 29.78125 -35.28125 32.515625 -34.5625 34.453125 -33.125 C 36.390625 -31.6875 37.359375 -29.6875 37.359375 -27.125 C 37.359375 -26.050781 37.1875 -24.941406 36.84375 -23.796875 Z M 21.5625 -15.796875 L 24.328125 -24.9375 C 24.460938 -25.351562 24.53125 -25.789062 24.53125 -26.25 C 24.53125 -26.90625 24.347656 -27.394531 23.984375 -27.71875 C 23.617188 -28.050781 23.109375 -28.21875 22.453125 -28.21875 C 21.617188 -28.21875 20.90625 -27.972656 20.3125 -27.484375 C 19.726562 -27.003906 19.140625 -26.140625 18.546875 -24.890625 L 14.296875 -15.796875 Z M 21.5625 -15.796875 "/></g></g></g><g fill="#004aad" fill-opacity="1"><g transform="translate(104.872399, 219.044285)"><g><path d="M 32.171875 -7.171875 C 32.097656 -7.035156 32.0625 -6.828125 32.0625 -6.546875 C 32.0625 -6.304688 32.117188 -6.113281 32.234375 -5.96875 C 32.359375 -5.832031 32.523438 -5.765625 32.734375 -5.765625 C 33.148438 -5.765625 33.503906 -5.945312 33.796875 -6.3125 C 34.097656 -6.675781 34.300781 -6.859375 34.40625 -6.859375 C 34.570312 -6.859375 34.707031 -6.742188 34.8125 -6.515625 C 34.914062 -6.296875 34.96875 -6.03125 34.96875 -5.71875 C 35.007812 -4.707031 34.679688 -3.722656 33.984375 -2.765625 C 33.296875 -1.816406 32.285156 -1.039062 30.953125 -0.4375 C 29.617188 0.164062 28.015625 0.46875 26.140625 0.46875 C 23.847656 0.46875 22.023438 -0.0546875 20.671875 -1.109375 C 19.328125 -2.171875 18.640625 -3.585938 18.609375 -5.359375 C 18.609375 -6.640625 18.921875 -8.078125 19.546875 -9.671875 L 22.40625 -17.15625 C 22.570312 -17.601562 22.65625 -17.960938 22.65625 -18.234375 C 22.65625 -18.691406 22.507812 -19.050781 22.21875 -19.3125 C 21.925781 -19.570312 21.570312 -19.703125 21.15625 -19.703125 C 20.394531 -19.703125 19.664062 -19.34375 18.96875 -18.625 C 18.269531 -17.914062 17.769531 -17.039062 17.46875 -16 L 14.234375 -5.40625 C 14.097656 -5.019531 14.03125 -4.65625 14.03125 -4.3125 C 14.03125 -3.894531 14.113281 -3.554688 14.28125 -3.296875 C 14.457031 -3.035156 14.703125 -2.769531 15.015625 -2.5 C 15.253906 -2.289062 15.425781 -2.097656 15.53125 -1.921875 C 15.632812 -1.742188 15.65625 -1.535156 15.59375 -1.296875 C 15.445312 -0.847656 15.113281 -0.519531 14.59375 -0.3125 C 14.082031 -0.101562 13.269531 0 12.15625 0 L 0.3125 0 C -0.59375 0 -1.242188 -0.144531 -1.640625 -0.4375 C -2.035156 -0.738281 -2.179688 -1.128906 -2.078125 -1.609375 C -1.941406 -2.023438 -1.578125 -2.390625 -0.984375 -2.703125 C -0.460938 -2.984375 -0.03125 -3.3125 0.3125 -3.6875 C 0.65625 -4.070312 0.945312 -4.679688 1.1875 -5.515625 L 5.828125 -20.53125 C 5.890625 -20.695312 5.921875 -20.9375 5.921875 -21.25 C 5.921875 -21.632812 5.84375 -21.929688 5.6875 -22.140625 C 5.53125 -22.347656 5.28125 -22.609375 4.9375 -22.921875 C 4.59375 -23.191406 4.347656 -23.429688 4.203125 -23.640625 C 4.066406 -23.847656 4.050781 -24.128906 4.15625 -24.484375 C 4.363281 -25.273438 5.453125 -25.972656 7.421875 -26.578125 C 9.398438 -27.179688 11.460938 -27.484375 13.609375 -27.484375 C 15.347656 -27.484375 16.71875 -27.007812 17.71875 -26.0625 C 18.726562 -25.113281 19.179688 -23.789062 19.078125 -22.09375 C 20.492188 -24.132812 22 -25.539062 23.59375 -26.3125 C 25.1875 -27.09375 26.921875 -27.484375 28.796875 -27.484375 C 30.898438 -27.484375 32.601562 -26.84375 33.90625 -25.5625 C 35.207031 -24.28125 35.859375 -22.617188 35.859375 -20.578125 C 35.859375 -19.503906 35.6875 -18.445312 35.34375 -17.40625 Z M 32.171875 -7.171875 "/></g></g></g><g fill="#004aad" fill-opacity="1"><g transform="translate(142.076186, 219.044285)"><g><path d="M 23.234375 -26.8125 C 23.890625 -26.8125 24.398438 -26.671875 24.765625 -26.390625 C 25.128906 -26.117188 25.3125 -25.738281 25.3125 -25.25 C 25.3125 -25.113281 25.273438 -24.875 25.203125 -24.53125 C 24.753906 -23.007812 23.71875 -22.25 22.09375 -22.25 L 19.078125 -22.25 L 15.171875 -9.40625 C 15.003906 -8.882812 14.921875 -8.347656 14.921875 -7.796875 C 14.921875 -7.171875 15.09375 -6.734375 15.4375 -6.484375 C 15.78125 -6.242188 16.265625 -6.125 16.890625 -6.125 C 17.441406 -6.125 18.132812 -6.195312 18.96875 -6.34375 C 19.382812 -6.445312 19.75 -6.5 20.0625 -6.5 C 20.300781 -6.5 20.476562 -6.421875 20.59375 -6.265625 C 20.71875 -6.109375 20.78125 -5.910156 20.78125 -5.671875 C 20.820312 -4.972656 20.3125 -4.128906 19.25 -3.140625 C 18.195312 -2.148438 16.769531 -1.300781 14.96875 -0.59375 C 13.164062 0.113281 11.171875 0.46875 8.984375 0.46875 C 6.628906 0.46875 4.738281 -0.0664062 3.3125 -1.140625 C 1.894531 -2.210938 1.1875 -3.6875 1.1875 -5.5625 C 1.1875 -6.425781 1.328125 -7.257812 1.609375 -8.0625 L 4.9375 -18.34375 C 5.113281 -18.9375 5.203125 -19.40625 5.203125 -19.75 C 5.203125 -20.4375 5.035156 -21.023438 4.703125 -21.515625 C 4.367188 -22.003906 3.910156 -22.503906 3.328125 -23.015625 C 2.804688 -23.503906 2.441406 -23.910156 2.234375 -24.234375 C 2.023438 -24.566406 1.972656 -24.957031 2.078125 -25.40625 C 2.210938 -25.863281 2.503906 -26.210938 2.953125 -26.453125 C 3.410156 -26.691406 4.125 -26.8125 5.09375 -26.8125 L 8 -26.8125 L 11.28125 -30.09375 C 12.425781 -31.238281 13.472656 -32.035156 14.421875 -32.484375 C 15.367188 -32.929688 16.609375 -33.15625 18.140625 -33.15625 C 20.316406 -33.15625 21.40625 -32.320312 21.40625 -30.65625 C 21.40625 -30.132812 21.335938 -29.648438 21.203125 -29.203125 L 20.46875 -26.8125 Z M 23.234375 -26.8125 "/></g></g></g><g fill="#004aad" fill-opacity="1"><g transform="translate(164.419242, 219.044285)"><g><path d="M 31.859375 -7.171875 C 31.785156 -7.035156 31.75 -6.828125 31.75 -6.546875 C 31.75 -6.304688 31.804688 -6.113281 31.921875 -5.96875 C 32.046875 -5.832031 32.210938 -5.765625 32.421875 -5.765625 C 32.835938 -5.765625 33.191406 -5.945312 33.484375 -6.3125 C 33.785156 -6.675781 33.988281 -6.859375 34.09375 -6.859375 C 34.257812 -6.859375 34.394531 -6.742188 34.5 -6.515625 C 34.601562 -6.296875 34.65625 -6.03125 34.65625 -5.71875 C 34.695312 -4.707031 34.367188 -3.722656 33.671875 -2.765625 C 32.984375 -1.816406 31.972656 -1.039062 30.640625 -0.4375 C 29.304688 0.164062 27.703125 0.46875 25.828125 0.46875 C 23.546875 0.46875 21.726562 -0.0546875 20.375 -1.109375 C 19.019531 -2.171875 18.328125 -3.585938 18.296875 -5.359375 C 18.296875 -6.640625 18.609375 -8.078125 19.234375 -9.671875 L 22.09375 -17.15625 C 22.257812 -17.601562 22.34375 -17.960938 22.34375 -18.234375 C 22.34375 -18.691406 22.195312 -19.050781 21.90625 -19.3125 C 21.613281 -19.570312 21.257812 -19.703125 20.84375 -19.703125 C 20.1875 -19.703125 19.519531 -19.394531 18.84375 -18.78125 C 18.164062 -18.175781 17.617188 -17.195312 17.203125 -15.84375 L 17.203125 -15.953125 L 13.921875 -5.40625 C 13.816406 -4.988281 13.765625 -4.625 13.765625 -4.3125 C 13.765625 -3.863281 13.851562 -3.507812 14.03125 -3.25 C 14.207031 -2.988281 14.453125 -2.738281 14.765625 -2.5 C 15.003906 -2.25 15.175781 -2.046875 15.28125 -1.890625 C 15.382812 -1.734375 15.398438 -1.535156 15.328125 -1.296875 C 15.160156 -0.847656 14.816406 -0.519531 14.296875 -0.3125 C 13.773438 -0.101562 12.976562 0 11.90625 0 L 0.046875 0 C -0.847656 0 -1.503906 -0.144531 -1.921875 -0.4375 C -2.335938 -0.738281 -2.476562 -1.128906 -2.34375 -1.609375 C -2.195312 -2.023438 -1.832031 -2.390625 -1.25 -2.703125 C -0.726562 -2.984375 -0.296875 -3.3125 0.046875 -3.6875 C 0.398438 -4.070312 0.695312 -4.679688 0.9375 -5.515625 L 8.828125 -31.4375 C 8.929688 -31.75 8.984375 -32.007812 8.984375 -32.21875 C 8.984375 -32.601562 8.890625 -32.914062 8.703125 -33.15625 C 8.515625 -33.394531 8.265625 -33.640625 7.953125 -33.890625 C 7.609375 -34.160156 7.359375 -34.398438 7.203125 -34.609375 C 7.046875 -34.816406 7.019531 -35.09375 7.125 -35.4375 C 7.332031 -36.238281 8.421875 -36.929688 10.390625 -37.515625 C 12.367188 -38.109375 14.429688 -38.40625 16.578125 -38.40625 C 18.585938 -38.40625 20.066406 -38.023438 21.015625 -37.265625 C 21.972656 -36.503906 22.453125 -35.460938 22.453125 -34.140625 C 22.453125 -33.378906 22.332031 -32.632812 22.09375 -31.90625 L 19.28125 -22.765625 C 20.632812 -24.523438 22.0625 -25.75 23.5625 -26.4375 C 25.070312 -27.132812 26.710938 -27.484375 28.484375 -27.484375 C 30.597656 -27.484375 32.300781 -26.84375 33.59375 -25.5625 C 34.894531 -24.28125 35.546875 -22.617188 35.546875 -20.578125 C 35.546875 -19.503906 35.375 -18.445312 35.03125 -17.40625 Z M 31.859375 -7.171875 "/></g></g></g><g fill="#004aad" fill-opacity="1"><g transform="translate(201.311264, 219.044285)"><g><path d="M 20.109375 -27.484375 C 24.828125 -27.484375 28.300781 -26.53125 30.53125 -24.625 C 32.769531 -22.726562 33.890625 -20.238281 33.890625 -17.15625 C 33.890625 -16.113281 33.75 -14.953125 33.46875 -13.671875 C 32.8125 -10.828125 31.582031 -8.335938 29.78125 -6.203125 C 27.976562 -4.078125 25.769531 -2.429688 23.15625 -1.265625 C 20.539062 -0.109375 17.707031 0.46875 14.65625 0.46875 C 9.84375 0.46875 6.28125 -0.488281 3.96875 -2.40625 C 1.664062 -4.332031 0.515625 -6.890625 0.515625 -10.078125 C 0.515625 -11.148438 0.65625 -12.347656 0.9375 -13.671875 C 1.59375 -16.367188 2.847656 -18.765625 4.703125 -20.859375 C 6.554688 -22.960938 8.820312 -24.59375 11.5 -25.75 C 14.1875 -26.90625 17.054688 -27.484375 20.109375 -27.484375 Z M 19.953125 -22.859375 C 19.222656 -22.859375 18.453125 -22.207031 17.640625 -20.90625 C 16.828125 -19.613281 15.867188 -17.164062 14.765625 -13.5625 C 13.648438 -9.957031 13.09375 -7.425781 13.09375 -5.96875 C 13.09375 -5.207031 13.210938 -4.695312 13.453125 -4.4375 C 13.703125 -4.175781 14.035156 -4.046875 14.453125 -4.046875 C 15.171875 -3.984375 15.921875 -4.609375 16.703125 -5.921875 C 17.484375 -7.242188 18.460938 -9.804688 19.640625 -13.609375 C 20.710938 -16.972656 21.25 -19.414062 21.25 -20.9375 C 21.25 -21.664062 21.132812 -22.164062 20.90625 -22.4375 C 20.6875 -22.71875 20.367188 -22.859375 19.953125 -22.859375 Z M 19.953125 -22.859375 "/></g></g></g><g fill="#004aad" fill-opacity="1"><g transform="translate(235.397409, 219.044285)"><g><path d="M 32.171875 -7.171875 C 32.097656 -7.035156 32.0625 -6.828125 32.0625 -6.546875 C 32.0625 -6.304688 32.117188 -6.113281 32.234375 -5.96875 C 32.359375 -5.832031 32.523438 -5.765625 32.734375 -5.765625 C 33.148438 -5.765625 33.503906 -5.945312 33.796875 -6.3125 C 34.097656 -6.675781 34.300781 -6.859375 34.40625 -6.859375 C 34.570312 -6.859375 34.707031 -6.742188 34.8125 -6.515625 C 34.914062 -6.296875 34.96875 -6.03125 34.96875 -5.71875 C 35.007812 -4.707031 34.679688 -3.722656 33.984375 -2.765625 C 33.296875 -1.816406 32.285156 -1.039062 30.953125 -0.4375 C 29.617188 0.164062 28.015625 0.46875 26.140625 0.46875 C 23.847656 0.46875 22.023438 -0.0546875 20.671875 -1.109375 C 19.328125 -2.171875 18.640625 -3.585938 18.609375 -5.359375 C 18.609375 -6.640625 18.921875 -8.078125 19.546875 -9.671875 L 22.40625 -17.15625 C 22.570312 -17.601562 22.65625 -17.960938 22.65625 -18.234375 C 22.65625 -18.691406 22.507812 -19.050781 22.21875 -19.3125 C 21.925781 -19.570312 21.570312 -19.703125 21.15625 -19.703125 C 20.394531 -19.703125 19.664062 -19.34375 18.96875 -18.625 C 18.269531 -17.914062 17.769531 -17.039062 17.46875 -16 L 14.234375 -5.40625 C 14.097656 -5.019531 14.03125 -4.65625 14.03125 -4.3125 C 14.03125 -3.894531 14.113281 -3.554688 14.28125 -3.296875 C 14.457031 -3.035156 14.703125 -2.769531 15.015625 -2.5 C 15.253906 -2.289062 15.425781 -2.097656 15.53125 -1.921875 C 15.632812 -1.742188 15.65625 -1.535156 15.59375 -1.296875 C 15.445312 -0.847656 15.113281 -0.519531 14.59375 -0.3125 C 14.082031 -0.101562 13.269531 0 12.15625 0 L 0.3125 0 C -0.59375 0 -1.242188 -0.144531 -1.640625 -0.4375 C -2.035156 -0.738281 -2.179688 -1.128906 -2.078125 -1.609375 C -1.941406 -2.023438 -1.578125 -2.390625 -0.984375 -2.703125 C -0.460938 -2.984375 -0.03125 -3.3125 0.3125 -3.6875 C 0.65625 -4.070312 0.945312 -4.679688 1.1875 -5.515625 L 5.828125 -20.53125 C 5.890625 -20.695312 5.921875 -20.9375 5.921875 -21.25 C 5.921875 -21.632812 5.84375 -21.929688 5.6875 -22.140625 C 5.53125 -22.347656 5.28125 -22.609375 4.9375 -22.921875 C 4.59375 -23.191406 4.347656 -23.429688 4.203125 -23.640625 C 4.066406 -23.847656 4.050781 -24.128906 4.15625 -24.484375 C 4.363281 -25.273438 5.453125 -25.972656 7.421875 -26.578125 C 9.398438 -27.179688 11.460938 -27.484375 13.609375 -27.484375 C 15.347656 -27.484375 16.71875 -27.007812 17.71875 -26.0625 C 18.726562 -25.113281 19.179688 -23.789062 19.078125 -22.09375 C 20.492188 -24.132812 22 -25.539062 23.59375 -26.3125 C 25.1875 -27.09375 26.921875 -27.484375 28.796875 -27.484375 C 30.898438 -27.484375 32.601562 -26.84375 33.90625 -25.5625 C 35.207031 -24.28125 35.859375 -22.617188 35.859375 -20.578125 C 35.859375 -19.503906 35.6875 -18.445312 35.34375 -17.40625 Z M 32.171875 -7.171875 "/></g></g></g><g fill="#004aad" fill-opacity="1"><g transform="translate(272.601202, 219.044285)"><g><path d="M 27.546875 -27.484375 C 29.066406 -27.484375 30.285156 -26.867188 31.203125 -25.640625 C 32.117188 -24.410156 32.578125 -22.738281 32.578125 -20.625 C 32.578125 -18.789062 32.25 -16.816406 31.59375 -14.703125 C 30.3125 -10.441406 28.257812 -6.421875 25.4375 -2.640625 C 22.613281 1.128906 19.375 4.15625 15.71875 6.4375 C 12.0625 8.726562 8.414062 9.875 4.78125 9.875 C 2.976562 9.875 1.425781 9.5625 0.125 8.9375 C -1.164062 8.3125 -2.148438 7.476562 -2.828125 6.4375 C -3.503906 5.40625 -3.84375 4.300781 -3.84375 3.125 C -3.84375 2.601562 -3.753906 2.03125 -3.578125 1.40625 C -3.273438 0.4375 -2.757812 -0.304688 -2.03125 -0.828125 C -1.300781 -1.347656 -0.429688 -1.609375 0.578125 -1.609375 C 2.171875 -1.609375 3.476562 -1.066406 4.5 0.015625 C 5.519531 1.109375 6.164062 2.609375 6.4375 4.515625 C 8.65625 4.410156 10.703125 3.457031 12.578125 1.65625 C 10.804688 1.34375 9.492188 0.75 8.640625 -0.125 C 7.796875 -1.007812 7.21875 -2.390625 6.90625 -4.265625 L 4.828125 -17 C 4.722656 -17.65625 4.578125 -18.113281 4.390625 -18.375 C 4.203125 -18.632812 3.953125 -18.765625 3.640625 -18.765625 C 3.398438 -18.765625 3.113281 -18.640625 2.78125 -18.390625 C 2.445312 -18.148438 2.210938 -18.03125 2.078125 -18.03125 C 1.796875 -18.03125 1.65625 -18.328125 1.65625 -18.921875 C 1.65625 -19.398438 1.742188 -19.914062 1.921875 -20.46875 C 2.546875 -22.445312 3.707031 -24.117188 5.40625 -25.484375 C 7.101562 -26.859375 9.078125 -27.546875 11.328125 -27.546875 C 13.546875 -27.546875 15.179688 -26.882812 16.234375 -25.5625 C 17.296875 -24.25 17.984375 -22.222656 18.296875 -19.484375 L 19.859375 -8.0625 C 19.960938 -7.1875 20.269531 -6.75 20.78125 -6.75 C 21.40625 -6.75 22.132812 -7.3125 22.96875 -8.4375 C 23.800781 -9.570312 24.613281 -11.175781 25.40625 -13.25 C 24.375 -14.1875 23.578125 -15.257812 23.015625 -16.46875 C 22.460938 -17.6875 22.1875 -18.988281 22.1875 -20.375 C 22.1875 -21.445312 22.328125 -22.414062 22.609375 -23.28125 C 23.023438 -24.664062 23.671875 -25.710938 24.546875 -26.421875 C 25.429688 -27.128906 26.429688 -27.484375 27.546875 -27.484375 Z M 27.546875 -27.484375 "/></g></g></g></svg>