<svg xmlns="http://www.w3.org/2000/svg" xmlns:xlink="http://www.w3.org/1999/xlink" width="500" zoomAndPan="magnify" viewBox="0 0 375 374.999991" height="500" preserveAspectRatio="xMidYMid meet" version="1.0"><defs><clipPath id="93ef262ea6"><path d="M 117.300781 100.128906 L 245.550781 100.128906 L 245.550781 250.128906 L 117.300781 250.128906 Z M 117.300781 100.128906 " clip-rule="nonzero"/></clipPath><clipPath id="4dc8ff9d36"><path d="M 156 153 L 268 153 L 268 253 L 156 253 Z M 156 153 " clip-rule="nonzero"/></clipPath><clipPath id="e1d715c263"><path d="M 158.757812 151.777344 L 270.246094 154.6875 L 267.699219 252.238281 L 156.210938 249.328125 Z M 158.757812 151.777344 " clip-rule="nonzero"/></clipPath><clipPath id="8d26f6bfdc"><path d="M 214.5 153.230469 L 267.699219 252.238281 L 156.210938 249.328125 Z M 214.5 153.230469 " clip-rule="nonzero"/></clipPath><clipPath id="17a00fcbb0"><path d="M 188 171 L 253 171 L 253 242 L 188 242 Z M 188 171 " clip-rule="nonzero"/></clipPath><clipPath id="2aacfcb522"><path d="M 190.042969 170.230469 L 254.1875 171.90625 L 252.363281 241.917969 L 188.214844 240.246094 Z M 190.042969 170.230469 " clip-rule="nonzero"/></clipPath><clipPath id="d3cb7fd147"><path d="M 222.117188 171.066406 L 252.363281 241.917969 L 188.214844 240.246094 Z M 222.117188 171.066406 " clip-rule="nonzero"/></clipPath><clipPath id="49b137fd32"><path d="M 179 159 L 272 159 L 272 253 L 179 253 Z M 179 159 " clip-rule="nonzero"/></clipPath><clipPath id="29fa94d751"><path d="M 182.039062 158.671875 L 274.371094 161.082031 L 271.996094 252.238281 L 179.660156 249.828125 Z M 182.039062 158.671875 " clip-rule="nonzero"/></clipPath><clipPath id="22c08315d2"><path d="M 228.207031 159.878906 L 271.996094 252.238281 L 179.660156 249.828125 Z M 228.207031 159.878906 " clip-rule="nonzero"/></clipPath><clipPath id="8bdda46051"><path d="M 193 170 L 252 170 L 252 265 L 193 265 Z M 193 170 " clip-rule="nonzero"/></clipPath><clipPath id="0950b0bb11"><path d="M 278.394531 255.007812 L 225.273438 274.863281 L 193.582031 190.082031 L 246.703125 170.222656 Z M 278.394531 255.007812 " clip-rule="nonzero"/></clipPath><clipPath id="94c455c405"><path d="M 251.835938 264.933594 L 193.582031 190.082031 L 246.703125 170.222656 Z M 251.835938 264.933594 " clip-rule="nonzero"/></clipPath><clipPath id="5cb291dd01"><path d="M 205 181 L 245 181 L 245 245 L 205 245 Z M 205 181 " clip-rule="nonzero"/></clipPath><clipPath id="8bd72360ad"><path d="M 262.128906 238.199219 L 226.589844 251.484375 L 205.390625 194.765625 L 240.929688 181.480469 Z M 262.128906 238.199219 " clip-rule="nonzero"/></clipPath><clipPath id="83517f3b87"><path d="M 244.359375 244.84375 L 205.390625 194.765625 L 240.929688 181.480469 Z M 244.359375 244.84375 " clip-rule="nonzero"/></clipPath><clipPath id="c4aa1fcd08"><path d="M 248.535156 100.128906 L 274.363281 100.128906 L 274.363281 252.234375 L 248.535156 252.234375 Z M 248.535156 100.128906 " clip-rule="nonzero"/></clipPath></defs><g clip-path="url(#93ef262ea6)"><path fill="#000000" d="M 117.351562 100.128906 L 117.351562 105.785156 L 132.566406 105.785156 L 132.566406 244.292969 L 120.292969 244.292969 L 120.292969 250.128906 L 167.917969 250.128906 L 167.917969 244.292969 L 156.183594 244.292969 L 156.183594 173.363281 L 201.019531 173.363281 L 201.019531 165.191406 L 156.183594 165.191406 L 156.183594 105.785156 L 197.660156 105.785156 C 220.738281 105.785156 231.632812 116.980469 236.644531 134.21875 L 245.496094 134.21875 L 245.496094 100.128906 Z M 117.351562 100.128906 " fill-opacity="1" fill-rule="nonzero"/></g><g clip-path="url(#4dc8ff9d36)"><g clip-path="url(#e1d715c263)"><g clip-path="url(#8d26f6bfdc)"><path fill="#000000" d="M 158.757812 151.777344 L 270.246094 154.6875 L 267.699219 252.238281 L 156.210938 249.328125 Z M 158.757812 151.777344 " fill-opacity="1" fill-rule="nonzero"/></g></g></g><g clip-path="url(#17a00fcbb0)"><g clip-path="url(#2aacfcb522)"><g clip-path="url(#d3cb7fd147)"><path fill="#ffffff" d="M 190.042969 170.230469 L 254.1875 171.90625 L 252.363281 241.917969 L 188.214844 240.246094 Z M 190.042969 170.230469 " fill-opacity="1" fill-rule="nonzero"/></g></g></g><g clip-path="url(#49b137fd32)"><g clip-path="url(#29fa94d751)"><g clip-path="url(#22c08315d2)"><path fill="#000000" d="M 182.039062 158.671875 L 274.371094 161.082031 L 271.996094 252.238281 L 179.660156 249.828125 Z M 182.039062 158.671875 " fill-opacity="1" fill-rule="nonzero"/></g></g></g><g clip-path="url(#8bdda46051)"><g clip-path="url(#0950b0bb11)"><g clip-path="url(#94c455c405)"><path fill="#ffffff" d="M 278.394531 255.007812 L 225.273438 274.863281 L 193.582031 190.082031 L 246.703125 170.222656 Z M 278.394531 255.007812 " fill-opacity="1" fill-rule="nonzero"/></g></g></g><g clip-path="url(#5cb291dd01)"><g clip-path="url(#8bd72360ad)"><g clip-path="url(#83517f3b87)"><path fill="#004aad" d="M 262.128906 238.199219 L 226.589844 251.484375 L 205.390625 194.765625 L 240.929688 181.480469 Z M 262.128906 238.199219 " fill-opacity="1" fill-rule="nonzero"/></g></g></g><g clip-path="url(#c4aa1fcd08)"><path fill="#ffffff" d="M 274.363281 100.128906 L 274.363281 252.234375 L 248.535156 252.234375 L 248.535156 100.128906 Z M 274.363281 100.128906 " fill-opacity="1" fill-rule="nonzero"/></g></svg>